<?xml version="1.0" standalone="no"?>
<!DOCTYPE svg PUBLIC "-//W3C//DTD SVG 1.1//EN" "http://www.w3.org/Graphics/SVG/1.1/DTD/svg11.dtd" >
<svg xmlns="http://www.w3.org/2000/svg" xmlns:xlink="http://www.w3.org/1999/xlink" version="1.1">
<metadata>
Created by FontForge 20170731 at Fri Jul 22 20:49:30 2011
 By Aleksey,,,
Copyright (c) 2011 by vernon adams. All rights reserved. withReserved Font Names "Tienne" and "Tienne Regular". ThisFont Software is licensed under the SIL Open Font License, Version1.1. This license is available with a FAQ at:http://scripts.sil.org/OFL
</metadata>
<defs>
<font id="Tienne-Bold" horiz-adv-x="1291" >
  <font-face 
    font-family="Tienne"
    font-weight="700"
    font-stretch="normal"
    units-per-em="2048"
    panose-1="2 0 8 5 7 0 0 2 0 4"
    ascent="1638"
    descent="-410"
    x-height="1012"
    cap-height="1419"
    bbox="-375 -795 2420 2000"
    underline-thickness="102"
    underline-position="-409"
    unicode-range="U+0002-FB02"
  />
<missing-glyph horiz-adv-x="531" 
 />
    <glyph glyph-name=".notdef" horiz-adv-x="531" 
 />
    <glyph glyph-name=".null" horiz-adv-x="0" 
 />
    <glyph glyph-name="nonmarkingreturn" horiz-adv-x="682" 
 />
    <glyph glyph-name="uni0002" horiz-adv-x="0" 
 />
    <glyph glyph-name="uni0009" unicode="&#x9;" horiz-adv-x="0" 
 />
    <glyph glyph-name="space" unicode=" " horiz-adv-x="532" 
 />
    <glyph glyph-name="exclam" unicode="!" horiz-adv-x="786" 
d="M399 -22q-78 0 -123.5 46t-45.5 117q0 69 46.5 116t122.5 47t122.5 -47.5t46.5 -115.5q0 -71 -45.5 -117t-123.5 -46zM491 435q-37 -17 -78 -17q-69 0 -92 17t-27 72q-42 472 -52 600q-5 54 -11.5 115t-10.5 98t-4 50q0 2 0.5 5t0.5 4q62 56 181 56q82 0 121.5 -21.5
t39.5 -85.5q0 -36 -2 -59l-39 -452q-28 -312 -27 -382z" />
    <glyph glyph-name="quotedbl" unicode="&#x22;" horiz-adv-x="922" 
d="M794 1337q-29 -274 -40 -398q-45 -20 -86 -20q-31 0 -55 16q-25 4 -34 24.5t-13 57.5q-32 318 -36 395q54 42 145 42q78 0 98 -51q21 -30 21 -66zM390 1337q-29 -274 -40 -398q-44 -23 -90 -23q-87 0 -98 101q-29 267 -35 395q51 42 144 42q79 0 99 -51q20 -32 20 -66z
" />
    <glyph glyph-name="numbersign" unicode="#" horiz-adv-x="1216" 
d="M763 841h-255l-54 -256h255zM1023 442h-189l-76 -369h-57q-41 0 -61 9.5t-24 35.5q2 15 25 130l39 194h-255l-76 -369h-67q-38 0 -56.5 6.5t-18.5 27.5q0 11 20 120l46 215h-203v56q0 52 14 69.5t64 17.5h152l53 256h-209v76q0 43 16.5 55.5t61.5 12.5h161l76 363h58
q42 0 62.5 -8.5t24.5 -33.5q-2 -10 -6 -33t-6 -35l-53 -253h252l77 363h56q45 0 65 -7.5t20 -33.5q-7 -54 -10 -72l-54 -250h200v-55q0 -53 -12.5 -71t-65.5 -18h-150l-55 -256h211v-75q0 -33 -11 -48t-39 -20z" />
    <glyph glyph-name="dollar" unicode="$" horiz-adv-x="1338" 
d="M893 333q0 72 -39 124.5t-117 98.5v-431q71 16 113.5 72.5t42.5 135.5zM460 1120q-4 -10 -4 -31q0 -76 40 -128t119 -90v421q-68 -12 -107 -57.5t-48 -114.5zM737 1506v-65q149 0 262 -29.5t151 -84.5q0 -24 -3 -48q1 0 1 -5q0 -10 -4 -26l-51 -179l-193 47
q-66 134 -163 161v-459q64 -27 101.5 -43.5t94.5 -45t91 -51.5t74.5 -58t62.5 -69t37 -79t15 -95q0 -172 -130.5 -281t-345.5 -123v-146l-35 -40q-57 0 -72 17t-15 72v96q-252 9 -441 128q-45 27 -56 52q0 44 8 90l73 177l198 -79q40 -100 92 -150.5t126 -64.5v491
q-26 13 -70 33.5t-69.5 32.5t-64.5 32t-63 34.5t-55 36.5t-50 41.5t-39.5 45.5t-31.5 52t-18.5 58.5t-7.5 68.5q0 162 125 262t344 121v102l35 30q44 0 63.5 -13t23.5 -47z" />
    <glyph glyph-name="percent" unicode="%" horiz-adv-x="1663" 
d="M1264 -25q-148 0 -234 101.5t-86 276.5q0 180 84.5 279.5t235.5 99.5q150 0 234 -100t84 -279q0 -176 -86.5 -277t-231.5 -101zM1264 630q-76 0 -109 -69t-33 -208q0 -138 33 -206t113 -68q139 0 139 274q0 139 -33 208t-110 69zM715 1057q0 -174 -83.5 -275.5
t-227.5 -101.5q-151 0 -237 100.5t-86 278.5q0 182 85.5 279t232.5 97q145 0 230.5 -98.5t85.5 -279.5zM399 1333q-78 0 -111.5 -69t-33.5 -207q0 -137 33.5 -206t111.5 -69q75 0 108 69.5t33 205.5q0 144 -34.5 210t-106.5 66zM1332 1373l-860 -1407l-67 27q-35 14 -73 39
q125 213 267.5 447t324 527.5t272.5 443.5q4 -2 21 -8t23 -9t17.5 -8.5t17.5 -10.5t10 -11q32 -20 47 -30z" />
    <glyph glyph-name="ampersand" unicode="&#x26;" horiz-adv-x="1515" 
d="M674 812h765v-304q-16 0 -47.5 0.5t-46.5 0.5q-16 96 -55.5 127.5t-129.5 31.5q13 -203 13 -251q0 -447 -525 -447q-563 0 -563 405q0 129 77 226.5t226 140.5v3q-127 35 -195.5 114t-68.5 197q0 170 136.5 264.5t399.5 94.5q192 0 442 -76l-12 -316h-185
q-33 133 -89.5 195t-154.5 62q-112 0 -175.5 -64t-63.5 -158q0 -113 63 -179.5t189 -66.5zM904 572l-4 96h-254q-113 0 -180 -78t-67 -219q0 -254 268 -254q121 0 181 80.5t60 225.5q1 40 -4 149z" />
    <glyph glyph-name="quotesingle" unicode="'" horiz-adv-x="519" 
d="M390 1337q-39 -382 -40 -398q-48 -23 -90 -23q-48 0 -69.5 26.5t-28.5 74.5q-30 281 -35 387q16 24 55 37t89 13q79 0 99 -51q20 -30 20 -59v-7z" />
    <glyph glyph-name="parenleft" unicode="(" horiz-adv-x="675" 
d="M117 656q0 225 72.5 441t198.5 378q60 36 112 36q35 0 49 -7q0 -3 -1 -4l61 -26q-204 -334 -204 -818q0 -486 204 -822q-50 -26 -81 -26q-20 0 -38 9q10 2 13 2q-7 -5 -41 -5q-108 53 -189 196t-118.5 311t-37.5 335z" />
    <glyph glyph-name="parenright" unicode=")" horiz-adv-x="675" 
d="M558 662q0 -258 -87 -495t-214 -345q-36 -23 -95 -23q-24 0 -32 4q2 -1 4 -1t3 1l-71 31q98 163 150 376.5t52 447.5q0 487 -202 816l61 27q19 8 67 8q28 0 46.5 -9.5t41.5 -32.5q128 -147 197 -344h-1q80 -225 80 -461z" />
    <glyph glyph-name="asterisk" unicode="*" horiz-adv-x="918" 
d="M483 982l-27 -317q-43 7 -79 20t-60.5 25t-32.5 14q65 141 109 270l-268 -135q-5 15 -16.5 48t-19 58.5t-11.5 48.5q40 14 79 22l212 44l-253 179q10 10 30 30.5t32.5 32.5t30 26.5t32.5 23.5q33 -37 52 -63l136 -170l30 301l173 -41q-8 -23 -51.5 -126t-60.5 -147
l270 126l32 -92q7 -30 12 -56q-27 -13 -59 -19l-227 -44l247 -203l-80 -70q-18 -16 -52 -36q-20 20 -52 67z" />
    <glyph glyph-name="plus" unicode="+" horiz-adv-x="1269" 
d="M730 1031v-357h406v-78q-3 -54 -25.5 -70.5t-85.5 -16.5h-295v-420h-70q-75 0 -99 17t-24 81v322h-404v79q0 54 27 70t87 16h60h230v418h47q69 0 101.5 -12t44.5 -49z" />
    <glyph glyph-name="comma" unicode="," horiz-adv-x="578" 
d="M151 -345q-25 10 -40.5 26t-34.5 44q102 118 133 289q-50 7 -81.5 41.5t-31.5 84.5q3 80 53 120.5t120 40.5q91 0 135.5 -44t44.5 -124q0 -142 -76 -259t-222 -219z" />
    <glyph glyph-name="hyphen" unicode="-" horiz-adv-x="765" 
d="M653 496h-602v80q0 45 21 59t73 14h569v-63q0 -81 -61 -90z" />
    <glyph glyph-name="period" unicode="." horiz-adv-x="642" 
d="M322 -28q-78 0 -123 46t-45 117q0 70 46 117t121 47q74 0 120 -48t46 -116q0 -71 -44 -116.5t-121 -46.5z" />
    <glyph glyph-name="slash" unicode="/" horiz-adv-x="878" 
d="M664 1426q43 39 119 39q42 0 95 -12q-28 -68 -43 -103l-584 -1319q-27 -62 -59 -115q-19 -8 -49 -8h-60q-55 0 -83 15l43 101q49 110 274 619.5t347 782.5z" />
    <glyph glyph-name="zero" unicode="0" horiz-adv-x="1315" 
d="M657 -30q-277 0 -426.5 196t-149.5 541q0 347 149 538t427 191q280 0 428.5 -191.5t148.5 -537.5t-151.5 -541.5t-425.5 -195.5zM914 707q0 290 -61 432.5t-196 142.5q-131 0 -193.5 -138.5t-62.5 -436.5q0 -296 62.5 -439t193.5 -143q133 0 195 146t62 436z" />
    <glyph glyph-name="one" unicode="1" horiz-adv-x="993" 
d="M657 1364v-1109q0 -66 9 -108q32 -5 84 -5h107v-157q-177 15 -348 15q-144 0 -366 -15v157h105q59 0 84 5q11 44 11 107v883q0 73 -2 106q-33 15 -77 15q-14 0 -30 -3l-104 -9l-9 104q280 79 420 79q54 0 82.5 -14t33.5 -51z" />
    <glyph glyph-name="two" unicode="2" horiz-adv-x="1276" 
d="M617 1292q-98 0 -182.5 -77.5t-112.5 -206.5l-212 151q12 125 157.5 201t348.5 76q231 0 362 -103t131 -296q0 -112 -62 -223t-213 -258.5t-421 -356.5q307 0 406 -1q30 12 53.5 24.5t54.5 35.5t58.5 60.5t49.5 87.5q23 -2 62.5 -7.5t55.5 -6.5q-2 -242 -13 -372
q-93 -20 -372 -20h-565q-58 0 -82.5 18.5t-29.5 66.5q0 23 9 73q342 327 541 534q89 98 128 183t39 185q0 113 -48.5 172.5t-142.5 59.5z" />
    <glyph glyph-name="three" unicode="3" horiz-adv-x="1223" 
d="M806 1086q0 93 -64.5 144.5t-159.5 51.5q-102 0 -187.5 -66.5t-110.5 -183.5l-191 137q48 131 174.5 198.5t306.5 67.5q99 0 186.5 -22t156.5 -65t109 -112.5t40 -156.5q0 -119 -89.5 -204.5t-246.5 -120.5q185 -24 285.5 -121t100.5 -258q0 -189 -144 -299.5
t-384 -110.5q-146 0 -275.5 44.5t-203.5 115.5q7 176 20 285l155 -19q14 -143 90.5 -209t185.5 -66q119 0 187 74.5t68 194.5q0 271 -356 271h-94q2 101 10 138l84 5q57 3 116.5 24t111.5 56t85.5 89.5t33.5 117.5z" />
    <glyph glyph-name="four" unicode="4" horiz-adv-x="1244" 
d="M250 566l-31 -50h425v547v69zM1074 368h-132v-114q0 -72 9 -108q34 -5 84 -5h107v-156q-170 15 -334 15q-134 0 -364 -15v156h105q59 0 84 5q11 38 11 107v115h-549q-64 88 -64 164q13 25 56 86q443 638 559 795h130h51q63 0 89 -17t26 -70v-810h268v-70q0 -52 -29 -65
t-107 -13z" />
    <glyph glyph-name="five" unicode="5" horiz-adv-x="1236" 
d="M437 1253l-4 -405q119 50 240 50q194 0 318.5 -123.5t124.5 -316.5q0 -233 -148.5 -360.5t-387.5 -127.5q-252 0 -446 114l-5 334l171 -16q16 -98 42 -228q110 -49 206 -49q133 0 198 86t65 227q0 292 -258 292q-134 0 -246 -82q-54 15 -144 32q1 112 3 336.5t3 337.5
q24 28 68 41.5t79 15.5t103 2q24 0 106.5 -0.5t108.5 0t91 2t102.5 4.5t92.5 9t107 14l8 -149q-30 -39 -87.5 -54.5t-162.5 -15.5q-159 0 -348 30z" />
    <glyph glyph-name="six" unicode="6" horiz-adv-x="1257" 
d="M422 756q156 121 329 121q190 0 306 -120.5t116 -322.5q0 -205 -146.5 -334.5t-384.5 -129.5q-268 0 -400.5 165.5t-132.5 505.5q0 795 610 795q117 0 219 -20.5t154 -56.5l-7 -341h-174l-32 228q-104 36 -175 36q-87 0 -148 -53t-90.5 -140t-34.5 -203q-6 -61 -9 -130z
M427 497q0 -175 58.5 -278t166.5 -103q97 0 155 82.5t58 232.5q0 133 -44.5 209.5t-134.5 79.5q-28 0 -84 -33q-61 -13 -117 -74t-58 -116z" />
    <glyph glyph-name="seven" unicode="7" horiz-adv-x="1236" 
d="M313 1001h-162l-50 364q112 32 225 40t312 8h488q26 -38 26 -164l-451 -1062q-49 -107 -99 -152.5t-140 -45.5q-112 0 -146 50q9 25 19 46l562 1168h-404q-97 0 -160 -15q-6 -44 -10 -88z" />
    <glyph glyph-name="eight" unicode="8" horiz-adv-x="1207" 
d="M788 1069q0 98 -52.5 156t-143.5 58t-142.5 -57.5t-51.5 -156.5q0 -93 60 -160.5t170 -105.5q160 64 160 266zM583 626q-7 2 -22 8t-23 9q-165 -93 -165 -284q0 -110 59.5 -172t159.5 -62q109 0 168 61.5t59 157.5q0 99 -61.5 171t-174.5 111zM1081 1078
q0 -70 -33.5 -133.5t-84 -111t-132.5 -106.5q128 -54 212.5 -144t84.5 -213q0 -102 -41.5 -180t-115 -125.5t-169 -71t-210.5 -23.5q-146 0 -261.5 41t-184 123t-68.5 194q0 258 279 394q-129 65 -193.5 151t-64.5 208q0 107 64.5 188t176.5 124t252 43q136 0 245.5 -40.5
t176.5 -123.5t67 -194z" />
    <glyph glyph-name="nine" unicode="9" horiz-adv-x="1256" 
d="M835 650q-163 -117 -328 -117q-189 0 -303.5 121t-114.5 323q0 204 145 331.5t381 127.5q268 0 400 -161.5t132 -493.5q0 -811 -585 -811q-125 0 -234.5 24.5t-160.5 68.5v336h177l38 -239q97 -35 171 -35q127 0 196 110t77 289q2 17 9 126zM830 894q0 388 -226 388
q-94 0 -150.5 -79.5t-56.5 -222.5q0 -131 41.5 -209.5t126.5 -78.5q55 0 124 21.5t90 61.5q47 52 51 119z" />
    <glyph glyph-name="colon" unicode=":" horiz-adv-x="648" 
d="M157 870q0 72 47.5 116.5t123.5 44.5q72 0 119 -45.5t47 -111.5q0 -79 -46 -123.5t-118 -44.5q-82 0 -127.5 44.5t-45.5 119.5zM323 298q72 0 119.5 -48.5t47.5 -116.5q0 -76 -46.5 -118.5t-116.5 -42.5q-82 0 -127 44.5t-45 115.5q0 78 46.5 122t121.5 44z" />
    <glyph glyph-name="semicolon" unicode=";" horiz-adv-x="575" 
d="M76 -327q7 17 21 53q62 76 102 201q0 5 -1 9q8 28 11 42q-37 7 -61.5 31t-28.5 62q-19 22 -19 55q0 60 51 99.5t119 39.5q178 0 178 -177q0 -134 -77 -254t-215 -214q-10 7 -38.5 23t-41.5 30zM256 1029q10 2 19 2q72 0 119.5 -45.5t47.5 -111.5q0 -79 -46 -123.5
t-119 -44.5q-82 0 -127 44.5t-45 119.5q0 68 41 111t110 48z" />
    <glyph glyph-name="less" unicode="&#x3c;" horiz-adv-x="1444" 
d="M160 626l853 391l106 45q56 23 104 40q24 -19 37.5 -31.5t22 -27t11 -21.5t8 -29.5t9.5 -36.5l-869 -397v-2l375 -171q376 -173 493 -224q-4 -16 -9 -38t-7 -29.5t-10.5 -22t-22.5 -27t-39 -32.5q-58 20 -126 51q-921 420 -963 439v59q0 10 41 28q-4 -1 -14.5 -5
t-16.5 -6v13q0 24 17 34z" />
    <glyph glyph-name="equal" unicode="=" horiz-adv-x="1347" 
d="M1131 317h-1000v78q0 57 24.5 71.5t105.5 14.5h955v-76q0 -34 -20 -53.5t-65 -34.5zM1132 700h-1001v79q0 24 6.5 40.5t16 26t27.5 14t33.5 5.5t42.5 1h959v-78q0 -36 -21 -55.5t-63 -32.5z" />
    <glyph glyph-name="greater" unicode="&#x3e;" horiz-adv-x="1443" 
d="M134 165l827 381l-828 378l11 39q26 57 68 67q32 18 92 54l1038 -474l19 -31q11 -18 11 -31v-54l-969 -442h3q-21 -10 -143 -48q-107 72 -113 96zM1338 617l4 -7q-3 3 -4 7z" />
    <glyph glyph-name="question" unicode="?" horiz-adv-x="1055" 
d="M623 383q-78 -9 -143 -9q-61 33 -109.5 87t-48.5 111q0 30 9 57t30.5 55.5t35 44t46 46t40.5 38.5q75 75 110 140.5t35 143.5q0 87 -44 135.5t-112 48.5q-77 0 -199 -32q-3 -66 -4 -137h-168v249q24 8 64 20.5t144.5 33.5t184.5 21q207 0 335 -91.5t128 -256.5
q0 -34 -8.5 -66.5t-20 -59t-35.5 -58.5t-42.5 -53t-55 -54.5t-58.5 -52.5t-66 -56q-30 -25 -43 -60.5t-13 -110.5q0 -87 8 -134zM500 258q68 0 109.5 -47t41.5 -108q0 -56 -37.5 -95.5t-109.5 -39.5q-77 0 -118 42.5t-41 100.5q0 59 41.5 103t113.5 44z" />
    <glyph glyph-name="at" unicode="@" horiz-adv-x="1822" 
d="M746 532q0 -83 37.5 -137.5t99.5 -54.5q32 0 59.5 13t49 32t41 52.5t33 63t27 77t21 79.5t16.5 85t13 80t11 77q-18 91 -111 91q-69 0 -138 -63t-114 -170.5t-45 -224.5zM1491 90l45 -85q-270 -174 -564 -174q-186 0 -347 63.5t-271 171.5t-172.5 254t-62.5 308
q0 178 68 334t184 264.5t275 171t337 62.5q214 0 383.5 -87t265 -246t95.5 -364q0 -142 -55 -267t-150.5 -201t-205.5 -76q-85 0 -141.5 44.5t-81.5 118.5q-53 -73 -129 -73q-49 -90 -139 -90q-122 0 -199 82.5t-77 230.5q0 118 39.5 223.5t106 179t156 116.5t187.5 43
q102 0 152 -68l17 70q104 -11 151 -68q-23 -94 -107 -469q-13 -58 -13 -108q0 -61 23.5 -89t75.5 -28q97 0 178.5 129t81.5 305q0 120 -45 226t-125 182.5t-195.5 120.5t-250.5 44q-136 0 -257.5 -50t-213 -141t-145 -228t-53.5 -301q0 -198 89.5 -353.5t243 -239.5
t342.5 -84q266 0 504 146z" />
    <glyph glyph-name="A" unicode="A" horiz-adv-x="1623" 
d="M875 1411q60 -30 98.5 -64t57.5 -84q81 -217 204 -548t169 -452q36 -97 52 -122q28 -6 140 -14l27 -140q-153 13 -316 13q-142 0 -306 -13l-10 133q102 2 102 29q-8 51 -37 132l-46 126h-461l-38 -121q-28 -87 -28 -127q0 -9 7 -16t21.5 -10.5t25 -5t30.5 -3.5t24 -2
l-17 -135q-86 13 -257 13q-213 0 -313 -13l33 137l37 2q63 0 92.5 30t54.5 97q93 251 454 1166h107q50 0 93 -8zM781 1144h-7l-193 -610h389q-31 96 -96 308.5t-93 301.5z" />
    <glyph glyph-name="B" unicode="B" horiz-adv-x="1484" 
d="M287 267v857q0 78 -12 126q-56 2 -90 2q-41 0 -117 -2v139q317 32 720 32q561 0 561 -382q0 -106 -74.5 -192.5t-200.5 -119.5q310 -63 310 -339q0 -61 -14 -112t-37 -89t-61.5 -67.5t-77.5 -49.5t-95.5 -34.5t-105.5 -22t-118 -12t-121.5 -5.5t-127.5 -1
q-100 0 -280 1.5t-261 1.5v148h80q61 0 88 4q34 17 34 117zM1028 1033q0 121 -67.5 179t-216.5 58q-70 0 -135 -5v-476q90 -3 93 -3q155 0 240.5 61.5t85.5 185.5zM609 644v-498q97 -3 185 -3q264 0 264 238q0 153 -89.5 209t-300.5 56q-25 0 -59 -2z" />
    <glyph glyph-name="C" unicode="C" horiz-adv-x="1446" 
d="M1351 263l19 -167q-226 -132 -528 -132q-219 0 -381.5 79.5t-254 240.5t-91.5 389q0 367 196 565t554 198q140 0 269 -33t214 -84l-23 -310h-190q-13 55 -34 101.5t-53 88.5t-80 66t-107 24q-200 0 -301.5 -152t-101.5 -422q0 -291 105 -439.5t300 -148.5q122 0 235.5 34
t252.5 102z" />
    <glyph glyph-name="D" unicode="D" horiz-adv-x="1663" 
d="M599 1262v-1114q13 -2 39 -2q153 0 257.5 28t175.5 93.5t103 172t32 263.5q0 296 -99.5 429t-338.5 133q-25 0 -81.5 -1.5t-87.5 -1.5zM594 0q-114 0 -515 -7v146l76 1q53 0 92 8q34 20 34 119v853q0 69 -12 129q-31 5 -101 5h-100v138q310 29 732 29q176 0 309.5 -38
t234 -121.5t152.5 -225t52 -339.5q0 -124 -24.5 -223t-67.5 -171.5t-110 -126t-144 -87t-178 -54t-202.5 -28t-227.5 -7.5z" />
    <glyph glyph-name="E" unicode="E" horiz-adv-x="1409" 
d="M664 1413h603l25 -129q21 -113 30 -177l-184 -17q-16 96 -35 145q-92 24 -236 24q-71 0 -264 -4v-467h232q62 0 82 21.5t41 100.5h100q0 -174 -7 -393q-12 -1 -36 -1q-11 0 -34 0.5t-35 0.5q-21 80 -41 106.5t-59 26.5h-243v-504h371q98 0 135 24q16 47 30 173
q116 -2 194 -2l-3 -127q-7 -152 -10 -196q-169 -26 -397 -26q-109 0 -276 4t-237 4q-211 0 -336 -7v153h112q61 0 87 4q11 41 11 101v893q0 59 -12 104q-25 5 -85 5h-119v133q251 27 596 27z" />
    <glyph glyph-name="F" unicode="F" horiz-adv-x="1329" 
d="M593 1255v-464h218q65 0 85.5 21t42.5 98h99q0 -206 -6 -393q-3 0 -10.5 -0.5t-11.5 -0.5q-5 0 -31.5 0.5t-51.5 0.5q-21 79 -41.5 104.5t-59.5 25.5h-233v-388q0 -62 10 -109q24 -4 79 -4h97v-159q-236 13 -340 13q-116 0 -361 -13v159h103q57 0 82 4q11 38 11 107
q0 148 -0.5 444.5t-0.5 444.5q0 69 -10 102q-25 5 -81 5h-114v134q76 7 141 11.5t146.5 7.5t130.5 4.5t160 2t164.5 0.5h213.5h241l21 -133q19 -128 24 -183l-183 -12q-5 51 -39 154q-74 20 -211 20q-81 0 -284 -4z" />
    <glyph glyph-name="G" unicode="G" horiz-adv-x="1495" 
d="M929 1436q134 0 264.5 -34.5t193.5 -80.5l-25 -316q-31 0 -92.5 0.5t-92.5 0.5q-34 145 -100.5 215t-187.5 70q-214 0 -323 -154t-109 -443q0 -253 107 -406t306 -153q138 0 230 38v221q0 76 -11 112q-43 8 -107 8h-112v123q186 20 496 20q8 0 24.5 -0.5t25.5 -0.5
l-2 -93q-2 -40 -2 -111v-334q-225 -148 -544 -148q-167 0 -304 44.5t-237.5 130.5t-156 220.5t-55.5 307.5q0 379 216 571t598 192z" />
    <glyph glyph-name="H" unicode="H" horiz-adv-x="1733" 
d="M1148 257v394h-563v-392q0 -62 10 -109q25 -4 79 -4h97v-159q-143 13 -324 13q-215 0 -377 -13v159h103q57 0 82 4q11 39 11 107l-2 896q0 66 -11 107q-24 5 -82 5h-103v135q167 19 343 19q247 0 360 -16v-138h-99q-54 0 -79 -5q-9 -39 -9 -99l1 -353h563l-1 345
q-2 72 -11 107q-23 5 -78 5h-98v135q168 19 343 19q247 0 361 -16v-138h-106q-57 0 -82 -5q-10 -45 -10 -107l1 -894q0 -62 10 -109q25 -4 82 -4h104v-159q-148 13 -306 13h-65q-173 0 -330 -13v159h96q56 0 79 4q11 33 11 107z" />
    <glyph glyph-name="I" unicode="I" horiz-adv-x="857" 
d="M68 -13v159h106q58 0 84 4q11 39 11 107v865q0 99 -11 138q-25 5 -83 5h-107v135q171 19 350 19q254 0 371 -16v-138h-107q-58 0 -84 -5q-10 -45 -10 -104v-897q0 -62 10 -109q26 -4 84 -4h106v-159q-148 13 -335 13q-220 0 -385 -13z" />
    <glyph glyph-name="J" unicode="J" horiz-adv-x="986" 
d="M790 1153v-812q0 -240 -108 -366.5t-306 -126.5q-87 0 -187 17t-155 47q-1 18 12 182l12 159l190 -3q5 -53 16.5 -140t12.5 -101q39 -13 87 -13q67 0 92 45t25 130q0 32 -5.5 110t-5.5 124v749q0 68 -11 106q-29 6 -99 6h-91v135q177 18 397 18q208 0 325 -15v-138h-93
q-69 0 -98 -6q-10 -36 -10 -107z" />
    <glyph glyph-name="K" unicode="K" horiz-adv-x="1644" 
d="M935 800l385 -497q9 -12 27.5 -36.5t27 -35t29 -32.5t48.5 -49q27 -4 83 -4h67l36 -159q-171 13 -256 13h-57q-221 0 -404 -13l-5 159h28q51 0 69 4q-20 50 -61 107l-282 395q-6 6 -32 47l-21 32l26 30q6 9 19 22l325 342q107 112 110 135q-26 5 -89 5h-74l1 135
q182 19 401 19q191 0 297 -16l-46 -138h-85q-66 0 -100 -5q-46 -38 -115 -107l-255 -255q-88 -88 -97 -98zM588 1153v-896q0 -63 11 -107q25 -4 84 -4h106v-159q-166 13 -354 13q-193 0 -366 -13v159h106q58 0 83 4q11 33 11 107v896q0 66 -11 107q-25 5 -83 5h-107v135
q171 19 350 19q254 0 371 -16v-138h-107q-58 0 -84 -5q-10 -45 -10 -107z" />
    <glyph glyph-name="L" unicode="L" horiz-adv-x="1286" 
d="M623 0q-405 0 -523 -13l-2 159h77q58 0 84 4q10 64 10 140v866q0 63 -11 104q-25 5 -83 5h-107v135q171 19 350 19q255 0 373 -16v-138h-108q-58 0 -84 -5q-10 -37 -10 -104v-1010h295q104 0 156 58t89 192l157 -21l-39 -375q-201 -7 -337 -7q-64 0 -160.5 3.5
t-126.5 3.5z" />
    <glyph glyph-name="M" unicode="M" horiz-adv-x="2201" 
d="M1613 184q-1 63 -23 346.5t-38 453.5q-32 -111 -149 -456t-181 -527h-275q-67 185 -340 979q-4 -39 -61 -777v-9q0 -30 9 -39q30 -9 89 -9h87l-15 -159q-143 13 -305 13q-193 0 -343 -15l20 161h96q68 0 99 4q21 60 28 106q11 96 86 899q1 11 1 49q0 27 -6 53
q-35 8 -89 8h-119v138q140 15 339 15q153 0 243 -18q52 -133 194.5 -558.5t151.5 -448.5q228 688 348 1007q75 17 268 17q136 0 304 -14l5 -138h-75q-78 0 -117 -10q0 -3 -0.5 -8t-0.5 -7q0 -38 5 -81q7 -95 79 -917q3 -33 19 -90q42 -6 113 -6h72l20 -161q-142 15 -321 15
q-217 0 -370 -13l-1 159h70q42 0 59 7.5t24 30.5z" />
    <glyph glyph-name="N" unicode="N" horiz-adv-x="1708" 
d="M290 257q0 150 -0.5 448.5t-0.5 447.5q0 70 -10 107q-27 5 -87 5h-124v132q203 21 357 21q103 0 179 -17q333 -508 629 -978q0 135 -7 730q0 73 -12 108q-33 5 -86 5h-118v136q118 17 317 17q215 0 324 -14v-139h-86q-59 0 -97 -5q-10 -37 -10 -107q-4 -502 -15 -1161
h-129q-98 0 -168 16l-618 975q5 -243 8 -724q0 -66 10 -110q25 -4 85 -4h111v-160q-145 14 -316 14q-196 0 -346 -14v160h112q60 0 87 4q11 36 11 107z" />
    <glyph glyph-name="O" unicode="O" horiz-adv-x="1625" 
d="M1510 702q0 -343 -187 -537.5t-510 -194.5q-326 0 -512.5 195.5t-186.5 536.5q0 348 186.5 541t512.5 193q325 0 511 -194.5t186 -539.5zM456 699q0 -281 89.5 -427.5t267.5 -146.5q172 0 263.5 144t91.5 433q0 287 -91 433.5t-264 146.5q-172 0 -264.5 -146.5
t-92.5 -436.5z" />
    <glyph glyph-name="P" unicode="P" horiz-adv-x="1393" 
d="M289 257v901q0 68 -11 104q-33 3 -86 3h-123v136q234 23 629 23q120 0 212 -11.5t171.5 -41t130.5 -78t80 -123.5t30 -176q0 -206 -146 -316.5t-444 -110.5q-77 0 -123 2q0 -77 -0.5 -151t-0.5 -105v-61t1.5 -43.5t3.5 -25.5t7 -33q25 -4 85 -4h110v-160q-161 14 -350 14
q-217 0 -386 -14v160h112q60 0 87 4q11 35 11 107zM704 1265h-96v-551q6 0 19 -0.5t20 -0.5q194 0 271.5 65t77.5 212q0 148 -68.5 211.5t-223.5 63.5z" />
    <glyph glyph-name="Q" unicode="Q" horiz-adv-x="1678" 
d="M455 699q0 -284 90 -429.5t265 -145.5q173 0 264.5 143t91.5 434q0 287 -92 434t-264 147q-171 0 -263 -147t-92 -436zM1504 739q0 -172 -50 -317.5t-158.5 -256t-263.5 -154.5q72 -64 217 -64q104 0 277 48l37 -131q-232 -90 -425 -90q-257 0 -435 161q-79 31 -139 71
q-215 65 -332.5 244.5t-117.5 457.5q0 343 186 535.5t510 192.5q315 0 504 -187t190 -510z" />
    <glyph glyph-name="R" unicode="R" horiz-adv-x="1544" 
d="M288 257q0 151 -0.5 453t-0.5 452q0 69 -10 99q-22 4 -86 4h-123v138q248 21 627 21q118 0 210.5 -11t175.5 -39t137.5 -73.5t86.5 -118.5t32 -170q0 -129 -81.5 -219t-229.5 -140q71 -27 123 -70.5t89.5 -109t63.5 -138.5t51 -179q14 1 75.5 1.5t86.5 0.5l-8 -173
q-146 -13 -196 -13q-98 0 -160.5 36t-95.5 114q-27 66 -59 155.5t-50 137.5t-46.5 96t-63.5 72q-32 5 -68 7t-89 2.5t-71 0.5v-334q0 -62 10 -109q26 -4 87 -4h80v-159q-137 13 -313 13q-213 0 -375 -13v159h86q65 0 94 4q11 38 11 107zM703 1265h-95v-531q20 -1 63 -1
q178 0 258.5 62.5t80.5 208.5q0 144 -70 202.5t-237 58.5z" />
    <glyph glyph-name="S" unicode="S" horiz-adv-x="1278" 
d="M426 1089q0 -87 55 -140.5t164 -96.5q56 -23 87.5 -36t84 -36t83 -39.5t73.5 -42.5t68 -48.5t54 -52.5t44 -60.5t25.5 -67.5t10.5 -77q0 -195 -151 -308.5t-392 -113.5q-168 0 -335.5 52.5t-216.5 139.5q4 35 15 79.5t30 106.5t25 84l224 -61q5 -27 11 -67.5t9.5 -59.5
t11.5 -41t21 -36q59 -50 210 -50q93 0 153.5 62.5t60.5 154.5q0 48 -17.5 88.5t-43.5 69.5t-75.5 59t-93.5 50.5t-117 50.5q-201 83 -299 176t-98 227q0 172 155.5 276.5t431.5 104.5q120 0 216 -29.5t202 -82.5q-1 -34 -6.5 -74t-10.5 -65.5t-15 -73t-14 -65.5l-174 -1
q-6 63 -18 101.5t-43 65.5q-35 31 -101 48t-117 17q-83 0 -135 -50t-52 -138z" />
    <glyph glyph-name="T" unicode="T" horiz-adv-x="1416" 
d="M1376 1041h-162q0 85 -27 220q-45 -1 -139 -1h-176v-1001q0 -71 11 -109q30 -4 98 -4h92v-159q-148 13 -337 13q-220 0 -385 -13v159h91q69 0 99 4q11 38 11 107q0 168 -0.5 501.5t-0.5 501.5h-314q-26 -105 -27 -219h-169q0 37 -5 174.5t-5 181.5q37 16 268 16
q37 0 202.5 -3.5t215.5 -3.5q68 0 224 3.5t187 3.5q218 0 257 -16q0 -45 -4.5 -182t-4.5 -174z" />
    <glyph glyph-name="U" unicode="U" horiz-adv-x="1659" 
d="M1425 1153v-638q0 -136 -46.5 -241.5t-129 -171t-191 -99t-237.5 -33.5q-588 0 -588 612v571q0 69 -11 107q-30 5 -99 5h-91v141q172 13 326 13q288 0 383 -14v-140h-86q-63 0 -91 -5q-10 -44 -10 -107q0 -107 -0.5 -323t-0.5 -323q0 -184 78.5 -283.5t218.5 -99.5
q159 0 230.5 116t71.5 337v576q0 69 -11 107q-27 5 -89 5h-82v141q146 13 328 13q239 0 329 -14v-140h-93q-69 0 -98 -5q-11 -42 -11 -107z" />
    <glyph glyph-name="V" unicode="V" horiz-adv-x="1687" 
d="M888 365l17 -36l281 824q17 49 24 107q-24 5 -83 5h-67l25 140q108 13 340 13q161 0 262 -13l-24 -140h-55q-76 0 -112 -5q-22 -37 -46 -107q-232 -682 -448 -1158h-146q-74 0 -113 13t-54 51l-429 1094q-26 65 -57 107q-28 5 -84 5h-96l-23 140q141 14 408 14
q153 0 271 -14l29 -140h-68q-59 0 -83 -5q4 -21 35 -104q198 -528 296 -791z" />
    <glyph glyph-name="W" unicode="W" horiz-adv-x="2429" 
d="M1952 1197q8 16 8 30q0 38 -90 38h-72l19 140q104 13 276 13q224 0 327 -13l-19 -140h-70q-66 0 -97 -5q-21 -46 -150 -488q-142 -453 -275 -777h-177q-76 0 -105 15.5t-45 76.5l-251 770q-136 -512 -268 -862h-214q-46 0 -71.5 14t-34.5 50l-374 1094q-24 63 -57 107
q-32 5 -98 5h-81l-24 140q135 14 345 14q211 0 335 -14l28 -140h-68q-58 0 -82 -5q8 -36 35 -104l258 -827l32 109q32 109 88 304.5t101 364.5q17 64 27.5 167t12.5 116h162q32 0 54.5 -10.5t37 -32.5t23 -42.5t19.5 -54.5q2 -7 3 -10l287 -914q245 870 245 871z" />
    <glyph glyph-name="X" unicode="X" horiz-adv-x="1673" 
d="M999 254l-224 304l-209 -302q-39 -58 -47 -94q17 -16 65 -16h88l-21 -159q-138 13 -325 13q-167 0 -308 -13q8 106 11 159h73q53 0 79 4q16 8 35 26.5t32 33.5t43 51l355 431l-349 469q-49 64 -77 84t-83 20h-75l-35 140q156 14 318 14h78q200 0 312 -14l30 -140h-74
q-46 0 -60 -13q3 -25 44 -83l217 -318l189 274q61 83 73 121q-15 19 -64 19h-87l39 140q129 14 338 14q165 0 270 -14l-34 -140h-85q-52 0 -79 -5q-49 -33 -110 -113q-83 -109 -195 -251.5t-137 -174.5l355 -441q10 -12 27.5 -35t28 -35.5t25 -27.5t28.5 -25q28 -11 73 -11
h52l11 -159q-145 13 -329 13q-185 0 -350 -13l-18 159h78q44 0 61 13q-11 37 -53 95z" />
    <glyph glyph-name="Y" unicode="Y" horiz-adv-x="1582" 
d="M1085 1153q25 55 34 107q-21 5 -76 5h-87l29 140q127 14 308 14q191 0 292 -14l-32 -140h-91q-54 0 -80 -5q-14 -20 -26 -35q-5 -7 -6 -9q-8 -35 -221 -401l-173 -300v-239q0 -78 10 -135q33 -5 84 -5h107v-149q-148 13 -337 13q-220 0 -384 -13v149h106q57 0 83 5
q10 34 10 96v253q-9 14 -22 39.5t-20 36.5l-349 587q-12 19 -26.5 46.5t-23 40.5t-18.5 20q-27 5 -86 5h-69l-26 140q149 14 298 14q275 0 391 -14l16 -140h-67q-59 0 -82 -5q12 -49 36 -91l267 -465q142 257 231 449z" />
    <glyph glyph-name="Z" unicode="Z" horiz-adv-x="1320" 
d="M100 1390q283 23 554 23h439q30 0 50.5 -2.5t41.5 -9.5t31.5 -23t10.5 -40v-90l-792 -1096h331q78 0 145 7q51 48 78 109.5t27 173.5q39 -1 117 -4.5t88 -3.5q8 -185 11 -305q0 -35 -10 -116q-76 -13 -282 -13h-795q-53 12 -53 92v82l774 1083h-234q-78 0 -167 -12.5
t-121 -39.5q-3 -29 -3 -105q0 -8 0.5 -24.5t0.5 -24.5q-33 0 -99.5 -0.5t-101.5 -0.5q-3 35 -19.5 163.5t-21.5 176.5z" />
    <glyph glyph-name="bracketleft" unicode="[" horiz-adv-x="741" 
d="M467 1396v-1488h200v-52q0 -16 -5.5 -29t-11 -20.5t-19.5 -13t-20 -8t-24 -3.5t-19 -1h-18h-345v1740h312q89 0 119.5 -14.5t30.5 -65.5v-45h-200z" />
    <glyph glyph-name="backslash" unicode="\" horiz-adv-x="961" 
d="M299 1413l662 -1432h-182q-84 0 -109 49l-670 1449h179q49 0 75.5 -15.5t44.5 -50.5z" />
    <glyph glyph-name="bracketright" unicode="]" horiz-adv-x="743" 
d="M76 -183v91h199v1488h-199v53q0 52 24 73h438v-1741h-262q-55 0 -80.5 1t-62 9.5t-57.5 25.5z" />
    <glyph glyph-name="asciicircum" unicode="^" horiz-adv-x="1233" 
d="M723 1284l379 -668q26 -45 26 -77q0 -50 -66 -61l-132 -29l-312 566h-1l-310 -565l-128 30q-27 6 -39 9.5t-25 13.5t-16 25q10 41 37 88l382 679q52 0 85.5 0.5t46.5 0.5h16q34 0 57 -12z" />
    <glyph glyph-name="underscore" unicode="_" horiz-adv-x="1029" 
d="M951 -324h-961v72q0 48 32 63t94 15q10 0 29 -0.5t28 -0.5h866v-69q0 -34 -22.5 -52t-65.5 -28z" />
    <glyph glyph-name="grave" unicode="`" horiz-adv-x="1203" 
d="M658 1191l-294 346h308l170 -345q-30 0 -92 -0.5t-92 -0.5z" />
    <glyph glyph-name="a" unicode="a" 
d="M1131 123h82v-97q-121 -36 -304 -36q-64 0 -100 16q-44 37 -65 103q-135 -132 -306 -132q-155 0 -248 76.5t-93 218.5q0 321 552 321h86v52q0 140 -28 201t-96 61q-154 0 -299 -212l-188 120q7 90 143.5 154.5t318.5 64.5q232 0 346.5 -94t114.5 -297q0 -1 -0.5 -109
t-0.5 -263q0 -97 12 -147q23 -1 73 -1zM727 198q8 162 8 279h-96q-111 0 -172 -51.5t-61 -144.5q0 -82 36.5 -122t99.5 -40q85 0 185 79z" />
    <glyph glyph-name="b" unicode="b" horiz-adv-x="1383" 
d="M145 8l6 85q44 27 55.5 76t11.5 164v911q0 55 -3 106q-47 7 -87 7h-92v100q146 36 382 36q71 0 92 -26t21 -83v-459q141 110 312 110q205 0 320.5 -140t115.5 -364q0 -124 -37.5 -225t-102 -167t-148 -104t-177.5 -44q-51 -3 -99 -3q-85 1 -269 9t-301 11zM954 525
q0 369 -184 369q-110 0 -229 -86q-10 -130 -10 -326q0 -195 7 -362q80 -9 189 -9q107 0 167 106t60 308z" />
    <glyph glyph-name="c" unicode="c" horiz-adv-x="1139" 
d="M1042 223l16 -145q-152 -101 -388 -101q-255 0 -410 137.5t-155 381.5q0 131 46 235t126 169.5t184 99.5t224 34q240 0 375 -113l-17 -200h-168q-46 91 -96 132t-114 41q-107 0 -174.5 -96.5t-67.5 -258.5q0 -204 73.5 -310t197.5 -106q100 0 182 24t166 76z" />
    <glyph glyph-name="d" unicode="d" horiz-adv-x="1382" 
d="M1168 1396v-1139q0 -79 11 -134h170v-98q-144 -36 -303 -36q-89 0 -123.5 24.5t-47.5 105.5q-115 -142 -320 -142q-197 0 -324 140.5t-127 371.5q0 257 122.5 403t338.5 146q160 0 291 -91v323q0 47 -4 80q-47 7 -87 7h-92v100q154 37 414 37q53 0 67 -20t14 -78z
M859 288q0 327 -6 533q-44 34 -100 53.5t-103 19.5q-62 0 -106 -32.5t-68 -90.5t-34.5 -124.5t-10.5 -146.5q0 -377 215 -377q72 0 128 43.5t85 121.5z" />
    <glyph glyph-name="e" unicode="e" horiz-adv-x="1211" 
d="M1028 224l53 -92q-135 -155 -411 -155q-262 0 -413.5 140t-151.5 392q0 238 153.5 381.5t410.5 143.5q197 0 322 -107t125 -289q0 -106 -41.5 -139.5t-147.5 -33.5h-503q17 -161 99.5 -246t223.5 -85q147 0 281 90zM423 597h393q1 6 1 18q0 126 -46 205.5t-139 79.5
q-188 0 -209 -303z" />
    <glyph glyph-name="f" unicode="f" horiz-adv-x="842" 
d="M121 -12l4 107q53 6 79 12t40.5 22t16.5 33.5t2 59.5v648h-216v55q0 83 127 83h89v79q0 105 36.5 185t100 126.5t143 69.5t172.5 23q158 0 275 -57v-224h-162q-20 66 -47.5 104.5t-55.5 42.5q-82 0 -115.5 -45.5t-33.5 -180.5v-123h271v-62q0 -25 -9.5 -41t-30 -23.5
t-40.5 -9.5t-51 -2h-140v-601v-44.5t2.5 -34.5t6 -29t11 -20.5t18 -17t27.5 -11t38 -10t51 -7.5l9 -107l-118 5q-194 7 -205 7q-130 0 -295 -12z" />
    <glyph glyph-name="g" unicode="g" horiz-adv-x="1135" 
d="M714 657q0 121 -43.5 183.5t-124.5 62.5q-86 0 -126 -60.5t-40 -185.5q0 -113 44 -168.5t121 -55.5q80 0 124.5 55.5t44.5 168.5zM832 -156q0 88 -51 123.5t-198 35.5q-41 0 -109.5 -2t-77.5 -2q-26 -26 -56 -73.5t-30 -81.5q0 -157 234 -157q157 0 222.5 41t65.5 116z
M775 989l304 27q25 -17 31 -46t6 -101q-35 0 -105.5 -0.5t-106.5 -0.5q85 -106 85 -208q0 -166 -117 -260t-353 -94q-79 0 -157 14q-21 -34 -21 -82q0 -38 30.5 -51t132.5 -13q80 0 124.5 -1t115 -6.5t110.5 -16t89.5 -31.5t75 -50.5t44 -75.5t18.5 -105q0 -339 -566 -339
q-230 0 -342.5 71t-112.5 196q0 148 203 209q-48 15 -75.5 56t-27.5 92q0 142 115 191q-86 42 -130.5 120t-44.5 181q0 173 122.5 268.5t329.5 95.5q115 0 223 -40z" />
    <glyph glyph-name="h" unicode="h" horiz-adv-x="1417" 
d="M1212 123h144l6 -106q-139 -34 -307 -34q-174 0 -174 96q0 46 3 188.5t3 219.5v22q0 50 -0.5 74.5t-1.5 67t-4.5 64.5t-9 53.5t-15 47.5t-22.5 33t-31.5 24t-41.5 7q-71 0 -137 -41t-93 -96v-481q0 -37 0.5 -52.5t3.5 -37.5t9 -30t18.5 -18.5t30 -15.5t45.5 -10l9 -110
l-39 2q-193 10 -248 10q-127 0 -265 -12l5 109q35 5 55 11t34 14t19.5 25.5t7.5 37t2 57.5v1031q0 51 -6 77q-44 7 -85 7h-91v100q152 37 386 37q73 0 91 -18.5t18 -85.5v-489q75 62 172.5 97.5t197.5 35.5q153 0 225.5 -85t72.5 -252v-438q0 -77 13 -136z" />
    <glyph glyph-name="i" unicode="i" horiz-adv-x="728" 
d="M544 123h139l11 -101q-143 -34 -308 -34q-174 0 -174 96q0 25 3.5 95t3.5 103v519q0 42 -4 73q-28 8 -72 8h-105v111q60 13 158 22t176 9q55 0 89 -6.5t63 -29.5q7 -32 7 -59v-643q0 -98 13 -163zM188 1335q0 69 53 108t132 39q81 0 133.5 -40t52.5 -107
q0 -69 -54.5 -107.5t-131.5 -38.5q-79 0 -132 40t-53 106z" />
    <glyph glyph-name="j" unicode="j" horiz-adv-x="897" 
d="M343 1349q0 70 52.5 109t132.5 39q81 0 133 -40t52 -108t-54 -106.5t-131 -38.5q-80 0 -132.5 40t-52.5 105zM685 968q0 -155 -0.5 -464.5t-0.5 -464.5q0 -224 -97.5 -337.5t-287.5 -113.5q-90 0 -169.5 18.5t-100.5 39.5l32 288q18 -2 75 -11t79 -12q1 -33 16 -169
q5 -3 30.5 -7t41.5 -4q52 0 73 52t21 154q0 37 -20 244q-2 17 -2.5 157t-0.5 271l-1 131q0 77 -4 134q-35 8 -86 8h-92v111q138 31 298 31q168 0 196 -56z" />
    <glyph glyph-name="k" unicode="k" horiz-adv-x="1344" 
d="M94 -12l4 107q43 6 62.5 11t34.5 19.5t18 35t3 62.5v1042q0 53 -5 84q-42 8 -72 8h-105v99q145 35 412 40q54 -15 68.5 -47t14.5 -106v-769l215 186q95 82 95 103q0 25 -63 25v120h529v-126q-92 0 -150 -27t-125 -83l-223 -188l298 -390q37 -48 81 -71t108 -23q21 0 31 1
l18 -114q-120 13 -288 13q-148 0 -283 -12v109q41 0 50 8q-13 21 -50 73q-113 157 -200 284l-43 -30v-204q0 -75 18.5 -98.5t95.5 -35.5l6 -106q-240 12 -284 12q-130 0 -271 -12z" />
    <glyph glyph-name="l" unicode="l" horiz-adv-x="727" 
d="M211 198q3 63 3 134v928q0 54 -7 90q-50 8 -86 8h-90v100q161 36 337 36q70 0 101.5 -8.5t54.5 -36.5v-1200q0 -79 12 -127h161v-100q-138 -33 -316 -33q-145 0 -173 88q0 18 1.5 57t1.5 64z" />
    <glyph glyph-name="m" unicode="m" horiz-adv-x="2054" 
d="M1523 278v355q0 144 -20.5 191.5t-80.5 47.5q-76 0 -137 -38t-95 -94v-515q0 -74 21 -97.5t103 -35.5l5 -104q-162 12 -299 12q-133 0 -241 -12v110q31 5 48.5 11t28.5 12.5t15.5 22.5t5.5 30.5t1 46.5v412q0 145 -18.5 191.5t-74.5 46.5q-77 0 -145.5 -38.5t-96.5 -93.5
v-491q0 -84 14.5 -111t80.5 -39l4 -110q-168 12 -307 12q-83 0 -225 -12v104q43 3 67.5 10t36.5 25t14.5 37.5t2.5 59.5v573q0 45 -4 77q-40 8 -100 8h-78v109q52 14 146.5 23t181.5 9q64 0 156 -17q0 -11 1 -33t1 -33q0 -5 -0.5 -21.5t-0.5 -30.5q182 145 387 145
q188 0 250 -145q186 147 370 147q294 0 294 -317v-459q0 -77 13 -136h139l11 -106q-142 -34 -308 -34q-174 0 -174 96q0 24 3.5 94.5t3.5 104.5z" />
    <glyph glyph-name="n" unicode="n" horiz-adv-x="1438" 
d="M1219 706v-447q0 -84 13 -136h139l12 -106q-143 -34 -309 -34q-173 0 -173 96q0 25 3 97t3 106v368q0 225 -132 225q-55 0 -119 -35t-113 -87v-515q0 -76 18 -101.5t89 -38.5l10 -110q-219 12 -289 12q-138 0 -264 -12l5 110q81 10 100 34.5t19 110.5v558q0 42 -4 73
q-25 8 -64 8h-114v111q146 30 315 30q71 0 167 -17v-117q84 70 188 107t203 37q139 0 218 -84.5t79 -242.5z" />
    <glyph glyph-name="o" unicode="o" horiz-adv-x="1330" 
d="M432 505q0 -199 56.5 -294t176.5 -95q123 0 177.5 95.5t54.5 293.5t-56.5 293t-175.5 95q-122 0 -177.5 -96t-55.5 -292zM1225 504q0 -130 -46 -232.5t-124 -165.5t-177.5 -96t-211.5 -33q-162 0 -288.5 61.5t-199.5 182.5t-73 283q0 128 45.5 230.5t123.5 167t178 99
t214 34.5q246 0 402.5 -144t156.5 -387z" />
    <glyph glyph-name="p" unicode="p" horiz-adv-x="1375" 
d="M511 1007q0 -85 2 -90q129 118 314 118q208 0 325.5 -137.5t117.5 -378.5q0 -257 -132.5 -399.5t-343.5 -142.5q-154 0 -272 87v-177t-0.5 -90.5t-0.5 -26.5q0 -81 17 -100t99 -34l10 -108q-172 21 -259 21q-161 0 -301 -21l5 109q32 5 50 8.5t32.5 13.5t20.5 17t10 30
t4.5 40t0.5 58v982q0 60 -3 88q-36 8 -88 8h-92v109q132 32 334 32q73 0 150 -16zM527 787q-2 -166 -2 -259q0 -192 14 -276q67 -129 189 -129q60 0 103.5 31.5t67.5 87t35 120.5t11 143q0 193 -41 288t-128 95q-140 0 -249 -101z" />
    <glyph glyph-name="q" unicode="q" horiz-adv-x="1341" 
d="M845 257q0 105 0.5 293.5t0.5 277.5q-52 30 -113.5 45t-108.5 15q-195 0 -195 -380q0 -185 50 -285t152 -100q60 0 120 39t94 95zM858 955v64q88 4 138 4q206 0 284 -19v-79q-116 -62 -116 -175v-978q0 -33 0.5 -46.5t4.5 -31.5t9.5 -23.5t20.5 -14t32.5 -12t49.5 -8.5
l7 -108q-151 21 -279 21q-122 0 -281 -21l7 109q78 13 97.5 36t19.5 105v286q-144 -87 -299 -87q-199 0 -324 145t-125 389q0 140 56.5 257t162 187.5t238.5 70.5q62 0 151.5 -22.5t145.5 -48.5z" />
    <glyph glyph-name="r" unicode="r" horiz-adv-x="1064" 
d="M532 1006v-187q77 107 159 161.5t194 54.5q80 0 148 -26l-23 -297h-146l-25 149q-14 1 -37 1q-63 0 -113 -27t-80 -71.5t-45.5 -98.5t-15.5 -112v-288v-39t1 -31.5t3.5 -27t6.5 -20t10.5 -17t15.5 -12t22 -11t28.5 -7.5t37.5 -7l10 -105q-254 12 -305 12q-127 0 -265 -12
l5 105q44 6 68 12.5t35.5 22t13.5 30t2 48.5v7v21t-0.5 39.5t-0.5 70.5v105.5v152.5v204q0 47 -4 68q-30 8 -63 8h-114v109q126 31 329 31q71 0 148 -16z" />
    <glyph glyph-name="s" unicode="s" horiz-adv-x="1053" 
d="M77 85l49 259l187 -35l15 -161q65 -33 169 -33q77 0 118.5 35t41.5 91q0 33 -21 61t-60.5 49.5t-76.5 36.5t-88 33t-76 29q-124 54 -184 119.5t-60 167.5q0 141 118 219.5t339 78.5q240 0 361 -86q-3 -22 -49 -241l-162 26q-9 120 -11 139q-52 25 -159 25
q-72 0 -110 -29.5t-38 -83.5q0 -27 14.5 -50t35.5 -39t56 -32.5t63.5 -26.5t70.5 -24.5t66 -24.5q145 -58 213.5 -128t68.5 -164q0 -83 -34.5 -145.5t-96.5 -99.5t-140.5 -55.5t-172.5 -18.5q-124 0 -254.5 31t-192.5 77z" />
    <glyph glyph-name="t" unicode="t" horiz-adv-x="978" 
d="M226 1008l25 171q6 40 33 105l15 38h227v-314h308v-52q0 -49 -26 -64.5t-80 -15.5q-8 0 -26.5 0.5t-28.5 0.5h-147v-553q0 -104 23.5 -150t82.5 -46q36 0 67 24.5t36 46.5q5 19 18 122h181v-251q-139 -86 -364 -86q-356 0 -356 322v571h-194v63q0 25 14 36t44 16
q9 2 148 16z" />
    <glyph glyph-name="u" unicode="u" horiz-adv-x="1359" 
d="M1201 968v-698q0 -89 13 -147h157v-98q-156 -37 -313 -37q-98 0 -136 23.5t-39 100.5q-88 -66 -169.5 -100.5t-190.5 -34.5q-149 0 -228 83t-79 238v493q0 41 -5 86q-30 5 -78 5h-77l-6 111q143 31 304 31q159 0 173 -56q0 -109 0.5 -326.5t0.5 -326.5q0 -34 1.5 -57
t8 -50t18.5 -42.5t34 -26.5t53 -11q65 0 142 32.5t94 54.5q11 88 11 299v281q0 47 -7 82q-28 5 -74 5h-75l-6 111q138 31 304 31q147 0 169 -56z" />
    <glyph glyph-name="v" unicode="v" horiz-adv-x="1298" 
d="M705 278q169 471 207 596q-24 8 -66 8h-53l16 121q113 21 257 21q128 0 229 -21v-121h-49q-52 0 -91 -8q-28 -66 -132 -331t-147 -368l-76 -179q-58 -5 -145 -5t-136 19l-333 791q-21 51 -36 73q-31 8 -73 8h-54l-19 121q93 21 299 21q134 0 268 -21q11 -54 20 -121h-47
q-39 0 -60 -8q4 -14 31 -88q97 -276 190 -508z" />
    <glyph glyph-name="w" unicode="w" horiz-adv-x="1879" 
d="M1130 927l214 -661l139 531q3 10 8.5 36.5t9.5 40.5q-24 8 -62 8h-53q1 4 7 55t8 66q108 21 247 21q129 0 231 -21q0 -20 -0.5 -60.5t-0.5 -60.5h-59q-47 0 -79 -8q-179 -555 -290 -878q-59 -5 -150 -5q-64 0 -127 16q-29 42 -29 67l-180 540q-98 -316 -207 -618
q-59 -5 -151 -5q-74 0 -138 27l-289 779q-15 40 -37 77q-31 8 -77 8h-59l-8 121q92 21 285 21q151 0 271 -21q10 -40 20 -121h-46q-40 0 -60 -8l188 -601q29 91 63.5 204.5t55.5 182t43.5 139t39 114t30.5 67.5q29 14 95 14q67 0 100 -12.5t47 -54.5z" />
    <glyph glyph-name="x" unicode="x" horiz-adv-x="1313" 
d="M855 539l222 -303q57 -78 89 -97t110 -26l20 -125q-123 12 -300 12q-154 0 -270 -12l-16 119q68 8 82 22q-6 20 -47 77l-137 194l-118 -162q-54 -75 -68 -108q22 -15 89 -23q-4 -14 -14 -61t-13 -58q-100 12 -238 12q-98 0 -230 -12l19 119q68 6 99 20t87 58l253 309
l-209 293q-26 36 -71 87q-29 8 -72 8h-61l-14 121q99 21 275 21q170 0 306 -21q10 -40 20 -121h-45q-37 0 -54 -8q7 -12 24 -33.5t22 -29.5l124 -175q27 36 172 238q-20 8 -57 8h-50l22 121q116 21 262 21q116 0 219 -21l-18 -121h-44q-55 0 -96 -8l-114 -141
q-88 -110 -160 -194z" />
    <glyph glyph-name="y" unicode="y" horiz-adv-x="1297" 
d="M598 556l106 -278q106 290 188 524q3 10 10.5 34.5t10.5 37.5q-24 8 -65 8h-54l17 121q113 21 256 21q129 0 230 -21v-121h-60q-46 0 -79 -8l-347 -843q-29 -71 -48.5 -115.5t-45.5 -96t-47 -82t-50 -63t-59 -50t-68.5 -32.5t-83.5 -21t-101 -6q-142 0 -215 33l39 154
q100 -37 191 -37q44 0 74.5 13.5t55.5 50t43 78t46 119.5l-341 792q-28 65 -51 106q-38 8 -78 8h-59l-9 121q97 20 281 20q157 0 286 -20q13 -62 19 -121h-46q-42 0 -63 -8q34 -100 117 -318z" />
    <glyph glyph-name="z" unicode="z" horiz-adv-x="1079" 
d="M986 817l-594 -684h341q59 0 87 17q25 44 60 168q17 1 37 2t44 2t37 2v-194q0 -27 2.5 -70t2.5 -65q-115 5 -323 5h-411q-70 0 -138 4q-30 6 -43.5 24t-13.5 62v80l620 708h-332q-70 0 -96 -18q-25 -62 -35 -158h-4q-86 -6 -129 -7q-5 109 -5 199q0 23 0.5 61.5t0.5 56.5
q126 0 392 -2t397 -2q66 0 84.5 -19t18.5 -86v-86z" />
    <glyph glyph-name="braceleft" unicode="{" horiz-adv-x="748" 
d="M468 1271v-388q0 -179 -135 -234q135 -57 135 -232v-389q0 -30 1 -52t5 -36.5t6 -23t11 -14t12 -7t16.5 -4.5t18.5 -4q38 -10 127 -19v-24q0 -23 -20 -46q-66 -20 -129 -20q-75 0 -128.5 11t-95.5 38t-63 77.5t-21 124.5v402q0 80 -30.5 127.5t-95.5 71.5v66
q126 74 126 173v412q0 72 21.5 120.5t65 74t98 35.5t132.5 10q67 0 102 -12.5t38 -52.5v-26q-120 -7 -158.5 -37t-38.5 -122z" />
    <glyph glyph-name="bar" unicode="|" horiz-adv-x="1234" 
d="M728 1420v-1657h-97q-88 0 -114 43q-13 53 -13 145v1556h97q60 0 91.5 -20.5t35.5 -66.5z" />
    <glyph glyph-name="braceright" unicode="}" horiz-adv-x="744" 
d="M222 1521q94 0 151.5 -13t96.5 -49t54.5 -96.5t15.5 -157.5v-305q0 -63 34 -108.5t87 -68.5v-93q-79 -29 -100.5 -92.5t-21.5 -209.5v-186q0 -115 -9 -178.5t-41 -103.5q-38 -48 -105.5 -65t-173.5 -17q-35 0 -59.5 3t-46.5 18t-22 42v29q120 9 157 36.5t37 121.5
q0 43 1 163.5t1 163.5q0 119 30 190.5t106 103.5q-138 52 -138 263q0 45 1 169.5t1 167.5q0 40 -3.5 67.5t-14.5 47t-23 31t-38 19t-50 11t-67 6.5v25q0 39 35 52t105 13z" />
    <glyph glyph-name="asciitilde" unicode="~" horiz-adv-x="1204" 
d="M1026 645q49 -63 64 -102q-23 -70 -90.5 -109.5t-152.5 -39.5q-41 0 -85 10t-71 20t-88 36.5t-90 38.5q-75 31 -139 31q-105 0 -185 -132q-59 61 -76 97q19 72 99.5 124t157.5 52q46 0 100 -13.5t83.5 -25.5t79.5 -34q76 -34 114 -47t76 -13q71 0 124 31t79 76z" />
    <glyph glyph-name="uni00A0" unicode="&#xa0;" horiz-adv-x="580" 
 />
    <glyph glyph-name="exclamdown" unicode="&#xa1;" horiz-adv-x="786" 
d="M399 1435q78 0 123.5 -46t45.5 -117q0 -68 -46.5 -115.5t-122.5 -47.5t-122.5 47t-46.5 116q0 71 45.5 117t123.5 46zM491 978q-1 -70 27 -382l39 -452q2 -23 2 -59q0 -64 -39.5 -85.5t-121.5 -21.5q-119 0 -181 56q0 2 -0.5 5t-0.5 4q0 13 4 50t10.5 98t11.5 115
q10 128 52 600q4 55 27 72t92 17q41 0 78 -17z" />
    <glyph glyph-name="cent" unicode="&#xa2;" horiz-adv-x="1218" 
d="M1058 309l49 -96q-106 -156 -361 -175v-217h-34q-59 0 -74.5 17t-15.5 72v129q-223 19 -352.5 152.5t-129.5 354.5q0 119 37.5 216t104 162.5t152.5 106.5t188 57v226h34q54 0 72 -16t18 -68v-133h12q23 0 79 -5.5t146 -31t125 -65.5q-2 -36 -4 -56l-31 -155l-182 11
q-30 62 -64.5 97t-80.5 48v-758q162 1 312 127zM622 208v736q-163 -79 -163 -366q0 -284 163 -370z" />
    <glyph glyph-name="sterling" unicode="&#xa3;" horiz-adv-x="1246" 
d="M306 371q0 144 -14 295h-200v61q0 45 20 56.5t67 11.5h96q-27 186 -27 266q0 88 28 155.5t73.5 109.5t110 68.5t130 36.5t140.5 10q133 0 254.5 -27t180.5 -81q-1 -44 -1 -133q0 -90 1 -134l-180 -23q-40 131 -100 190.5t-155 59.5q-86 0 -129.5 -61t-43.5 -177
q0 -60 8 -128l14 -132h324v-60q0 -43 -23.5 -56.5t-75.5 -13.5q-4 0 -22.5 0.5t-66 0.5h-121.5q7 -105 7 -148q0 -103 -26.5 -191.5t-84.5 -184.5h171q65 0 102 2t78.5 10t65.5 23t50.5 42.5t46.5 67.5t41 98l141 -28q0 -154 -28 -342q-170 -19 -470 -19q-260 0 -568 4
q-44 39 -44 117q120 36 175 92t55 162z" />
    <glyph glyph-name="currency" unicode="&#xa4;" horiz-adv-x="1304" 
d="M1096 1108l-107 -106q90 -117 90 -272q0 -156 -91 -268l130 -132l-8 -8q-58 -58 -86 -70q-16 6 -36 24t-52 52t-39 41q-124 -90 -273 -90q-147 0 -267 90l-131 -129q-67 65 -80 88q14 28 38 53l82 81q-90 114 -90 269t90 269l-133 131q8 7 28.5 28t35.5 33t29 18
q30 -17 50 -37l80 -80q122 91 269 91q146 0 270 -92l132 132l9 -9q20 -20 31 -31.5t20.5 -29t9.5 -33.5q0 -11 -1 -13zM308 731q0 -139 92.5 -231t226.5 -92q135 0 227.5 93.5t92.5 229.5q0 137 -92 230.5t-228 93.5q-135 0 -227 -93t-92 -231z" />
    <glyph glyph-name="yen" unicode="&#xa5;" horiz-adv-x="1597" 
d="M1094 1161q27 60 34 107q-21 6 -76 6h-87l28 135q127 13 262 13h94q140 0 244 -14l-32 -134h-126q-37 0 -54.5 -20.5t-71.5 -124.5l-281 -500h242v-53q0 -24 -5 -38.5t-19.5 -21t-24.5 -8.5t-34 -3h-223v-104h306v-52q0 -43 -19.5 -57t-60.5 -14h-226v-33q0 -62 10 -109
q38 -5 98 -5h93v-146q-205 15 -330 15h-48q-137 0 -344 -15v146h91q67 0 98 5q11 39 11 97v45h-308v71q25 29 59.5 40.5t91.5 11.5h156v75l-3 29h-304v71q46 53 151 53h82q-266 445 -314 527q-10 18 -30.5 56t-32.5 56q-25 6 -79 6h-86l-24 135q131 13 371 13q207 0 319 -14
l13 -134h-78q-52 0 -71 -6q12 -51 36 -91l269 -473q140 258 233 457z" />
    <glyph glyph-name="brokenbar" unicode="&#xa6;" horiz-adv-x="935" 
d="M586 303v-730h-130q-66 0 -86 28t-20 112v653h107q58 0 88 -14t41 -49zM586 1430v-731h-109q-77 0 -102 20t-25 84v690h107q57 0 87.5 -14.5t41.5 -48.5z" />
    <glyph glyph-name="section" unicode="&#xa7;" horiz-adv-x="1040" 
d="M279 957q-60 47 -86.5 100.5t-26.5 135.5q0 80 31.5 140.5t87.5 96.5t127.5 53.5t158.5 17.5q67 0 142 -18.5t116 -36.5l41 -18l-41 -216l-114 4q-28 78 -66.5 109t-121.5 31q-78 0 -122.5 -32.5t-44.5 -96.5t45 -101t153 -85q121 -54 188 -90.5t113.5 -78t62.5 -84.5
t16 -106q0 -181 -139 -262q121 -88 121 -234q0 -109 -54.5 -182t-143 -105t-206.5 -32q-152 0 -310 73q-46 21 -69 45q0 175 4 243h119q35 -111 97 -162.5t178 -51.5q85 0 136 35.5t51 103.5q0 43 -41.5 77.5t-164.5 92.5l-139 66q-9 6 -37.5 22.5t-42 25t-39.5 27.5
t-40 33.5t-32.5 39t-28.5 48t-17 56t-7 68.5q0 91 36 150t110 98zM424 876q-51 -29 -75.5 -61.5t-24.5 -78.5q0 -50 29 -79t105 -69q123 -65 181 -89q108 59 108 144q0 43 -58.5 91.5t-127.5 79.5q-31 14 -58 26t-39.5 18t-22 10t-13 5.5t-4.5 2.5z" />
    <glyph glyph-name="dieresis" unicode="&#xa8;" horiz-adv-x="1101" 
d="M461 1257q0 -72 -45 -114.5t-120 -42.5t-120 42.5t-45 114.5q0 68 47 111.5t118 43.5q72 0 118.5 -43t46.5 -112zM956 1257q0 -72 -45 -114.5t-120 -42.5t-120 42.5t-45 114.5q0 68 47 111.5t118 43.5q72 0 118.5 -43t46.5 -112z" />
    <glyph glyph-name="copyright" unicode="&#xa9;" horiz-adv-x="1724" 
d="M267 707q0 -127 45.5 -239.5t124 -193t189.5 -127.5t236 -47q175 0 314 84.5t212.5 222.5t73.5 300q0 128 -46.5 241t-126.5 193.5t-191.5 127.5t-235.5 47q-169 0 -306 -81.5t-213 -221t-76 -306.5zM113 706q0 151 55.5 288t152.5 238.5t238 162t303 60.5t303 -60
t238 -161.5t152.5 -239t55.5 -288.5q0 -154 -57 -291.5t-155.5 -237t-238.5 -158t-298 -58.5q-160 0 -300 58t-238 158t-154.5 237.5t-56.5 291.5zM1160 496l11 -107q-113 -76 -288 -76q-190 0 -306.5 103.5t-116.5 286.5q0 99 34.5 178t94.5 128t137.5 75t166.5 26
q85 0 159 -23t120 -64l-12 -150h-121q-34 70 -72.5 101.5t-88.5 31.5q-86 0 -135 -78t-49 -192q0 -157 55.5 -237t150.5 -80q139 0 260 77z" />
    <glyph glyph-name="ordfeminine" unicode="&#xaa;" horiz-adv-x="877" 
d="M500 887q6 91 6 181h-46q-173 0 -173 -130q0 -48 23.5 -75t64.5 -27q56 0 125 51zM839 832v-68q-88 -22 -184 -22q-61 0 -92 17q-9 9 -23.5 34t-20.5 31q-96 -94 -215 -94q-109 0 -173.5 52t-64.5 149q0 217 384 217h56v41q0 73 -10.5 111t-26 47.5t-43.5 9.5
q-57 0 -105.5 -36.5t-101.5 -106.5q-76 45 -134 84q0 57 92 103.5t221 46.5q173 0 252 -66.5t79 -200.5q0 -19 -0.5 -63t-0.5 -68v-98q0 -90 4 -114q38 -6 107 -6z" />
    <glyph glyph-name="guillemotleft" unicode="&#xab;" horiz-adv-x="1062" 
d="M449 84l-316 417q8 60 20 97l272 364q9 12 40 48q26 -7 117 -49q-100 -181 -235 -417q102 -191 221 -410q-41 -32 -64 -41t-55 -9zM795 101l-301 400q3 45 19 97l258 347q7 10 21 26t18 21q39 -11 119 -48q-93 -173 -221 -400l206 -393q-36 -31 -60.5 -40.5t-58.5 -9.5z
" />
    <glyph glyph-name="logicalnot" unicode="&#xac;" horiz-adv-x="1297" 
d="M966 304v355h-833v73q0 59 22 73t86 14h923v-576h-95q-49 0 -74 14t-29 47z" />
    <glyph glyph-name="uni00AD" unicode="&#xad;" horiz-adv-x="772" 
d="M625 452h-552v101q0 24 10 39t28.5 20.5t31 7t31.5 1.5h13.5t40.5 0.5t82 0.5h157.5h247.5v-96q0 -32 -23 -49t-67 -25z" />
    <glyph glyph-name="registered" unicode="&#xae;" horiz-adv-x="1724" 
d="M839 1006q-37 0 -54 -1v-285q14 -1 45 -1q86 0 125.5 34t39.5 111q0 79 -35 110.5t-121 31.5zM610 463v486q0 35 -6 53q-6 0 -19.5 1t-21.5 1h-71v69q14 1 57 6t76 7q68 4 209 4q166 0 253.5 -49.5t87.5 -171.5q0 -80 -52.5 -133.5t-135.5 -73.5q118 -40 192 -206
q18 -39 26 -45q27 2 76 23l12 -61q-74 -60 -154 -60q-46 0 -71.5 20t-46.5 72q-60 147 -136 245q-67 0 -100 1v-187q0 -28 6 -58q21 -3 47 -3h43v-82q-122 8 -209 8q-64 0 -165 -8v82h46q35 0 51 3q6 20 6 57zM267 707q0 -127 45.5 -239.5t124 -193t189.5 -127.5t236 -47
q175 0 314 84.5t212.5 222.5t73.5 300q0 128 -46.5 241t-126.5 193.5t-191.5 127.5t-235.5 47q-169 0 -306 -81.5t-213 -221t-76 -306.5zM113 706q0 151 55.5 288t152.5 238.5t238 162t303 60.5t303 -60t238 -161.5t152.5 -239t55.5 -288.5q0 -154 -57 -291.5t-155.5 -237
t-238.5 -158t-298 -58.5q-160 0 -300 58t-238 158t-154.5 237.5t-56.5 291.5z" />
    <glyph glyph-name="degree" unicode="&#xb0;" horiz-adv-x="727" 
d="M196 1174q0 -71 48 -118t118 -47q71 0 118.5 47t47.5 118q0 69 -47.5 116.5t-118.5 47.5t-118.5 -47.5t-47.5 -116.5zM98 1174q0 110 76 183t188 73q113 0 189 -73.5t76 -182.5q0 -110 -76 -184t-189 -74q-112 0 -188 73.5t-76 184.5z" />
    <glyph glyph-name="plusminus" unicode="&#xb1;" horiz-adv-x="1225" 
d="M1006 34h-873v78q0 57 25.5 71.5t104.5 14.5h829v-77q0 -79 -86 -87zM954 671h-260v-337h-91q-61 0 -81.5 16.5t-20.5 75.5v245h-348v78q0 44 14.5 59.5t51.5 21.5q39 6 129 6h153v337h47q80 0 110 -14.5t36 -64.5v-258h349v-78q-3 -44 -21.5 -63.5t-67.5 -23.5z" />
    <glyph glyph-name="twosuperior" unicode="&#xb2;" horiz-adv-x="884" 
d="M437 1347q-63 0 -114 -48t-69 -129l-132 94q7 77 97 124.5t217 47.5q148 0 227.5 -64t79.5 -184q0 -60 -26 -117t-88 -123.5t-130.5 -125.5t-187.5 -153h217q56 0 96.5 29.5t71.5 99.5q15 -1 40 -4.5t35 -4.5q0 -121 -9 -231q-56 -13 -231 -13h-350q-37 0 -52 12t-18 42
q0 15 5 45q198 186 295 288t122 159q23 51 23 112q0 70 -30 107t-89 37z" />
    <glyph glyph-name="threesuperior" unicode="&#xb3;" horiz-adv-x="866" 
d="M567 1225q0 58 -38.5 89.5t-98.5 31.5q-63 0 -116 -41t-69 -114l-118 86q29 81 107.5 122.5t190.5 41.5q125 0 214.5 -55.5t89.5 -153.5q0 -80 -53.5 -135.5t-153.5 -76.5q115 -16 177 -75t62 -160q0 -84 -47 -143t-119 -85t-161 -26q-90 0 -170.5 27.5t-126.5 70.5
q2 93 12 178l96 -12q9 -85 55 -127.5t116 -42.5q73 0 115 46t42 120q0 168 -219 168h-59v40q0 19 6 29.5t10 12.5t21 4t21 3q79 6 146.5 54.5t67.5 122.5z" />
    <glyph glyph-name="acute" unicode="&#xb4;" horiz-adv-x="1216" 
d="M546 1192h-184q64 126 170 345h320q-96 -117 -306 -345z" />
    <glyph glyph-name="mu" unicode="&#xb5;" horiz-adv-x="1562" 
d="M1011 483v315q0 45 -6 81q-29 6 -64 6h-86l-5 105q150 33 306 33q62 0 126 -8q41 -10 41 -68v-639q0 -142 16 -184q29 -2 92 -2h61v-97q-154 -36 -316 -36q-42 0 -66 2t-46.5 8.5t-34 20.5t-18.5 36t-8 56q-86 -62 -162 -97.5t-152 -35.5q-36 0 -69 11q0 -56 2.5 -89.5
t10 -66.5t22.5 -52t40 -33.5t63 -23.5q0 -10 0.5 -22.5t1 -19t0.5 -10.5v-26q-91 -54 -219 -54q-49 0 -83 4.5t-67 24t-41 54.5q-12 48 -12 129v993q0 45 -6 81q-30 6 -66 6h-89l-6 105q161 35 318 35q76 0 121 -11q39 -9 39 -67v-311q0 -60 0.5 -178t0.5 -177
q0 -77 24.5 -118.5t96.5 -41.5q62 0 136.5 35.5t92.5 58.5q4 25 6 61t2.5 61t1.5 76t1 70z" />
    <glyph glyph-name="paragraph" unicode="&#xb6;" horiz-adv-x="1207" 
d="M655 1387h142q245 0 327 -15v-100h-92q-74 0 -103 -11q-15 -41 -15 -120v-1077q0 -77 16 -121q27 -9 103 -9h89v-136q-187 19 -348 19v1494h-154v-1494q-161 0 -348 -19v136h89q76 0 103 9q16 44 16 121v531q-201 0 -299.5 105.5t-98.5 303.5q0 109 39.5 185t117 118.5
t178 61t238.5 18.5z" />
    <glyph glyph-name="periodcentered" unicode="&#xb7;" horiz-adv-x="642" 
d="M322 636q-78 0 -123 46t-45 117q0 70 46 117t121 47q74 0 120 -48t46 -116q0 -71 -44 -116.5t-121 -46.5z" />
    <glyph glyph-name="cedilla" unicode="&#xb8;" horiz-adv-x="675" 
d="M119 -366q82 -24 134 -24q62 0 98 26t36 73q0 97 -100 113q-3 0 -37 -8q-8 5 -27.5 13t-23.5 10l85 174h101l-56 -107q112 -6 168.5 -46t56.5 -130q0 -111 -69.5 -168.5t-188.5 -57.5q-113 0 -177 41q-6 17 -6 40q0 24 6 51z" />
    <glyph glyph-name="onesuperior" unicode="&#xb9;" horiz-adv-x="711" 
d="M469 1389v-696q0 -31 6 -50q16 -3 50 -3h67v-96q-102 9 -215 9q-105 0 -225 -9v96h82q24 0 34 3q7 25 7 65v570q0 25 -1 37q-21 9 -47 9q-3 0 -9 -0.5t-9 -0.5l-65 -6l-5 64q176 48 257 48q42 0 56 -8.5t17 -31.5z" />
    <glyph glyph-name="ordmasculine" unicode="&#xba;" horiz-adv-x="928" 
d="M465 1349q-81 0 -115.5 -66.5t-34.5 -194.5q0 -126 35 -192.5t115 -66.5q79 0 113.5 67t34.5 193q0 127 -34.5 193.5t-113.5 66.5zM856 1087q0 -114 -54.5 -196.5t-141.5 -121.5t-195 -39q-175 0 -284 96t-109 261q0 168 110.5 265t282.5 97t281.5 -98t109.5 -264z" />
    <glyph glyph-name="guillemotright" unicode="&#xbb;" horiz-adv-x="1062" 
d="M928 501q-34 -43 -101.5 -133.5t-121.5 -160t-106 -129.5q-50 11 -111 56q19 34 99 178.5t128 231.5q-150 265 -230 417q88 41 116 49q34 -43 38 -48l249 -338q17 -23 26 -44.5t11 -36.5t3 -42zM568 501q-41 -52 -147 -192.5t-168 -213.5q-40 8 -112 56l213 393
q-143 258 -214 400q65 34 115 48q31 -36 37 -44l238 -327q22 -31 28.5 -55t9.5 -65z" />
    <glyph glyph-name="onequarter" unicode="&#xbc;" horiz-adv-x="1884" 
d="M1182 342h247v368q-93 -134 -247 -368zM1682 245h-61v-73q0 -48 7 -70q24 -3 53 -3h70v-103q-123 10 -219 10q-103 0 -240 -10v103h75q39 0 55 3q7 22 7 69v74h-360q-43 57 -43 111q11 19 37 57q316 453 360 512h100q24 0 35 -0.5t26 -3t21 -8.5t11 -17t5 -28v-526h175
v-42q0 -34 -18 -45t-55 -11q-6 0 -20 0.5t-21 0.5zM414 1389v-696q0 -28 5 -50q16 -3 51 -3h66v-96q-100 9 -214 9q-105 0 -225 -9v96h82q24 0 34 3q6 28 6 65v607q-21 9 -47 9q-3 0 -9 -0.5t-10 -0.5l-64 -6l-6 64q178 48 257 48q42 0 56 -8.5t18 -31.5zM1128 1402
q40 40 113 40q35 0 85 -9q-36 -76 -56 -116l-601 -1211q-36 -72 -74 -129q-19 -8 -48 -8h-58q-46 0 -70 7q139 283 407 820.5t302 605.5z" />
    <glyph glyph-name="onehalf" unicode="&#xbd;" horiz-adv-x="1911" 
d="M1475 802q-63 0 -114 -48t-69 -129l-132 94q7 77 97 124.5t217 47.5q147 0 227 -64t80 -184q0 -48 -19.5 -96.5t-51 -92.5t-91 -101t-117.5 -105.5t-153 -123.5h216q57 0 97.5 29.5t71.5 99.5q14 -1 39 -4.5t35 -4.5q0 -134 -8 -231q-57 -13 -231 -13h-351
q-36 0 -51 11.5t-18 42.5q0 15 5 45q198 187 295 288.5t121 158.5q23 52 23 112q0 144 -118 144zM414 1389v-696q0 -28 5 -50q16 -3 51 -3h66v-96q-100 9 -214 9q-105 0 -225 -9v96h82q24 0 34 3q6 28 6 65v607q-21 9 -47 9q-3 0 -9 -0.5t-10 -0.5l-64 -6l-6 64
q178 48 257 48q42 0 56 -8.5t18 -31.5zM1126 1402q40 40 113 40q35 0 85 -9l-693 -1440q-65 -25 -129 -25q-36 0 -86 8q26 59 78 161q70 141 290.5 582z" />
    <glyph glyph-name="threequarters" unicode="&#xbe;" horiz-adv-x="2006" 
d="M557 1225q0 58 -39 89.5t-99 31.5q-63 0 -116 -41t-68 -114l-119 86q30 81 108.5 122.5t190.5 41.5q125 0 214.5 -55.5t89.5 -153.5q0 -80 -54 -135.5t-154 -76.5q116 -16 177.5 -75t61.5 -160q0 -84 -47 -143t-119 -85t-161 -26q-90 0 -170.5 27.5t-126.5 70.5
q5 110 12 178l97 -12q8 -85 54 -127.5t117 -42.5q73 0 115 46t42 120q0 168 -220 168h-58v40q0 19 6 29.5t10 12.5t21 4t21 3q78 6 146 54.5t68 122.5zM1562 677l-231 -335h231v335zM1807 245h-60v-73q0 -51 6 -70q24 -3 54 -3h69v-103q-121 10 -218 10q-90 0 -226 -10v103
h69q38 0 54 3q7 22 7 69v74h-354q-42 55 -42 111q14 24 37 57q305 440 359 512h86q24 0 35 -0.5t26.5 -3t21.5 -8.5t11 -17t5 -28v-526h174v-42q0 -34 -17 -45t-53 -11q-6 0 -21 0.5t-23 0.5zM645 141l630 1261q40 40 113 40q35 0 85 -9l-36 -76t-43 -88l-633 -1267
q-35 -34 -109 -34q-37 0 -87 8q50 106 80 165z" />
    <glyph glyph-name="questiondown" unicode="&#xbf;" horiz-adv-x="1055" 
d="M435 1022q78 9 143 9q61 -33 109.5 -87t48.5 -111q0 -30 -9 -57t-30.5 -55.5t-35 -44t-46 -46t-40.5 -38.5q-75 -75 -110 -140.5t-35 -143.5q0 -87 44 -135.5t112 -48.5q77 0 199 32q3 66 4 137h168v-249q-24 -8 -64 -20.5t-144.5 -33.5t-184.5 -21q-207 0 -335 91.5
t-128 256.5q0 34 8.5 66.5t20 59t35.5 58.5t42.5 53t55 54.5t58.5 52.5t66 56q30 25 43 60.5t13 110.5q0 87 -8 134zM558 1147q-68 0 -109.5 47t-41.5 108q0 56 37.5 95.5t109.5 39.5q77 0 118 -42.5t41 -100.5q0 -59 -41.5 -103t-113.5 -44z" />
    <glyph glyph-name="Agrave" unicode="&#xc0;" horiz-adv-x="1623" 
d="M875 1411q60 -30 98.5 -64t57.5 -84q81 -217 204 -548t169 -452q36 -97 52 -122q28 -6 140 -14l27 -140q-153 13 -316 13q-142 0 -306 -13l-10 133q102 2 102 29q-8 51 -37 132l-46 126h-461l-38 -121q-28 -87 -28 -127q0 -9 7 -16t21.5 -10.5t25 -5t30.5 -3.5t24 -2
l-17 -135q-86 13 -257 13q-213 0 -313 -13l33 137l37 2q63 0 92.5 30t54.5 97q93 251 454 1166h107q50 0 93 -8zM781 1144h-7l-193 -610h389q-31 96 -96 308.5t-93 301.5zM866 1601l-294 346h308l170 -345q-30 0 -92 -0.5t-92 -0.5z" />
    <glyph glyph-name="Aacute" unicode="&#xc1;" horiz-adv-x="1623" 
d="M875 1411q60 -30 98.5 -64t57.5 -84q81 -217 204 -548t169 -452q36 -97 52 -122q28 -6 140 -14l27 -140q-153 13 -316 13q-142 0 -306 -13l-10 133q102 2 102 29q-8 51 -37 132l-46 126h-461l-38 -121q-28 -87 -28 -127q0 -9 7 -16t21.5 -10.5t25 -5t30.5 -3.5t24 -2
l-17 -135q-86 13 -257 13q-213 0 -313 -13l33 137l37 2q63 0 92.5 30t54.5 97q93 251 454 1166h107q50 0 93 -8zM781 1144h-7l-193 -610h389q-31 96 -96 308.5t-93 301.5zM750 1602h-184q64 126 170 345h320q-96 -117 -306 -345z" />
    <glyph glyph-name="Acircumflex" unicode="&#xc2;" horiz-adv-x="1623" 
d="M875 1411q60 -30 98.5 -64t57.5 -84q81 -217 204 -548t169 -452q36 -97 52 -122q28 -6 140 -14l27 -140q-153 13 -316 13q-142 0 -306 -13l-10 133q102 2 102 29q-8 51 -37 132l-46 126h-461l-38 -121q-28 -87 -28 -127q0 -9 7 -16t21.5 -10.5t25 -5t30.5 -3.5t24 -2
l-17 -135q-86 13 -257 13q-213 0 -313 -13l33 137l37 2q63 0 92.5 30t54.5 97q93 251 454 1166h107q50 0 93 -8zM781 1144h-7l-193 -610h389q-31 96 -96 308.5t-93 301.5zM1154 1638q-6 -21 -51 -21h-142l-149 184l-146 -184h-145q-47 0 -53 21q7 28 21 45l188 270h268
l166 -237q3 -4 11 -15t11.5 -16.5t8.5 -14.5t8 -16.5t4 -15.5z" />
    <glyph glyph-name="Atilde" unicode="&#xc3;" horiz-adv-x="1623" 
d="M875 1411q60 -30 98.5 -64t57.5 -84q81 -217 204 -548t169 -452q36 -97 52 -122q28 -6 140 -14l27 -140q-153 13 -316 13q-142 0 -306 -13l-10 133q102 2 102 29q-8 51 -37 132l-46 126h-461l-38 -121q-28 -87 -28 -127q0 -9 7 -16t21.5 -10.5t25 -5t30.5 -3.5t24 -2
l-17 -135q-86 13 -257 13q-213 0 -313 -13l33 137l37 2q63 0 92.5 30t54.5 97q93 251 454 1166h107q50 0 93 -8zM781 1144h-7l-193 -610h389q-31 96 -96 308.5t-93 301.5zM862 1861q9 -5 28.5 -15t29.5 -15.5t24.5 -10t26.5 -4.5q36 0 67.5 29.5t51.5 69.5q67 -18 114 -43
q-57 -105 -116 -158t-129 -53q-76 0 -190 59q-90 47 -122 47q-17 0 -33.5 -7t-31 -21t-23 -23t-21.5 -27t-14 -20q-60 17 -106 43q95 208 249 208q81 0 195 -59z" />
    <glyph glyph-name="Adieresis" unicode="&#xc4;" horiz-adv-x="1623" 
d="M875 1411q60 -30 98.5 -64t57.5 -84q81 -217 204 -548t169 -452q36 -97 52 -122q28 -6 140 -14l27 -140q-153 13 -316 13q-142 0 -306 -13l-10 133q102 2 102 29q-8 51 -37 132l-46 126h-461l-38 -121q-28 -87 -28 -127q0 -9 7 -16t21.5 -10.5t25 -5t30.5 -3.5t24 -2
l-17 -135q-86 13 -257 13q-213 0 -313 -13l33 137l37 2q63 0 92.5 30t54.5 97q93 251 454 1166h107q50 0 93 -8zM781 1144h-7l-193 -610h389q-31 96 -96 308.5t-93 301.5zM729 1667q0 -72 -45 -114.5t-120 -42.5t-120 42.5t-45 114.5q0 68 47 111.5t118 43.5q72 0 118.5 -43
t46.5 -112zM1224 1667q0 -72 -45 -114.5t-120 -42.5t-120 42.5t-45 114.5q0 68 47 111.5t118 43.5q72 0 118.5 -43t46.5 -112z" />
    <glyph glyph-name="Aring" unicode="&#xc5;" horiz-adv-x="1623" 
d="M875 1411q60 -30 98.5 -64t57.5 -84q81 -217 204 -548t169 -452q36 -97 52 -122q28 -6 140 -14l27 -140q-153 13 -316 13q-142 0 -306 -13l-10 133q102 2 102 29q-8 51 -37 132l-46 126h-461l-38 -121q-28 -87 -28 -127q0 -9 7 -16t21.5 -10.5t25 -5t30.5 -3.5t24 -2
l-17 -135q-86 13 -257 13q-213 0 -313 -13l33 137l37 2q63 0 92.5 30t54.5 97q93 251 454 1166h107q50 0 93 -8zM781 1144h-7l-193 -610h389q-31 96 -96 308.5t-93 301.5zM935 1792q0 56 -33.5 89t-90.5 33q-56 0 -90 -33.5t-34 -88.5q0 -57 33 -89t91 -32q56 0 90 32.5
t34 88.5zM1030 1792q0 -93 -62 -150t-157 -57q-96 0 -157.5 57t-61.5 150q0 92 61.5 149t157.5 57t157.5 -57t61.5 -149z" />
    <glyph glyph-name="AE" unicode="&#xc6;" horiz-adv-x="2154" 
d="M866 1096l-247 -562h388zM1320 0q-163 0 -329 -13v133l42 4q65 2 65 22q0 4 -2 24q-7 39 -57 237h-460l-60 -149q-28 -71 -28 -98q0 -10 7 -17.5t22 -11t25 -5t29.5 -3t22.5 -1.5l-28 -135q-95 13 -300 13q-166 0 -269 -13l44 137l37 2q56 3 86 16q31 27 69 115
q44 102 242.5 516t303.5 640h964l63 -129q17 -36 45.5 -97.5t36.5 -79.5l-177 -17q-43 95 -79 145q-97 24 -262 24q-15 0 -243 -2l133 -469h189q50 0 85 22q24 9 35 29t11 71h99q40 -132 111 -393q-12 -1 -36 -1q-12 0 -35 0.5t-34 0.5q-44 77 -72.5 105t-68.5 28h-242
l143 -504h303q57 0 86.5 1t64 6.5t47.5 16.5q0 31 -21 173q34 0 97.5 -1t96.5 -1q39 -143 83 -323q-163 -26 -391 -26q-85 0 -247.5 4t-246.5 4z" />
    <glyph glyph-name="Ccedilla" unicode="&#xc7;" horiz-adv-x="1446" 
d="M1351 263l19 -167q-226 -132 -528 -132q-219 0 -381.5 79.5t-254 240.5t-91.5 389q0 367 196 565t554 198q140 0 269 -33t214 -84l-23 -310h-190q-13 55 -34 101.5t-53 88.5t-80 66t-107 24q-200 0 -301.5 -152t-101.5 -422q0 -291 105 -439.5t300 -148.5q122 0 235.5 34
t252.5 102zM508 -366q82 -24 134 -24q62 0 98 26t36 73q0 97 -100 113q-3 0 -37 -8q-8 5 -27.5 13t-23.5 10l85 174h101l-56 -107q112 -6 168.5 -46t56.5 -130q0 -111 -69.5 -168.5t-188.5 -57.5q-113 0 -177 41q-6 17 -6 40q0 24 6 51z" />
    <glyph glyph-name="Egrave" unicode="&#xc8;" horiz-adv-x="1409" 
d="M664 1413h603l25 -129q21 -113 30 -177l-184 -17q-16 96 -35 145q-92 24 -236 24q-71 0 -264 -4v-467h232q62 0 82 21.5t41 100.5h100q0 -174 -7 -393q-12 -1 -36 -1q-11 0 -34 0.5t-35 0.5q-21 80 -41 106.5t-59 26.5h-243v-504h371q98 0 135 24q16 47 30 173
q116 -2 194 -2l-3 -127q-7 -152 -10 -196q-169 -26 -397 -26q-109 0 -276 4t-237 4q-211 0 -336 -7v153h112q61 0 87 4q11 41 11 101v893q0 59 -12 104q-25 5 -85 5h-119v133q251 27 596 27zM759 1601l-294 346h308l170 -345q-30 0 -92 -0.5t-92 -0.5z" />
    <glyph glyph-name="Eacute" unicode="&#xc9;" horiz-adv-x="1409" 
d="M664 1413h603l25 -129q21 -113 30 -177l-184 -17q-16 96 -35 145q-92 24 -236 24q-71 0 -264 -4v-467h232q62 0 82 21.5t41 100.5h100q0 -174 -7 -393q-12 -1 -36 -1q-11 0 -34 0.5t-35 0.5q-21 80 -41 106.5t-59 26.5h-243v-504h371q98 0 135 24q16 47 30 173
q116 -2 194 -2l-3 -127q-7 -152 -10 -196q-169 -26 -397 -26q-109 0 -276 4t-237 4q-211 0 -336 -7v153h112q61 0 87 4q11 41 11 101v893q0 59 -12 104q-25 5 -85 5h-119v133q251 27 596 27zM643 1602h-184q64 126 170 345h320q-96 -117 -306 -345z" />
    <glyph glyph-name="Ecircumflex" unicode="&#xca;" horiz-adv-x="1409" 
d="M664 1413h603l25 -129q21 -113 30 -177l-184 -17q-16 96 -35 145q-92 24 -236 24q-71 0 -264 -4v-467h232q62 0 82 21.5t41 100.5h100q0 -174 -7 -393q-12 -1 -36 -1q-11 0 -34 0.5t-35 0.5q-21 80 -41 106.5t-59 26.5h-243v-504h371q98 0 135 24q16 47 30 173
q116 -2 194 -2l-3 -127q-7 -152 -10 -196q-169 -26 -397 -26q-109 0 -276 4t-237 4q-211 0 -336 -7v153h112q61 0 87 4q11 41 11 101v893q0 59 -12 104q-25 5 -85 5h-119v133q251 27 596 27zM1047 1638q-6 -21 -51 -21h-142l-149 184l-146 -184h-145q-47 0 -53 21
q7 28 21 45l188 270h268l166 -237q3 -4 11 -15t11.5 -16.5t8.5 -14.5t8 -16.5t4 -15.5z" />
    <glyph glyph-name="Edieresis" unicode="&#xcb;" horiz-adv-x="1409" 
d="M664 1413h603l25 -129q21 -113 30 -177l-184 -17q-16 96 -35 145q-92 24 -236 24q-71 0 -264 -4v-467h232q62 0 82 21.5t41 100.5h100q0 -174 -7 -393q-12 -1 -36 -1q-11 0 -34 0.5t-35 0.5q-21 80 -41 106.5t-59 26.5h-243v-504h371q98 0 135 24q16 47 30 173
q116 -2 194 -2l-3 -127q-7 -152 -10 -196q-169 -26 -397 -26q-109 0 -276 4t-237 4q-211 0 -336 -7v153h112q61 0 87 4q11 41 11 101v893q0 59 -12 104q-25 5 -85 5h-119v133q251 27 596 27zM622 1667q0 -72 -45 -114.5t-120 -42.5t-120 42.5t-45 114.5q0 68 47 111.5
t118 43.5q72 0 118.5 -43t46.5 -112zM1117 1667q0 -72 -45 -114.5t-120 -42.5t-120 42.5t-45 114.5q0 68 47 111.5t118 43.5q72 0 118.5 -43t46.5 -112z" />
    <glyph glyph-name="Igrave" unicode="&#xcc;" horiz-adv-x="857" 
d="M68 -13v159h106q58 0 84 4q11 39 11 107v865q0 99 -11 138q-25 5 -83 5h-107v135q171 19 350 19q254 0 371 -16v-138h-107q-58 0 -84 -5q-10 -45 -10 -104v-897q0 -62 10 -109q26 -4 84 -4h106v-159q-148 13 -335 13q-220 0 -385 -13zM484 1601l-294 346h308l170 -345
q-30 0 -92 -0.5t-92 -0.5z" />
    <glyph glyph-name="Iacute" unicode="&#xcd;" horiz-adv-x="857" 
d="M68 -13v159h106q58 0 84 4q11 39 11 107v865q0 99 -11 138q-25 5 -83 5h-107v135q171 19 350 19q254 0 371 -16v-138h-107q-58 0 -84 -5q-10 -45 -10 -104v-897q0 -62 10 -109q26 -4 84 -4h106v-159q-148 13 -335 13q-220 0 -385 -13zM368 1602h-184q64 126 170 345h320
q-96 -117 -306 -345z" />
    <glyph glyph-name="Icircumflex" unicode="&#xce;" horiz-adv-x="857" 
d="M68 -13v159h106q58 0 84 4q11 39 11 107v865q0 99 -11 138q-25 5 -83 5h-107v135q171 19 350 19q254 0 371 -16v-138h-107q-58 0 -84 -5q-10 -45 -10 -104v-897q0 -62 10 -109q26 -4 84 -4h106v-159q-148 13 -335 13q-220 0 -385 -13zM772 1638q-6 -21 -51 -21h-142
l-149 184l-146 -184h-145q-47 0 -53 21q7 28 21 45l188 270h268l166 -237q3 -4 11 -15t11.5 -16.5t8.5 -14.5t8 -16.5t4 -15.5z" />
    <glyph glyph-name="Idieresis" unicode="&#xcf;" horiz-adv-x="857" 
d="M68 -13v159h106q58 0 84 4q11 39 11 107v865q0 99 -11 138q-25 5 -83 5h-107v135q171 19 350 19q254 0 371 -16v-138h-107q-58 0 -84 -5q-10 -45 -10 -104v-897q0 -62 10 -109q26 -4 84 -4h106v-159q-148 13 -335 13q-220 0 -385 -13zM346 1667q0 -72 -45 -114.5
t-120 -42.5t-120 42.5t-45 114.5q0 68 47 111.5t118 43.5q72 0 118.5 -43t46.5 -112zM841 1667q0 -72 -45 -114.5t-120 -42.5t-120 42.5t-45 114.5q0 68 47 111.5t118 43.5q72 0 118.5 -43t46.5 -112z" />
    <glyph glyph-name="Eth" unicode="&#xd0;" horiz-adv-x="1663" 
d="M733 622h-474h-201v24.5v19.5v14.5v11t-0.5 7.5t-0.5 5v3v2v1q0 77 120 77h15.5t49.5 0.5t101.5 0.5h197.5h312v-80q0 -33 -29 -59.5t-91 -26.5zM599 1262v-1114q13 -2 39 -2q153 0 257.5 28t175.5 93.5t103 172t32 263.5q0 296 -99.5 429t-338.5 133q-25 0 -81.5 -1.5
t-87.5 -1.5zM594 0q-114 0 -515 -7v146l76 1q53 0 92 8q34 20 34 119v853q0 69 -12 129q-31 5 -101 5h-100v138q310 29 732 29q176 0 309.5 -38t234 -121.5t152.5 -225t52 -339.5q0 -124 -24.5 -223t-67.5 -171.5t-110 -126t-144 -87t-178 -54t-202.5 -28t-227.5 -7.5z" />
    <glyph glyph-name="Ntilde" unicode="&#xd1;" horiz-adv-x="1708" 
d="M290 257q0 150 -0.5 448.5t-0.5 447.5q0 70 -10 107q-27 5 -87 5h-124v132q203 21 357 21q103 0 179 -17q333 -508 629 -978q0 135 -7 730q0 73 -12 108q-33 5 -86 5h-118v136q118 17 317 17q215 0 324 -14v-139h-86q-59 0 -97 -5q-10 -37 -10 -107q-4 -502 -15 -1161
h-129q-98 0 -168 16l-618 975q5 -243 8 -724q0 -66 10 -110q25 -4 85 -4h111v-160q-145 14 -316 14q-196 0 -346 -14v160h112q60 0 87 4q11 36 11 107zM905 1861q9 -5 28.5 -15t29.5 -15.5t24.5 -10t26.5 -4.5q36 0 67.5 29.5t51.5 69.5q67 -18 114 -43q-57 -105 -116 -158
t-129 -53q-76 0 -190 59q-90 47 -122 47q-17 0 -33.5 -7t-31 -21t-23 -23t-21.5 -27t-14 -20q-60 17 -106 43q95 208 249 208q81 0 195 -59z" />
    <glyph glyph-name="Ograve" unicode="&#xd2;" horiz-adv-x="1625" 
d="M1510 702q0 -343 -187 -537.5t-510 -194.5q-326 0 -512.5 195.5t-186.5 536.5q0 348 186.5 541t512.5 193q325 0 511 -194.5t186 -539.5zM456 699q0 -281 89.5 -427.5t267.5 -146.5q172 0 263.5 144t91.5 433q0 287 -91 433.5t-264 146.5q-172 0 -264.5 -146.5
t-92.5 -436.5zM867 1601l-294 346h308l170 -345q-30 0 -92 -0.5t-92 -0.5z" />
    <glyph glyph-name="Oacute" unicode="&#xd3;" horiz-adv-x="1625" 
d="M1510 702q0 -343 -187 -537.5t-510 -194.5q-326 0 -512.5 195.5t-186.5 536.5q0 348 186.5 541t512.5 193q325 0 511 -194.5t186 -539.5zM456 699q0 -281 89.5 -427.5t267.5 -146.5q172 0 263.5 144t91.5 433q0 287 -91 433.5t-264 146.5q-172 0 -264.5 -146.5
t-92.5 -436.5zM751 1602h-184q64 126 170 345h320q-96 -117 -306 -345z" />
    <glyph glyph-name="Ocircumflex" unicode="&#xd4;" horiz-adv-x="1625" 
d="M1510 702q0 -343 -187 -537.5t-510 -194.5q-326 0 -512.5 195.5t-186.5 536.5q0 348 186.5 541t512.5 193q325 0 511 -194.5t186 -539.5zM456 699q0 -281 89.5 -427.5t267.5 -146.5q172 0 263.5 144t91.5 433q0 287 -91 433.5t-264 146.5q-172 0 -264.5 -146.5
t-92.5 -436.5zM1155 1638q-6 -21 -51 -21h-142l-149 184l-146 -184h-145q-47 0 -53 21q7 28 21 45l188 270h268l166 -237q3 -4 11 -15t11.5 -16.5t8.5 -14.5t8 -16.5t4 -15.5z" />
    <glyph glyph-name="Otilde" unicode="&#xd5;" horiz-adv-x="1625" 
d="M1510 702q0 -343 -187 -537.5t-510 -194.5q-326 0 -512.5 195.5t-186.5 536.5q0 348 186.5 541t512.5 193q325 0 511 -194.5t186 -539.5zM456 699q0 -281 89.5 -427.5t267.5 -146.5q172 0 263.5 144t91.5 433q0 287 -91 433.5t-264 146.5q-172 0 -264.5 -146.5
t-92.5 -436.5zM863 1861q9 -5 28.5 -15t29.5 -15.5t24.5 -10t26.5 -4.5q36 0 67.5 29.5t51.5 69.5q67 -18 114 -43q-57 -105 -116 -158t-129 -53q-76 0 -190 59q-90 47 -122 47q-17 0 -33.5 -7t-31 -21t-23 -23t-21.5 -27t-14 -20q-60 17 -106 43q95 208 249 208
q81 0 195 -59z" />
    <glyph glyph-name="Odieresis" unicode="&#xd6;" horiz-adv-x="1625" 
d="M1510 702q0 -343 -187 -537.5t-510 -194.5q-326 0 -512.5 195.5t-186.5 536.5q0 348 186.5 541t512.5 193q325 0 511 -194.5t186 -539.5zM456 699q0 -281 89.5 -427.5t267.5 -146.5q172 0 263.5 144t91.5 433q0 287 -91 433.5t-264 146.5q-172 0 -264.5 -146.5
t-92.5 -436.5zM730 1667q0 -72 -45 -114.5t-120 -42.5t-120 42.5t-45 114.5q0 68 47 111.5t118 43.5q72 0 118.5 -43t46.5 -112zM1225 1667q0 -72 -45 -114.5t-120 -42.5t-120 42.5t-45 114.5q0 68 47 111.5t118 43.5q72 0 118.5 -43t46.5 -112z" />
    <glyph glyph-name="multiply" unicode="&#xd7;" 
d="M162 992l151 124l332 -334l347 349l130 -138l-341 -348l347 -348l-137 -128l-346 339l-346 -346l-131 134l340 349z" />
    <glyph glyph-name="Oslash" unicode="&#xd8;" horiz-adv-x="1564" 
d="M813 124q172 0 263.5 144.5t91.5 433.5q0 252 -70 395l-468 -920q76 -53 183 -53zM456 699q0 -273 86 -421l473 933q-82 71 -202 71q-172 0 -264.5 -146.5t-92.5 -436.5zM1510 702q0 -343 -187 -537.5t-510 -194.5q-129 0 -261 45l-50 -93q-27 -5 -45 -5q-26 0 -41 9.5
t-27 35.5l51 104q-158 89 -242 249.5t-84 386.5q0 348 186.5 541t512.5 193q151 0 285 -54l54 100q24 7 49 7q46 0 65 -42l-59 -121q145 -84 224 -244.5t79 -379.5z" />
    <glyph glyph-name="Ugrave" unicode="&#xd9;" horiz-adv-x="1659" 
d="M1425 1153v-638q0 -136 -46.5 -241.5t-129 -171t-191 -99t-237.5 -33.5q-588 0 -588 612v571q0 69 -11 107q-30 5 -99 5h-91v141q172 13 326 13q288 0 383 -14v-140h-86q-63 0 -91 -5q-10 -44 -10 -107q0 -107 -0.5 -323t-0.5 -323q0 -184 78.5 -283.5t218.5 -99.5
q159 0 230.5 116t71.5 337v576q0 69 -11 107q-27 5 -89 5h-82v141q146 13 328 13q239 0 329 -14v-140h-93q-69 0 -98 -5q-11 -42 -11 -107zM884 1601l-294 346h308l170 -345q-30 0 -92 -0.5t-92 -0.5z" />
    <glyph glyph-name="Uacute" unicode="&#xda;" horiz-adv-x="1659" 
d="M1425 1153v-638q0 -136 -46.5 -241.5t-129 -171t-191 -99t-237.5 -33.5q-588 0 -588 612v571q0 69 -11 107q-30 5 -99 5h-91v141q172 13 326 13q288 0 383 -14v-140h-86q-63 0 -91 -5q-10 -44 -10 -107q0 -107 -0.5 -323t-0.5 -323q0 -184 78.5 -283.5t218.5 -99.5
q159 0 230.5 116t71.5 337v576q0 69 -11 107q-27 5 -89 5h-82v141q146 13 328 13q239 0 329 -14v-140h-93q-69 0 -98 -5q-11 -42 -11 -107zM768 1602h-184q64 126 170 345h320q-96 -117 -306 -345z" />
    <glyph glyph-name="Ucircumflex" unicode="&#xdb;" horiz-adv-x="1659" 
d="M1425 1153v-638q0 -136 -46.5 -241.5t-129 -171t-191 -99t-237.5 -33.5q-588 0 -588 612v571q0 69 -11 107q-30 5 -99 5h-91v141q172 13 326 13q288 0 383 -14v-140h-86q-63 0 -91 -5q-10 -44 -10 -107q0 -107 -0.5 -323t-0.5 -323q0 -184 78.5 -283.5t218.5 -99.5
q159 0 230.5 116t71.5 337v576q0 69 -11 107q-27 5 -89 5h-82v141q146 13 328 13q239 0 329 -14v-140h-93q-69 0 -98 -5q-11 -42 -11 -107zM1172 1638q-6 -21 -51 -21h-142l-149 184l-146 -184h-145q-47 0 -53 21q7 28 21 45l188 270h268l166 -237q3 -4 11 -15t11.5 -16.5
t8.5 -14.5t8 -16.5t4 -15.5z" />
    <glyph glyph-name="Udieresis" unicode="&#xdc;" horiz-adv-x="1659" 
d="M1425 1153v-638q0 -136 -46.5 -241.5t-129 -171t-191 -99t-237.5 -33.5q-588 0 -588 612v571q0 69 -11 107q-30 5 -99 5h-91v141q172 13 326 13q288 0 383 -14v-140h-86q-63 0 -91 -5q-10 -44 -10 -107q0 -107 -0.5 -323t-0.5 -323q0 -184 78.5 -283.5t218.5 -99.5
q159 0 230.5 116t71.5 337v576q0 69 -11 107q-27 5 -89 5h-82v141q146 13 328 13q239 0 329 -14v-140h-93q-69 0 -98 -5q-11 -42 -11 -107zM747 1667q0 -72 -45 -114.5t-120 -42.5t-120 42.5t-45 114.5q0 68 47 111.5t118 43.5q72 0 118.5 -43t46.5 -112zM1242 1667
q0 -72 -45 -114.5t-120 -42.5t-120 42.5t-45 114.5q0 68 47 111.5t118 43.5q72 0 118.5 -43t46.5 -112z" />
    <glyph glyph-name="Yacute" unicode="&#xdd;" horiz-adv-x="1582" 
d="M1085 1153q25 55 34 107q-21 5 -76 5h-87l29 140q127 14 308 14q191 0 292 -14l-32 -140h-91q-54 0 -80 -5q-14 -20 -26 -35q-5 -7 -6 -9q-8 -35 -221 -401l-173 -300v-239q0 -78 10 -135q33 -5 84 -5h107v-149q-148 13 -337 13q-220 0 -384 -13v149h106q57 0 83 5
q10 34 10 96v253q-9 14 -22 39.5t-20 36.5l-349 587q-12 19 -26.5 46.5t-23 40.5t-18.5 20q-27 5 -86 5h-69l-26 140q149 14 298 14q275 0 391 -14l16 -140h-67q-59 0 -82 -5q12 -49 36 -91l267 -465q142 257 231 449zM730 1602h-184q64 126 170 345h320q-96 -117 -306 -345
z" />
    <glyph glyph-name="Thorn" unicode="&#xde;" horiz-adv-x="1300" 
d="M710 1019q-71 0 -106 -2v-534q13 -1 44 -1h51q157 0 224.5 68t67.5 199q0 143 -66.5 206.5t-214.5 63.5zM285 243q0 154 -0.5 461.5t-0.5 460.5q0 68 -10 107q-35 6 -114 6h-76v116q141 22 343 22q233 0 379 -20v-118h-107q-58 0 -84 -6q-10 -40 -10 -100q42 1 131 1
q107 0 192 -12t159.5 -42t124 -77.5t77.5 -121t28 -170.5q0 -417 -631 -417q-51 0 -81 3q0 -167 10 -200q31 -5 84 -5h107v-136q-131 -3 -273 -3q-188 0 -448 5v134h105q59 0 84 5q11 36 11 107z" />
    <glyph glyph-name="germandbls" unicode="&#xdf;" horiz-adv-x="1383" 
d="M505 997v-729q0 -44 2 -120t2 -112q-12 -45 -93 -45q-207 0 -404 7l5 129h61q55 0 105 13q10 37 10 150v615q-12 -1 -65 -1h-66q0 49 15.5 67t59.5 18q10 0 28.5 -0.5t27.5 -0.5q2 123 42.5 219.5t111 158t165 93.5t207.5 32q237 0 365 -98.5t128 -287.5q0 -64 -18 -104
t-63 -89q-56 16 -106 16q-76 0 -118 -32.5t-42 -86.5q0 -68 45.5 -105.5t136.5 -71.5q76 -28 125.5 -52.5t96 -61.5t68.5 -87.5t22 -117.5q0 -70 -24.5 -127t-65 -95t-95 -64t-112.5 -37.5t-119 -11.5q-77 0 -171.5 20.5t-155.5 47.5q4 41 20 115l26 125l111 -39
q44 -138 165 -138q69 0 109 45t40 114q0 26 -10 48.5t-24.5 39.5t-44.5 37.5t-55 34.5t-71 40t-79 46q-89 54 -130 114.5t-41 151.5q0 114 61.5 172.5t194.5 81.5q53 58 53 136q0 99 -55 151.5t-147 52.5q-118 0 -176 -98t-58 -279z" />
    <glyph glyph-name="agrave" unicode="&#xe0;" 
d="M1131 123h82v-97q-121 -36 -304 -36q-64 0 -100 16q-44 37 -65 103q-135 -132 -306 -132q-155 0 -248 76.5t-93 218.5q0 321 552 321h86v52q0 140 -28 201t-96 61q-154 0 -299 -212l-188 120q7 90 143.5 154.5t318.5 64.5q232 0 346.5 -94t114.5 -297q0 -1 -0.5 -109
t-0.5 -263q0 -97 12 -147q23 -1 73 -1zM727 198q8 162 8 279h-96q-111 0 -172 -51.5t-61 -144.5q0 -82 36.5 -122t99.5 -40q85 0 185 79zM700 1191l-294 346h308l170 -345q-30 0 -92 -0.5t-92 -0.5z" />
    <glyph glyph-name="aacute" unicode="&#xe1;" 
d="M1131 123h82v-97q-121 -36 -304 -36q-64 0 -100 16q-44 37 -65 103q-135 -132 -306 -132q-155 0 -248 76.5t-93 218.5q0 321 552 321h86v52q0 140 -28 201t-96 61q-154 0 -299 -212l-188 120q7 90 143.5 154.5t318.5 64.5q232 0 346.5 -94t114.5 -297q0 -1 -0.5 -109
t-0.5 -263q0 -97 12 -147q23 -1 73 -1zM727 198q8 162 8 279h-96q-111 0 -172 -51.5t-61 -144.5q0 -82 36.5 -122t99.5 -40q85 0 185 79zM584 1192h-184q64 126 170 345h320q-96 -117 -306 -345z" />
    <glyph glyph-name="acircumflex" unicode="&#xe2;" 
d="M1131 123h82v-97q-121 -36 -304 -36q-64 0 -100 16q-44 37 -65 103q-135 -132 -306 -132q-155 0 -248 76.5t-93 218.5q0 321 552 321h86v52q0 140 -28 201t-96 61q-154 0 -299 -212l-188 120q7 90 143.5 154.5t318.5 64.5q232 0 346.5 -94t114.5 -297q0 -1 -0.5 -109
t-0.5 -263q0 -97 12 -147q23 -1 73 -1zM727 198q8 162 8 279h-96q-111 0 -172 -51.5t-61 -144.5q0 -82 36.5 -122t99.5 -40q85 0 185 79zM988 1228q-6 -21 -51 -21h-142l-149 184l-146 -184h-145q-47 0 -53 21q7 28 21 45l188 270h268l166 -237q3 -4 11 -15t11.5 -16.5
t8.5 -14.5t8 -16.5t4 -15.5z" />
    <glyph glyph-name="atilde" unicode="&#xe3;" 
d="M1131 123h82v-97q-121 -36 -304 -36q-64 0 -100 16q-44 37 -65 103q-135 -132 -306 -132q-155 0 -248 76.5t-93 218.5q0 321 552 321h86v52q0 140 -28 201t-96 61q-154 0 -299 -212l-188 120q7 90 143.5 154.5t318.5 64.5q232 0 346.5 -94t114.5 -297q0 -1 -0.5 -109
t-0.5 -263q0 -97 12 -147q23 -1 73 -1zM727 198q8 162 8 279h-96q-111 0 -172 -51.5t-61 -144.5q0 -82 36.5 -122t99.5 -40q85 0 185 79zM696 1451q9 -5 28.5 -15t29.5 -15.5t24.5 -10t26.5 -4.5q36 0 67.5 29.5t51.5 69.5q67 -18 114 -43q-57 -105 -116 -158t-129 -53
q-76 0 -190 59q-90 47 -122 47q-17 0 -33.5 -7t-31 -21t-23 -23t-21.5 -27t-14 -20q-60 17 -106 43q95 208 249 208q81 0 195 -59z" />
    <glyph glyph-name="adieresis" unicode="&#xe4;" 
d="M1131 123h82v-97q-121 -36 -304 -36q-64 0 -100 16q-44 37 -65 103q-135 -132 -306 -132q-155 0 -248 76.5t-93 218.5q0 321 552 321h86v52q0 140 -28 201t-96 61q-154 0 -299 -212l-188 120q7 90 143.5 154.5t318.5 64.5q232 0 346.5 -94t114.5 -297q0 -1 -0.5 -109
t-0.5 -263q0 -97 12 -147q23 -1 73 -1zM727 198q8 162 8 279h-96q-111 0 -172 -51.5t-61 -144.5q0 -82 36.5 -122t99.5 -40q85 0 185 79zM563 1257q0 -72 -45 -114.5t-120 -42.5t-120 42.5t-45 114.5q0 68 47 111.5t118 43.5q72 0 118.5 -43t46.5 -112zM1058 1257
q0 -72 -45 -114.5t-120 -42.5t-120 42.5t-45 114.5q0 68 47 111.5t118 43.5q72 0 118.5 -43t46.5 -112z" />
    <glyph glyph-name="aring" unicode="&#xe5;" 
d="M1131 123h82v-97q-121 -36 -304 -36q-64 0 -100 16q-44 37 -65 103q-135 -132 -306 -132q-155 0 -248 76.5t-93 218.5q0 321 552 321h86v52q0 140 -28 201t-96 61q-154 0 -299 -212l-188 120q7 90 143.5 154.5t318.5 64.5q232 0 346.5 -94t114.5 -297q0 -1 -0.5 -109
t-0.5 -263q0 -97 12 -147q23 -1 73 -1zM727 198q8 162 8 279h-96q-111 0 -172 -51.5t-61 -144.5q0 -82 36.5 -122t99.5 -40q85 0 185 79zM769 1382q0 56 -33.5 89t-90.5 33q-56 0 -90 -33.5t-34 -88.5q0 -57 33 -89t91 -32q56 0 90 32.5t34 88.5zM864 1382q0 -93 -62 -150
t-157 -57q-96 0 -157.5 57t-61.5 150q0 92 61.5 149t157.5 57t157.5 -57t61.5 -149z" />
    <glyph glyph-name="ae" unicode="&#xe6;" horiz-adv-x="1811" 
d="M777 190q-37 107 -41 285q-44 2 -72 2q-258 0 -258 -196q0 -83 39 -124.5t112 -41.5q88 0 220 75zM1054 597h393q1 6 1 18q0 127 -46.5 208t-137.5 81q-189 0 -210 -307zM1659 224l53 -92q-133 -157 -411 -157q-287 0 -433 172q-7 -3 -100 -64q-167 -108 -316 -108
q-160 0 -257.5 77.5t-97.5 219.5q0 321 552 321h86v52q0 152 -26 207t-96 55q-92 0 -164 -56.5t-137 -155.5l-188 120q5 61 69.5 112.5t169 81t223.5 29.5q245 0 355 -124q144 124 359 124q197 0 322.5 -108t125.5 -292q0 -106 -42 -139.5t-148 -33.5h-503q17 -164 101 -250
t227 -86q146 0 276 95z" />
    <glyph glyph-name="ccedilla" unicode="&#xe7;" horiz-adv-x="1139" 
d="M1042 223l16 -145q-152 -101 -388 -101q-255 0 -410 137.5t-155 381.5q0 131 46 235t126 169.5t184 99.5t224 34q240 0 375 -113l-17 -200h-168q-46 91 -96 132t-114 41q-107 0 -174.5 -96.5t-67.5 -258.5q0 -204 73.5 -310t197.5 -106q100 0 182 24t166 76zM355 -366
q82 -24 134 -24q62 0 98 26t36 73q0 97 -100 113q-3 0 -37 -8q-8 5 -27.5 13t-23.5 10l85 174h101l-56 -107q112 -6 168.5 -46t56.5 -130q0 -111 -69.5 -168.5t-188.5 -57.5q-113 0 -177 41q-6 17 -6 40q0 24 6 51z" />
    <glyph glyph-name="egrave" unicode="&#xe8;" horiz-adv-x="1211" 
d="M1028 224l53 -92q-135 -155 -411 -155q-262 0 -413.5 140t-151.5 392q0 238 153.5 381.5t410.5 143.5q197 0 322 -107t125 -289q0 -106 -41.5 -139.5t-147.5 -33.5h-503q17 -161 99.5 -246t223.5 -85q147 0 281 90zM423 597h393q1 6 1 18q0 126 -46 205.5t-139 79.5
q-188 0 -209 -303zM660 1191l-294 346h308l170 -345q-30 0 -92 -0.5t-92 -0.5z" />
    <glyph glyph-name="eacute" unicode="&#xe9;" horiz-adv-x="1211" 
d="M1028 224l53 -92q-135 -155 -411 -155q-262 0 -413.5 140t-151.5 392q0 238 153.5 381.5t410.5 143.5q197 0 322 -107t125 -289q0 -106 -41.5 -139.5t-147.5 -33.5h-503q17 -161 99.5 -246t223.5 -85q147 0 281 90zM423 597h393q1 6 1 18q0 126 -46 205.5t-139 79.5
q-188 0 -209 -303zM545 1192h-184q64 126 170 345h320q-96 -117 -306 -345z" />
    <glyph glyph-name="ecircumflex" unicode="&#xea;" horiz-adv-x="1211" 
d="M1028 224l53 -92q-135 -155 -411 -155q-262 0 -413.5 140t-151.5 392q0 238 153.5 381.5t410.5 143.5q197 0 322 -107t125 -289q0 -106 -41.5 -139.5t-147.5 -33.5h-503q17 -161 99.5 -246t223.5 -85q147 0 281 90zM423 597h393q1 6 1 18q0 126 -46 205.5t-139 79.5
q-188 0 -209 -303zM948 1228q-6 -21 -51 -21h-142l-149 184l-146 -184h-145q-47 0 -53 21q7 28 21 45l188 270h268l166 -237q3 -4 11 -15t11.5 -16.5t8.5 -14.5t8 -16.5t4 -15.5z" />
    <glyph glyph-name="edieresis" unicode="&#xeb;" horiz-adv-x="1211" 
d="M1028 224l53 -92q-135 -155 -411 -155q-262 0 -413.5 140t-151.5 392q0 238 153.5 381.5t410.5 143.5q197 0 322 -107t125 -289q0 -106 -41.5 -139.5t-147.5 -33.5h-503q17 -161 99.5 -246t223.5 -85q147 0 281 90zM423 597h393q1 6 1 18q0 126 -46 205.5t-139 79.5
q-188 0 -209 -303zM523 1257q0 -72 -45 -114.5t-120 -42.5t-120 42.5t-45 114.5q0 68 47 111.5t118 43.5q72 0 118.5 -43t46.5 -112zM1018 1257q0 -72 -45 -114.5t-120 -42.5t-120 42.5t-45 114.5q0 68 47 111.5t118 43.5q72 0 118.5 -43t46.5 -112z" />
    <glyph glyph-name="igrave" unicode="&#xec;" horiz-adv-x="687" 
d="M223 280v519q0 45 -5 78q-29 7 -72 7h-105v106q163 35 339 35q146 0 154 -60v-697q0 -98 12 -137q38 -14 78 -14h62l12 -98q-146 -33 -308 -33q-174 0 -174 95q0 25 3.5 95.5t3.5 103.5zM399 1191l-294 346h308l170 -345q-30 0 -92 -0.5t-92 -0.5z" />
    <glyph glyph-name="iacute" unicode="&#xed;" horiz-adv-x="687" 
d="M223 280v519q0 45 -5 78q-29 7 -72 7h-105v106q163 35 339 35q146 0 154 -60v-697q0 -98 12 -137q38 -14 78 -14h62l12 -98q-146 -33 -308 -33q-174 0 -174 95q0 25 3.5 95.5t3.5 103.5zM283 1192h-184q64 126 170 345h320q-96 -117 -306 -345z" />
    <glyph glyph-name="icircumflex" unicode="&#xee;" horiz-adv-x="687" 
d="M223 280v519q0 45 -5 78q-29 7 -72 7h-105v106q163 35 339 35q146 0 154 -60v-697q0 -98 12 -137q38 -14 78 -14h62l12 -98q-146 -33 -308 -33q-174 0 -174 95q0 25 3.5 95.5t3.5 103.5zM687 1228q-6 -21 -51 -21h-142l-149 184l-146 -184h-145q-47 0 -53 21q7 28 21 45
l188 270h268l166 -237q3 -4 11 -15t11.5 -16.5t8.5 -14.5t8 -16.5t4 -15.5z" />
    <glyph glyph-name="idieresis" unicode="&#xef;" horiz-adv-x="687" 
d="M223 280v519q0 45 -5 78q-29 7 -72 7h-105v106q163 35 339 35q146 0 154 -60v-697q0 -98 12 -137q38 -14 78 -14h62l12 -98q-146 -33 -308 -33q-174 0 -174 95q0 25 3.5 95.5t3.5 103.5zM261 1257q0 -72 -45 -114.5t-120 -42.5t-120 42.5t-45 114.5q0 68 47 111.5
t118 43.5q72 0 118.5 -43t46.5 -112zM756 1257q0 -72 -45 -114.5t-120 -42.5t-120 42.5t-45 114.5q0 68 47 111.5t118 43.5q72 0 118.5 -43t46.5 -112z" />
    <glyph glyph-name="eth" unicode="&#xf0;" horiz-adv-x="1304" 
d="M675 99q103 0 157 115.5t54 320.5q0 61 -10 151q-74 180 -223 180q-104 0 -157 -95.5t-53 -278.5q0 -203 54 -298t178 -95zM287 1408l63 108q259 -19 409 -95l247 146q23 -33 42 -58t25 -33.5t10 -14.5q-5 -8 -14 -17t-22.5 -18.5t-25.5 -17.5t-31 -19t-31 -17.5
t-33.5 -17.5t-30.5 -16q154 -123 232.5 -309.5t78.5 -419.5q0 -137 -34.5 -252.5t-101 -203.5t-173.5 -138t-244 -50q-239 0 -388.5 141t-149.5 384q0 122 44 220t119 159.5t171 93.5t204 32q126 0 204 -54q-41 178 -158 278l-242 -142q-78 97 -83 105q8 15 67 51l135 80
q-125 71 -289 95z" />
    <glyph glyph-name="ntilde" unicode="&#xf1;" horiz-adv-x="1406" 
d="M726 1406q9 -5 28.5 -15t29.5 -15.5t24.5 -10t26.5 -4.5q36 0 67.5 29.5t51.5 69.5q67 -18 114 -43q-57 -105 -116 -158t-129 -53q-76 0 -190 59q-90 47 -122 47q-17 0 -33.5 -7t-31 -21t-23 -23t-21.5 -27t-14 -20q-60 17 -106 43q95 208 249 208q81 0 195 -59z
M1243 706v-447q0 -84 13 -136h139l12 -106q-143 -34 -309 -34q-173 0 -173 96q0 25 3 97t3 106v368q0 225 -132 225q-55 0 -119 -35t-113 -87v-515q0 -76 18 -101.5t89 -38.5l10 -110q-219 12 -289 12q-138 0 -264 -12l5 110q81 10 100 34.5t19 110.5v558q0 42 -4 73
q-25 8 -64 8h-114v111q146 30 315 30q71 0 167 -17v-117q84 70 188 107t203 37q139 0 218 -84.5t79 -242.5z" />
    <glyph glyph-name="ograve" unicode="&#xf2;" horiz-adv-x="1276" 
d="M636 1198l-294 346h308l170 -345q-30 0 -92 -0.5t-92 -0.5zM409 505q0 -199 56.5 -294t176.5 -95q123 0 177.5 95.5t54.5 293.5t-56.5 293t-175.5 95q-122 0 -177.5 -96t-55.5 -292zM1202 504q0 -130 -46 -232.5t-124 -165.5t-177.5 -96t-211.5 -33q-162 0 -288.5 61.5
t-199.5 182.5t-73 283q0 128 45.5 230.5t123.5 167t178 99t214 34.5q246 0 402.5 -144t156.5 -387z" />
    <glyph glyph-name="oacute" unicode="&#xf3;" horiz-adv-x="1276" 
d="M662 1199h-184q64 126 170 345h320q-96 -117 -306 -345zM411 505q0 -199 56.5 -294t176.5 -95q123 0 177.5 95.5t54.5 293.5t-56.5 293t-175.5 95q-122 0 -177.5 -96t-55.5 -292zM1204 504q0 -130 -46 -232.5t-124 -165.5t-177.5 -96t-211.5 -33q-162 0 -288.5 61.5
t-199.5 182.5t-73 283q0 128 45.5 230.5t123.5 167t178 99t214 34.5q246 0 402.5 -144t156.5 -387z" />
    <glyph glyph-name="ocircumflex" unicode="&#xf4;" horiz-adv-x="1276" 
d="M993 1219q-6 -21 -51 -21h-142l-149 184l-146 -184h-145q-47 0 -53 21q7 28 21 45l188 270h268l166 -237q3 -4 11 -15t11.5 -16.5t8.5 -14.5t8 -16.5t4 -15.5zM416 505q0 -199 56.5 -294t176.5 -95q123 0 177.5 95.5t54.5 293.5t-56.5 293t-175.5 95q-122 0 -177.5 -96
t-55.5 -292zM1209 504q0 -130 -46 -232.5t-124 -165.5t-177.5 -96t-211.5 -33q-162 0 -288.5 61.5t-199.5 182.5t-73 283q0 128 45.5 230.5t123.5 167t178 99t214 34.5q246 0 402.5 -144t156.5 -387z" />
    <glyph glyph-name="otilde" unicode="&#xf5;" horiz-adv-x="1276" 
d="M701 1405q9 -5 28.5 -15t29.5 -15.5t24.5 -10t26.5 -4.5q36 0 67.5 29.5t51.5 69.5q67 -18 114 -43q-57 -105 -116 -158t-129 -53q-76 0 -190 59q-90 47 -122 47q-17 0 -33.5 -7t-31 -21t-23 -23t-21.5 -27t-14 -20q-60 17 -106 43q95 208 249 208q81 0 195 -59zM423 505
q0 -199 56.5 -294t176.5 -95q123 0 177.5 95.5t54.5 293.5t-56.5 293t-175.5 95q-122 0 -177.5 -96t-55.5 -292zM1216 504q0 -130 -46 -232.5t-124 -165.5t-177.5 -96t-211.5 -33q-162 0 -288.5 61.5t-199.5 182.5t-73 283q0 128 45.5 230.5t123.5 167t178 99t214 34.5
q246 0 402.5 -144t156.5 -387z" />
    <glyph glyph-name="odieresis" unicode="&#xf6;" horiz-adv-x="1330" 
d="M432 505q0 -199 56.5 -294t176.5 -95q123 0 177.5 95.5t54.5 293.5t-56.5 293t-175.5 95q-122 0 -177.5 -96t-55.5 -292zM1225 504q0 -130 -46 -232.5t-124 -165.5t-177.5 -96t-211.5 -33q-162 0 -288.5 61.5t-199.5 182.5t-73 283q0 128 45.5 230.5t123.5 167t178 99
t214 34.5q246 0 402.5 -144t156.5 -387zM587 1257q0 -72 -45 -114.5t-120 -42.5t-120 42.5t-45 114.5q0 68 47 111.5t118 43.5q72 0 118.5 -43t46.5 -112zM1082 1257q0 -72 -45 -114.5t-120 -42.5t-120 42.5t-45 114.5q0 68 47 111.5t118 43.5q72 0 118.5 -43t46.5 -112z
" />
    <glyph glyph-name="divide" unicode="&#xf7;" horiz-adv-x="1162" 
d="M717 859q0 -69 -42 -109.5t-114 -40.5t-114 40.5t-42 109.5q0 66 43.5 106.5t112.5 40.5q68 0 112 -41t44 -106zM713 149q0 -69 -42 -109t-114 -40t-114 40t-42 109q0 66 43.5 106.5t112.5 40.5t112.5 -40.5t43.5 -106.5zM955 590v-75q0 -44 -20 -72t-56 -28h-716v91
q0 50 23 67t84 17h685z" />
    <glyph glyph-name="oslash" unicode="&#xf8;" horiz-adv-x="1330" 
d="M353 -62l557 1171q14 30 28 45q91 -4 112 -18q-4 -9 -14.5 -27.5t-14.5 -27.5l-577 -1213q-26 -8 -52 -8q-37 0 -71 14q4 12 16 34t16 30zM432 505q0 -199 56.5 -294t176.5 -95q123 0 177.5 95.5t54.5 293.5t-56.5 293t-175.5 95q-122 0 -177.5 -96t-55.5 -292zM1225 504
q0 -130 -46 -232.5t-124 -165.5t-177.5 -96t-211.5 -33q-162 0 -288.5 61.5t-199.5 182.5t-73 283q0 128 45.5 230.5t123.5 167t178 99t214 34.5q246 0 402.5 -144t156.5 -387z" />
    <glyph glyph-name="ugrave" unicode="&#xf9;" horiz-adv-x="1332" 
d="M661 1198l-294 346h308l170 -345q-31 0 -92 -0.5t-92 -0.5zM1206 968v-698q0 -89 13 -147h157v-98q-156 -37 -313 -37q-98 0 -136 23.5t-39 100.5q-88 -66 -169.5 -100.5t-190.5 -34.5q-149 0 -228 83t-79 238v493q0 41 -5 86q-30 5 -78 5h-77l-6 111q143 31 304 31
q159 0 173 -56q0 -109 0.5 -326.5t0.5 -326.5q0 -34 1.5 -57t8 -50t18.5 -42.5t34 -26.5t53 -11q65 0 142 32.5t94 54.5q11 88 11 299v281q0 47 -7 82q-27 5 -74 5h-75l-6 111q138 31 304 31q147 0 169 -56z" />
    <glyph glyph-name="uacute" unicode="&#xfa;" horiz-adv-x="1332" 
d="M688 1199h-184q64 126 170 345h320q-96 -117 -306 -345zM1207 968v-698q0 -89 13 -147h157v-98q-156 -37 -313 -37q-98 0 -136 23.5t-39 100.5q-88 -66 -169.5 -100.5t-190.5 -34.5q-149 0 -228 83t-79 238v493q0 41 -5 86q-30 5 -78 5h-77l-6 111q143 31 304 31
q159 0 173 -56q0 -109 0.5 -326.5t0.5 -326.5q0 -34 1.5 -57t8 -50t18.5 -42.5t34 -26.5t53 -11q65 0 142 32.5t94 54.5q11 88 11 299v281q0 47 -7 82q-27 5 -74 5h-75l-6 111q138 31 304 31q147 0 169 -56z" />
    <glyph glyph-name="ucircumflex" unicode="&#xfb;" horiz-adv-x="1332" 
d="M1019 1219q-6 -21 -51 -21h-142l-149 184l-146 -184h-145q-47 0 -53 21q7 28 21 45l188 270h268l166 -237q3 -4 11 -15t11.5 -16.5t8.5 -14.5t8 -16.5t4 -15.5zM1213 968v-698q0 -89 13 -147h157v-98q-156 -37 -313 -37q-98 0 -136 23.5t-39 100.5q-88 -66 -169.5 -100.5
t-190.5 -34.5q-149 0 -228 83t-79 238v493q0 41 -5 86q-30 5 -78 5h-77l-6 111q143 31 304 31q159 0 173 -56q0 -109 0.5 -326.5t0.5 -326.5q0 -34 1.5 -57t8 -50t18.5 -42.5t34 -26.5t53 -11q65 0 142 32.5t94 54.5q11 88 11 299v281q0 47 -7 82q-27 5 -74 5h-75l-6 111
q138 31 304 31q147 0 169 -56z" />
    <glyph glyph-name="udieresis" unicode="&#xfc;" horiz-adv-x="1359" 
d="M1201 968v-698q0 -89 13 -147h157v-98q-156 -37 -313 -37q-98 0 -136 23.5t-39 100.5q-88 -66 -169.5 -100.5t-190.5 -34.5q-149 0 -228 83t-79 238v493q0 41 -5 86q-30 5 -78 5h-77l-6 111q143 31 304 31q159 0 173 -56q0 -109 0.5 -326.5t0.5 -326.5q0 -34 1.5 -57
t8 -50t18.5 -42.5t34 -26.5t53 -11q65 0 142 32.5t94 54.5q11 88 11 299v281q0 47 -7 82q-28 5 -74 5h-75l-6 111q138 31 304 31q147 0 169 -56zM597 1257q0 -72 -45 -114.5t-120 -42.5t-120 42.5t-45 114.5q0 68 47 111.5t118 43.5q72 0 118.5 -43t46.5 -112zM1092 1257
q0 -72 -45 -114.5t-120 -42.5t-120 42.5t-45 114.5q0 68 47 111.5t118 43.5q72 0 118.5 -43t46.5 -112z" />
    <glyph glyph-name="yacute" unicode="&#xfd;" horiz-adv-x="1241" 
d="M668 1199h-184q64 126 170 345h320q-96 -117 -306 -345zM568 556l106 -278q106 290 188 524q3 10 10.5 34.5t10.5 37.5q-24 8 -65 8h-54l17 121q113 21 256 21q129 0 230 -21v-121h-60q-46 0 -79 -8l-347 -843q-29 -71 -48.5 -115.5t-45.5 -96t-47 -82t-50 -63t-59 -50
t-68.5 -32.5t-83.5 -21t-101 -6q-142 0 -215 33l39 154q100 -37 191 -37q44 0 74.5 13.5t55.5 50t43 78t46 119.5l-341 792q-28 65 -51 106q-38 8 -78 8h-59l-9 121q97 20 281 20q157 0 286 -20q13 -62 19 -121h-46q-42 0 -63 -8q34 -100 117 -318z" />
    <glyph glyph-name="thorn" unicode="&#xfe;" horiz-adv-x="1234" 
d="M177 -196q0 49 0.5 434.5t0.5 1005.5q0 55 -3 106q-47 7 -87 7h-92v100q145 36 382 36q71 0 92 -26t21 -83v-459q141 110 312 110q205 0 320.5 -140t115.5 -364q0 -124 -37.5 -225t-102 -167t-148 -104t-177.5 -44q-51 -3 -99 -3h-187v-218q0 -81 17 -100t99 -34l10 -108
q-172 21 -259 21q-161 0 -301 -21l5 109q32 5 50 8.5t32.5 13.5t20.5 17t10 30t4.5 40t0.5 58zM914 525q0 369 -184 369q-110 0 -229 -86q-10 -130 -10 -326q0 -195 7 -362q80 -9 189 -9q107 0 167 106t60 308z" />
    <glyph glyph-name="ydieresis" unicode="&#xff;" horiz-adv-x="1297" 
d="M598 556l106 -278q106 290 188 524q3 10 10.5 34.5t10.5 37.5q-24 8 -65 8h-54l17 121q113 21 256 21q129 0 230 -21v-121h-60q-46 0 -79 -8l-347 -843q-29 -71 -48.5 -115.5t-45.5 -96t-47 -82t-50 -63t-59 -50t-68.5 -32.5t-83.5 -21t-101 -6q-142 0 -215 33l39 154
q100 -37 191 -37q44 0 74.5 13.5t55.5 50t43 78t46 119.5l-341 792q-28 65 -51 106q-38 8 -78 8h-59l-9 121q97 20 281 20q157 0 286 -20q13 -62 19 -121h-46q-42 0 -63 -8q34 -100 117 -318zM566 1257q0 -72 -45 -114.5t-120 -42.5t-120 42.5t-45 114.5q0 68 47 111.5
t118 43.5q72 0 118.5 -43t46.5 -112zM1061 1257q0 -72 -45 -114.5t-120 -42.5t-120 42.5t-45 114.5q0 68 47 111.5t118 43.5q72 0 118.5 -43t46.5 -112z" />
    <glyph glyph-name="hbar" unicode="&#x127;" horiz-adv-x="1417" 
d="M1212 123h144l6 -106q-139 -34 -307 -34q-174 0 -174 96q0 46 3 188.5t3 219.5v22q0 50 -0.5 74.5t-1.5 67t-4.5 64.5t-9 53.5t-15 47.5t-22.5 33t-31.5 24t-41.5 7q-71 0 -137 -41t-93 -96v-481q0 -37 0.5 -52.5t3.5 -37.5t9 -30t18.5 -18.5t30 -15.5t45.5 -10l9 -110
l-39 2q-193 10 -248 10q-127 0 -265 -12l5 109q35 5 55 11t34 14t19.5 25.5t7.5 37t2 57.5v1031q0 51 -6 77q-44 7 -85 7h-91v100q152 37 386 37q73 0 91 -18.5t18 -85.5v-489q75 62 172.5 97.5t197.5 35.5q153 0 225.5 -85t72.5 -252v-438q0 -77 13 -136zM642 1104h-602v80
q0 45 21 59t73 14h569v-63q0 -81 -61 -90z" />
    <glyph glyph-name="Itilde" unicode="&#x128;" horiz-adv-x="857" 
d="M68 -13v159h106q58 0 84 4q11 39 11 107v865q0 99 -11 138q-25 5 -83 5h-107v135q171 19 350 19q254 0 371 -16v-138h-107q-58 0 -84 -5q-10 -45 -10 -104v-897q0 -62 10 -109q26 -4 84 -4h106v-159q-148 13 -335 13q-220 0 -385 -13zM480 1861q9 -5 28.5 -15t29.5 -15.5
t24.5 -10t26.5 -4.5q36 0 67.5 29.5t51.5 69.5q67 -18 114 -43q-57 -105 -116 -158t-129 -53q-76 0 -190 59q-90 47 -122 47q-17 0 -33.5 -7t-31 -21t-23 -23t-21.5 -27t-14 -20q-60 17 -106 43q95 208 249 208q81 0 195 -59z" />
    <glyph glyph-name="itilde" unicode="&#x129;" horiz-adv-x="687" 
d="M223 280v519q0 45 -5 78q-29 7 -72 7h-105v106q163 35 339 35q146 0 154 -60v-697q0 -98 12 -137q38 -14 78 -14h62l12 -98q-146 -33 -308 -33q-174 0 -174 95q0 25 3.5 95.5t3.5 103.5zM395 1451q9 -5 28.5 -15t29.5 -15.5t24.5 -10t26.5 -4.5q36 0 67.5 29.5t51.5 69.5
q67 -18 114 -43q-57 -105 -116 -158t-129 -53q-76 0 -190 59q-90 47 -122 47q-17 0 -33.5 -7t-31 -21t-23 -23t-21.5 -27t-14 -20q-60 17 -106 43q95 208 249 208q81 0 195 -59z" />
    <glyph glyph-name="dotlessi" unicode="&#x131;" horiz-adv-x="687" 
d="M223 280v519q0 45 -5 78q-29 7 -72 7h-105v106q163 35 339 35q146 0 154 -60v-697q0 -98 12 -137q38 -14 78 -14h62l12 -98q-146 -33 -308 -33q-174 0 -174 95q0 25 3.5 95.5t3.5 103.5z" />
    <glyph glyph-name="IJ" unicode="&#x132;" horiz-adv-x="1843" 
d="M68 -13v159h106q58 0 84 4q11 39 11 107v865q0 99 -11 138q-25 5 -83 5h-107v135q171 19 350 19q254 0 371 -16v-138h-107q-58 0 -84 -5q-10 -45 -10 -104v-897q0 -62 10 -109q26 -4 84 -4h106v-159q-148 13 -335 13q-220 0 -385 -13zM1647 1153v-812q0 -240 -108 -366.5
t-306 -126.5q-87 0 -187 17t-155 47q-1 18 12 182l12 159l190 -3q5 -53 16.5 -140t12.5 -101q39 -13 87 -13q67 0 92 45t25 130q0 32 -5.5 110t-5.5 124v749q0 68 -11 106q-29 6 -99 6h-91v135q177 18 397 18q208 0 325 -15v-138h-93q-69 0 -98 -6q-10 -36 -10 -107z" />
    <glyph glyph-name="ij" unicode="&#x133;" horiz-adv-x="1625" 
d="M544 123h139l11 -101q-143 -34 -308 -34q-174 0 -174 96q0 25 3.5 95t3.5 103v519q0 42 -4 73q-28 8 -72 8h-105v111q60 13 158 22t176 9q55 0 89 -6.5t63 -29.5q7 -32 7 -59v-643q0 -98 13 -163zM188 1335q0 69 53 108t132 39q81 0 133.5 -40t52.5 -107
q0 -69 -54.5 -107.5t-131.5 -38.5q-79 0 -132 40t-53 106zM1071 1349q0 70 52.5 109t132.5 39q81 0 133 -40t52 -108t-54 -106.5t-131 -38.5q-80 0 -132.5 40t-52.5 105zM1413 968q0 -155 -0.5 -464.5t-0.5 -464.5q0 -224 -97.5 -337.5t-287.5 -113.5q-90 0 -169.5 18.5
t-100.5 39.5l32 288q18 -2 75 -11t79 -12q1 -33 16 -169q5 -3 30.5 -7t41.5 -4q52 0 73 52t21 154q0 37 -20 244q-2 17 -2.5 157t-0.5 271l-1 131q0 77 -4 134q-35 8 -86 8h-92v111q138 31 298 31q168 0 196 -56z" />
    <glyph glyph-name="Jcircumflex" unicode="&#x134;" horiz-adv-x="986" 
d="M790 1153v-812q0 -240 -108 -366.5t-306 -126.5q-87 0 -187 17t-155 47q-1 18 12 182l12 159l190 -3q5 -53 16.5 -140t12.5 -101q39 -13 87 -13q67 0 92 45t25 130q0 32 -5.5 110t-5.5 124v749q0 68 -11 106q-29 6 -99 6h-91v135q177 18 397 18q208 0 325 -15v-138h-93
q-69 0 -98 -6q-10 -36 -10 -107zM935 1638q-6 -21 -51 -21h-142l-149 184l-146 -184h-145q-47 0 -53 21q7 28 21 45l188 270h268l166 -237q3 -4 11 -15t11.5 -16.5t8.5 -14.5t8 -16.5t4 -15.5z" />
    <glyph glyph-name="jcircumflex" unicode="&#x135;" horiz-adv-x="897" 
d="M685 968q0 -155 -0.5 -464.5t-0.5 -464.5q0 -224 -97.5 -337.5t-287.5 -113.5q-90 0 -169.5 18.5t-100.5 39.5l32 288q18 -2 75 -11t79 -12q1 -33 16 -169q5 -3 30.5 -7t41.5 -4q52 0 73 52t21 154q0 37 -20 244q-2 17 -2.5 157t-0.5 271l-1 131q0 77 -4 134q-35 8 -86 8
h-92v111q138 31 298 31q168 0 196 -56zM792 1228q-6 -21 -51 -21h-142l-149 184l-146 -184h-145q-47 0 -53 21q7 28 21 45l188 270h268l166 -237q3 -4 11 -15t11.5 -16.5t8.5 -14.5t8 -16.5t4 -15.5z" />
    <glyph glyph-name="kcommaaccent" unicode="&#x137;" horiz-adv-x="1344" 
d="M94 -12l4 107q43 6 62.5 11t34.5 19.5t18 35t3 62.5v1042q0 53 -5 84q-42 8 -72 8h-105v99q145 35 412 40q54 -15 68.5 -47t14.5 -106v-769l215 186q95 82 95 103q0 25 -63 25v120h529v-126q-92 0 -150 -27t-125 -83l-223 -188l298 -390q37 -48 81 -71t108 -23q21 0 31 1
l18 -114q-120 13 -288 13q-148 0 -283 -12v109q41 0 50 8q-13 21 -50 73q-113 157 -200 284l-43 -30v-204q0 -75 18.5 -98.5t95.5 -35.5l6 -106q-240 12 -284 12q-130 0 -271 -12zM560 -738q-38 15 -75 70q101 117 134 289q-50 7 -81.5 41.5t-31.5 84.5q0 79 51 120t122 41
q179 0 179 -176q-12 -150 -84 -260.5t-214 -209.5z" />
    <glyph glyph-name="kgreenlandic" unicode="&#x138;" horiz-adv-x="1344" 
d="M94 -12l4 107q43 6 62.5 11t34.5 19.5t18 35t3 62.5v570q0 53 -5 84q-42 8 -72 8h-105v99q167 40 412 40q23 0 39 -8t24.5 -19.5t13 -33.5t5.5 -41t1 -51v-297l215 186q95 82 95 103q0 25 -63 25v120h529v-126q-92 0 -150 -27t-125 -83l-223 -188l298 -390q37 -48 81 -71
t108 -23q21 0 31 1l18 -114q-120 13 -288 13q-148 0 -283 -12v109q41 0 50 8q-13 21 -50 73q-76 105 -200 284l-43 -30v-204q0 -75 18.5 -98.5t95.5 -35.5l6 -106q-240 12 -284 12q-130 0 -271 -12z" />
    <glyph glyph-name="Ldotaccent" unicode="&#x13f;" horiz-adv-x="1286" 
d="M623 0q-405 0 -523 -13l-2 159h77q58 0 84 4q10 64 10 140v866q0 63 -11 104q-25 5 -83 5h-107v135q171 19 350 19q255 0 373 -16v-138h-108q-58 0 -84 -5q-10 -37 -10 -104v-1010h295q104 0 156 58t89 192l157 -21l-39 -375q-201 -7 -337 -7q-64 0 -160.5 3.5
t-126.5 3.5zM1010 711q-83 0 -128 44.5t-45 116.5q0 75 46 118.5t116 43.5q78 0 125.5 -44.5t47.5 -109.5q0 -76 -41 -122.5t-121 -46.5z" />
    <glyph glyph-name="ldot" unicode="&#x140;" horiz-adv-x="940" 
d="M211 198q3 63 3 134v928q0 54 -7 90q-50 8 -86 8h-90v100q161 36 337 36q70 0 101.5 -8.5t54.5 -36.5v-1200q0 -79 12 -127h161v-100q-138 -33 -316 -33q-145 0 -173 88q0 18 1.5 57t1.5 64zM815 711q-83 0 -128 44.5t-45 116.5q0 75 46 118.5t116 43.5q78 0 125.5 -44.5
t47.5 -109.5q0 -76 -41 -122.5t-121 -46.5z" />
    <glyph glyph-name="Lslash" unicode="&#x141;" horiz-adv-x="1363" 
d="M95 521l788 522v-214l-788 -521v213zM623 0q-405 0 -523 -13l-2 159h77q58 0 84 4q10 64 10 140v866q0 63 -11 104q-25 5 -83 5h-107v135q171 19 350 19q255 0 373 -16v-138h-108q-58 0 -84 -5q-10 -37 -10 -104v-1010h295q104 0 156 58t89 192l157 -21l-39 -375
q-201 -7 -337 -7q-64 0 -160.5 3.5t-126.5 3.5z" />
    <glyph glyph-name="lslash" unicode="&#x142;" horiz-adv-x="727" 
d="M39 524v184l644 411v-186q-38 -24 -334 -212.5t-310 -196.5zM211 198q3 63 3 134v928q0 54 -7 90q-50 8 -86 8h-90v100q161 36 337 36q70 0 101.5 -8.5t54.5 -36.5v-1200q0 -79 12 -127h161v-100q-138 -33 -316 -33q-145 0 -173 88q0 18 1.5 57t1.5 64z" />
    <glyph glyph-name="Nacute" unicode="&#x143;" horiz-adv-x="1708" 
d="M290 257q0 150 -0.5 448.5t-0.5 447.5q0 70 -10 107q-27 5 -87 5h-124v132q203 21 357 21q103 0 179 -17q333 -508 629 -978q0 135 -7 730q0 73 -12 108q-33 5 -86 5h-118v136q118 17 317 17q215 0 324 -14v-139h-86q-59 0 -97 -5q-10 -37 -10 -107q-4 -502 -15 -1161
h-129q-98 0 -168 16l-618 975q5 -243 8 -724q0 -66 10 -110q25 -4 85 -4h111v-160q-145 14 -316 14q-196 0 -346 -14v160h112q60 0 87 4q11 36 11 107zM793 1602h-184q64 126 170 345h320q-96 -117 -306 -345z" />
    <glyph glyph-name="nacute" unicode="&#x144;" horiz-adv-x="1438" 
d="M1219 706v-447q0 -84 13 -136h139l12 -106q-143 -34 -309 -34q-173 0 -173 96q0 25 3 97t3 106v368q0 225 -132 225q-55 0 -119 -35t-113 -87v-515q0 -76 18 -101.5t89 -38.5l10 -110q-219 12 -289 12q-138 0 -264 -12l5 110q81 10 100 34.5t19 110.5v558q0 42 -4 73
q-25 8 -64 8h-114v111q146 30 315 30q71 0 167 -17v-117q84 70 188 107t203 37q139 0 218 -84.5t79 -242.5zM658 1192h-184q64 126 170 345h320q-96 -117 -306 -345z" />
    <glyph glyph-name="OE" unicode="&#x152;" horiz-adv-x="2191" 
d="M1129 1413h941l25 -129q21 -113 30 -177l-184 -17l-2 10q-14 90 -33 135q-92 24 -236 24q-47 0 -224 -4v-467h192q62 0 82 21.5t41 100.5h100q0 -218 -7 -393q-12 -1 -36 -1q-12 0 -35 0.5t-34 0.5q-21 80 -41 106.5t-59 26.5h-203v-504h331q98 0 135 24q16 47 30 173
q116 -2 194 -2v-127l-13 -196q-169 -26 -397 -26l-597 8q-184 -30 -316 -30q-326 0 -512.5 195.5t-186.5 536.5q0 348 186.5 541t512.5 193q72 0 174 -11.5t142 -11.5zM456 699q0 -281 89.5 -427.5t267.5 -146.5q40 0 119 5.5t138 10.5l59 5v1108q-224 28 -316 28
q-172 0 -264.5 -146.5t-92.5 -436.5z" />
    <glyph glyph-name="oe" unicode="&#x153;" horiz-adv-x="1883" 
d="M1128 597h363q1 11 1 34q0 116 -44.5 194.5t-123.5 78.5q-175 0 -196 -307zM863 504q0 396 -216 396q-108 0 -161.5 -96.5t-53.5 -299.5q0 -395 216 -395q110 0 162.5 97t52.5 298zM1716 224l52 -92q-134 -160 -415 -160q-221 0 -356 144q-136 -144 -360 -144
q-240 0 -386 143.5t-146 388.5q0 167 72 289.5t192 183.5t270 61q229 0 357 -155q143 155 361 155q191 0 313 -108t122 -292q0 -56 -10.5 -90t-35 -52.5t-57 -24.5t-85.5 -6q-80 0 -238 0.5t-237 0.5q15 -163 97.5 -250.5t222.5 -87.5q139 0 267 96z" />
    <glyph glyph-name="Racute" unicode="&#x154;" horiz-adv-x="1544" 
d="M288 257q0 151 -0.5 453t-0.5 452q0 69 -10 99q-22 4 -86 4h-123v138q248 21 627 21q118 0 210.5 -11t175.5 -39t137.5 -73.5t86.5 -118.5t32 -170q0 -129 -81.5 -219t-229.5 -140q71 -27 123 -70.5t89.5 -109t63.5 -138.5t51 -179q14 1 75.5 1.5t86.5 0.5l-8 -173
q-146 -13 -196 -13q-98 0 -160.5 36t-95.5 114q-27 66 -59 155.5t-50 137.5t-46.5 96t-63.5 72q-32 5 -68 7t-89 2.5t-71 0.5v-334q0 -62 10 -109q26 -4 87 -4h80v-159q-137 13 -313 13q-213 0 -375 -13v159h86q65 0 94 4q11 38 11 107zM703 1265h-95v-531q20 -1 63 -1
q178 0 258.5 62.5t80.5 208.5q0 144 -70 202.5t-237 58.5zM711 1602h-184q64 126 170 345h320q-96 -117 -306 -345z" />
    <glyph glyph-name="Rcommaaccent" unicode="&#x156;" horiz-adv-x="1544" 
d="M288 257q0 151 -0.5 453t-0.5 452q0 69 -10 99q-22 4 -86 4h-123v138q248 21 627 21q118 0 210.5 -11t175.5 -39t137.5 -73.5t86.5 -118.5t32 -170q0 -129 -81.5 -219t-229.5 -140q71 -27 123 -70.5t89.5 -109t63.5 -138.5t51 -179q14 1 75.5 1.5t86.5 0.5l-8 -173
q-146 -13 -196 -13q-98 0 -160.5 36t-95.5 114q-27 66 -59 155.5t-50 137.5t-46.5 96t-63.5 72q-32 5 -68 7t-89 2.5t-71 0.5v-334q0 -62 10 -109q26 -4 87 -4h80v-159q-137 13 -313 13q-213 0 -375 -13v159h86q65 0 94 4q11 38 11 107zM703 1265h-95v-531q20 -1 63 -1
q178 0 258.5 62.5t80.5 208.5q0 144 -70 202.5t-237 58.5zM641 -795q-25 10 -40.5 26t-34.5 44q102 118 133 289q-50 7 -81.5 41.5t-31.5 84.5q3 80 53 120.5t120 40.5q91 0 135.5 -44t44.5 -124q0 -142 -76 -259t-222 -219z" />
    <glyph glyph-name="rcommaaccent" unicode="&#x157;" horiz-adv-x="1064" 
d="M532 1006v-187q77 107 159 161.5t194 54.5q80 0 148 -26l-23 -297h-146l-25 149q-14 1 -37 1q-63 0 -113 -27t-80 -71.5t-45.5 -98.5t-15.5 -112v-288v-39t1 -31.5t3.5 -27t6.5 -20t10.5 -17t15.5 -12t22 -11t28.5 -7.5t37.5 -7l10 -105q-254 12 -305 12q-127 0 -265 -12
l5 105q44 6 68 12.5t35.5 22t13.5 30t2 48.5v7v21t-0.5 39.5t-0.5 70.5v105.5v152.5v204q0 47 -4 68q-30 8 -63 8h-114v109q126 31 329 31q71 0 148 -16zM409 -792q-25 10 -40.5 26t-34.5 44q102 118 133 289q-50 7 -81.5 41.5t-31.5 84.5q3 80 53 120.5t120 40.5
q91 0 135.5 -44t44.5 -124q0 -142 -76 -259t-222 -219z" />
    <glyph glyph-name="Rcaron" unicode="&#x158;" horiz-adv-x="1544" 
d="M288 257q0 151 -0.5 453t-0.5 452q0 69 -10 99q-22 4 -86 4h-123v138q248 21 627 21q118 0 210.5 -11t175.5 -39t137.5 -73.5t86.5 -118.5t32 -170q0 -129 -81.5 -219t-229.5 -140q71 -27 123 -70.5t89.5 -109t63.5 -138.5t51 -179q14 1 75.5 1.5t86.5 0.5l-8 -173
q-146 -13 -196 -13q-98 0 -160.5 36t-95.5 114q-27 66 -59 155.5t-50 137.5t-46.5 96t-63.5 72q-32 5 -68 7t-89 2.5t-71 0.5v-334q0 -62 10 -109q26 -4 87 -4h80v-159q-137 13 -313 13q-213 0 -375 -13v159h86q65 0 94 4q11 38 11 107zM703 1265h-95v-531q20 -1 63 -1
q178 0 258.5 62.5t80.5 208.5q0 144 -70 202.5t-237 58.5zM642 1619l-183 251q-37 49 -45 72q17 19 93 19q59 0 113 -6l152 -191l156 191q53 6 107 6q75 0 94 -19q-41 -75 -221 -319q-63 -24 -135 -24q-74 0 -131 20z" />
    <glyph glyph-name="rcaron" unicode="&#x159;" horiz-adv-x="1064" 
d="M532 1006v-187q77 107 159 161.5t194 54.5q80 0 148 -26l-23 -297h-146l-25 149q-14 1 -37 1q-63 0 -113 -27t-80 -71.5t-45.5 -98.5t-15.5 -112v-288v-39t1 -31.5t3.5 -27t6.5 -20t10.5 -17t15.5 -12t22 -11t28.5 -7.5t37.5 -7l10 -105q-254 12 -305 12q-127 0 -265 -12
l5 105q44 6 68 12.5t35.5 22t13.5 30t2 48.5v7v21t-0.5 39.5t-0.5 70.5v105.5v152.5v204q0 47 -4 68q-30 8 -63 8h-114v109q126 31 329 31q71 0 148 -16zM403 1209l-183 251q-37 49 -45 72q17 19 93 19q59 0 113 -6l152 -191l156 191q53 6 107 6q75 0 94 -19
q-41 -75 -221 -319q-63 -24 -135 -24q-74 0 -131 20z" />
    <glyph glyph-name="Scaron" unicode="&#x160;" horiz-adv-x="1278" 
d="M426 1089q0 -87 55 -140.5t164 -96.5q56 -23 87.5 -36t84 -36t83 -39.5t73.5 -42.5t68 -48.5t54 -52.5t44 -60.5t25.5 -67.5t10.5 -77q0 -195 -151 -308.5t-392 -113.5q-168 0 -335.5 52.5t-216.5 139.5q4 35 15 79.5t30 106.5t25 84l224 -61q5 -27 11 -67.5t9.5 -59.5
t11.5 -41t21 -36q59 -50 210 -50q93 0 153.5 62.5t60.5 154.5q0 48 -17.5 88.5t-43.5 69.5t-75.5 59t-93.5 50.5t-117 50.5q-201 83 -299 176t-98 227q0 172 155.5 276.5t431.5 104.5q120 0 216 -29.5t202 -82.5q-1 -34 -6.5 -74t-10.5 -65.5t-15 -73t-14 -65.5l-174 -1
q-6 63 -18 101.5t-43 65.5q-35 31 -101 48t-117 17q-83 0 -135 -50t-52 -138zM509 1619l-183 251q-37 49 -45 72q17 19 93 19q59 0 113 -6l152 -191l156 191q53 6 107 6q75 0 94 -19q-41 -75 -221 -319q-63 -24 -135 -24q-74 0 -131 20z" />
    <glyph glyph-name="scaron" unicode="&#x161;" horiz-adv-x="1032" 
d="M467 1200l-183 251q-37 49 -45 72q17 19 93 19q59 0 113 -6l152 -191l156 191q53 6 107 6q75 0 94 -19q-41 -75 -221 -319q-63 -24 -135 -24q-74 0 -131 20zM91 85l49 259l187 -35l15 -161q64 -33 169 -33q77 0 118.5 35t41.5 91q0 33 -21 61t-60.5 49.5t-76.5 36.5
t-88 33t-76 29q-124 54 -184 119.5t-60 167.5q0 141 118 219.5t339 78.5q240 0 361 -86q-3 -22 -49 -241l-162 26q-9 120 -11 139q-52 25 -159 25q-72 0 -110 -29.5t-38 -83.5q0 -27 14.5 -50t35.5 -39t56 -32.5t63.5 -26.5t70.5 -24.5t66 -24.5q145 -58 213.5 -128
t68.5 -164q0 -83 -34.5 -145.5t-96.5 -99.5t-140.5 -55.5t-172.5 -18.5q-124 0 -254.5 31t-192.5 77z" />
    <glyph glyph-name="Ydieresis" unicode="&#x178;" horiz-adv-x="1582" 
d="M1085 1153q25 55 34 107q-21 5 -76 5h-87l29 140q127 14 308 14q191 0 292 -14l-32 -140h-91q-54 0 -80 -5q-14 -20 -26 -35q-5 -7 -6 -9q-8 -35 -221 -401l-173 -300v-239q0 -78 10 -135q33 -5 84 -5h107v-149q-148 13 -337 13q-220 0 -384 -13v149h106q57 0 83 5
q10 34 10 96v253q-9 14 -22 39.5t-20 36.5l-349 587q-12 19 -26.5 46.5t-23 40.5t-18.5 20q-27 5 -86 5h-69l-26 140q149 14 298 14q275 0 391 -14l16 -140h-67q-59 0 -82 -5q12 -49 36 -91l267 -465q142 257 231 449zM581 1667q0 -72 -45 -114.5t-120 -42.5t-120 42.5
t-45 114.5q0 68 47 111.5t118 43.5q72 0 118.5 -43t46.5 -112zM1076 1667q0 -72 -45 -114.5t-120 -42.5t-120 42.5t-45 114.5q0 68 47 111.5t118 43.5q72 0 118.5 -43t46.5 -112z" />
    <glyph glyph-name="Zcaron" unicode="&#x17d;" horiz-adv-x="1320" 
d="M100 1390q283 23 554 23h439q30 0 50.5 -2.5t41.5 -9.5t31.5 -23t10.5 -40v-90l-792 -1096h331q78 0 145 7q51 48 78 109.5t27 173.5q39 -1 117 -4.5t88 -3.5q8 -185 11 -305q0 -35 -10 -116q-76 -13 -282 -13h-795q-53 12 -53 92v82l774 1083h-234q-78 0 -167 -12.5
t-121 -39.5q-3 -29 -3 -105q0 -8 0.5 -24.5t0.5 -24.5q-33 0 -99.5 -0.5t-101.5 -0.5q-3 35 -19.5 163.5t-21.5 176.5zM530 1619l-183 251q-37 49 -45 72q17 19 93 19q59 0 113 -6l152 -191l156 191q53 6 107 6q75 0 94 -19q-41 -75 -221 -319q-63 -24 -135 -24
q-74 0 -131 20z" />
    <glyph glyph-name="zcaron" unicode="&#x17e;" horiz-adv-x="1085" 
d="M461 1200l-183 251q-37 49 -45 72q17 19 93 19q59 0 113 -6l152 -191l156 191q53 6 107 6q75 0 94 -19q-41 -75 -221 -319q-63 -24 -135 -24q-74 0 -131 20zM920 817l-594 -684h341q59 0 87 17q25 44 60 168q17 1 37 2t44 2t37 2v-194q0 -27 2.5 -70t2.5 -65
q-115 5 -323 5h-411q-70 0 -138 4q-30 6 -43.5 24t-13.5 62v80l620 708h-332q-70 0 -96 -18q-25 -62 -35 -158h-4q-86 -6 -129 -7q-5 109 -5 199q0 23 0.5 61.5t0.5 56.5q126 0 392 -2t397 -2q66 0 84.5 -19t18.5 -86v-86z" />
    <glyph glyph-name="florin" unicode="&#x192;" horiz-adv-x="963" 
d="M355 676h-195l24 133h196l59 310q29 154 126 225.5t262 71.5q67 0 142 -25l-24 -129q-53 12 -85 12q-79 0 -117.5 -62t-61.5 -193l-37 -210h215l-24 -133h-216q-11 -56 -33.5 -185t-41.5 -224.5t-39 -181.5q-43 -180 -134 -251t-278 -71q-25 0 -118 7l18 136q49 0 80.5 3
t60 13.5t45.5 26.5t32.5 46.5t26 69.5t21.5 99z" />
    <glyph glyph-name="uni0200" unicode="&#x200;" horiz-adv-x="1623" 
d="M875 1411q60 -30 98.5 -64t57.5 -84q81 -217 204 -548t169 -452q36 -97 52 -122q28 -6 140 -14l27 -140q-153 13 -316 13q-142 0 -306 -13l-10 133q102 2 102 29q-8 51 -37 132l-46 126h-461l-38 -121q-28 -87 -28 -127q0 -9 7 -16t21.5 -10.5t25 -5t30.5 -3.5t24 -2
l-17 -135q-86 13 -257 13q-213 0 -313 -13l33 137l37 2q63 0 92.5 30t54.5 97q93 251 454 1166h107q50 0 93 -8zM781 1144h-7l-193 -610h389q-31 96 -96 308.5t-93 301.5zM1095 1654h-152l-214 221q-59 59 -88 93q0 27 40 32h276q13 -28 47 -93.5t50 -100.5l72 -151
q-8 -1 -31 -1zM674 1654h-147l-221 228q-55 55 -85 92q22 26 88 26h232l170 -345q-10 -1 -37 -1z" />
    <glyph glyph-name="uni0201" unicode="&#x201;" 
d="M1131 123h82v-97q-121 -36 -304 -36q-64 0 -100 16q-44 37 -65 103q-135 -132 -306 -132q-155 0 -248 76.5t-93 218.5q0 321 552 321h86v52q0 140 -28 201t-96 61q-154 0 -299 -212l-188 120q7 90 143.5 154.5t318.5 64.5q232 0 346.5 -94t114.5 -297q0 -1 -0.5 -109
t-0.5 -263q0 -97 12 -147q23 -1 73 -1zM727 198q8 162 8 279h-96q-111 0 -172 -51.5t-61 -144.5q0 -82 36.5 -122t99.5 -40q85 0 185 79zM1067 1244h-152l-214 221q-59 59 -88 93q0 27 40 32h276q13 -28 47 -93.5t50 -100.5l72 -151q-8 -1 -31 -1zM646 1244h-147l-221 228
q-55 55 -85 92q22 26 88 26h232l170 -345q-10 -1 -37 -1z" />
    <glyph glyph-name="uni0202" unicode="&#x202;" horiz-adv-x="1623" 
d="M875 1411q60 -30 98.5 -64t57.5 -84q81 -217 204 -548t169 -452q36 -97 52 -122q28 -6 140 -14l27 -140q-153 13 -316 13q-142 0 -306 -13l-10 133q102 2 102 29q-8 51 -37 132l-46 126h-461l-38 -121q-28 -87 -28 -127q0 -9 7 -16t21.5 -10.5t25 -5t30.5 -3.5t24 -2
l-17 -135q-86 13 -257 13q-213 0 -313 -13l33 137l37 2q63 0 92.5 30t54.5 97q93 251 454 1166h107q50 0 93 -8zM781 1144h-7l-193 -610h389q-31 96 -96 308.5t-93 301.5zM810 2000q345 0 345 -287h-179q0 37 -14.5 62t-41 36t-51.5 15t-59 4t-59 -4t-51.5 -15t-41 -36
t-14.5 -62h-179q0 287 345 287z" />
    <glyph glyph-name="uni0203" unicode="&#x203;" 
d="M1131 123h82v-97q-121 -36 -304 -36q-64 0 -100 16q-44 37 -65 103q-135 -132 -306 -132q-155 0 -248 76.5t-93 218.5q0 321 552 321h86v52q0 140 -28 201t-96 61q-154 0 -299 -212l-188 120q7 90 143.5 154.5t318.5 64.5q232 0 346.5 -94t114.5 -297q0 -1 -0.5 -109
t-0.5 -263q0 -97 12 -147q23 -1 73 -1zM727 198q8 162 8 279h-96q-111 0 -172 -51.5t-61 -144.5q0 -82 36.5 -122t99.5 -40q85 0 185 79zM644 1590q345 0 345 -287h-179q0 37 -14.5 62t-41 36t-51.5 15t-59 4t-59 -4t-51.5 -15t-41 -36t-14.5 -62h-179q0 287 345 287z" />
    <glyph glyph-name="uni0204" unicode="&#x204;" horiz-adv-x="1409" 
d="M664 1413h603l25 -129q21 -113 30 -177l-184 -17q-16 96 -35 145q-92 24 -236 24q-71 0 -264 -4v-467h232q62 0 82 21.5t41 100.5h100q0 -174 -7 -393q-12 -1 -36 -1q-11 0 -34 0.5t-35 0.5q-21 80 -41 106.5t-59 26.5h-243v-504h371q98 0 135 24q16 47 30 173
q116 -2 194 -2l-3 -127q-7 -152 -10 -196q-169 -26 -397 -26q-109 0 -276 4t-237 4q-211 0 -336 -7v153h112q61 0 87 4q11 41 11 101v893q0 59 -12 104q-25 5 -85 5h-119v133q251 27 596 27zM1126 1654h-152l-214 221q-59 59 -88 93q0 27 40 32h276q13 -28 47 -93.5
t50 -100.5l72 -151q-8 -1 -31 -1zM705 1654h-147l-221 228q-55 55 -85 92q22 26 88 26h232l170 -345q-10 -1 -37 -1z" />
    <glyph glyph-name="uni0205" unicode="&#x205;" horiz-adv-x="1211" 
d="M1028 224l53 -92q-135 -155 -411 -155q-262 0 -413.5 140t-151.5 392q0 238 153.5 381.5t410.5 143.5q197 0 322 -107t125 -289q0 -106 -41.5 -139.5t-147.5 -33.5h-503q17 -161 99.5 -246t223.5 -85q147 0 281 90zM423 597h393q1 6 1 18q0 126 -46 205.5t-139 79.5
q-188 0 -209 -303zM1027 1244h-152l-214 221q-59 59 -88 93q0 27 40 32h276q13 -28 47 -93.5t50 -100.5l72 -151q-8 -1 -31 -1zM606 1244h-147l-221 228q-55 55 -85 92q22 26 88 26h232l170 -345q-10 -1 -37 -1z" />
    <glyph glyph-name="uni0206" unicode="&#x206;" horiz-adv-x="1409" 
d="M664 1413h603l25 -129q21 -113 30 -177l-184 -17q-16 96 -35 145q-92 24 -236 24q-71 0 -264 -4v-467h232q62 0 82 21.5t41 100.5h100q0 -174 -7 -393q-12 -1 -36 -1q-11 0 -34 0.5t-35 0.5q-21 80 -41 106.5t-59 26.5h-243v-504h371q98 0 135 24q16 47 30 173
q116 -2 194 -2l-3 -127q-7 -152 -10 -196q-169 -26 -397 -26q-109 0 -276 4t-237 4q-211 0 -336 -7v153h112q61 0 87 4q11 41 11 101v893q0 59 -12 104q-25 5 -85 5h-119v133q251 27 596 27zM703 2000q345 0 345 -287h-179q0 37 -14.5 62t-41 36t-51.5 15t-59 4t-59 -4
t-51.5 -15t-41 -36t-14.5 -62h-179q0 287 345 287z" />
    <glyph glyph-name="uni0207" unicode="&#x207;" horiz-adv-x="1211" 
d="M1028 224l53 -92q-135 -155 -411 -155q-262 0 -413.5 140t-151.5 392q0 238 153.5 381.5t410.5 143.5q197 0 322 -107t125 -289q0 -106 -41.5 -139.5t-147.5 -33.5h-503q17 -161 99.5 -246t223.5 -85q147 0 281 90zM423 597h393q1 6 1 18q0 126 -46 205.5t-139 79.5
q-188 0 -209 -303zM604 1590q345 0 345 -287h-179q0 37 -14.5 62t-41 36t-51.5 15t-59 4t-59 -4t-51.5 -15t-41 -36t-14.5 -62h-179q0 287 345 287z" />
    <glyph glyph-name="uni0208" unicode="&#x208;" horiz-adv-x="857" 
d="M68 -13v159h106q58 0 84 4q11 39 11 107v865q0 99 -11 138q-25 5 -83 5h-107v135q171 19 350 19q254 0 371 -16v-138h-107q-58 0 -84 -5q-10 -45 -10 -104v-897q0 -62 10 -109q26 -4 84 -4h106v-159q-148 13 -335 13q-220 0 -385 -13zM850 1654h-152l-214 221
q-59 59 -88 93q0 27 40 32h276q13 -28 47 -93.5t50 -100.5l72 -151q-8 -1 -31 -1zM429 1654h-147l-221 228q-55 55 -85 92q22 26 88 26h232l170 -345q-10 -1 -37 -1z" />
    <glyph glyph-name="uni0209" unicode="&#x209;" horiz-adv-x="687" 
d="M223 280v519q0 45 -5 78q-29 7 -72 7h-105v106q163 35 339 35q146 0 154 -60v-697q0 -98 12 -137q38 -14 78 -14h62l12 -98q-146 -33 -308 -33q-174 0 -174 95q0 25 3.5 95.5t3.5 103.5zM765 1244h-152l-214 221q-59 59 -88 93q0 27 40 32h276q13 -28 47 -93.5t50 -100.5
l72 -151q-8 -1 -31 -1zM344 1244h-147l-221 228q-55 55 -85 92q22 26 88 26h232l170 -345q-10 -1 -37 -1z" />
    <glyph glyph-name="uni020A" unicode="&#x20a;" horiz-adv-x="857" 
d="M68 -13v159h106q58 0 84 4q11 39 11 107v865q0 99 -11 138q-25 5 -83 5h-107v135q171 19 350 19q254 0 371 -16v-138h-107q-58 0 -84 -5q-10 -45 -10 -104v-897q0 -62 10 -109q26 -4 84 -4h106v-159q-148 13 -335 13q-220 0 -385 -13zM428 2000q345 0 345 -287h-179
q0 37 -14.5 62t-41 36t-51.5 15t-59 4t-59 -4t-51.5 -15t-41 -36t-14.5 -62h-179q0 287 345 287z" />
    <glyph glyph-name="uni020B" unicode="&#x20b;" horiz-adv-x="728" 
d="M223 280v519q0 45 -5 78q-29 7 -72 7h-105v106q163 35 339 35q146 0 154 -60v-697q0 -98 12 -137q38 -14 78 -14h62l12 -98q-146 -33 -308 -33q-174 0 -174 95q0 25 3.5 95.5t3.5 103.5zM363 1590q345 0 345 -287h-179q0 37 -14.5 62t-41 36t-51.5 15t-59 4t-59 -4
t-51.5 -15t-41 -36t-14.5 -62h-179q0 287 345 287z" />
    <glyph glyph-name="uni020C" unicode="&#x20c;" horiz-adv-x="1625" 
d="M1510 702q0 -343 -187 -537.5t-510 -194.5q-326 0 -512.5 195.5t-186.5 536.5q0 348 186.5 541t512.5 193q325 0 511 -194.5t186 -539.5zM456 699q0 -281 89.5 -427.5t267.5 -146.5q172 0 263.5 144t91.5 433q0 287 -91 433.5t-264 146.5q-172 0 -264.5 -146.5
t-92.5 -436.5zM1234 1654h-152l-214 221q-59 59 -88 93q0 27 40 32h276q13 -28 47 -93.5t50 -100.5l72 -151q-8 -1 -31 -1zM813 1654h-147l-221 228q-55 55 -85 92q22 26 88 26h232l170 -345q-10 -1 -37 -1z" />
    <glyph glyph-name="uni020D" unicode="&#x20d;" horiz-adv-x="1330" 
d="M432 505q0 -199 56.5 -294t176.5 -95q123 0 177.5 95.5t54.5 293.5t-56.5 293t-175.5 95q-122 0 -177.5 -96t-55.5 -292zM1225 504q0 -130 -46 -232.5t-124 -165.5t-177.5 -96t-211.5 -33q-162 0 -288.5 61.5t-199.5 182.5t-73 283q0 128 45.5 230.5t123.5 167t178 99
t214 34.5q246 0 402.5 -144t156.5 -387zM1086 1244h-152l-214 221q-59 59 -88 93q0 27 40 32h276q13 -28 47 -93.5t50 -100.5l72 -151q-8 -1 -31 -1zM665 1244h-147l-221 228q-55 55 -85 92q22 26 88 26h232l170 -345q-10 -1 -37 -1z" />
    <glyph glyph-name="uni020E" unicode="&#x20e;" horiz-adv-x="1625" 
d="M1510 702q0 -343 -187 -537.5t-510 -194.5q-326 0 -512.5 195.5t-186.5 536.5q0 348 186.5 541t512.5 193q325 0 511 -194.5t186 -539.5zM456 699q0 -281 89.5 -427.5t267.5 -146.5q172 0 263.5 144t91.5 433q0 287 -91 433.5t-264 146.5q-172 0 -264.5 -146.5
t-92.5 -436.5zM811 2000q345 0 345 -287h-179q0 37 -14.5 62t-41 36t-51.5 15t-59 4t-59 -4t-51.5 -15t-41 -36t-14.5 -62h-179q0 287 345 287z" />
    <glyph glyph-name="uni020F" unicode="&#x20f;" horiz-adv-x="1330" 
d="M432 505q0 -199 56.5 -294t176.5 -95q123 0 177.5 95.5t54.5 293.5t-56.5 293t-175.5 95q-122 0 -177.5 -96t-55.5 -292zM1225 504q0 -130 -46 -232.5t-124 -165.5t-177.5 -96t-211.5 -33q-162 0 -288.5 61.5t-199.5 182.5t-73 283q0 128 45.5 230.5t123.5 167t178 99
t214 34.5q246 0 402.5 -144t156.5 -387zM664 1590q345 0 345 -287h-179q0 37 -14.5 62t-41 36t-51.5 15t-59 4t-59 -4t-51.5 -15t-41 -36t-14.5 -62h-179q0 287 345 287z" />
    <glyph glyph-name="uni0210" unicode="&#x210;" horiz-adv-x="1544" 
d="M288 257q0 151 -0.5 453t-0.5 452q0 69 -10 99q-22 4 -86 4h-123v138q248 21 627 21q118 0 210.5 -11t175.5 -39t137.5 -73.5t86.5 -118.5t32 -170q0 -129 -81.5 -219t-229.5 -140q71 -27 123 -70.5t89.5 -109t63.5 -138.5t51 -179q14 1 75.5 1.5t86.5 0.5l-8 -173
q-146 -13 -196 -13q-98 0 -160.5 36t-95.5 114q-27 66 -59 155.5t-50 137.5t-46.5 96t-63.5 72q-32 5 -68 7t-89 2.5t-71 0.5v-334q0 -62 10 -109q26 -4 87 -4h80v-159q-137 13 -313 13q-213 0 -375 -13v159h86q65 0 94 4q11 38 11 107zM703 1265h-95v-531q20 -1 63 -1
q178 0 258.5 62.5t80.5 208.5q0 144 -70 202.5t-237 58.5zM1193 1654h-152l-214 221q-59 59 -88 93q0 27 40 32h276q13 -28 47 -93.5t50 -100.5l72 -151q-8 -1 -31 -1zM772 1654h-147l-221 228q-55 55 -85 92q22 26 88 26h232l170 -345q-10 -1 -37 -1z" />
    <glyph glyph-name="uni0211" unicode="&#x211;" horiz-adv-x="1064" 
d="M532 1006v-187q77 107 159 161.5t194 54.5q80 0 148 -26l-23 -297h-146l-25 149q-14 1 -37 1q-63 0 -113 -27t-80 -71.5t-45.5 -98.5t-15.5 -112v-288v-39t1 -31.5t3.5 -27t6.5 -20t10.5 -17t15.5 -12t22 -11t28.5 -7.5t37.5 -7l10 -105q-254 12 -305 12q-127 0 -265 -12
l5 105q44 6 68 12.5t35.5 22t13.5 30t2 48.5v7v21t-0.5 39.5t-0.5 70.5v105.5v152.5v204q0 47 -4 68q-30 8 -63 8h-114v109q126 31 329 31q71 0 148 -16zM954 1244h-152l-214 221q-59 59 -88 93q0 27 40 32h276q13 -28 47 -93.5t50 -100.5l72 -151q-8 -1 -31 -1zM533 1244
h-147l-221 228q-55 55 -85 92q22 26 88 26h232l170 -345q-10 -1 -37 -1z" />
    <glyph glyph-name="uni0212" unicode="&#x212;" horiz-adv-x="1544" 
d="M288 257q0 151 -0.5 453t-0.5 452q0 69 -10 99q-22 4 -86 4h-123v138q248 21 627 21q118 0 210.5 -11t175.5 -39t137.5 -73.5t86.5 -118.5t32 -170q0 -129 -81.5 -219t-229.5 -140q71 -27 123 -70.5t89.5 -109t63.5 -138.5t51 -179q14 1 75.5 1.5t86.5 0.5l-8 -173
q-146 -13 -196 -13q-98 0 -160.5 36t-95.5 114q-27 66 -59 155.5t-50 137.5t-46.5 96t-63.5 72q-32 5 -68 7t-89 2.5t-71 0.5v-334q0 -62 10 -109q26 -4 87 -4h80v-159q-137 13 -313 13q-213 0 -375 -13v159h86q65 0 94 4q11 38 11 107zM703 1265h-95v-531q20 -1 63 -1
q178 0 258.5 62.5t80.5 208.5q0 144 -70 202.5t-237 58.5zM771 2000q345 0 345 -287h-179q0 37 -14.5 62t-41 36t-51.5 15t-59 4t-59 -4t-51.5 -15t-41 -36t-14.5 -62h-179q0 287 345 287z" />
    <glyph glyph-name="uni0213" unicode="&#x213;" horiz-adv-x="1064" 
d="M532 1006v-187q77 107 159 161.5t194 54.5q80 0 148 -26l-23 -297h-146l-25 149q-14 1 -37 1q-63 0 -113 -27t-80 -71.5t-45.5 -98.5t-15.5 -112v-288v-39t1 -31.5t3.5 -27t6.5 -20t10.5 -17t15.5 -12t22 -11t28.5 -7.5t37.5 -7l10 -105q-254 12 -305 12q-127 0 -265 -12
l5 105q44 6 68 12.5t35.5 22t13.5 30t2 48.5v7v21t-0.5 39.5t-0.5 70.5v105.5v152.5v204q0 47 -4 68q-30 8 -63 8h-114v109q126 31 329 31q71 0 148 -16zM531 1590q345 0 345 -287h-179q0 37 -14.5 62t-41 36t-51.5 15t-59 4t-59 -4t-51.5 -15t-41 -36t-14.5 -62h-179
q0 287 345 287z" />
    <glyph glyph-name="uni0214" unicode="&#x214;" horiz-adv-x="1659" 
d="M1425 1153v-638q0 -136 -46.5 -241.5t-129 -171t-191 -99t-237.5 -33.5q-588 0 -588 612v571q0 69 -11 107q-30 5 -99 5h-91v141q172 13 326 13q288 0 383 -14v-140h-86q-63 0 -91 -5q-10 -44 -10 -107q0 -107 -0.5 -323t-0.5 -323q0 -184 78.5 -283.5t218.5 -99.5
q159 0 230.5 116t71.5 337v576q0 69 -11 107q-27 5 -89 5h-82v141q146 13 328 13q239 0 329 -14v-140h-93q-69 0 -98 -5q-11 -42 -11 -107zM1251 1654h-152l-214 221q-59 59 -88 93q0 27 40 32h276q13 -28 47 -93.5t50 -100.5l72 -151q-8 -1 -31 -1zM830 1654h-147l-221 228
q-55 55 -85 92q22 26 88 26h232l170 -345q-10 -1 -37 -1z" />
    <glyph glyph-name="uni0215" unicode="&#x215;" horiz-adv-x="1359" 
d="M1201 968v-698q0 -89 13 -147h157v-98q-156 -37 -313 -37q-98 0 -136 23.5t-39 100.5q-88 -66 -169.5 -100.5t-190.5 -34.5q-149 0 -228 83t-79 238v493q0 41 -5 86q-30 5 -78 5h-77l-6 111q143 31 304 31q159 0 173 -56q0 -109 0.5 -326.5t0.5 -326.5q0 -34 1.5 -57
t8 -50t18.5 -42.5t34 -26.5t53 -11q65 0 142 32.5t94 54.5q11 88 11 299v281q0 47 -7 82q-28 5 -74 5h-75l-6 111q138 31 304 31q147 0 169 -56zM1101 1244h-152l-214 221q-59 59 -88 93q0 27 40 32h276q13 -28 47 -93.5t50 -100.5l72 -151q-8 -1 -31 -1zM680 1244h-147
l-221 228q-55 55 -85 92q22 26 88 26h232l170 -345q-10 -1 -37 -1z" />
    <glyph glyph-name="uni0216" unicode="&#x216;" horiz-adv-x="1659" 
d="M1425 1153v-638q0 -136 -46.5 -241.5t-129 -171t-191 -99t-237.5 -33.5q-588 0 -588 612v571q0 69 -11 107q-30 5 -99 5h-91v141q172 13 326 13q288 0 383 -14v-140h-86q-63 0 -91 -5q-10 -44 -10 -107q0 -107 -0.5 -323t-0.5 -323q0 -184 78.5 -283.5t218.5 -99.5
q159 0 230.5 116t71.5 337v576q0 69 -11 107q-27 5 -89 5h-82v141q146 13 328 13q239 0 329 -14v-140h-93q-69 0 -98 -5q-11 -42 -11 -107zM828 2000q345 0 345 -287h-179q0 37 -14.5 62t-41 36t-51.5 15t-59 4t-59 -4t-51.5 -15t-41 -36t-14.5 -62h-179q0 287 345 287z" />
    <glyph glyph-name="uni0217" unicode="&#x217;" horiz-adv-x="1359" 
d="M1201 968v-698q0 -89 13 -147h157v-98q-156 -37 -313 -37q-98 0 -136 23.5t-39 100.5q-88 -66 -169.5 -100.5t-190.5 -34.5q-149 0 -228 83t-79 238v493q0 41 -5 86q-30 5 -78 5h-77l-6 111q143 31 304 31q159 0 173 -56q0 -109 0.5 -326.5t0.5 -326.5q0 -34 1.5 -57
t8 -50t18.5 -42.5t34 -26.5t53 -11q65 0 142 32.5t94 54.5q11 88 11 299v281q0 47 -7 82q-28 5 -74 5h-75l-6 111q138 31 304 31q147 0 169 -56zM678 1590q345 0 345 -287h-179q0 37 -14.5 62t-41 36t-51.5 15t-59 4t-59 -4t-51.5 -15t-41 -36t-14.5 -62h-179q0 287 345 287
z" />
    <glyph glyph-name="uni0218" unicode="&#x218;" horiz-adv-x="1278" 
d="M426 1089q0 -87 55 -140.5t164 -96.5q56 -23 87.5 -36t84 -36t83 -39.5t73.5 -42.5t68 -48.5t54 -52.5t44 -60.5t25.5 -67.5t10.5 -77q0 -195 -151 -308.5t-392 -113.5q-168 0 -335.5 52.5t-216.5 139.5q4 35 15 79.5t30 106.5t25 84l224 -61q5 -27 11 -67.5t9.5 -59.5
t11.5 -41t21 -36q59 -50 210 -50q93 0 153.5 62.5t60.5 154.5q0 48 -17.5 88.5t-43.5 69.5t-75.5 59t-93.5 50.5t-117 50.5q-201 83 -299 176t-98 227q0 172 155.5 276.5t431.5 104.5q120 0 216 -29.5t202 -82.5q-1 -34 -6.5 -74t-10.5 -65.5t-15 -73t-14 -65.5l-174 -1
q-6 63 -18 101.5t-43 65.5q-35 31 -101 48t-117 17q-83 0 -135 -50t-52 -138zM554 -791q-38 15 -75 70q101 117 134 289q-50 7 -81.5 41.5t-31.5 84.5q0 79 51 120t122 41q179 0 179 -176q-12 -150 -84 -260.5t-214 -209.5z" />
    <glyph glyph-name="uni0219" unicode="&#x219;" horiz-adv-x="1053" 
d="M77 85l49 259l187 -35l15 -161q65 -33 169 -33q77 0 118.5 35t41.5 91q0 33 -21 61t-60.5 49.5t-76.5 36.5t-88 33t-76 29q-124 54 -184 119.5t-60 167.5q0 141 118 219.5t339 78.5q240 0 361 -86q-3 -22 -49 -241l-162 26q-9 120 -11 139q-52 25 -159 25
q-72 0 -110 -29.5t-38 -83.5q0 -27 14.5 -50t35.5 -39t56 -32.5t63.5 -26.5t70.5 -24.5t66 -24.5q145 -58 213.5 -128t68.5 -164q0 -83 -34.5 -145.5t-96.5 -99.5t-140.5 -55.5t-172.5 -18.5q-124 0 -254.5 31t-192.5 77zM420 -784q-38 15 -75 70q101 117 134 289
q-50 7 -81.5 41.5t-31.5 84.5q0 79 51 120t122 41q179 0 179 -176q-12 -150 -84 -260.5t-214 -209.5z" />
    <glyph glyph-name="uni021A" unicode="&#x21a;" horiz-adv-x="1416" 
d="M1376 1041h-162q0 85 -27 220q-45 -1 -139 -1h-176v-1001q0 -71 11 -109q30 -4 98 -4h92v-159q-148 13 -337 13q-220 0 -385 -13v159h91q69 0 99 4q11 38 11 107q0 168 -0.5 501.5t-0.5 501.5h-314q-26 -105 -27 -219h-169q0 37 -5 174.5t-5 181.5q37 16 268 16
q37 0 202.5 -3.5t215.5 -3.5q68 0 224 3.5t187 3.5q218 0 257 -16q0 -45 -4.5 -182t-4.5 -174zM596 -738q-38 15 -75 70q101 117 134 289q-50 7 -81.5 41.5t-31.5 84.5q0 79 51 120t122 41q179 0 179 -176q-12 -150 -84 -260.5t-214 -209.5z" />
    <glyph glyph-name="uni021B" unicode="&#x21b;" horiz-adv-x="978" 
d="M226 1008l25 171q6 40 33 105l15 38h227v-314h308v-52q0 -49 -26 -64.5t-80 -15.5q-8 0 -26.5 0.5t-28.5 0.5h-147v-553q0 -104 23.5 -150t82.5 -46q36 0 67 24.5t36 46.5q5 19 18 122h181v-251q-139 -86 -364 -86q-356 0 -356 322v571h-194v63q0 25 14 36t44 16
q9 2 148 16zM377 -738q-38 15 -75 70q101 117 134 289q-50 7 -81.5 41.5t-31.5 84.5q0 79 51 120t122 41q179 0 179 -176q-12 -150 -84 -260.5t-214 -209.5z" />
    <glyph glyph-name="dotlessj" unicode="&#x237;" horiz-adv-x="897" 
d="M685 968q0 -155 -0.5 -464.5t-0.5 -464.5q0 -224 -97.5 -337.5t-287.5 -113.5q-90 0 -169.5 18.5t-100.5 39.5l32 288q18 -2 75 -11t79 -12q1 -33 16 -169q5 -3 30.5 -7t41.5 -4q52 0 73 52t21 154q0 37 -20 244q-2 17 -2.5 157t-0.5 271l-1 131q0 77 -4 134q-35 8 -86 8
h-92v111q138 31 298 31q168 0 196 -56z" />
    <glyph glyph-name="circumflex" unicode="&#x2c6;" horiz-adv-x="1205" 
d="M945 1228q-6 -21 -51 -21h-142l-149 184l-146 -184h-145q-47 0 -53 21q7 28 21 45l188 270h268l166 -237q3 -4 11 -15t11.5 -16.5t8.5 -14.5t8 -16.5t4 -15.5z" />
    <glyph glyph-name="caron" unicode="&#x2c7;" horiz-adv-x="1235" 
d="M487 1209l-183 251q-37 49 -45 72q17 19 93 19q59 0 113 -6l152 -191l156 191q53 6 107 6q75 0 94 -19q-41 -75 -221 -319q-63 -24 -135 -24q-74 0 -131 20z" />
    <glyph glyph-name="uni02C9" unicode="&#x2c9;" horiz-adv-x="774" 
d="M722 1239h-669v146h669v-146z" />
    <glyph glyph-name="breve" unicode="&#x2d8;" horiz-adv-x="1301" 
d="M607 1407q34 -34 79 -34q58 0 91.5 34.5t40.5 99.5l200 -19q-3 -91 -54 -157.5t-132 -99t-181 -32.5q-158 0 -261 78t-107 211l86 19q71 -100 238 -100z" />
    <glyph glyph-name="dotaccent" unicode="&#x2d9;" horiz-adv-x="746" 
d="M379 1233q-83 0 -128 44.5t-45 116.5q0 75 46 118.5t116 43.5q78 0 125.5 -44.5t47.5 -109.5q0 -76 -41 -122.5t-121 -46.5z" />
    <glyph glyph-name="ring" unicode="&#x2da;" horiz-adv-x="668" 
d="M437 1382q0 56 -33.5 89t-90.5 33q-56 0 -90 -33.5t-34 -88.5q0 -57 33 -89t91 -32q56 0 90 32.5t34 88.5zM532 1382q0 -93 -62 -150t-157 -57q-96 0 -157.5 57t-61.5 150q0 92 61.5 149t157.5 57t157.5 -57t61.5 -149z" />
    <glyph glyph-name="ogonek" unicode="&#x2db;" horiz-adv-x="1052" 
d="M634 60l107 -44q-142 -116 -142 -222q0 -37 13 -57t29 -23q44 7 127 38q48 -57 51 -92q-104 -77 -250 -77q-237 0 -237 162q0 80 87 164t215 151z" />
    <glyph glyph-name="tilde" unicode="&#x2dc;" horiz-adv-x="1190" 
d="M637 1451q9 -5 28.5 -15t29.5 -15.5t24.5 -10t26.5 -4.5q36 0 67.5 29.5t51.5 69.5q67 -18 114 -43q-57 -105 -116 -158t-129 -53q-76 0 -190 59q-90 47 -122 47q-17 0 -33.5 -7t-31 -21t-23 -23t-21.5 -27t-14 -20q-60 17 -106 43q95 208 249 208q81 0 195 -59z" />
    <glyph glyph-name="hungarumlaut" unicode="&#x2dd;" horiz-adv-x="1296" 
d="M1104 1511l-306 -319h-184l170 345h210q75 0 110 -26zM689 1511l-307 -319h-183l170 345h210q75 0 110 -26z" />
    <glyph glyph-name="uni030F" unicode="&#x30f;" horiz-adv-x="1336" 
d="M1080 1244h-152l-214 221q-59 59 -88 93q0 27 40 32h276q13 -28 47 -93.5t50 -100.5l72 -151q-8 -1 -31 -1zM659 1244h-147l-221 228q-55 55 -85 92q22 26 88 26h232l170 -345q-10 -1 -37 -1z" />
    <glyph glyph-name="uni0311" unicode="&#x311;" horiz-adv-x="1131" 
d="M582 1590q345 0 345 -287h-179q0 37 -14.5 62t-41 36t-51.5 15t-59 4t-59 -4t-51.5 -15t-41 -36t-14.5 -62h-179q0 287 345 287z" />
    <glyph glyph-name="uni0326" unicode="&#x326;" horiz-adv-x="560" 
d="M134 -738q-38 15 -75 70q101 117 134 289q-50 7 -81.5 41.5t-31.5 84.5q0 79 51 120t122 41q179 0 179 -176q-12 -150 -84 -260.5t-214 -209.5z" />
    <glyph glyph-name="Omega" unicode="&#x3a9;" horiz-adv-x="1605" 
d="M1412 309l69 -2l-54 -307h-506l-18 50q8 14 51 87t56.5 98.5t48 91.5t48.5 106t34 99.5t27.5 115t7.5 111.5q0 285 -110.5 430t-287.5 145q-179 0 -284 -143t-105 -437q0 -150 53 -294.5t163 -324.5l52 -85l-22 -50h-500l-51 307h68q28 -85 58.5 -118t92.5 -33h194
q-69 58 -122.5 116.5t-103 134.5t-76.5 168t-27 193q0 145 47 266.5t129 204.5t196 129t246 46q276 0 443 -172t167 -456q0 -174 -88.5 -323t-252.5 -307h207q63 0 89.5 28t60.5 125z" />
    <glyph glyph-name="Omega" unicode="&#x2126;" horiz-adv-x="1605" 
d="M1412 309l69 -2l-54 -307h-506l-18 50q8 14 51 87t56.5 98.5t48 91.5t48.5 106t34 99.5t27.5 115t7.5 111.5q0 285 -110.5 430t-287.5 145q-179 0 -284 -143t-105 -437q0 -150 53 -294.5t163 -324.5l52 -85l-22 -50h-500l-51 307h68q28 -85 58.5 -118t92.5 -33h194
q-69 58 -122.5 116.5t-103 134.5t-76.5 168t-27 193q0 145 47 266.5t129 204.5t196 129t246 46q276 0 443 -172t167 -456q0 -174 -88.5 -323t-252.5 -307h207q63 0 89.5 28t60.5 125z" />
    <glyph glyph-name="pi" unicode="&#x3c0;" horiz-adv-x="1302" 
d="M1253 976l26 -42q-9 -79 -38 -165q-53 -4 -179 -4q-11 -118 -11 -371q0 -39 0.5 -61t1.5 -52.5t4 -48t8 -35.5t13 -27.5t19 -13.5q44 21 106 88l71 -113q-92 -155 -264 -155q-120 0 -172 63t-52 215q0 214 20 514q-176 2 -244 2q0 -276 -50.5 -483.5t-96.5 -261.5
q-113 -42 -227 -58l-20 57q95 114 142 311.5t52 418.5q-54 -10 -98.5 -29.5t-68.5 -36t-67 -50.5l-62 103q34 41 52 61.5t56.5 52.5t74.5 47.5t93.5 28t125.5 12.5q91 0 303 -1t324 -1q99 0 158 35z" />
    <glyph glyph-name="endash" unicode="&#x2013;" horiz-adv-x="1006" 
d="M990 496h-1000v73q0 52 32.5 66t113.5 14h927v-72q0 -72 -73 -81z" />
    <glyph glyph-name="emdash" unicode="&#x2014;" horiz-adv-x="1785" 
d="M1708 496h-1718v73q0 52 32.5 66t113.5 14h1659v-72q0 -72 -87 -81z" />
    <glyph glyph-name="quoteleft" unicode="&#x2018;" horiz-adv-x="566" 
d="M415 1491q44 -27 75 -70q-101 -111 -135 -288q50 -7 81.5 -42t31.5 -85q0 -78 -51 -119t-121 -41q-98 0 -138.5 48t-40.5 139q0 129 77.5 245.5t220.5 212.5z" />
    <glyph glyph-name="quoteright" unicode="&#x2019;" horiz-adv-x="565" 
d="M153 846q-43 26 -75 70q101 111 135 288q-50 7 -81.5 42t-31.5 85q0 78 51 119t121 41q98 0 138.5 -48t40.5 -139q0 -128 -78 -245.5t-220 -212.5z" />
    <glyph glyph-name="quotesinglbase" unicode="&#x201a;" horiz-adv-x="578" 
d="M339 358q107 0 164.5 -63.5t57.5 -176.5q0 -141 -91.5 -257.5t-283.5 -236.5l-94 93q116 111 171 268q-67 15 -106 63t-39 122q0 84 65 136t156 52z" />
    <glyph glyph-name="quotedblleft" unicode="&#x201c;" horiz-adv-x="1035" 
d="M409 1491q42 -25 76 -70q-101 -111 -135 -288q50 -7 81 -42t31 -85q0 -78 -51 -119t-120 -41q-97 0 -138.5 47.5t-41.5 136.5q0 130 77.5 247.5t220.5 213.5zM879 1491q43 -26 75 -70q-101 -112 -134 -288q49 -7 80.5 -42t31.5 -85q0 -78 -50.5 -119t-121.5 -41
q-98 0 -138.5 48t-40.5 139q0 128 78 245.5t220 212.5z" />
    <glyph glyph-name="quotedblright" unicode="&#x201d;" horiz-adv-x="1034" 
d="M644 846q-42 25 -76 70q101 111 135 288q-50 7 -81 42t-31 85q0 78 50.5 119t120.5 41q97 0 138.5 -47.5t41.5 -136.5q0 -130 -78 -247.5t-220 -213.5zM174 846q-43 26 -75 70q101 112 134 288q-49 7 -80.5 42t-31.5 85q0 78 50.5 119t121.5 41q98 0 138.5 -48t40.5 -139
q0 -128 -78 -245.5t-220 -212.5z" />
    <glyph glyph-name="quotedblbase" unicode="&#x201e;" horiz-adv-x="1103" 
d="M309 358q107 0 164.5 -63.5t57.5 -176.5q0 -141 -91.5 -257.5t-283.5 -236.5l-94 93q116 111 171 268q-67 15 -106 63t-39 122q0 84 65 136t156 52zM830 358q107 0 164.5 -63.5t57.5 -176.5q0 -141 -91.5 -257.5t-283.5 -236.5l-94 93q116 111 171 268q-67 15 -106 63
t-39 122q0 84 65 136t156 52z" />
    <glyph glyph-name="dagger" unicode="&#x2020;" horiz-adv-x="952" 
d="M377 939h-305v127h305v313h178v-313h304v-127h-304v-939h-178v939z" />
    <glyph glyph-name="daggerdbl" unicode="&#x2021;" horiz-adv-x="952" 
d="M377 976h-305v128h305v275h178v-275h304v-128h-304v-572h304v-129h-304v-275h-178v275h-305v129h305v572z" />
    <glyph glyph-name="bullet" unicode="&#x2022;" horiz-adv-x="838" 
d="M107 623q0 124 90 204t222 80q134 0 223.5 -80.5t89.5 -202.5q0 -124 -90.5 -203.5t-222.5 -79.5q-134 0 -223 80t-89 202z" />
    <glyph glyph-name="ellipsis" unicode="&#x2026;" horiz-adv-x="1930" 
d="M1496 136q0 73 42.5 116t115.5 43q75 0 117.5 -44t42.5 -115q0 -75 -42.5 -117.5t-117.5 -42.5t-116.5 42.5t-41.5 117.5zM824 136q0 74 43 116.5t117 42.5q72 0 115.5 -43.5t43.5 -115.5q0 -75 -42 -117.5t-117 -42.5q-76 0 -118 42.5t-42 117.5zM154 136q0 73 43 116
t116 43t116 -43.5t43 -115.5q0 -75 -42 -117.5t-117 -42.5t-117 42.5t-42 117.5z" />
    <glyph glyph-name="guilsinglleft" unicode="&#x2039;" horiz-adv-x="700" 
d="M133 475v106l339 435q71 -27 96 -44q-19 -54 -212 -430q133 -276 197 -421q-32 -28 -88 -49z" />
    <glyph glyph-name="guilsinglright" unicode="&#x203a;" horiz-adv-x="701" 
d="M569 492l-336 -420q-53 17 -91 49q34 83 203 424q-184 366 -204 427q25 20 92 44l337 -419q0 -17 -0.5 -52t-0.5 -53z" />
    <glyph glyph-name="fraction" unicode="&#x2044;" horiz-adv-x="250" 
d="M-321 58l722 1430h103q98 0 121 -37q-13 -17 -57 -106q-35 -69 -153 -303t-191 -379l-374 -740h-106q-98 0 -119 39q14 31 56 97q-2 0 -2 -1z" />
    <glyph glyph-name="Euro" unicode="&#x20ac;" horiz-adv-x="1503" 
d="M1394 276l61 -118q-181 -194 -510 -194q-259 0 -432.5 132.5t-222.5 386.5h-220l20 84q9 40 31 48.5t86 8.5h65q-1 20 -1 58q0 20 2 60h-180l18 83q4 20 14 33t26.5 18t30.5 6.5t37 1.5h71q48 265 221 411t445 146q143 0 272 -35t201 -97q-10 -238 -10 -250l-223 -10
q-22 49 -42 85t-51 74.5t-71.5 59.5t-87.5 21q-139 0 -217 -107.5t-102 -297.5h521l-24 -86q-5 -19 -23.5 -31.5t-50 -17.5t-54 -6t-60.5 -1h-320q0 -84 4 -118h474q0 -84 -29.5 -112.5t-78.5 -28.5h-347q34 -172 119.5 -263t222.5 -91q118 0 216.5 37t198.5 110z" />
    <glyph glyph-name="trademark" unicode="&#x2122;" horiz-adv-x="2078" 
d="M1691 692v426h-15q-123 -303 -225 -525q-11 0 -33 -0.5t-33 -0.5h-40l-231 546q-18 -412 -18 -427q0 -36 26 -46t79 -10l-4 -66q-70 3 -129 3q-105 0 -194 -4l5 67q44 0 68.5 7t35.5 30q12 125 28 540l-2 49q-42 44 -123 45v63q97 4 202 4q59 0 104 -6l239 -544
q7 15 102 232.5t140 311.5q42 6 98 6q100 0 192 -4v-63q-88 0 -111 -51q2 -97 11 -281l11 -226q5 -46 9 -65.5t17.5 -32.5t28 -14t53.5 -1l4 -67q-84 4 -196 4q-93 0 -186 -3l3 66q26 0 40.5 2t27 10.5t16.5 24.5zM331 692q2 40 2 69v559h-136q-60 0 -68 -120h-72
q0 24 -1 94t-1 94q46 5 156 5h430q111 0 157 -5q0 -24 -1.5 -94t-1.5 -94h-71q-5 77 -23 98.5t-65 21.5h-115v-559q0 -49 1 -69q10 -24 35 -31t68 -7v-66q-109 3 -195 3q-88 0 -202 -3v66q43 0 67.5 7t35.5 31z" />
    <glyph glyph-name="estimated" unicode="&#x212e;" horiz-adv-x="1848" 
d="M947 64q204 0 392 219h311q-124 -147 -306.5 -229.5t-397.5 -82.5q-127 0 -251 31t-230.5 91.5t-188 142.5t-128 190.5t-46.5 228.5q0 124 49 234.5t132.5 191.5t191.5 140.5t229 89.5t242 30q142 0 273 -35.5t234 -100t179.5 -149.5t117.5 -188.5t41 -212.5v-46h-1196
v-375q175 -170 352 -170zM595 701h700v382q-175 163 -348 163q-176 0 -352 -170v-375z" />
    <glyph glyph-name="partialdiff" unicode="&#x2202;" horiz-adv-x="1115" 
d="M576 863q141 0 228 -88q9 110 9 158q0 53 -6.5 109.5t-24.5 122.5t-46 116.5t-76 84.5t-108 34q-104 0 -249 -115q-49 0 -99 36t-50 77q0 12 4 19q157 99 339 99q117 0 214 -45.5t161 -119.5t108.5 -171.5t64.5 -199t20 -204.5q0 -116 -20 -228t-65 -217t-108.5 -184.5
t-158.5 -127.5t-208 -48q-192 0 -307.5 110t-115.5 299q0 93 34.5 179.5t96.5 154t156.5 108.5t206.5 41zM620 758q-61 0 -108 -30.5t-74.5 -76t-45.5 -105.5t-24 -112.5t-6 -103.5q0 -118 38.5 -194t104.5 -76q35 0 66.5 19.5t55 49t44.5 75t34.5 87.5t27 96.5t20.5 92.5
t15.5 85.5t12.5 65.5q-27 50 -70.5 88.5t-90.5 38.5z" />
    <glyph glyph-name="product" unicode="&#x220f;" horiz-adv-x="1575" 
d="M122 1388h1309v-100l-47 -4q-75 -7 -104.5 -27t-29.5 -81v-1111q0 -80 29.5 -101t147.5 -30v-100h-562v100q43 4 65 6.5t44.5 8.5t31 13t16.5 22t9.5 32t1.5 47v1170q0 26 -8.5 32.5t-38.5 6.5h-421q-24 0 -30.5 -5t-6.5 -26v-1178q0 -45 2 -63.5t19 -35t43.5 -21
t85.5 -11.5v-98h-550v101q105 6 140.5 30t35.5 98v1113q0 25 -1.5 40t-9.5 28t-17.5 19t-33.5 11.5t-48.5 8t-71.5 5.5v100z" />
    <glyph glyph-name="summation" unicode="&#x2211;" horiz-adv-x="1360" 
d="M1030 269l100 -28l-96 -412h-962v79l442 659q-79 136 -224.5 388.5t-204.5 353.5v79h953l6 -95q4 -56 23 -268l-103 -23q-33 169 -66 223q-18 29 -57.5 39.5t-127.5 10.5h-347q59 -98 178 -298.5t178 -299.5l-428 -653h475q45 0 70 1.5t51 12t39 22.5t32 44.5t32 66.5
t37 98z" />
    <glyph glyph-name="minus" unicode="&#x2212;" horiz-adv-x="1230" 
d="M1117 468h-971v78q0 56 25.5 72t103.5 16h926v-79q0 -33 -19.5 -53t-64.5 -34z" />
    <glyph glyph-name="uni2215" unicode="&#x2215;" horiz-adv-x="1078" 
d="M136 -88h-153l944 1552h153z" />
    <glyph glyph-name="uni2219" unicode="&#x2219;" horiz-adv-x="603" 
d="M306 414q-78 0 -123 46t-45 117q0 70 46 117t121 47q74 0 120 -48t46 -116q0 -71 -44 -116.5t-121 -46.5z" />
    <glyph glyph-name="radical" unicode="&#x221a;" horiz-adv-x="1071" 
d="M994 1780l181 -41l-331 -2007l-130 -69l-438 1074l-176 -87l-35 106l400 188l279 -711q2 0 250 1547z" />
    <glyph glyph-name="infinity" unicode="&#x221e;" horiz-adv-x="1481" 
d="M1111 770q-48 0 -105 -35.5t-95.5 -74.5t-74.5 -85q57 -66 91.5 -101t87 -66t102.5 -31q77 0 124.5 58t47.5 134q0 92 -48.5 146.5t-129.5 54.5zM402 377q36 0 70 13t70 43.5t61.5 57t70.5 76.5q-15 16 -42.5 48t-42.5 49t-40.5 40.5t-46.5 35.5t-50.5 21t-60.5 9
q-81 0 -128.5 -57t-47.5 -145q0 -82 52.5 -136.5t134.5 -54.5zM1429 578q0 -148 -93 -242t-225 -94q-89 0 -173 52.5t-183 168.5q-44 -52 -75 -82.5t-78 -67t-100.5 -54t-114.5 -17.5q-132 0 -223.5 94.5t-91.5 232.5q0 146 94 240t236 94q104 0 184.5 -55.5t174.5 -166.5
q47 53 78 84.5t78 67.5t97.5 53t108.5 17q134 0 220 -91.5t86 -233.5z" />
    <glyph glyph-name="integral" unicode="&#x222b;" horiz-adv-x="962" 
d="M276 -55q0 101 -20.5 490t-20.5 488q0 637 312 637q57 0 106 -28.5t49 -71.5q0 -45 -26.5 -70t-68.5 -25q-20 0 -36.5 13.5t-25.5 30t-19.5 30t-19.5 13.5q-66 0 -66 -241q0 -131 20.5 -414t20.5 -504q0 -687 -295 -687q-73 0 -119 31.5t-46 79.5q0 39 27 65t68 26
q16 0 30.5 -14.5t23.5 -31.5t20.5 -31.5t21.5 -14.5q64 0 64 229z" />
    <glyph glyph-name="approxequal" unicode="&#x2248;" horiz-adv-x="1170" 
d="M988 548l95 -84q-114 -205 -279 -205q-37 0 -69.5 5.5t-62 18t-46 21t-44.5 26.5t-35 22q-90 51 -148 51q-33 0 -63 -14t-54.5 -40t-38 -44t-30.5 -45l-5 -8l-95 80q50 97 128.5 152.5t171.5 55.5q43 0 86.5 -13.5t71.5 -28.5t81 -47q88 -55 155 -55q52 0 92.5 36.5
t88.5 115.5zM988 893l95 -87q-114 -206 -278 -206q-133 0 -247 86q-61 36 -89.5 47.5t-69.5 11.5q-53 0 -95 -34.5t-96 -113.5l-95 79q50 97 128.5 152.5t171.5 55.5q36 0 75.5 -11t58 -19.5t58.5 -31.5t41 -23q8 -4 26 -14t25 -13.5t21.5 -10.5t22.5 -9.5t20 -6.5t23 -5
t23 -1q52 0 93.5 37.5t87.5 116.5z" />
    <glyph glyph-name="notequal" unicode="&#x2260;" horiz-adv-x="1201" 
d="M1063 281h-462l-95 -221h-75q-70 0 -91 39q34 90 74 182h-283v77q0 54 16 70t73 16h263l91 214h-443v78q0 56 22.5 70t86.5 14h403l94 219h74q69 0 92 -37q-63 -162 -72 -182h286v-75q0 -38 -12.5 -57.5t-41.5 -29.5h-302l-92 -214h448v-76q0 -70 -54 -87z" />
    <glyph glyph-name="lessequal" unicode="&#x2264;" horiz-adv-x="1173" 
d="M1060 164v-163h-935v163h935zM1053 419v-182l-917 433v147l917 432v-182l-721 -323q120 -54 361 -162.5t360 -162.5z" />
    <glyph glyph-name="greaterequal" unicode="&#x2265;" horiz-adv-x="1169" 
d="M1057 164v-163h-932v163h932zM134 1067v182l923 -432v-147l-922 -433v182l720 326q-627 280 -721 322z" />
    <glyph glyph-name="lozenge" unicode="&#x25ca;" horiz-adv-x="1104" 
d="M540 86l300 604q-51 100 -150 298t-150 297l-310 -592zM615 1444l407 -754l-407 -763h-157l-408 763l409 754h156z" />
    <glyph glyph-name="fi" unicode="&#xfb01;" horiz-adv-x="1481" 
d="M971 156q0 24 1.5 89t1.5 90v437q0 26 -0.5 35.5t-4.5 25.5t-13 21.5t-26 10.5t-44 5h-343v-616q0 -90 25.5 -116.5t114.5 -33.5l28 -109q-215 5 -324 5q-125 0 -308 -5l3 109l53 2q65 2 89.5 23t24.5 75v666h-203v60q0 28 12 52q38 14 148 14h43v92q0 384 571 384
q166 -2 263 -30t145 -89q0 -123 -54 -173q-83 0 -132 11.5t-87 43.5q0 85 -31 107q-52 7 -96 7q-146 0 -215.5 -59t-69.5 -206v-88h254h82q31 0 97.5 0.5t99.5 0.5q130 0 182 -10q10 -37 10 -69v-693q0 -92 77 -108h86l6 -101q-20 -3 -74 -14t-104 -18t-92 -7
q-196 0 -196 179z" />
    <glyph glyph-name="fl" unicode="&#xfb02;" horiz-adv-x="1513" 
d="M1012 -4q-76 21 -108 90l22 12q75 35 75 149v954q0 98 -9 120q-61 28 -171 28q-60 0 -89.5 -2t-73 -15t-63.5 -40t-36 -79t-16 -129v-88h247v-84q-20 -42 -106 -42h-141v-616q0 -90 25.5 -116.5t114.5 -33.5l28 -109q-215 5 -324 5q-125 0 -308 -5l3 109l53 2
q65 2 89.5 23t24.5 75v666h-203v85q3 7 7.5 13.5t12 10.5t14.5 7t18 5t18 3t20 1.5t18.5 0.5h18.5h16h60v92q0 208 138.5 296t432.5 88h64.5h76.5t72 -1t77.5 -3t66 -6t63.5 -10.5t45 -14.5q10 -43 10 -88v-1129q0 -67 24 -85.5t89 -18.5h61v-100q-220 -20 -457 -20z" />
    <glyph glyph-name="CR" horiz-adv-x="856" 
 />
    <glyph glyph-name="dotaccentcmb" horiz-adv-x="712" 
d="M356 525q-77 0 -122 46t-45 117q0 70 45.5 117t120.5 47q74 0 120.5 -48t46.5 -116q0 -70 -44.5 -116t-121.5 -47z" />
    <glyph glyph-name="NULL" horiz-adv-x="0" 
 />
  </font>
</defs>
</svg>
