<?xml version="1.0" standalone="no"?>
<!DOCTYPE svg PUBLIC "-//W3C//DTD SVG 1.1//EN" "http://www.w3.org/Graphics/SVG/1.1/DTD/svg11.dtd" >
<svg xmlns="http://www.w3.org/2000/svg" xmlns:xlink="http://www.w3.org/1999/xlink" version="1.1">
<metadata>
Created by FontForge 20170731 at Fri Jul 22 20:51:23 2011
 By Aleksey,,,
Copyright (c) 2011 by vernon adams. All rights reserved.
</metadata>
<defs>
<font id="Tienne-Heavy" horiz-adv-x="0" >
  <font-face 
    font-family="Tienne"
    font-weight="900"
    font-stretch="normal"
    units-per-em="2048"
    panose-1="2 0 5 5 0 0 0 2 0 4"
    ascent="1638"
    descent="-410"
    x-height="984"
    cap-height="1399"
    bbox="-381 -888 2458 1986"
    underline-thickness="102"
    underline-position="-409"
    unicode-range="U+0001-FB02"
  />
<missing-glyph horiz-adv-x="532" 
 />
    <glyph glyph-name=".notdef" horiz-adv-x="532" 
 />
    <glyph glyph-name=".null" 
 />
    <glyph glyph-name="nonmarkingreturn" horiz-adv-x="682" 
 />
    <glyph glyph-name="uni0001" 
 />
    <glyph glyph-name="uni0002" 
 />
    <glyph glyph-name="uni0003" 
 />
    <glyph glyph-name="uni0004" 
 />
    <glyph glyph-name="uni0005" 
 />
    <glyph glyph-name="uni0006" 
 />
    <glyph glyph-name="uni0007" 
 />
    <glyph glyph-name="uni0008" 
 />
    <glyph glyph-name="uni0009" unicode="&#x9;" 
 />
    <glyph glyph-name="uni0010" 
 />
    <glyph glyph-name="uni0011" 
 />
    <glyph glyph-name="uni0012" 
 />
    <glyph glyph-name="uni0013" 
 />
    <glyph glyph-name="uni0014" 
 />
    <glyph glyph-name="uni0015" 
 />
    <glyph glyph-name="uni0016" 
 />
    <glyph glyph-name="uni0017" 
 />
    <glyph glyph-name="uni0018" 
 />
    <glyph glyph-name="uni0019" 
 />
    <glyph glyph-name="space" unicode=" " horiz-adv-x="532" 
 />
    <glyph glyph-name="exclam" unicode="!" horiz-adv-x="874" 
d="M446 1412q37 0 56.5 -0.5t49 -4t45.5 -10.5t32.5 -19.5t23.5 -33t7 -48.5q0 -20 -1 -31q-93 -735 -100 -795q-39 -22 -87 -22q-92 0 -122 17.5t-37 81.5q-19 178 -46.5 350t-43.5 267t-16 134q0 23 10 41.5t24 30.5t37 20.5t42 12.5t46.5 6t42.5 2.5t37 0.5zM651 169
q0 -87 -54.5 -139t-145.5 -52t-145.5 52t-54.5 139q0 84 56.5 136t143.5 52t143.5 -53.5t56.5 -134.5z" />
    <glyph glyph-name="quotedbl" unicode="&#x22;" horiz-adv-x="1063" 
d="M628 957l-44 413q68 41 182 41q77 0 118.5 -15.5t41.5 -59.5q-50 -438 -50 -445q-60 -21 -121 -21q-112 0 -127 87zM181 957l-44 413q68 41 182 41q77 0 118.5 -15.5t41.5 -59.5q-50 -438 -50 -445q-60 -21 -121 -21q-112 0 -127 87z" />
    <glyph glyph-name="numbersign" unicode="#" horiz-adv-x="1189" 
d="M1059 588v-78q0 -35 -11.5 -50.5t-40.5 -21.5h-185l-75 -366h-60q-46 0 -66 12.5t-20 44.5q0 17 5 38l55 271h-244l-76 -366h-70q-44 0 -61 8.5t-17 34.5q6 43 8 52l56 271h-200v60q0 54 15.5 72t65.5 18h147l51 246h-206v79q0 44 17 58t65 14h156l75 360h61
q47 0 67.5 -12t20.5 -44q0 -13 -9 -58l-52 -246h241l77 360h59q47 0 67 -12t20 -44q0 -22 -10 -66l-51 -238h197v-59q0 -29 -1.5 -42t-9 -27t-24 -18.5t-46.5 -4.5h-145l-53 -246h207zM499 834l-52 -246h244l52 246h-244z" />
    <glyph glyph-name="dollar" unicode="$" horiz-adv-x="1376" 
d="M648 1408v126q56 0 79.5 -16t23.5 -60v-46q161 0 286 -34.5t174 -94.5q1 -1 1 -5q0 -31 -63 -268l-303 72q-65 104 -95 126v-366q13 -5 59 -24t59.5 -24.5t49.5 -21t53.5 -25t46.5 -24.5t53.5 -31t50.5 -34q72 -57 111 -114.5t39 -145.5q0 -179 -141.5 -291.5
t-380.5 -126.5v-166q-65 0 -84 18.5t-19 81.5v65q-296 8 -502 151q-34 25 -46 44q0 37 7 66l88 226l303 -120q35 -82 71 -125t79 -59v425q-41 22 -126.5 57.5t-114.5 49.5q-59 28 -105 59t-88 72t-65 94t-23 113q0 159 141.5 259.5t380.5 116.5zM648 891v346
q-46 -11 -69.5 -58t-23.5 -110q0 -116 93 -178zM751 526v-363q41 18 64 67.5t23 111.5q0 114 -87 184z" />
    <glyph glyph-name="percent" unicode="%" horiz-adv-x="1685" 
d="M1354 1352l-848 -1386l-154 87l848 1387zM392 775q38 0 63.5 19.5t38.5 57t18 80t5 99.5q0 133 -30.5 194.5t-94.5 61.5q-39 0 -65.5 -19t-40 -56t-18.5 -79.5t-5 -101.5t5 -101.5t18.5 -79.5t40 -56t65.5 -19zM712 1031q0 -172 -84.5 -276t-230.5 -104
q-162 0 -244.5 105.5t-82.5 276.5q0 177 83 278t239 101q154 0 237 -103t83 -278zM1168 358q0 -60 4.5 -100.5t17.5 -78.5t40.5 -57t70.5 -19q26 0 46.5 11t33 31.5t21 44t12.5 55t5.5 57t1.5 56.5q0 60 -5 103t-18.5 80t-39.5 56t-64 19q-73 0 -99.5 -66.5t-26.5 -191.5z
M1294 -23q-155 0 -240 104.5t-85 276.5q0 178 83.5 280t241.5 102q157 0 239.5 -103t82.5 -279q0 -174 -85.5 -277.5t-236.5 -103.5z" />
    <glyph glyph-name="ampersand" unicode="&#x26;" horiz-adv-x="1640" 
d="M529 1068q0 -119 47 -175t151 -56h789v-330h-126q0 78 -46.5 125.5t-123.5 47.5v-189q0 -261 -130 -387t-398 -126q-107 0 -192.5 11t-162.5 39t-129 72.5t-82 114.5t-30 162q0 269 296 380q-259 79 -259 297q0 358 656 358q165 0 414 -51v-355h-251q-21 118 -78 182
t-146 64q-84 0 -141.5 -54t-57.5 -130zM500 374q0 -238 209 -238q31 0 55.5 13.5t40 33.5t27 53t17 61.5t9 70t4 68.5t0.5 66v178h-172q-87 0 -138.5 -79t-51.5 -227z" />
    <glyph glyph-name="quotesingle" unicode="'" horiz-adv-x="616" 
d="M181 957l-44 413q68 41 182 41q77 0 118.5 -15.5t41.5 -59.5q-50 -438 -50 -445q-60 -21 -121 -21q-112 0 -127 87z" />
    <glyph glyph-name="parenleft" unicode="(" horiz-adv-x="769" 
d="M514 638q0 -470 190 -780q-42 -21 -107.5 -33.5t-110.5 -14.5l-44 -3q-325 285 -325 831t325 831q19 0 49 -2t100.5 -15t112.5 -34q-190 -310 -190 -780z" />
    <glyph glyph-name="parenright" unicode=")" horiz-adv-x="770" 
d="M255 638q0 470 -190 780q42 21 107.5 33.5t109.5 14.5l45 3q325 -285 325 -831t-325 -831q-19 0 -49 2t-100.5 15t-112.5 34q190 310 190 780z" />
    <glyph glyph-name="asterisk" unicode="*" horiz-adv-x="910" 
d="M455 660l-167 43l104 291l-268 -135l-52 155l296 66l-258 189l120 113l198 -243l30 301l168 -31l-107 -283l270 126l49 -143l-291 -68l252 -208l-132 -106l-185 255z" />
    <glyph glyph-name="plus" unicode="+" horiz-adv-x="1247" 
d="M500 1068h62q82 0 125.5 -17.5t57.5 -60.5v-319h369v-90q-6 -56 -32.5 -77t-101.5 -21h-235v-398h-109q-26 0 -44 1.5t-39 7t-34 18t-17 32.5q-2 30 -2 49v290h-367v90q0 28 9 47.5t21 29t37.5 14.5t43.5 6t54 1h202v397z" />
    <glyph glyph-name="comma" unicode="," horiz-adv-x="704" 
d="M339 358q107 0 164.5 -63.5t57.5 -176.5q0 -141 -91.5 -257.5t-283.5 -236.5l-94 93q116 111 171 268q-67 15 -106 63t-39 122q0 84 65 136t156 52z" />
    <glyph glyph-name="hyphen" unicode="-" horiz-adv-x="854" 
d="M803 646v-75q0 -44 -20 -72t-56 -28h-676v91q0 50 23 67t84 17h645z" />
    <glyph glyph-name="period" unicode="." horiz-adv-x="687" 
d="M543 169q0 -87 -54.5 -139t-145.5 -52t-145.5 52t-54.5 139q0 84 56.5 136t143.5 52t143.5 -53.5t56.5 -134.5z" />
    <glyph glyph-name="slash" unicode="/" horiz-adv-x="906" 
d="M0 -22l625 1353q13 27 21.5 40.5t31 27t55.5 13.5h173l-630 -1364q-17 -37 -41 -53.5t-64 -16.5h-171z" />
    <glyph glyph-name="zero" unicode="0" horiz-adv-x="1357" 
d="M860 704q0 122 -8 211t-27.5 161.5t-56 109.5t-90.5 37q-97 0 -139 -125t-42 -394q0 -270 42 -403.5t139 -133.5q52 0 88.5 38.5t56.5 112.5t28.5 167.5t8.5 218.5zM678 -22q-200 0 -338.5 92.5t-204 253.5t-65.5 380q0 336 155.5 522t452.5 186q300 0 454.5 -187
t154.5 -521q0 -338 -158 -532t-451 -194z" />
    <glyph glyph-name="one" unicode="1" horiz-adv-x="1001" 
d="M507 1399q32 0 49 -0.5t45 -3t43 -9.5t31.5 -18t24 -30t7.5 -44v-1035q0 -50 5 -92h188v-178q-234 11 -394 11q-167 0 -420 -11v178h186q6 27 6 92v903q0 50 -4 77h-169v114q200 46 402 46z" />
    <glyph glyph-name="two" unicode="2" horiz-adv-x="1304" 
d="M770 1040q0 96 -37.5 150.5t-109.5 54.5q-77 0 -147 -84t-108 -222l-283 184q2 123 161.5 206t391.5 83q120 0 215.5 -23.5t167.5 -71.5t110.5 -127.5t38.5 -186.5q0 -74 -31.5 -149.5t-105.5 -166.5t-206.5 -198.5t-322.5 -230.5h266q112 0 150 -2q51 82 111 221
l179 -17q-5 -296 -14 -448q-120 -12 -354 -12h-632q-75 0 -104 26.5t-29 96.5q0 27 3 62q337 307 527 493q79 77 121 158.5t42 203.5z" />
    <glyph glyph-name="three" unicode="3" horiz-adv-x="1247" 
d="M309 979l-252 167q81 137 206 201.5t319 64.5q111 0 205 -21.5t165.5 -63.5t111.5 -110t40 -155q0 -236 -315 -301q165 -22 264.5 -125.5t99.5 -264.5q0 -186 -155 -295t-412 -109q-255 0 -490 113v350l209 -19q58 -263 237 -263q98 0 150.5 61.5t52.5 171.5
q0 258 -276 258h-151l10 160l114 9q124 9 227.5 89t103.5 178q0 70 -53.5 109t-136.5 39q-92 0 -167.5 -63.5t-106.5 -180.5z" />
    <glyph glyph-name="four" unicode="4" horiz-adv-x="1281" 
d="M211 520h370v554zM806 0q-148 0 -417 -11v178h186q6 27 6 92v90h-464q-90 151 -90 248l540 791q35 -1 223 -1h58q33 0 54.5 -3t42.5 -12.5t31.5 -30t10.5 -52.5v-769h255v-86q0 -85 -125 -85h-130v-90q0 -50 5 -92h188v-178q-225 11 -374 11z" />
    <glyph glyph-name="five" unicode="5" horiz-adv-x="1238" 
d="M763 1177q-137 0 -271 13v-328q118 41 218 41q188 0 303.5 -124t115.5 -311q0 -100 -31 -182.5t-84.5 -138.5t-127 -95t-158 -56.5t-179.5 -17.5q-102 0 -224 27.5t-233 77.5v354l214 -20q15 -104 38 -213q94 -38 162 -38q210 0 210 283q0 56 -7.5 99.5t-24.5 79.5
t-48.5 55t-76.5 19q-89 0 -229 -81q-63 18 -214 48v641q45 43 109 60.5t166 17.5q71 0 138 -0.5t115 -0.5q145 0 382 34l8 -154q-36 -50 -99 -70t-172 -20z" />
    <glyph glyph-name="six" unicode="6" horiz-adv-x="1292" 
d="M659 -22q-290 0 -428.5 161t-138.5 481q0 389 161.5 590.5t479.5 201.5q127 0 234.5 -20t168.5 -57v-372h-232l-32 246q-112 14 -152 14q-39 0 -69 -13t-48.5 -31.5t-32 -51t-20 -60.5t-13.5 -69q-12 -71 -23 -196q141 64 275 64q201 0 316 -121t115 -322
q0 -197 -155.5 -321t-405.5 -124zM516 607v-91t0.5 -48t0.5 -16q0 -139 40 -221.5t112 -82.5q62 0 98.5 71t36.5 202q0 57 -3.5 95.5t-14.5 76.5t-34.5 58.5t-59.5 23.5q-57 0 -176 -68z" />
    <glyph glyph-name="seven" unicode="7" horiz-adv-x="1274" 
d="M145 930l-55 418q190 39 318 39h771q27 -20 27 -91v-87l-423 -1024q-41 -99 -106.5 -147.5t-172.5 -48.5q-83 0 -130 14.5t-73 52.5q3 8 11 24l541 1117h-368q-35 0 -113 -5q-6 -48 -6 -67l-7 -195h-214z" />
    <glyph glyph-name="eight" unicode="8" horiz-adv-x="1243" 
d="M1136 1045q0 -88 -59.5 -169t-184.5 -164q119 -46 204 -136.5t85 -201.5q0 -102 -44 -179.5t-123 -124t-180 -69.5t-223 -23q-155 0 -277.5 39.5t-197.5 121t-75 194.5q0 231 273 374q-56 30 -97.5 60t-79 70.5t-57 94t-19.5 116.5q0 159 146.5 261.5t383.5 102.5
q148 0 266 -43t188.5 -127t70.5 -197zM611 167q74 0 114.5 50.5t40.5 136.5q0 100 -51.5 165t-141.5 89q-109 -76 -109 -246q0 -89 38.5 -142t108.5 -53zM643 807q91 55 91 230q0 84 -31.5 135.5t-91.5 51.5q-61 0 -92 -51t-31 -136q0 -165 155 -230z" />
    <glyph glyph-name="nine" unicode="9" horiz-adv-x="1292" 
d="M633 1412q290 0 428.5 -161.5t138.5 -480.5q0 -389 -153.5 -590.5t-457.5 -201.5q-138 0 -252 19.5t-171 57.5v372h232l32 -237q89 -23 144 -23q31 0 56 7.5t43.5 24.5t32.5 34.5t24 47.5t16.5 53t12 61.5t8 62t6 67t5.5 63.5q-141 -64 -275 -64q-201 0 -316 121
t-115 322q0 197 155.5 321t405.5 124zM776 753q0 26 0.5 55t0.5 30q0 100 -5.5 164.5t-21.5 118t-47.5 78t-79.5 24.5q-62 0 -98.5 -66t-36.5 -188q0 -36 1 -62.5t4.5 -58t11.5 -53.5t20 -41.5t31 -29t44 -9.5q51 0 176 38z" />
    <glyph glyph-name="colon" unicode=":" horiz-adv-x="692" 
d="M548 817q0 -87 -54.5 -139t-145.5 -52t-145.5 52t-54.5 139q0 84 56.5 136t143.5 52q85 0 142.5 -54t57.5 -134zM543 169q0 -87 -54.5 -139t-145.5 -52t-145.5 52t-54.5 139q0 84 56.5 136t143.5 52t143.5 -53.5t56.5 -134.5z" />
    <glyph glyph-name="semicolon" unicode=";" horiz-adv-x="684" 
d="M531 817q0 -87 -54.5 -139t-145.5 -52t-145.5 52t-54.5 139q0 84 56.5 136t143.5 52t143.5 -53.5t56.5 -134.5zM339 283q107 0 164.5 -63.5t57.5 -176.5q0 -143 -92 -259t-283 -235l-94 93q116 111 171 268q-67 15 -106 63t-39 122q0 84 65 136t156 52z" />
    <glyph glyph-name="less" unicode="&#x3c;" horiz-adv-x="1506" 
d="M133 495v102q1085 484 1114 492q99 -77 107 -97l19 -67l-829 -381q684 -313 828 -377l-17 -67q-8 -21 -110 -100q-54 17 -223.5 92t-888.5 403z" />
    <glyph glyph-name="equal" unicode="=" horiz-adv-x="1411" 
d="M1282 852v-88q0 -38 -31 -59t-92 -40h-1030v90q0 59 36.5 78t109.5 19h1007zM1155 301h-1026v89q0 66 36 82t149 16h968v-89q0 -32 -30 -54.5t-97 -43.5z" />
    <glyph glyph-name="greater" unicode="&#x3e;" horiz-adv-x="1505" 
d="M1373 597v-102q-719 -328 -888.5 -403t-223.5 -92q-102 79 -110 100l-17 67q144 64 828 377l-829 381l19 67q8 20 107 97q29 -8 1114 -492z" />
    <glyph glyph-name="question" unicode="?" horiz-adv-x="1131" 
d="M637 360h-162q-63 34 -114 91.5t-51 117.5q0 64 38 115.5t122 129.5q70 66 102 123.5t32 129.5q0 74 -36.5 115.5t-94.5 41.5q-71 0 -173 -26v-136h-203v272q25 9 66 22t146.5 34.5t184.5 21.5q208 0 336 -93t128 -261q0 -38 -8 -72.5t-28.5 -68.5t-38.5 -59t-55.5 -60.5
t-61 -56t-71.5 -60.5q-38 -31 -51.5 -63.5t-13.5 -101.5q0 -102 7 -156zM540 286q74 0 119 -50.5t45 -117.5q0 -62 -41 -105.5t-119 -43.5q-84 0 -128 46.5t-44 110.5q0 65 44.5 112.5t123.5 47.5z" />
    <glyph glyph-name="at" unicode="@" horiz-adv-x="1782" 
d="M966 -38q259 0 498 146l53 -98q-273 -176 -566 -176q-185 0 -344.5 62.5t-269 169.5t-171.5 252t-62 308q0 361 252 596q247 230 606 230q217 0 386 -88t261.5 -246t92.5 -359q0 -113 -35 -215t-92.5 -173.5t-132.5 -113.5t-153 -42q-161 0 -223 153q-103 -153 -259 -153
q-131 0 -205.5 86t-74.5 230q0 129 41.5 237t108.5 177.5t150 108t169 38.5q107 0 165 -96l65 59q81 -8 114 -34q-15 -49 -31.5 -119.5t-35 -157.5t-23.5 -111q-29 -126 -29 -185q0 -53 21 -78t68 -25q90 0 168.5 122t78.5 297q0 239 -168 397t-429 158q-136 0 -255.5 -51
t-206.5 -141.5t-137.5 -222t-50.5 -285.5q0 -189 84 -339t234 -234t338 -84zM1122 891q-9 38 -34.5 60t-66.5 22q-106 0 -195 -140q-89 -138 -89 -302q0 -78 34 -129.5t93 -51.5q127 0 185 207q49 169 73 334z" />
    <glyph glyph-name="A" unicode="A" horiz-adv-x="1669" 
d="M1318 0q-52 0 -200 -5l-161 -6v124q10 1 29 3t27 3.5t18 4.5t14 10t4 17q0 4 -4 22l-70 217h-336l-40 -134q-14 -45 -14 -83q0 -18 15 -30t32 -16t50 -9l-25 -129q-115 11 -307 11q-235 0 -342 -11l37 133l26 4q64 10 88 34t49 90q61 164 127.5 336.5t110 281.5t111 278
t95.5 241h183q105 0 164 -17t78 -69q424 -1142 426 -1153l140 -20l26 -139q-338 11 -351 11zM804 1006h-4l-131 -463h264q-16 55 -62 222t-67 241z" />
    <glyph glyph-name="B" unicode="B" horiz-adv-x="1514" 
d="M1158 703q283 -78 283 -321q0 -72 -20 -129.5t-54 -98t-86 -70.5t-108 -47.5t-128.5 -28.5t-140 -14.5t-149.5 -3.5q-395 0 -684 21v156h142q18 0 29.5 8t16.5 26t6 34t1 43v814q0 67 -7 105h-202v167q366 23 751 23q600 0 600 -381q0 -91 -65.5 -172.5t-184.5 -130.5z
M736 609q-10 0 -24.5 -0.5t-16.5 -0.5v-441q78 -5 119 -5q191 0 191 213q0 127 -64 180.5t-205 53.5zM695 772h50q111 0 171 58.5t60 169.5q0 109 -50.5 160t-159.5 51q-62 0 -71 -1v-438z" />
    <glyph glyph-name="C" unicode="C" horiz-adv-x="1522" 
d="M898 158q77 0 146 11t136.5 35t114.5 45.5t120 58.5l25 -196q-250 -147 -568 -147q-354 0 -556.5 183.5t-202.5 511.5q0 363 205 557.5t576 194.5q142 0 279 -33.5t246 -99.5l-23 -277h-329l-27 69q-11 27 -18 44t-21.5 43t-29 41t-36 27t-45.5 12q-157 0 -240.5 -136
t-83.5 -401t83.5 -404t248.5 -139z" />
    <glyph glyph-name="D" unicode="D" horiz-adv-x="1711" 
d="M820 1387q388 0 583 -171.5t195 -533.5q0 -178 -57.5 -310t-165 -213t-252.5 -120t-330 -39h-728v151h190l1 3q0 4 0.5 10.5t1 15.5t1 20.5t1 23.5t1 26.5t0.5 27.5v815q0 68 -9 113h-195v160q339 21 763 21zM1147 689q0 101 -9 176.5t-33 143.5t-64 110.5t-104 67
t-152 24.5q-3 0 -13 -0.5t-31 -0.5h-51v-1039q12 -1 34 -1q97 0 170.5 23.5t121 66.5t77.5 108.5t42 143t12 177.5z" />
    <glyph glyph-name="E" unicode="E" horiz-adv-x="1463" 
d="M57 1203v160q371 24 684 24q554 0 595 1l55 -322l-223 -28q-11 82 -41 147q-126 18 -212 18h-217v-426h173q15 0 25.5 8.5t17 25t10.5 31t8 37t7 32.5h151v-435q-19 -1 -56 -1h-95q-18 86 -32 115t-36 29h-173v-452h280q82 0 121 13q12 37 32 181q85 -2 267 -2
q-6 -231 -13 -345q-235 -15 -404 -15q-709 0 -924 2v166h207q5 38 5 78v866q0 54 -5 92h-207z" />
    <glyph glyph-name="F" unicode="F" horiz-adv-x="1301" 
d="M57 1203v162q324 22 589 22q149 0 677 -1l35 -340l-223 -18q-7 41 -37 165q-67 10 -106 10h-324v-426h201q15 0 25.5 8.5t17 25t10.5 31t8 37t7 32.5h151v-435q-19 -1 -151 -1q-18 86 -32 115t-36 29h-201v-360q0 -50 5 -92h158v-178q-215 11 -364 11q-163 0 -410 -11
v178h176q6 27 6 92v852q0 59 -5 92h-177z" />
    <glyph glyph-name="G" unicode="G" horiz-adv-x="1537" 
d="M898 177q95 0 158 19v209q0 67 -7 94h-213v125q295 37 600 37h44v-525q-248 -158 -584 -158q-239 0 -414.5 78.5t-272 233.5t-96.5 372q0 190 60 334t172.5 234.5t267.5 136t351 45.5q137 0 279.5 -36.5t211.5 -91.5l-25 -355h-251q-16 147 -86 230t-186 83
q-168 0 -255 -141.5t-87 -418.5q0 -149 35.5 -260.5t112 -178t185.5 -66.5z" />
    <glyph glyph-name="H" unicode="H" horiz-adv-x="1773" 
d="M470 0q-163 0 -410 -11v178h176q6 27 6 92v864q-6 75 -8 92h-177v162q204 22 379 22q248 0 395 -16v-168h-158q-5 -35 -5 -76v-334h436v318l-8 92h-157v162q204 22 379 22q248 0 395 -16v-168h-178q-5 -38 -5 -92v-864q7 -83 8 -92h178v-178q-228 11 -384 11t-390 -11
v178h156q6 27 6 92v364h-433v-364q0 -50 5 -92h158v-178q-215 11 -364 11z" />
    <glyph glyph-name="I" unicode="I" horiz-adv-x="928" 
d="M477 0q-167 0 -420 -11v178h186q6 27 6 92v864q0 59 -5 92h-187v162q211 22 389 22q264 0 425 -16v-168h-188q-5 -38 -5 -92v-864q0 -50 5 -92h188v-178q-234 11 -394 11z" />
    <glyph glyph-name="J" unicode="J" horiz-adv-x="1019" 
d="M1019 1216h-188q-4 -25 -4 -92v-908q0 -237 -122.5 -364.5t-353.5 -127.5q-203 0 -331 55q0 29 14 191l14 173h244l14 -236q27 -12 51 -12q104 0 104 107q0 60 -19 128l-35 120q-10 34 -10 62v812q0 59 -5 92h-187v162q211 22 389 22q264 0 425 -16v-168z" />
    <glyph glyph-name="K" unicode="K" horiz-adv-x="1809" 
d="M1536 0q-218 0 -531 -11l-10 178h77l-9 24t-14 31t-22 37l-318 469l380 395q79 83 86 92h-187l-9 162q230 22 411 22q259 0 399 -16l-77 -168h-188q-18 -16 -96 -92l-296 -291l434 -573q25 -32 86 -92h108l49 -178q-201 11 -273 11zM477 0q-167 0 -420 -11v178h186
q6 27 6 92v864q0 59 -5 92h-187v162q211 22 389 22q264 0 425 -16v-168h-188q-5 -38 -5 -92v-864q0 -50 5 -92h188v-178q-234 11 -394 11z" />
    <glyph glyph-name="L" unicode="L" horiz-adv-x="1398" 
d="M872 1215h-187q-7 -29 -7 -86v-962h229q34 0 59 12.5t40 36t23 42t15 45.5q6 23 23.5 77.5t28.5 90.5l235 -32l-42 -439h-421q-645 0 -745 -12v179h122q4 80 4 159v803q0 51 -5 86h-187v162q211 22 389 22q265 0 426 -16v-168z" />
    <glyph glyph-name="M" unicode="M" horiz-adv-x="2238" 
d="M1618 1399q198 0 447 -17v-167h-193q10 -116 52 -548.5t43 -439.5q4 -38 11 -60h185l18 -183q-176 16 -403 16q-187 0 -363 -11l12 178h116l-5 57q-5 56 -18.5 209t-29.5 324q-139 -488 -220 -755h-369q-199 563 -266 758l-62 -593h188l-18 -178q-207 11 -315 11
q-178 0 -371 -16l18 183h185l106 984q1 7 1 21q0 10 -3 43h-204v167q249 17 447 17q139 0 233 -23q30 -93 145.5 -431.5t125.5 -367.5l170 501q92 270 104 298q92 23 233 23z" />
    <glyph glyph-name="N" unicode="N" horiz-adv-x="1754" 
d="M432 0q-160 0 -375 -13v180h206q6 26 6 92v864q0 54 -5 92h-207v155q203 29 414 29q102 0 213 -22q218 -332 525 -782v528q0 68 -8 94h-204v164q116 18 334 18q200 0 366 -13v-169h-182q-5 -32 -5 -92v-1125h-233q-70 0 -175 11l-500 780v-529q0 -14 3 -52t3 -43h198
v-180q-221 13 -374 13z" />
    <glyph glyph-name="O" unicode="O" horiz-adv-x="1687" 
d="M565 686q0 -254 70 -386.5t209 -132.5q135 0 207 130.5t72 391.5q0 264 -71.5 399t-207.5 135q-134 0 -206.5 -135t-72.5 -402zM1574 689q0 -335 -195.5 -523t-534.5 -188q-342 0 -536.5 190.5t-194.5 520.5q0 342 194.5 532.5t536.5 190.5q343 0 536.5 -193t193.5 -530z
" />
    <glyph glyph-name="P" unicode="P" horiz-adv-x="1445" 
d="M754 1399q115 0 204.5 -11t171.5 -39.5t136 -75.5t85.5 -122.5t31.5 -176.5q0 -205 -152.5 -315t-450.5 -110h-78q0 -260 -1 -297v-2q0 -16 3 -48.5t3 -34.5h198v-180q-253 13 -423 13q-177 0 -425 -13v180h206q7 35 7 92v869q0 55 -5 87h-205v164q306 20 694 20z
M947 967q0 131 -54.5 189.5t-179.5 58.5h-13v-495h23q117 0 170.5 60.5t53.5 186.5z" />
    <glyph glyph-name="Q" unicode="Q" horiz-adv-x="1746" 
d="M1585 4l48 -159q-264 -93 -485 -93q-179 0 -308.5 63.5t-236.5 191.5q-232 61 -361 237.5t-129 444.5q0 342 194.5 532.5t536.5 190.5q343 0 536.5 -193t193.5 -530q0 -264 -123.5 -438t-346.5 -239q64 -51 156 -51q168 0 325 43zM565 686q0 -254 70 -386.5t209 -132.5
q135 0 207 130.5t72 391.5q0 264 -71.5 399t-207.5 135q-134 0 -206.5 -135t-72.5 -402z" />
    <glyph glyph-name="R" unicode="R" horiz-adv-x="1580" 
d="M495 0q-156 0 -400 -11v178h166q6 27 6 92v868q0 56 -5 88h-205v167q348 17 674 17q79 0 144 -4t135.5 -15t125 -30t105 -50t84 -73t53 -102t19.5 -134q0 -110 -82.5 -197t-243.5 -143q66 -29 114 -64t79 -70t57.5 -91t42 -102.5t38.5 -130.5h168v-194q-21 -2 -76.5 -7.5
t-96 -8.5t-80.5 -3q-93 0 -163.5 32.5t-110.5 85t-69 115.5t-47 126t-35.5 115.5t-44 85t-63.5 32.5h-85v-313q0 -50 5 -92h138v-178q-203 11 -347 11zM699 739h51q211 0 211 244q0 125 -54 178.5t-179 53.5h-29v-476z" />
    <glyph glyph-name="S" unicode="S" horiz-adv-x="1336" 
d="M637 1240q-58 0 -89.5 -47.5t-31.5 -123.5q0 -89 51 -139t171 -99q47 -19 73 -29.5t73.5 -32t76 -37t69.5 -40t66.5 -46t54.5 -51t45 -59t27 -65t11 -73.5q0 -188 -158 -304t-424 -116q-327 0 -545 152q-47 32 -47 65q0 15 8 45l88 226l303 -120q45 -103 94 -148.5
t108 -45.5q65 0 101.5 55t36.5 135q0 40 -8 72t-29 59t-41 46t-59.5 40.5t-67.5 34.5t-83 36q-221 95 -322.5 187.5t-101.5 214.5q0 174 167.5 277t456.5 103q167 0 293 -33t168 -96l-62 -273l-303 72q-45 78 -86 118t-84 40z" />
    <glyph glyph-name="T" unicode="T" horiz-adv-x="1446" 
d="M735 0q-167 0 -420 -11v178h186q6 27 6 92v944h-255q-18 -132 -21 -192h-202q0 31 -4.5 179t-4.5 179q51 19 278 19h850q227 0 278 -19q0 -31 -4.5 -179t-4.5 -179h-202l-20 194h-256v-946q0 -50 5 -92h188v-178q-234 11 -397 11z" />
    <glyph glyph-name="U" unicode="U" horiz-adv-x="1717" 
d="M1684 1215h-188q-5 -38 -5 -92v-609q0 -138 -51 -243.5t-141 -168t-203 -93.5t-246 -31q-314 0 -469.5 148t-155.5 452v545q0 59 -5 92h-187v172q230 12 413 12q263 0 374 -12v-172h-158q-7 -46 -7 -92v-613q0 -159 58 -251t165 -92q54 0 94.5 21.5t65.5 57.5t40 89.5
t21 111.5t6 130v546q0 59 -5 92h-147v172q171 12 365 12q249 0 366 -12v-172z" />
    <glyph glyph-name="V" unicode="V" horiz-adv-x="1746" 
d="M24 1215l-24 172q183 12 435 12q171 0 301 -12l45 -172h-128q8 -24 19.5 -54t12.5 -33l238 -676l206 671q13 41 24 92h-128l45 172q111 12 336 12q154 0 340 -12l-24 -172h-177q-14 -22 -36 -92q-216 -679 -445 -1134h-192q-100 0 -152 18t-71 67l-402 1049
q-25 65 -46 92h-177z" />
    <glyph glyph-name="W" unicode="W" horiz-adv-x="2458" 
d="M24 1215l-24 172q174 12 415 12q181 0 321 -12l45 -172h-128l32 -87l198 -676l165 659q15 61 23 133l7 73q5 56 8 70h205q67 0 106 -39.5t61 -112.5l237 -783q157 607 190 763h-148l45 172q114 12 346 12q150 0 330 -12l-24 -172h-179l-14 -46q-232 -785 -405 -1180h-282
q-62 0 -92.5 19t-40.5 66l-206 622q-104 -429 -191 -707h-272q-65 0 -98.5 19t-44.5 66l-362 1049q-17 51 -34 78l-12 14h-177z" />
    <glyph glyph-name="X" unicode="X" horiz-adv-x="1736" 
d="M1153 1187q0 28 -30 28h-128l45 172q120 12 320 12q182 0 346 -12l-24 -172h-133q-51 -15 -115 -105l-304 -423l342 -380q13 -15 39 -46.5t40.5 -48t37.5 -31t46 -14.5h57l24 -178q-234 11 -389 11q-112 0 -387 -11l-35 178h108q21 0 21 17q0 22 -33 64l-218 277
l-176 -272q-25 -38 -25 -61q0 -25 31 -25h128l-45 -178q-201 11 -337 11q-117 0 -339 -11l24 178h113q24 2 48.5 24.5t66.5 74.5l333 414l-363 459q-60 76 -121 76h-77l-24 172q174 12 431 12q229 0 355 -12l25 -172h-78q-21 0 -21 -17q0 -24 33 -70l198 -286l166 281
q24 41 24 64z" />
    <glyph glyph-name="Y" unicode="Y" horiz-adv-x="1576" 
d="M403 147h186q5 32 5 70v275l-377 631q-9 16 -18 33t-14 26.5t-10 18t-10.5 11.5t-13.5 3h-127l-24 172q196 12 366 12h104q163 0 286 -12l15 -172h-128q30 -84 32 -87l208 -376l176 371q13 26 22 92h-156l35 172q124 12 287 12h74q119 0 255 -12l-24 -172h-147
q-7 -10 -46 -92q-1 -2 -9.5 -17.5t-31 -56.5t-56 -102.5t-95.5 -176t-140 -257.5v-274q0 -50 5 -92h188v-158q-234 11 -397 11q-167 0 -420 -11v158z" />
    <glyph glyph-name="Z" unicode="Z" horiz-adv-x="1417" 
d="M126 968l-40 405q437 14 592 14h536q49 0 78.5 -22t29.5 -52v-127l-747 -1006h248q93 0 191 15q39 168 39 298q40 0 106 -4t111 -7l46 -4q11 -274 11 -348q0 -15 -10 -129q-309 -1 -696 -1h-245t-143.5 0.5t-45.5 0.5q-76 0 -76 102v116l732 978h-189q-71 0 -218 -25
q-2 -7 -7 -90v-114h-303z" />
    <glyph glyph-name="bracketleft" unicode="[" horiz-adv-x="842" 
d="M205 1475h358q107 0 138 -9q65 -20 65 -82v-59h-189v-1382h189v-69q0 -27 -15 -45.5t-39.5 -25.5t-40.5 -9t-32 -2h-434v1683z" />
    <glyph glyph-name="backslash" unicode="\" horiz-adv-x="1036" 
d="M413 1326l623 -1348h-261q-121 0 -145 70l-630 1364h263q66 0 99.5 -19t50.5 -67z" />
    <glyph glyph-name="bracketright" unicode="]" horiz-adv-x="842" 
d="M76 -57h189v1382h-189v151h561v-1684h-561v151z" />
    <glyph glyph-name="asciicircum" unicode="^" horiz-adv-x="1278" 
d="M495 1389h286l368 -653q33 -58 33 -85q0 -22 -22 -37.5t-51 -19.5l-219 -50l-252 485l-252 -485l-203 47q-32 7 -46 11.5t-28.5 17t-14.5 31.5q0 27 33 85z" />
    <glyph glyph-name="underscore" unicode="_" horiz-adv-x="1099" 
d="M1109 -135v-81q0 -38 -34.5 -57.5t-100.5 -33.5h-984v83q0 29 13.5 48t38 27.5t46.5 11t51 2.5h970z" />
    <glyph glyph-name="grave" unicode="`" horiz-adv-x="1182" 
d="M853 1112h-235l-286 370h371z" />
    <glyph glyph-name="a" unicode="a" horiz-adv-x="1338" 
d="M698 464h-30q-77 0 -121 -49.5t-44 -132.5q0 -75 23 -109.5t61 -34.5q49 0 111 53v273zM1272 146v-113q-191 -43 -417 -43q-75 51 -120 112q-118 -124 -285 -124q-164 0 -261 77t-97 219q0 309 586 309h20v34q0 128 -11.5 183t-40.5 55q-57 0 -131 -59t-156 -165
l-241 154q0 63 75.5 115t186.5 78.5t227 26.5q256 0 383 -92t127 -312q0 -15 -0.5 -65t-0.5 -85v-177q0 -94 5 -126q42 -2 67 -2h84z" />
    <glyph glyph-name="b" unicode="b" horiz-adv-x="1433" 
d="M793 836q-63 0 -166 -47v-649q18 -2 54 -2h71q73 0 113.5 93t40.5 273q0 332 -113 332zM627 1298v-361q141 68 270 68q108 0 194 -42t138.5 -112.5t80 -158t27.5 -183.5q0 -128 -47 -229.5t-127.5 -163.5t-182 -94.5t-215.5 -32.5q-213 0 -592 30v60q35 73 35 251v921
h-173v113q197 48 400 48h60q83 0 107.5 -21t24.5 -93z" />
    <glyph glyph-name="c" unicode="c" horiz-adv-x="1201" 
d="M717 147q109 0 197 28t187 90l17 -160q-172 -127 -424 -127q-273 0 -435.5 134.5t-162.5 373.5q0 106 33.5 193.5t91 147t136 100.5t166.5 59.5t185 18.5q264 0 418 -133l-17 -198h-271q-44 86 -79 124t-69 38q-74 0 -121 -83.5t-47 -236.5q0 -178 50 -273.5t145 -95.5z
" />
    <glyph glyph-name="d" unicode="d" horiz-adv-x="1428" 
d="M635 1251v113q196 48 400 48h60q83 0 107.5 -21t24.5 -93v-1054q0 -68 6 -97h166v-112q-185 -46 -347 -46q-97 0 -142 24t-69 92q-106 -127 -289 -127q-134 0 -239.5 67.5t-162 180.5t-56.5 248q0 244 125 387.5t343 143.5q117 0 246 -46v292h-173zM670 147q84 0 142 79
v576q-87 34 -138 34q-146 0 -146 -352q0 -337 142 -337z" />
    <glyph glyph-name="e" unicode="e" horiz-adv-x="1255" 
d="M524 590h254v18q0 105 -31.5 171t-87.5 66q-111 0 -135 -255zM821 169q125 0 280 76l18 -150q-163 -117 -424 -117q-278 0 -438.5 137t-160.5 384q0 224 166 365t437 141q209 0 339.5 -105.5t130.5 -284.5q0 -105 -50 -139t-181 -34h-413q24 -130 98 -201.5t198 -71.5z
" />
    <glyph glyph-name="f" unicode="f" horiz-adv-x="902" 
d="M446 0q-138 0 -339 -11l6 132l24 3q70 8 88.5 25.5t18.5 74.5v600h-205v74q0 85 147 85h58v64q0 365 502 365q161 0 311 -63v-224h-234q-4 14 -11 36t-8 24l-13 39q-9 27 -9 30q-30 0 -46.5 -3t-33.5 -13.5t-25.5 -34.5t-10.5 -63v-157h255v-73q0 -86 -136 -86h-122v-565
q0 -82 22.5 -103.5t123.5 -35.5l11 -131l-163 6q-50 2 -211 5z" />
    <glyph glyph-name="g" unicode="g" horiz-adv-x="1171" 
d="M574 994q131 0 229 -37l358 20v-163h-201q47 -60 66.5 -102.5t19.5 -96.5q0 -152 -121.5 -237.5t-357.5 -85.5q-93 0 -180 16q-15 -26 -15 -80q0 -33 20 -47t63 -14h383q137 0 218.5 -64.5t81.5 -186.5q0 -92 -35 -160t-90.5 -107.5t-138.5 -63.5t-163 -31.5t-181 -7.5
q-234 0 -345 57.5t-111 179.5q0 68 53.5 117.5t171.5 87.5q-60 21 -95 63.5t-35 103.5q0 120 106 177q-89 34 -137.5 110.5t-48.5 187.5q0 182 130 273t355 91zM392 -164q0 -127 175 -127q256 0 256 127q0 126 -113 126h-243q-75 -75 -75 -126zM678 626q0 110 -28 170
t-81 60q-102 0 -102 -230q0 -210 102 -210q109 0 109 210z" />
    <glyph glyph-name="h" unicode="h" horiz-adv-x="1477" 
d="M850 274v349q0 38 -2 62.5t-8.5 57t-23.5 49t-44 16.5q-64 0 -145 -69v-506q0 -54 18.5 -74t74.5 -32l11 -138q-288 11 -330 11q-148 0 -311 -11l5 137q70 10 91 33t21 106v922q0 40 -3 64h-169v113q197 48 400 48h60q83 0 107.5 -21t24.5 -93v-416q176 123 356 123
q144 0 215 -94t71 -267v-396q0 -65 9 -101h133l13 -124q-190 -45 -354 -45q-226 0 -226 107q0 19 3 93t3 96z" />
    <glyph glyph-name="i" unicode="i" horiz-adv-x="816" 
d="M178 1256q0 77 68 116.5t169 39.5q103 0 170.5 -41.5t67.5 -114.5q0 -53 -36.5 -88.5t-88 -50t-113.5 -14.5q-101 0 -169 40.5t-68 112.5zM35 824v126q202 44 367 44q224 0 224 -95v-660q0 -55 9 -92h133l13 -114q-193 -44 -354 -44q-226 0 -226 106q0 19 3 93.5t3 95.5
v540h-172z" />
    <glyph glyph-name="j" unicode="j" horiz-adv-x="932" 
d="M134 824v126q199 44 358 44q109 0 171.5 -24.5t62.5 -70.5v-911q0 -220 -111.5 -331t-331.5 -111q-200 0 -283 77l17 301l205 -29l19 -173q18 -9 31 -9q95 0 95 127q0 6 -15 59t-30 125t-15 123v677h-173zM278 1287q0 77 68 116.5t170 39.5q104 0 170.5 -41.5
t66.5 -114.5q0 -77 -70.5 -115t-166.5 -38q-103 0 -170.5 40.5t-67.5 112.5z" />
    <glyph glyph-name="k" unicode="k" horiz-adv-x="1451" 
d="M35 1251v113q197 48 400 48h32q6 0 19.5 0.5t20.5 0.5q107 0 116 -55q3 -22 3 -60v-669l217 148q18 15 18 27q0 31 -90 31v148h633v-159q-94 -1 -152.5 -25.5t-145.5 -87.5l-147 -108l270 -414l26 -26l23 -19q24 -17 45.5 -20.5t70.5 -3.5h32l25 -131q-134 11 -335 11
h-60q-138 0 -257 -11l-5 131h57l-193 333l-32 -20v-221q6 -52 24.5 -67.5t84.5 -27.5l6 -128q-302 11 -341 11q-148 0 -311 -11l6 130q10 2 29 5t26 4.5t19.5 6t17 10.5t10.5 16.5t8 26t2 37.5v962q0 40 -3 64h-169z" />
    <glyph glyph-name="l" unicode="l" horiz-adv-x="826" 
d="M35 1252v114q194 46 381 46q92 0 133.5 -12t76.5 -53v-1120q0 -61 6 -82h159v-111q-182 -43 -363 -43q-85 0 -138 21.5t-87 69.5v26q5 88 5 175v892q0 50 -4 77h-169z" />
    <glyph glyph-name="m" unicode="m" horiz-adv-x="2105" 
d="M1472 85q0 19 3 93t3 96v329q0 120 -8 162t-36 42q-86 0 -166 -74v-526q6 -51 26.5 -66.5t91.5 -27.5v-124l-150 6q-147 5 -195 5q-140 0 -258 -11v137q43 12 54.5 28t11.5 66v383q0 120 -5.5 162t-25.5 42q-52 0 -102.5 -21.5t-83.5 -54.5v-477q0 -67 11.5 -92t56.5 -36
v-137q-178 11 -295 11q-141 0 -304 -11v125q66 0 89 25t23 84v601h-172v122q183 48 416 48q49 0 160 -16q2 -88 2 -109q88 61 194 98.5t206 37.5q163 0 228 -114q190 115 360 115q140 0 215 -84t75 -236v-438q0 -65 9 -101h133l13 -124q-190 -45 -354 -45q-226 0 -226 107z
" />
    <glyph glyph-name="n" unicode="n" horiz-adv-x="1498" 
d="M70 824v126q211 44 390 44q53 0 181 -16l5 -108q205 136 386 136q142 0 214.5 -89.5t72.5 -252.5v-416q0 -65 9 -101h133l13 -124q-190 -45 -354 -45q-226 0 -226 107q0 19 3 93t3 96v375q0 159 -87 159q-68 0 -152 -69v-506q0 -54 18.5 -74t74.5 -32l11 -138
q-288 11 -330 11q-148 0 -311 -11l6 137q70 10 91 33t21 106v559h-172z" />
    <glyph glyph-name="o" unicode="o" horiz-adv-x="1378" 
d="M1282 488q0 -104 -33 -189.5t-89 -144t-132 -99t-161 -59t-177 -18.5q-175 0 -309 61t-209.5 177.5t-75.5 271.5q0 105 33 191.5t89.5 146t133 100.5t161.5 60t177 19q264 0 428 -140.5t164 -376.5zM530 489q0 -174 39 -258t120 -84q84 0 121.5 85t37.5 257
q0 178 -38.5 262.5t-120.5 84.5q-84 0 -121.5 -84t-37.5 -263z" />
    <glyph glyph-name="p" unicode="p" horiz-adv-x="1426" 
d="M799 825q-97 0 -179 -55v-359q0 -138 33 -201t100 -63q145 0 145 339t-99 339zM394 -429q-99 0 -311 -25l6 133l32 5q48 7 64 25t16 76v1039h-174v123q188 47 420 47q61 0 154 -15q0 -6 0.5 -31.5t0.5 -31.5q119 89 267 89q219 0 340 -135.5t121 -370.5
q0 -242 -134.5 -381.5t-363.5 -139.5q-131 0 -212 57v-216q0 -32 0.5 -48t5 -32.5t9 -23t20 -15t29.5 -12t45 -11.5l11 -131l-115 11q-89 8 -231 14z" />
    <glyph glyph-name="q" unicode="q" horiz-adv-x="1345" 
d="M803 823q-9 0 -47 1t-47 1h-30q-73 0 -113.5 -85t-40.5 -248q0 -345 113 -345q66 0 164 37q2 65 2 197q0 41 -0.5 184t-0.5 258zM997 -429q-99 0 -311 -25l6 133l32 5q48 7 64 25t16 76v249q-136 -56 -270 -56q-135 0 -236.5 69t-152.5 182.5t-51 253.5q0 229 156 375.5
t416 146.5q178 0 592 -32v-60q-35 -76 -35 -251v-875q0 -25 4.5 -43.5t10.5 -28.5t18.5 -17t21 -9t27 -6t27.5 -6l11 -131l-115 11q-154 14 -231 14z" />
    <glyph glyph-name="r" unicode="r" horiz-adv-x="1139" 
d="M955 1005q85 0 153 -21l-20 -319h-207l-25 151q-79 0 -151.5 -44t-72.5 -96v-418q0 -82 20 -105t109 -37l11 -127q-321 11 -366 11q-148 0 -311 -11l6 127q80 13 96 27.5t16 80.5v600h-172v123q206 47 425 47q47 0 140 -16v-128q138 155 349 155z" />
    <glyph glyph-name="s" unicode="s" horiz-adv-x="1100" 
d="M566 845q-47 0 -76 -21.5t-29 -62.5q0 -39 25.5 -59.5t82.5 -37.5q227 -72 338.5 -162.5t111.5 -204.5q0 -87 -37 -150.5t-103.5 -99.5t-146 -52.5t-174.5 -16.5q-218 0 -414 74q-57 21 -83 41l49 258l277 -60l12 -125q38 -20 82 -20q49 0 79 24.5t30 66.5q0 21 -10.5 39
t-25.5 30.5t-43 26t-51.5 22.5t-62.5 24t-66 26q-131 55 -200 128.5t-69 175.5q0 145 122 220.5t364 75.5q275 0 421 -108l-55 -235l-231 36l-13 134q-46 13 -104 13z" />
    <glyph glyph-name="t" unicode="t" horiz-adv-x="1069" 
d="M605 -22q-423 0 -423 333v528h-182v72q0 15 6 26.5t19.5 19t26.5 12t35 7t35.5 3.5t38.5 2t35 2l23 154q6 38 17 63l37 86h330v-303h292v-54q0 -26 -9 -43.5t-21 -26.5t-35 -14t-39 -5.5t-45 -0.5h-143v-583q0 -98 64 -98q82 0 114 128l12 47h235v-239
q-167 -116 -423 -116z" />
    <glyph glyph-name="u" unicode="u" horiz-adv-x="1366" 
d="M658 824l-11 126q193 44 355 44q93 0 151 -23.5t58 -71.5v-627q0 -91 8 -125h152v-112q-202 -46 -373 -46q-53 0 -84.5 3.5t-60.5 15.5t-42.5 36.5t-15.5 64.5q-170 -131 -335 -131q-148 0 -235 85.5t-87 232.5v528h-142l-13 126q199 44 360 44q101 0 157.5 -24t56.5 -71
v-621q2 -29 3.5 -43.5t7 -38.5t18.5 -35t32 -11q40 0 90 23.5t79 52.5q3 39 3 151q0 36 1 447h-133z" />
    <glyph glyph-name="v" unicode="v" horiz-adv-x="1275" 
d="M21 824l-21 148q158 22 367 22q78 0 242 -22q15 -52 24 -148h-76q122 -357 143 -414q62 192 124 414h-102l20 148q166 22 293 22q80 0 240 -22v-148h-132q-122 -393 -299 -824q-81 -10 -189 -10q-78 0 -182 10l-346 824h-106z" />
    <glyph glyph-name="w" unicode="w" horiz-adv-x="1849" 
d="M-6 824v148q158 22 367 22q75 0 232 -22q15 -52 24 -148h-76q5 -12 113 -414l156 500q13 41 52.5 57t114.5 16q97 0 137.5 -19t60.5 -82l151 -472l93 414h-101q1 4 5 37.5t8.5 67.5t6.5 43q153 22 273 22q80 0 240 -22v-148h-130q-110 -431 -241 -824q-81 -10 -189 -10
q-69 0 -172 10l-165 509q-95 -327 -156 -509q-81 -10 -189 -10q-69 0 -172 10l-317 824h-126z" />
    <glyph glyph-name="x" unicode="x" horiz-adv-x="1392" 
d="M1108 994q80 0 240 -22v-148h-142l-241 -307l290 -370h123v-158q-157 11 -342 11q-141 0 -317 -11q-14 63 -24 158h79l-156 216l-156 -216h104q-1 -3 -20 -158q-157 11 -283 11q-56 0 -240 -11v158h127l265 325l-244 352h-138v148q158 22 367 22q85 0 262 -22
q15 -52 24 -148h-66l133 -194l143 194h-91l20 148q158 22 283 22z" />
    <glyph glyph-name="y" unicode="y" horiz-adv-x="1275" 
d="M1035 994q80 0 240 -22v-148h-131l-289 -813q-29 -81 -57.5 -137t-72 -106.5t-99 -80.5t-135 -47t-183.5 -17q-143 0 -244 37l46 171q128 -48 228 -48q32 0 57.5 13.5t40.5 33.5t26.5 51.5t16.5 58t10 61.5l-361 823h-128v148q158 22 367 22q78 0 242 -22q15 -52 24 -148
h-76l144 -431q65 214 122 431h-102l21 148q166 22 293 22z" />
    <glyph glyph-name="z" unicode="z" horiz-adv-x="1063" 
d="M1002 0h-773q-100 2 -125 9q-67 19 -67 90v103l565 622h-295q-40 0 -52 -13q-27 -37 -29 -165l-173 -10v348h834q71 0 91 -22.5t20 -72.5v-136l-525 -589h272q37 0 58.5 40t56.5 156l142 8v-368z" />
    <glyph glyph-name="braceleft" unicode="{" horiz-adv-x="797" 
d="M542 1475q46 0 74.5 -2t57.5 -9.5t44 -23.5t18 -42v-37q-45 -3 -69 -6t-50.5 -11t-39 -22.5t-20.5 -39t-8 -60.5v-369q0 -151 -135 -222q135 -73 135 -219v-370q0 -115 5 -115q45 -13 182 -27v-33q0 -25 -25 -42.5t-64 -24t-65 -9t-49 -2.5q-85 0 -146 11t-110 38.5
t-73.5 78.5t-24.5 126v362q0 80 -23 121t-90 56v106q27 3 47 13t32 28.5t19.5 35.5t10.5 44t3.5 43.5t0.5 43.5v335q0 73 24.5 122t75 75t112.5 36.5t151 10.5z" />
    <glyph glyph-name="bar" unicode="|" horiz-adv-x="1306" 
d="M498 1412h126q90 0 136 -30.5t46 -99.5v-1507h-127q-105 0 -143 41t-38 153v1443z" />
    <glyph glyph-name="braceright" unicode="}" horiz-adv-x="791" 
d="M254 1475q89 0 151 -10.5t112.5 -36.5t75 -75t24.5 -122v-335q0 -27 0.5 -43.5t3.5 -43.5t10.5 -44t19.5 -35.5t32 -28.5t47 -13v-106q-67 -15 -90 -56t-23 -121v-362q0 -75 -24.5 -126t-73.5 -78.5t-110 -38.5t-146 -11q-23 0 -49 2.5t-65 9t-64 24t-25 42.5v33
q137 14 182 27q5 0 5 115v370q0 146 135 219q-135 71 -135 222v369q0 36 -8 60.5t-20.5 39t-39 22.5t-50.5 11t-69 6v37q3 26 18 42t44 23.5t57.5 9.5t74.5 2z" />
    <glyph glyph-name="asciitilde" unicode="~" horiz-adv-x="1203" 
d="M823 538q68 0 121.5 29t81.5 78q49 -63 64 -102q-22 -69 -87.5 -109t-155.5 -40q-61 0 -109.5 12.5t-126.5 46.5q-175 77 -237 77q-104 0 -185 -132q-60 60 -76 97q18 69 96.5 122.5t160.5 53.5q97 0 195 -43q133 -59 177 -74.5t81 -15.5z" />
    <glyph glyph-name="uni00A0" unicode="&#xa0;" horiz-adv-x="569" 
 />
    <glyph glyph-name="exclamdown" unicode="&#xa1;" horiz-adv-x="874" 
d="M446 -22q-22 0 -37 0.5t-42.5 2.5t-46.5 6t-42 12.5t-37 20.5t-24 30.5t-10 41.5q0 39 16 134t43.5 267t46.5 350q7 64 37 81.5t122 17.5q48 0 87 -22q7 -60 100 -795q1 -11 1 -31q0 -28 -7 -48.5t-23.5 -33t-32.5 -19.5t-45.5 -10.5t-49 -4t-56.5 -0.5zM651 1221
q0 -81 -56.5 -134.5t-143.5 -53.5t-143.5 52t-56.5 136q0 87 54.5 139t145.5 52t145.5 -52t54.5 -139z" />
    <glyph glyph-name="cent" unicode="&#xa2;" horiz-adv-x="1231" 
d="M782 797v-649q89 2 167.5 30.5t172.5 86.5l17 -160q-146 -107 -357 -124v-271h-23q-72 0 -93 18.5t-21 81.5v171q-241 16 -384.5 149.5t-143.5 355.5q0 122 43.5 218.5t118.5 157t167 95.5t199 44v277h22q66 0 90.5 -17t24.5 -78v-180q112 -8 207 -42t158 -89l-17 -198
h-271q-45 88 -77 123zM645 179v636q-102 -71 -102 -299q0 -254 102 -337z" />
    <glyph glyph-name="sterling" unicode="&#xa3;" horiz-adv-x="1276" 
d="M50 144q100 28 151 77.5t51 145.5q0 109 -11 265h-192v73q0 27 8.5 44t26.5 24.5t35 9.5t45 2h57q-25 176 -25 259q0 100 41.5 173.5t115.5 115t165.5 60.5t203.5 19q309 0 485 -125v-314l-246 -25q-52 153 -106 223t-122 70q-119 0 -119 -210q0 -57 18 -246h310v-73
q0 -80 -92 -80h-200q5 -93 5 -125q0 -94 -24 -170t-77 -170h136q79 0 131.5 15.5t88 53t56 82.5t43.5 123l207 -22q0 -160 -29 -398q-227 -21 -511 -21h-589q-37 64 -37 144z" />
    <glyph glyph-name="currency" unicode="&#xa4;" horiz-adv-x="1362" 
d="M1096 1108l-107 -106q90 -117 90 -272q0 -156 -91 -268l130 -132l-8 -8q-58 -58 -86 -70q-16 6 -36 24t-52 52t-39 41q-124 -90 -273 -90q-147 0 -267 90l-131 -129q-67 65 -80 88q14 28 38 53l82 81q-90 114 -90 269t90 269l-133 131q8 7 28.5 28t35.5 33t29 18
q30 -17 50 -37l80 -80q122 91 269 91q146 0 270 -92l132 132l9 -9q20 -20 31 -31.5t20.5 -29t9.5 -33.5q0 -11 -1 -13zM308 731q0 -139 92.5 -231t226.5 -92q135 0 227.5 93.5t92.5 229.5q0 137 -92 230.5t-228 93.5q-135 0 -227 -93t-92 -231z" />
    <glyph glyph-name="yen" unicode="&#xa5;" horiz-adv-x="1568" 
d="M397 147h186q5 32 5 70v49h-351v75q33 39 80 55.5t124 16.5h145v101h-349v76q34 38 81 55t120 17h59q-55 90 -122 199t-106.5 174.5t-61.5 104.5l-42 75h-147l-24 172q197 12 470 12q163 0 286 -12l15 -172h-128q30 -84 32 -87l208 -376l176 371q13 26 22 92h-156l35 172
q124 12 287 12h74q119 0 255 -12l-24 -172h-147q-13 -16 -46 -92q-49 -87 -139 -254l-112 -207h260v-66q0 -26 -8 -42.5t-25.5 -24t-30.5 -10t-39 -5.5h-238v-101h341v-65q0 -44 -24.5 -62t-71.5 -20h-245v-27q0 -50 5 -92h188v-158q-234 11 -397 11q-167 0 -420 -11v158z
" />
    <glyph glyph-name="brokenbar" unicode="&#xa6;" horiz-adv-x="1350" 
d="M502 1448h164q82 0 125.5 -17.5t58.5 -63.5v-703h-166q-85 0 -129 11.5t-51 52.5q-2 30 -2 50v670zM502 378h164q84 0 126.5 -17t57.5 -63v-703h-208q-28 0 -47 1.5t-40.5 7.5t-34 20t-16.5 35q-2 30 -2 49v670z" />
    <glyph glyph-name="section" unicode="&#xa7;" horiz-adv-x="1016" 
d="M279 957q-60 47 -86.5 100.5t-26.5 135.5q0 80 31.5 140.5t87.5 96.5t127.5 53.5t158.5 17.5q100 0 185 -28.5t114 -54.5l-21 -206h-114q-31 81 -73.5 112.5t-134.5 31.5q-78 0 -122.5 -32.5t-44.5 -96.5t45 -101t153 -85q121 -54 188 -90.5t113.5 -78t62.5 -84.5
t16 -106q0 -181 -139 -262q121 -88 121 -234q0 -109 -54.5 -182t-143 -105t-206.5 -32q-90 0 -211 33.5t-168 84.5q0 167 -6 243h129q35 -111 97 -162.5t178 -51.5q85 0 136 35.5t51 103.5q0 43 -41.5 77.5t-164.5 92.5l-139 66q-39 18 -65.5 33t-63.5 43.5t-59.5 59.5
t-39 79.5t-16.5 104.5q0 91 36 150t110 98zM424 876q-51 -29 -75.5 -61.5t-24.5 -78.5q0 -50 29 -79t105 -69l76 -40q47 -25 105 -49q108 59 108 144q0 44 -57.5 88.5t-128.5 77.5q-118 54 -137 67z" />
    <glyph glyph-name="dieresis" unicode="&#xa8;" horiz-adv-x="1343" 
d="M588 1257q0 -72 -45 -114.5t-120 -42.5t-120 42.5t-45 114.5q0 68 47 111.5t118 43.5q72 0 118.5 -43t46.5 -112zM1083 1257q0 -72 -45 -114.5t-120 -42.5t-120 42.5t-45 114.5q0 68 47 111.5t118 43.5q72 0 118.5 -43t46.5 -112z" />
    <glyph glyph-name="copyright" unicode="&#xa9;" horiz-adv-x="1669" 
d="M835 1244q-158 0 -278.5 -74t-182.5 -198.5t-62 -279.5q0 -241 145 -393.5t378 -152.5q129 0 233 46t168 123.5t97.5 174t33.5 202.5q0 244 -150 398t-382 154zM835 -22q-217 0 -382.5 94t-252.5 255t-87 364q0 144 49 273.5t138.5 229.5t228 159t306.5 59t306 -58
t227.5 -157.5t138.5 -229.5t49 -276q0 -289 -180 -491q-198 -222 -541 -222zM885 464q77 0 136.5 19t132.5 63l11 -112q-120 -88 -296 -88q-191 0 -305 93.5t-114 261.5q0 92 36 164t97.5 114t136 63.5t158.5 21.5q89 0 166.5 -25t126.5 -68l-12 -139h-190q-54 113 -103 113
q-43 0 -71 -36t-37.5 -83t-9.5 -104q0 -258 137 -258z" />
    <glyph glyph-name="ordfeminine" unicode="&#xaa;" horiz-adv-x="969" 
d="M504 1013h-22q-56 0 -88.5 -36.5t-32.5 -97.5q0 -106 62 -106q35 0 81 39v201zM926 779v-83q-149 -31 -306 -31q-53 37 -89 82q-87 -91 -209 -91q-120 0 -191.5 55.5t-71.5 161.5q0 227 431 227h14v25q0 76 -4 113t-11.5 48.5t-22.5 13.5q-80 0 -211 -165l-177 113
q0 64 109 113t250 49q188 0 281.5 -67.5t93.5 -229.5q0 -12 -0.5 -48.5t-0.5 -61.5v-130q0 -75 4 -92q30 -2 49 -2h62z" />
    <glyph glyph-name="guillemotleft" unicode="&#xab;" horiz-adv-x="1099" 
d="M949 129q-42 -36 -109 -63l-333 403v114l339 434q93 -35 119 -53q-30 -88 -207 -425q119 -253 191 -410zM575 129q-42 -36 -109 -63l-333 403v114l339 434q93 -35 119 -53q-30 -88 -207 -425q119 -253 191 -410z" />
    <glyph glyph-name="logicalnot" unicode="&#xac;" horiz-adv-x="1341" 
d="M1208 231h-125q-66 0 -99 17t-33 59v324h-818v79q0 64 22.5 81t92.5 17h960v-577z" />
    <glyph glyph-name="uni00AD" unicode="&#xad;" horiz-adv-x="635" 
d="M784 621v-106q0 -37 -36 -56t-102 -30h-595v115q0 76 130 76q9 1 43 1h560z" />
    <glyph glyph-name="registered" unicode="&#xae;" horiz-adv-x="1669" 
d="M695 369q-22 0 -194 -5v86h81q3 12 3 44v420q0 30 -3 42h-99v81q166 8 326 8q71 0 124 -8t100.5 -28.5t72.5 -60.5t25 -100q0 -67 -48.5 -113t-124.5 -61q76 -27 121 -75t66 -128l74 7l7 -76q-23 -21 -67.5 -34.5t-88.5 -13.5q-86 0 -112 75q-51 142 -113 227h-52v-162
q0 -30 3 -44h67v-86l-91 4q-27 1 -77 1zM835 1244q-158 0 -278.5 -74t-182.5 -198.5t-62 -279.5q0 -241 145 -393.5t378 -152.5q129 0 233 46t168 123.5t97.5 174t33.5 202.5q0 244 -150 398t-382 154zM835 -22q-217 0 -382.5 94t-252.5 255t-87 364q0 144 49 273.5
t138.5 229.5t228 159t306.5 59t306 -58t227.5 -157.5t138.5 -229.5t49 -276q0 -289 -180 -491q-198 -222 -541 -222zM920 844q0 62 -25 87t-87 25h-15v-230h25q102 0 102 118z" />
    <glyph glyph-name="macron" unicode="&#xaf;" horiz-adv-x="1188" 
d="M215 1176v169h758v-169h-758z" />
    <glyph glyph-name="degree" unicode="&#xb0;" horiz-adv-x="606" 
d="M183 1226q0 -54 32.5 -85t86.5 -31t86.5 31t32.5 85q0 51 -32.5 82t-86.5 31t-86.5 -31t-32.5 -82zM302 1037q-91 0 -147.5 51t-56.5 138q0 84 57.5 134.5t146.5 50.5t146.5 -50.5t57.5 -134.5q0 -86 -56.5 -137.5t-147.5 -51.5z" />
    <glyph glyph-name="plusminus" unicode="&#xb1;" horiz-adv-x="1191" 
d="M1058 219v-89q0 -47 -35 -72.5t-92 -25.5h-798v89q0 66 37 82t148 16h740zM441 1153h62q82 0 125.5 -17.5t57.5 -60.5v-218h269v-90q-6 -56 -32.5 -77t-101.5 -21h-135v-298h-115q-28 2 -43.5 3.5t-37.5 7t-33.5 18t-12.5 30.5q-3 21 -3 49v190h-267v90q0 28 9 47.5
t21 29t37.5 14.5t43.5 6t54 1h102v296z" />
    <glyph glyph-name="twosuperior" unicode="&#xb2;" horiz-adv-x="877" 
d="M516 1178q0 60 -23.5 94.5t-69.5 34.5q-53 0 -94.5 -52.5t-66.5 -140.5l-178 116q0 77 100 129.5t248 52.5q336 0 336 -258q0 -65 -34 -129t-99 -125t-130.5 -109.5t-156.5 -105.5h188q26 0 74 9q39 62 70 129l113 -11v-282q-90 -8 -232 -8h-398q-49 0 -66.5 17t-17.5 62
q0 8 2 38q205 185 298 279t111 133q24 51 26 127z" />
    <glyph glyph-name="threesuperior" unicode="&#xb3;" horiz-adv-x="856" 
d="M238 1140l-158 105q51 86 129.5 126.5t200.5 40.5q137 0 232.5 -53t95.5 -145q0 -91 -50.5 -142t-147.5 -70q107 -16 168.5 -78.5t61.5 -166.5q0 -70 -32.5 -121.5t-86.5 -79.5t-113.5 -41t-124.5 -13q-158 0 -309 71v221l132 -12q19 -83 53.5 -124.5t95.5 -41.5
q62 0 95 39.5t33 107.5q0 162 -174 162h-95v105h78q100 0 154 45t54 105q0 53 -33.5 83t-85.5 30q-57 0 -105.5 -40t-67.5 -113z" />
    <glyph glyph-name="acute" unicode="&#xb4;" horiz-adv-x="1207" 
d="M565 1113h-235l150 369h395z" />
    <glyph glyph-name="mu" unicode="&#xb5;" horiz-adv-x="1607" 
d="M179 824l-13 126q199 44 360 44q102 0 158 -24t56 -71v-621q2 -29 3.5 -43.5t7 -38.5t18.5 -35t32 -11q39 0 89.5 23.5t79.5 52.5q4 52 4 148v450h-133l-11 126q193 44 355 44q93 0 151 -23.5t58 -71.5v-627q0 -91 8 -125h152v-112q-202 -46 -373 -46q-53 0 -84.5 3.5
t-60.5 15.5t-42.5 36.5t-15.5 64.5q-147 -115 -299 -129v-52q0 -92 43.5 -143.5t132.5 -78.5q1 -17 2.5 -33t2 -23t0.5 -8v-9q-123 -87 -279 -87q-128 0 -194 46t-66 147v1085h-142z" />
    <glyph glyph-name="paragraph" unicode="&#xb6;" horiz-adv-x="1206" 
d="M82 1004q0 67 16 122t43.5 94.5t69 69t89 48t107.5 29.5t119 15.5t129 4.5h142q241 0 327 -15v-100h-92q-72 0 -103 -11q-15 -43 -15 -120v-1077q0 -77 16 -121q28 -9 103 -9h89v-136q-187 19 -348 19v1494h-154v-1494q-161 0 -348 -19v136h89q75 0 103 9q16 44 16 121
v531q-198 0 -298 103.5t-100 305.5z" />
    <glyph glyph-name="periodcentered" unicode="&#xb7;" horiz-adv-x="687" 
d="M543 579q0 -87 -54.5 -139t-145.5 -52t-145.5 52t-54.5 139q0 84 56.5 136t143.5 52q90 0 145 -54.5t55 -133.5z" />
    <glyph glyph-name="cedilla" unicode="&#xb8;" horiz-adv-x="654" 
d="M543 -272q0 -110 -68 -168t-190 -58q-112 0 -177 41v91q79 -24 134 -24q61 0 97.5 25.5t36.5 73.5q0 97 -100 113q-5 0 -37 -8q-8 6 -51 23l85 174h101l-56 -107q113 -6 169 -46.5t56 -129.5z" />
    <glyph glyph-name="onesuperior" unicode="&#xb9;" horiz-adv-x="716" 
d="M353 1399q85 0 108.5 -13t23.5 -53v-681q0 -9 2 -23h117v-112q-125 7 -246 7q-128 0 -262 -7v112h116q3 12 3 57v590q0 16 -1 23h-107v72q134 28 246 28z" />
    <glyph glyph-name="ordmasculine" unicode="&#xba;" horiz-adv-x="1017" 
d="M945 1031q0 -94 -36.5 -167.5t-98.5 -118t-138.5 -67t-162.5 -22.5q-196 0 -316.5 102t-120.5 273q0 177 122 279t315 102t314.5 -103.5t121.5 -277.5zM508 1287q-36 0 -60.5 -19.5t-36 -57t-16 -79t-4.5 -99.5q0 -56 4.5 -96.5t16.5 -78.5t36 -57.5t60 -19.5t60.5 19.5
t36 57.5t16 78.5t4.5 96.5q0 77 -8 129t-35 89t-74 37z" />
    <glyph glyph-name="guillemotright" unicode="&#xbb;" horiz-adv-x="1098" 
d="M133 964q26 18 119 53l338 -434v-114l-332 -403q-64 24 -109 63q72 157 191 410q-178 336 -207 425zM507 964q26 18 119 53l338 -434v-114l-332 -403q-64 24 -109 63q72 157 191 410q-178 336 -207 425z" />
    <glyph glyph-name="onequarter" unicode="&#xbc;" horiz-adv-x="2065" 
d="M471 -22l625 1353q13 27 21.5 40.5t31 27t55.5 13.5h173l-630 -1364q-17 -37 -41 -53.5t-64 -16.5h-171zM1374 364h203v325zM1428 117h145q4 17 4 64v63h-339l-33 56q-30 60 -30 118l378 554h175q23 0 35 -0.5t31 -4t28.5 -10.5t17 -20.5t7.5 -33.5v-539h179v-53
q0 -19 -6.5 -32.5t-14 -20t-24.5 -10t-28.5 -4t-35.5 -0.5h-70v-63q0 -47 4 -64h131v-125q-173 8 -262 8q-86 0 -292 -8v125zM268 1399q85 0 108.5 -13t23.5 -53v-681q0 -9 2 -23h117v-112q-125 7 -246 7q-128 0 -262 -7v112h116q3 12 3 57v590q0 16 -1 23h-107v72
q134 28 246 28z" />
    <glyph glyph-name="onehalf" unicode="&#xbd;" horiz-adv-x="2034" 
d="M471 -22l625 1353q13 27 21.5 40.5t31 27t55.5 13.5h173l-630 -1364q-17 -37 -41 -53.5t-64 -16.5h-171zM1702 656q0 60 -23.5 94.5t-69.5 34.5q-53 0 -94.5 -52.5t-66.5 -140.5l-178 116q0 77 100 129.5t248 52.5q336 0 336 -258q0 -65 -34 -129t-99 -125t-130.5 -109.5
t-156.5 -105.5h188q26 0 74 9q39 62 70 129l113 -11v-282q-90 -8 -232 -8h-398q-48 0 -66 16t-18 63q0 8 2 38q205 185 298 279t111 133q24 51 26 127zM268 1399q85 0 108.5 -13t23.5 -53v-681q0 -9 2 -23h117v-112q-125 7 -246 7q-128 0 -262 -7v112h116q3 12 3 57v590
q0 16 -1 23h-107v72q134 28 246 28z" />
    <glyph glyph-name="threequarters" unicode="&#xbe;" horiz-adv-x="2197" 
d="M638 -22l625 1353q13 27 21.5 40.5t31 27t55.5 13.5h173l-630 -1364q-17 -37 -41 -53.5t-64 -16.5h-171zM530 1200q0 44 -33 68.5t-86 24.5q-57 0 -105.5 -40t-67.5 -113l-158 105q51 86 129.5 126.5t200.5 40.5q137 0 232.5 -53t95.5 -145q0 -91 -50.5 -142t-147.5 -70
q107 -16 168.5 -78.5t61.5 -166.5q0 -70 -32.5 -121.5t-86.5 -79.5t-113.5 -41t-124.5 -13q-158 0 -309 71v221l132 -12q19 -83 53.5 -124.5t95.5 -41.5q62 0 95 39.5t33 107.5q0 162 -174 162h-95l6 89l72 18q82 13 145 60.5t63 107.5zM1527 364h168v255zM1560 117h131
q4 17 4 64v63h-325l-33 56q-30 60 -30 118l378 554h175q23 0 35 -0.5t31 -4t28.5 -10.5t17 -20.5t7.5 -33.5v-539h179v-53q0 -19 -6.5 -32.5t-14 -20t-24.5 -10t-28.5 -4t-35.5 -0.5h-70v-63q0 -47 4 -64h131v-125q-173 8 -262 8q-86 0 -292 -8v125z" />
    <glyph glyph-name="questiondown" unicode="&#xbf;" horiz-adv-x="1131" 
d="M418 1021h162q63 -34 114 -91.5t51 -117.5q0 -64 -38 -115.5t-122 -129.5q-70 -66 -102 -123.5t-32 -129.5q0 -74 36.5 -115.5t94.5 -41.5q71 0 173 26v136h203v-272q-25 -9 -66 -22t-146.5 -34.5t-184.5 -21.5q-208 0 -336 93t-128 261q0 38 8 72.5t28.5 68.5t38.5 59
t55.5 60.5t61 56t71.5 60.5q38 31 51.5 63.5t13.5 101.5q0 102 -7 156zM515 1095q-74 0 -119 50.5t-45 117.5q0 62 41 105.5t119 43.5q84 0 128 -46.5t44 -110.5q0 -65 -44.5 -112.5t-123.5 -47.5z" />
    <glyph glyph-name="Agrave" unicode="&#xc0;" horiz-adv-x="1669" 
d="M676 1534l-310 316q0 27 26 40.5t67 13.5h302l150 -370h-235zM1318 0q-52 0 -200 -5l-161 -6v124q10 1 29 3t27 3.5t18 4.5t14 10t4 17q0 4 -4 22l-70 217h-336l-40 -134q-14 -45 -14 -83q0 -18 15 -30t32 -16t50 -9l-25 -129q-115 11 -307 11q-235 0 -342 -11l37 133
l26 4q64 10 88 34t49 90q61 164 127.5 336.5t110 281.5t111 278t95.5 241h183q105 0 164 -17t78 -69q424 -1142 426 -1153l140 -20l26 -139q-338 11 -351 11zM804 1006h-4l-131 -463h264q-16 55 -62 222t-67 241z" />
    <glyph glyph-name="Aacute" unicode="&#xc1;" horiz-adv-x="1669" 
d="M1318 0q-52 0 -200 -5l-161 -6v124q10 1 29 3t27 3.5t18 4.5t14 10t4 17q0 4 -4 22l-70 217h-336l-40 -134q-14 -45 -14 -83q0 -18 15 -30t32 -16t50 -9l-25 -129q-115 11 -307 11q-235 0 -342 -11l37 133l26 4q64 10 88 34t49 90q61 164 127.5 336.5t110 281.5t111 278
t95.5 241h183q105 0 164 -17t78 -69q424 -1142 426 -1153l140 -20l26 -139q-338 11 -351 11zM804 1006h-4l-131 -463h264q-16 55 -62 222t-67 241zM797 1506h-235l150 369h395z" />
    <glyph glyph-name="Acircumflex" unicode="&#xc2;" horiz-adv-x="1669" 
d="M1318 0q-52 0 -200 -5l-161 -6v124q10 1 29 3t27 3.5t18 4.5t14 10t4 17q0 4 -4 22l-70 217h-336l-40 -134q-14 -45 -14 -83q0 -18 15 -30t32 -16t50 -9l-25 -129q-115 11 -307 11q-235 0 -342 -11l37 133l26 4q64 10 88 34t49 90q61 164 127.5 336.5t110 281.5t111 278
t95.5 241h183q105 0 164 -17t78 -69q424 -1142 426 -1153l140 -20l26 -139q-338 11 -351 11zM804 1006h-4l-131 -463h264q-16 55 -62 222t-67 241zM739 1539h-218q-49 0 -49 24t19 54l172 271h342l154 -244q2 -4 8.5 -13.5t9 -13.5t7.5 -12.5t7 -14t3.5 -13t1.5 -14.5
q0 -24 -50 -24h-207l-105 174z" />
    <glyph glyph-name="Atilde" unicode="&#xc3;" horiz-adv-x="1669" 
d="M1318 0q-52 0 -200 -5l-161 -6v124q10 1 29 3t27 3.5t18 4.5t14 10t4 17q0 4 -4 22l-70 217h-336l-40 -134q-14 -45 -14 -83q0 -18 15 -30t32 -16t50 -9l-25 -129q-115 11 -307 11q-235 0 -342 -11l37 133l26 4q64 10 88 34t49 90q61 164 127.5 336.5t110 281.5t111 278
t95.5 241h183q105 0 164 -17t78 -69q424 -1142 426 -1153l140 -20l26 -139q-338 11 -351 11zM804 1006h-4l-131 -463h264q-16 55 -62 222t-67 241zM692 1892q86 0 211 -67q65 -35 87 -35q65 0 115 108l127 -59q-60 -112 -121.5 -166.5t-134.5 -54.5q-50 0 -96 16t-109 49
q-73 38 -99 38q-32 0 -56 -23.5t-65 -82.5l-115 60q98 217 256 217z" />
    <glyph glyph-name="Adieresis" unicode="&#xc4;" horiz-adv-x="1669" 
d="M1318 0q-52 0 -200 -5l-161 -6v124q10 1 29 3t27 3.5t18 4.5t14 10t4 17q0 4 -4 22l-70 217h-336l-40 -134q-14 -45 -14 -83q0 -18 15 -30t32 -16t50 -9l-25 -129q-115 11 -307 11q-235 0 -342 -11l37 133l26 4q64 10 88 34t49 90q61 164 127.5 336.5t110 281.5t111 278
t95.5 241h183q105 0 164 -17t78 -69q424 -1142 426 -1153l140 -20l26 -139q-338 11 -351 11zM804 1006h-4l-131 -463h264q-16 55 -62 222t-67 241zM752 1650q0 -72 -45 -114.5t-120 -42.5t-120 42.5t-45 114.5q0 68 47 111.5t118 43.5q72 0 118.5 -43t46.5 -112zM1247 1650
q0 -72 -45 -114.5t-120 -42.5t-120 42.5t-45 114.5q0 68 47 111.5t118 43.5q72 0 118.5 -43t46.5 -112z" />
    <glyph glyph-name="Aring" unicode="&#xc5;" horiz-adv-x="1669" 
d="M1318 0q-52 0 -200 -5l-161 -6v124q10 1 29 3t27 3.5t18 4.5t14 10t4 17q0 4 -4 22l-70 217h-336l-40 -134q-14 -45 -14 -83q0 -18 15 -30t32 -16t50 -9l-25 -129q-115 11 -307 11q-235 0 -342 -11l37 133l26 4q64 10 88 34t49 90q61 164 127.5 336.5t110 281.5t111 278
t95.5 241h183q105 0 164 -17t78 -69q424 -1142 426 -1153l140 -20l26 -139q-338 11 -351 11zM804 1006h-4l-131 -463h264q-16 55 -62 222t-67 241zM715 1691q0 -54 32.5 -85t86.5 -31t86.5 31t32.5 85q0 51 -32.5 82t-86.5 31t-86.5 -31t-32.5 -82zM834 1502
q-91 0 -147.5 51t-56.5 138q0 84 57.5 134.5t146.5 50.5t146.5 -50.5t57.5 -134.5q0 -86 -56.5 -137.5t-147.5 -51.5z" />
    <glyph glyph-name="AE" unicode="&#xc6;" horiz-adv-x="2173" 
d="M1835 -1l-525 1q-52 0 -200 -5l-161 -6v124l68 9q26 3 26 24q0 6 -6 27l-70 217h-336l-40 -134q-14 -46 -14 -79q0 -17 8 -28.5t25.5 -17.5t28.5 -8t35 -5l-25 -129q-115 11 -307 11q-235 0 -342 -11l37 133l26 4q50 8 75.5 24t40.5 51l22 54q40 97 184 471t259 661h1039
l172 -321l-212 -28q-42 82 -95 147q-136 18 -219 18h-217l156 -426h173q17 0 22.5 10t5.5 35q0 34 -9 89h151l159 -435q-19 -1 -56 -1h-95q-47 82 -71.5 113t-49.5 31h-173l165 -452h280q82 0 117 13q0 15 -1.5 28t-4 28t-4.5 23t-6.5 27.5t-6.5 27.5l-11 47q91 -2 267 -2
q47 -133 113 -345q-229 -15 -398 -15zM776 949l-115 -406h263z" />
    <glyph glyph-name="Ccedilla" unicode="&#xc7;" horiz-adv-x="1522" 
d="M898 158q77 0 146 11t136.5 35t114.5 45.5t120 58.5l25 -196q-250 -147 -568 -147q-354 0 -556.5 183.5t-202.5 511.5q0 363 205 557.5t576 194.5q142 0 279 -33.5t246 -99.5l-23 -277h-329l-27 69q-11 27 -18 44t-21.5 43t-29 41t-36 27t-45.5 12q-157 0 -240.5 -136
t-83.5 -401t83.5 -404t248.5 -139zM978 -272q0 -110 -68 -168t-190 -58q-112 0 -177 41v91q79 -24 134 -24q61 0 97.5 25.5t36.5 73.5q0 97 -100 113q-5 0 -37 -8q-8 6 -51 23l85 174h101l-56 -107q113 -6 169 -46.5t56 -129.5z" />
    <glyph glyph-name="Egrave" unicode="&#xc8;" horiz-adv-x="1463" 
d="M57 1203v160q371 24 684 24q554 0 595 1l55 -322l-223 -28q-11 82 -41 147q-126 18 -212 18h-217v-426h173q15 0 25.5 8.5t17 25t10.5 31t8 37t7 32.5h151v-435q-19 -1 -56 -1h-95q-18 86 -32 115t-36 29h-173v-452h280q82 0 121 13q12 37 32 181q85 -2 267 -2
q-6 -231 -13 -345q-235 -15 -404 -15q-709 0 -924 2v166h207q5 38 5 78v866q0 54 -5 92h-207zM992 1505h-235l-286 370h371z" />
    <glyph glyph-name="Eacute" unicode="&#xc9;" horiz-adv-x="1463" 
d="M57 1203v160q371 24 684 24q554 0 595 1l55 -322l-223 -28q-11 82 -41 147q-126 18 -212 18h-217v-426h173q15 0 25.5 8.5t17 25t10.5 31t8 37t7 32.5h151v-435q-19 -1 -56 -1h-95q-18 86 -32 115t-36 29h-173v-452h280q82 0 121 13q12 37 32 181q85 -2 267 -2
q-6 -231 -13 -345q-235 -15 -404 -15q-709 0 -924 2v166h207q5 38 5 78v866q0 54 -5 92h-207zM694 1506h-235l150 369h395z" />
    <glyph glyph-name="Ecircumflex" unicode="&#xca;" horiz-adv-x="1463" 
d="M57 1203v160q371 24 684 24q554 0 595 1l55 -322l-223 -28q-11 82 -41 147q-126 18 -212 18h-217v-426h173q15 0 25.5 8.5t17 25t10.5 31t8 37t7 32.5h151v-435q-19 -1 -56 -1h-95q-18 86 -32 115t-36 29h-173v-452h280q82 0 121 13q12 37 32 181q85 -2 267 -2
q-6 -231 -13 -345q-235 -15 -404 -15q-709 0 -924 2v166h207q5 38 5 78v866q0 54 -5 92h-207zM636 1539h-218q-49 0 -49 24t19 54l172 271h342l154 -244q2 -4 8.5 -13.5t9 -13.5t7.5 -12.5t7 -14t3.5 -13t1.5 -14.5q0 -24 -50 -24h-207l-105 174z" />
    <glyph glyph-name="Edieresis" unicode="&#xcb;" horiz-adv-x="1463" 
d="M57 1203v160q371 24 684 24q554 0 595 1l55 -322l-223 -28q-11 82 -41 147q-126 18 -212 18h-217v-426h173q15 0 25.5 8.5t17 25t10.5 31t8 37t7 32.5h151v-435q-19 -1 -56 -1h-95q-18 86 -32 115t-36 29h-173v-452h280q82 0 121 13q12 37 32 181q85 -2 267 -2
q-6 -231 -13 -345q-235 -15 -404 -15q-709 0 -924 2v166h207q5 38 5 78v866q0 54 -5 92h-207zM649 1650q0 -72 -45 -114.5t-120 -42.5t-120 42.5t-45 114.5q0 68 47 111.5t118 43.5q72 0 118.5 -43t46.5 -112zM1144 1650q0 -72 -45 -114.5t-120 -42.5t-120 42.5t-45 114.5
q0 68 47 111.5t118 43.5q72 0 118.5 -43t46.5 -112z" />
    <glyph glyph-name="Igrave" unicode="&#xcc;" horiz-adv-x="928" 
d="M477 0q-167 0 -420 -11v178h186q6 27 6 92v864q0 59 -5 92h-187v162q211 22 389 22q264 0 425 -16v-168h-188q-5 -38 -5 -92v-864q0 -50 5 -92h188v-178q-234 11 -394 11zM725 1505h-235l-286 370h371z" />
    <glyph glyph-name="Iacute" unicode="&#xcd;" horiz-adv-x="928" 
d="M477 0q-167 0 -420 -11v178h186q6 27 6 92v864q0 59 -5 92h-187v162q211 22 389 22q264 0 425 -16v-168h-188q-5 -38 -5 -92v-864q0 -50 5 -92h188v-178q-234 11 -394 11zM427 1506h-235l150 369h395z" />
    <glyph glyph-name="Icircumflex" unicode="&#xce;" horiz-adv-x="928" 
d="M477 0q-167 0 -420 -11v178h186q6 27 6 92v864q0 59 -5 92h-187v162q211 22 389 22q264 0 425 -16v-168h-188q-5 -38 -5 -92v-864q0 -50 5 -92h188v-178q-234 11 -394 11zM369 1539h-218q-49 0 -49 24t19 54l172 271h342l154 -244q2 -4 8.5 -13.5t9 -13.5t7.5 -12.5
t7 -14t3.5 -13t1.5 -14.5q0 -24 -50 -24h-207l-105 174z" />
    <glyph glyph-name="Idieresis" unicode="&#xcf;" horiz-adv-x="928" 
d="M477 0q-167 0 -420 -11v178h186q6 27 6 92v864q0 59 -5 92h-187v162q211 22 389 22q264 0 425 -16v-168h-188q-5 -38 -5 -92v-864q0 -50 5 -92h188v-178q-234 11 -394 11zM382 1650q0 -72 -45 -114.5t-120 -42.5t-120 42.5t-45 114.5q0 68 47 111.5t118 43.5
q72 0 118.5 -43t46.5 -112zM877 1650q0 -72 -45 -114.5t-120 -42.5t-120 42.5t-45 114.5q0 68 47 111.5t118 43.5q72 0 118.5 -43t46.5 -112z" />
    <glyph glyph-name="Eth" unicode="&#xd0;" horiz-adv-x="1711" 
d="M173 787h761v-79q0 -33 -29 -59.5t-91 -26.5h-756v79q0 86 115 86zM820 1387q388 0 583 -171.5t195 -533.5q0 -178 -57.5 -310t-165 -213t-252.5 -120t-330 -39h-728v151h190l1 3q0 4 0.5 10.5t1 15.5t1 20.5t1 23.5t1 26.5t0.5 27.5v815q0 68 -9 113h-195v160
q339 21 763 21zM1147 689q0 101 -9 176.5t-33 143.5t-64 110.5t-104 67t-152 24.5q-3 0 -13 -0.5t-31 -0.5h-51v-1039q12 -1 34 -1q97 0 170.5 23.5t121 66.5t77.5 108.5t42 143t12 177.5z" />
    <glyph glyph-name="Ntilde" unicode="&#xd1;" horiz-adv-x="1754" 
d="M432 0q-160 0 -375 -13v180h206q6 26 6 92v864q0 54 -5 92h-207v155q203 29 414 29q102 0 213 -22q218 -332 525 -782v528q0 68 -8 94h-204v164q116 18 334 18q200 0 366 -13v-169h-182q-5 -32 -5 -92v-1125h-233q-70 0 -175 11l-500 780v-529q0 -14 3 -52t3 -43h198
v-180q-221 13 -374 13zM735 1892q86 0 211 -67q65 -35 87 -35q65 0 115 108l127 -59q-60 -112 -121.5 -166.5t-134.5 -54.5q-50 0 -96 16t-109 49q-73 38 -99 38q-32 0 -56 -23.5t-65 -82.5l-115 60q98 217 256 217z" />
    <glyph glyph-name="Ograve" unicode="&#xd2;" horiz-adv-x="1687" 
d="M565 686q0 -254 70 -386.5t209 -132.5q135 0 207 130.5t72 391.5q0 264 -71.5 399t-207.5 135q-134 0 -206.5 -135t-72.5 -402zM1574 689q0 -335 -195.5 -523t-534.5 -188q-342 0 -536.5 190.5t-194.5 520.5q0 342 194.5 532.5t536.5 190.5q343 0 536.5 -193t193.5 -530z
M1104 1505h-235l-286 370h371z" />
    <glyph glyph-name="Oacute" unicode="&#xd3;" horiz-adv-x="1687" 
d="M565 686q0 -254 70 -386.5t209 -132.5q135 0 207 130.5t72 391.5q0 264 -71.5 399t-207.5 135q-134 0 -206.5 -135t-72.5 -402zM1574 689q0 -335 -195.5 -523t-534.5 -188q-342 0 -536.5 190.5t-194.5 520.5q0 342 194.5 532.5t536.5 190.5q343 0 536.5 -193t193.5 -530z
M806 1506h-235l150 369h395z" />
    <glyph glyph-name="Ocircumflex" unicode="&#xd4;" horiz-adv-x="1687" 
d="M565 686q0 -254 70 -386.5t209 -132.5q135 0 207 130.5t72 391.5q0 264 -71.5 399t-207.5 135q-134 0 -206.5 -135t-72.5 -402zM1574 689q0 -335 -195.5 -523t-534.5 -188q-342 0 -536.5 190.5t-194.5 520.5q0 342 194.5 532.5t536.5 190.5q343 0 536.5 -193t193.5 -530z
M748 1539h-218q-49 0 -49 24t19 54l172 271h342l154 -244q2 -4 8.5 -13.5t9 -13.5t7.5 -12.5t7 -14t3.5 -13t1.5 -14.5q0 -24 -50 -24h-207l-105 174z" />
    <glyph glyph-name="Otilde" unicode="&#xd5;" horiz-adv-x="1687" 
d="M565 686q0 -254 70 -386.5t209 -132.5q135 0 207 130.5t72 391.5q0 264 -71.5 399t-207.5 135q-134 0 -206.5 -135t-72.5 -402zM1574 689q0 -335 -195.5 -523t-534.5 -188q-342 0 -536.5 190.5t-194.5 520.5q0 342 194.5 532.5t536.5 190.5q343 0 536.5 -193t193.5 -530z
M701 1892q86 0 211 -67q65 -35 87 -35q65 0 115 108l127 -59q-60 -112 -121.5 -166.5t-134.5 -54.5q-50 0 -96 16t-109 49q-73 38 -99 38q-32 0 -56 -23.5t-65 -82.5l-115 60q98 217 256 217z" />
    <glyph glyph-name="Odieresis" unicode="&#xd6;" horiz-adv-x="1687" 
d="M565 686q0 -254 70 -386.5t209 -132.5q135 0 207 130.5t72 391.5q0 264 -71.5 399t-207.5 135q-134 0 -206.5 -135t-72.5 -402zM1574 689q0 -335 -195.5 -523t-534.5 -188q-342 0 -536.5 190.5t-194.5 520.5q0 342 194.5 532.5t536.5 190.5q343 0 536.5 -193t193.5 -530z
M761 1650q0 -72 -45 -114.5t-120 -42.5t-120 42.5t-45 114.5q0 68 47 111.5t118 43.5q72 0 118.5 -43t46.5 -112zM1256 1650q0 -72 -45 -114.5t-120 -42.5t-120 42.5t-45 114.5q0 68 47 111.5t118 43.5q72 0 118.5 -43t46.5 -112z" />
    <glyph glyph-name="multiply" unicode="&#xd7;" horiz-adv-x="1358" 
d="M166 957l182 186l330 -333l330 333l182 -186l-330 -330l330 -332l-184 -180l-328 329l-328 -329l-184 180l329 332z" />
    <glyph glyph-name="Oslash" unicode="&#xd8;" horiz-adv-x="1687" 
d="M1167 1482h75l-624 -1537q-15 -36 -75 -36h-74l621 1528q8 25 25.5 35t51.5 10zM565 686q0 -254 70 -386.5t209 -132.5q135 0 207 130.5t72 391.5q0 264 -71.5 399t-207.5 135q-134 0 -206.5 -135t-72.5 -402zM1574 689q0 -335 -195.5 -523t-534.5 -188
q-342 0 -536.5 190.5t-194.5 520.5q0 342 194.5 532.5t536.5 190.5q343 0 536.5 -193t193.5 -530z" />
    <glyph glyph-name="Ugrave" unicode="&#xd9;" horiz-adv-x="1717" 
d="M1684 1215h-188q-5 -38 -5 -92v-609q0 -138 -51 -243.5t-141 -168t-203 -93.5t-246 -31q-314 0 -469.5 148t-155.5 452v545q0 59 -5 92h-187v172q230 12 413 12q263 0 374 -12v-172h-158q-7 -46 -7 -92v-613q0 -159 58 -251t165 -92q54 0 94.5 21.5t65.5 57.5t40 89.5
t21 111.5t6 130v546q0 59 -5 92h-147v172q171 12 365 12q249 0 366 -12v-172zM1119 1505h-235l-286 370h371z" />
    <glyph glyph-name="Uacute" unicode="&#xda;" horiz-adv-x="1717" 
d="M1030 1535h-235l150 369h302q89 0 93 -54zM1684 1215h-188q-5 -38 -5 -92v-609q0 -138 -51 -243.5t-141 -168t-203 -93.5t-246 -31q-314 0 -469.5 148t-155.5 452v545q0 59 -5 92h-187v172q230 12 413 12q263 0 374 -12v-172h-158q-7 -46 -7 -92v-613q0 -159 58 -251
t165 -92q54 0 94.5 21.5t65.5 57.5t40 89.5t21 111.5t6 130v546q0 59 -5 92h-147v172q171 12 365 12q249 0 366 -12v-172z" />
    <glyph glyph-name="Ucircumflex" unicode="&#xdb;" horiz-adv-x="1717" 
d="M818 1534h-218q-49 0 -49 24q0 35 19 54l172 271h342l154 -244q2 -4 8.5 -13.5t9 -13.5t7.5 -12.5t7 -14t3.5 -13t1.5 -14.5q0 -24 -50 -24h-207l-105 174zM1684 1215h-188q-5 -38 -5 -92v-609q0 -138 -51 -243.5t-141 -168t-203 -93.5t-246 -31q-314 0 -469.5 148
t-155.5 452v545q0 59 -5 92h-187v172q230 12 413 12q263 0 374 -12v-172h-158q-7 -46 -7 -92v-613q0 -159 58 -251t165 -92q54 0 94.5 21.5t65.5 57.5t40 89.5t21 111.5t6 130v546q0 59 -5 92h-147v172q171 12 365 12q249 0 366 -12v-172z" />
    <glyph glyph-name="Udieresis" unicode="&#xdc;" horiz-adv-x="1717" 
d="M830 1691q0 -72 -45 -114.5t-120 -42.5t-120 42.5t-45 114.5q0 68 47 111.5t118 43.5q72 0 118.5 -43t46.5 -112zM1325 1691q0 -72 -45 -114.5t-120 -42.5t-120 42.5t-45 114.5q0 68 47 111.5t118 43.5q72 0 118.5 -43t46.5 -112zM1684 1215h-188q-5 -38 -5 -92v-609
q0 -138 -51 -243.5t-141 -168t-203 -93.5t-246 -31q-314 0 -469.5 148t-155.5 452v545q0 59 -5 92h-187v172q230 12 413 12q263 0 374 -12v-172h-158q-7 -46 -7 -92v-613q0 -159 58 -251t165 -92q54 0 94.5 21.5t65.5 57.5t40 89.5t21 111.5t6 130v546q0 59 -5 92h-147v172
q171 12 365 12q249 0 366 -12v-172z" />
    <glyph glyph-name="Yacute" unicode="&#xdd;" horiz-adv-x="1576" 
d="M961 1535h-235l150 369h302q88 0 93 -54zM403 147h186q5 32 5 70v275l-377 631q-9 16 -18 33t-14 26.5t-10 18t-10.5 11.5t-13.5 3h-127l-24 172q196 12 366 12h104q163 0 286 -12l15 -172h-128q30 -84 32 -87l208 -376l176 371q13 26 22 92h-156l35 172q124 12 287 12
h74q119 0 255 -12l-24 -172h-147q-7 -10 -46 -92q-1 -2 -9.5 -17.5t-31 -56.5t-56 -102.5t-95.5 -176t-140 -257.5v-274q0 -50 5 -92h188v-158q-234 11 -397 11q-167 0 -420 -11v158z" />
    <glyph glyph-name="Thorn" unicode="&#xde;" horiz-adv-x="1307" 
d="M1361 718q0 -427 -649 -427q-16 0 -32 2v-99q0 -33 6 -47h188v-137q-184 -26 -428 -26q-181 0 -389 31v132h186q6 27 6 92v904q0 54 -5 92h-187v132q239 32 419 32q231 0 398 -26v-138h-187q-6 -25 -6 -91h75q107 0 193.5 -12t164.5 -42t130.5 -78t84 -122t32.5 -172z
M924 717q0 129 -48.5 191t-160.5 62h-36v-502q7 -1 18 -1h19q108 0 158 63t50 187z" />
    <glyph glyph-name="germandbls" unicode="&#xdf;" horiz-adv-x="1474" 
d="M794 1271q-46 0 -79 -18.5t-52 -47t-30.5 -72.5t-15 -86.5t-3.5 -97.5v-949h-58q-207 0 -554 -11v178h186q6 27 6 92v587h-151q0 61 21 85.5t75 24.5h55q6 147 80.5 251t197 154.5t283.5 50.5q265 0 408 -91t143 -269q0 -63 -18.5 -103t-70.5 -105q-60 23 -116 23
q-52 0 -82.5 -23.5t-30.5 -67.5q0 -65 38 -94t123 -53l15 -4q146 -40 224 -111t78 -201q0 -69 -26 -126.5t-68.5 -95.5t-99.5 -64t-117 -37.5t-122 -11.5q-129 0 -334 41l40 286l135 -52q9 -53 42 -85.5t81 -32.5q53 0 84.5 38t31.5 97q0 44 -35.5 78t-131.5 95
q-139 88 -189.5 153t-50.5 163q0 114 45.5 163t148.5 71q25 21 41 57.5t16 77.5q0 69 -43 106t-120 37z" />
    <glyph glyph-name="agrave" unicode="&#xe0;" horiz-adv-x="1338" 
d="M698 464h-30q-77 0 -121 -49.5t-44 -132.5q0 -75 23 -109.5t61 -34.5q49 0 111 53v273zM1272 146v-113q-191 -43 -417 -43q-75 51 -120 112q-118 -124 -285 -124q-164 0 -261 77t-97 219q0 309 586 309h20v34q0 128 -11.5 183t-40.5 55q-57 0 -131 -59t-156 -165
l-241 154q0 63 75.5 115t186.5 78.5t227 26.5q256 0 383 -92t127 -312q0 -15 -0.5 -65t-0.5 -85v-177q0 -94 5 -126q42 -2 67 -2h84zM929 1112h-235l-286 370h371z" />
    <glyph glyph-name="aacute" unicode="&#xe1;" horiz-adv-x="1338" 
d="M698 464h-30q-77 0 -121 -49.5t-44 -132.5q0 -75 23 -109.5t61 -34.5q49 0 111 53v273zM1272 146v-113q-191 -43 -417 -43q-75 51 -120 112q-118 -124 -285 -124q-164 0 -261 77t-97 219q0 309 586 309h20v34q0 128 -11.5 183t-40.5 55q-57 0 -131 -59t-156 -165
l-241 154q0 63 75.5 115t186.5 78.5t227 26.5q256 0 383 -92t127 -312q0 -15 -0.5 -65t-0.5 -85v-177q0 -94 5 -126q42 -2 67 -2h84zM631 1113h-235l150 369h395z" />
    <glyph glyph-name="acircumflex" unicode="&#xe2;" horiz-adv-x="1338" 
d="M698 464h-30q-77 0 -121 -49.5t-44 -132.5q0 -75 23 -109.5t61 -34.5q49 0 111 53v273zM1272 146v-113q-191 -43 -417 -43q-75 51 -120 112q-118 -124 -285 -124q-164 0 -261 77t-97 219q0 309 586 309h20v34q0 128 -11.5 183t-40.5 55q-57 0 -131 -59t-156 -165
l-241 154q0 63 75.5 115t186.5 78.5t227 26.5q256 0 383 -92t127 -312q0 -15 -0.5 -65t-0.5 -85v-177q0 -94 5 -126q42 -2 67 -2h84zM574 1146h-218q-49 0 -49 24t19 54l172 271h342l154 -244q2 -4 8.5 -13.5t9 -13.5t7.5 -12.5t7 -14t3.5 -13t1.5 -14.5q0 -24 -50 -24h-207
l-105 174z" />
    <glyph glyph-name="atilde" unicode="&#xe3;" horiz-adv-x="1338" 
d="M698 464h-30q-77 0 -121 -49.5t-44 -132.5q0 -75 23 -109.5t61 -34.5q49 0 111 53v273zM1272 146v-113q-191 -43 -417 -43q-75 51 -120 112q-118 -124 -285 -124q-164 0 -261 77t-97 219q0 309 586 309h20v34q0 128 -11.5 183t-40.5 55q-57 0 -131 -59t-156 -165
l-241 154q0 63 75.5 115t186.5 78.5t227 26.5q256 0 383 -92t127 -312q0 -15 -0.5 -65t-0.5 -85v-177q0 -94 5 -126q42 -2 67 -2h84zM527 1499q86 0 211 -67q65 -35 87 -35q65 0 115 108l127 -59q-60 -112 -121.5 -166.5t-134.5 -54.5q-50 0 -96 16t-109 49q-73 38 -99 38
q-32 0 -56 -23.5t-65 -82.5l-115 60q98 217 256 217z" />
    <glyph glyph-name="adieresis" unicode="&#xe4;" horiz-adv-x="1338" 
d="M698 464h-30q-77 0 -121 -49.5t-44 -132.5q0 -75 23 -109.5t61 -34.5q49 0 111 53v273zM1272 146v-113q-191 -43 -417 -43q-75 51 -120 112q-118 -124 -285 -124q-164 0 -261 77t-97 219q0 309 586 309h20v34q0 128 -11.5 183t-40.5 55q-57 0 -131 -59t-156 -165
l-241 154q0 63 75.5 115t186.5 78.5t227 26.5q256 0 383 -92t127 -312q0 -15 -0.5 -65t-0.5 -85v-177q0 -94 5 -126q42 -2 67 -2h84zM587 1257q0 -72 -45 -114.5t-120 -42.5t-120 42.5t-45 114.5q0 68 47 111.5t118 43.5q72 0 118.5 -43t46.5 -112zM1082 1257
q0 -72 -45 -114.5t-120 -42.5t-120 42.5t-45 114.5q0 68 47 111.5t118 43.5q72 0 118.5 -43t46.5 -112z" />
    <glyph glyph-name="aring" unicode="&#xe5;" horiz-adv-x="1338" 
d="M698 464h-30q-77 0 -121 -49.5t-44 -132.5q0 -75 23 -109.5t61 -34.5q49 0 111 53v273zM1272 146v-113q-191 -43 -417 -43q-75 51 -120 112q-118 -124 -285 -124q-164 0 -261 77t-97 219q0 309 586 309h20v34q0 128 -11.5 183t-40.5 55q-57 0 -131 -59t-156 -165
l-241 154q0 63 75.5 115t186.5 78.5t227 26.5q256 0 383 -92t127 -312q0 -15 -0.5 -65t-0.5 -85v-177q0 -94 5 -126q42 -2 67 -2h84zM550 1298q0 -54 32.5 -85t86.5 -31t86.5 31t32.5 85q0 51 -32.5 82t-86.5 31t-86.5 -31t-32.5 -82zM669 1109q-91 0 -147.5 51t-56.5 138
q0 84 57.5 134.5t146.5 50.5t146.5 -50.5t57.5 -134.5q0 -86 -56.5 -137.5t-147.5 -51.5z" />
    <glyph glyph-name="ae" unicode="&#xe6;" horiz-adv-x="1792" 
d="M1423 169q125 0 280 76l18 -150q-163 -117 -424 -117q-251 0 -412 116q-227 -116 -405 -116q-175 0 -281.5 77t-106.5 219q0 309 586 309h20v34q0 128 -11.5 183t-40.5 55q-57 0 -131 -59t-156 -165l-241 154q0 63 75.5 115t186.5 78.5t227 26.5q233 0 358 -105
q143 105 336 105q209 0 339.5 -105.5t130.5 -284.5q0 -105 -50 -139t-181 -34h-413q24 -130 98 -201.5t198 -71.5zM698 464h-30q-77 0 -121 -49.5t-44 -132.5q0 -144 114 -144q68 0 185 35q-93 114 -103 287zM1126 590h254v18q0 105 -31.5 171t-87.5 66q-111 0 -135 -255z
" />
    <glyph glyph-name="ccedilla" unicode="&#xe7;" horiz-adv-x="1201" 
d="M717 147q109 0 197 28t187 90l17 -160q-172 -127 -424 -127q-273 0 -435.5 134.5t-162.5 373.5q0 106 33.5 193.5t91 147t136 100.5t166.5 59.5t185 18.5q264 0 418 -133l-17 -198h-271q-44 86 -79 124t-69 38q-74 0 -121 -83.5t-47 -236.5q0 -178 50 -273.5t145 -95.5z
M818 -272q0 -110 -68 -168t-190 -58q-112 0 -177 41v91q79 -24 134 -24q61 0 97.5 25.5t36.5 73.5q0 97 -100 113q-5 0 -37 -8q-8 6 -51 23l85 174h101l-56 -107q113 -6 169 -46.5t56 -129.5z" />
    <glyph glyph-name="egrave" unicode="&#xe8;" horiz-adv-x="1255" 
d="M524 590h254v18q0 105 -31.5 171t-87.5 66q-111 0 -135 -255zM821 169q125 0 280 76l18 -150q-163 -117 -424 -117q-278 0 -438.5 137t-160.5 384q0 224 166 365t437 141q209 0 339.5 -105.5t130.5 -284.5q0 -105 -50 -139t-181 -34h-413q24 -130 98 -201.5t198 -71.5z
M888 1112h-235l-286 370h371z" />
    <glyph glyph-name="eacute" unicode="&#xe9;" horiz-adv-x="1255" 
d="M524 590h254v18q0 105 -31.5 171t-87.5 66q-111 0 -135 -255zM821 169q125 0 280 76l18 -150q-163 -117 -424 -117q-278 0 -438.5 137t-160.5 384q0 224 166 365t437 141q209 0 339.5 -105.5t130.5 -284.5q0 -105 -50 -139t-181 -34h-413q24 -130 98 -201.5t198 -71.5z
M590 1113h-235l150 369h395z" />
    <glyph glyph-name="ecircumflex" unicode="&#xea;" horiz-adv-x="1255" 
d="M524 590h254v18q0 105 -31.5 171t-87.5 66q-111 0 -135 -255zM821 169q125 0 280 76l18 -150q-163 -117 -424 -117q-278 0 -438.5 137t-160.5 384q0 224 166 365t437 141q209 0 339.5 -105.5t130.5 -284.5q0 -105 -50 -139t-181 -34h-413q24 -130 98 -201.5t198 -71.5z
M532 1146h-218q-49 0 -49 24t19 54l172 271h342l154 -244q2 -4 8.5 -13.5t9 -13.5t7.5 -12.5t7 -14t3.5 -13t1.5 -14.5q0 -24 -50 -24h-207l-105 174z" />
    <glyph glyph-name="edieresis" unicode="&#xeb;" horiz-adv-x="1255" 
d="M524 590h254v18q0 105 -31.5 171t-87.5 66q-111 0 -135 -255zM821 169q125 0 280 76l18 -150q-163 -117 -424 -117q-278 0 -438.5 137t-160.5 384q0 224 166 365t437 141q209 0 339.5 -105.5t130.5 -284.5q0 -105 -50 -139t-181 -34h-413q24 -130 98 -201.5t198 -71.5z
M545 1257q0 -72 -45 -114.5t-120 -42.5t-120 42.5t-45 114.5q0 68 47 111.5t118 43.5q72 0 118.5 -43t46.5 -112zM1040 1257q0 -72 -45 -114.5t-120 -42.5t-120 42.5t-45 114.5q0 68 47 111.5t118 43.5q72 0 118.5 -43t46.5 -112z" />
    <glyph glyph-name="igrave" unicode="&#xec;" horiz-adv-x="721" 
d="M35 824v126q202 44 367 44q224 0 224 -95v-660q0 -55 9 -92h133l13 -114q-193 -44 -354 -44q-226 0 -226 106q0 19 3 93.5t3 95.5v540h-172zM621 1112h-235l-286 370h371z" />
    <glyph glyph-name="iacute" unicode="&#xed;" horiz-adv-x="721" 
d="M35 824v126q202 44 367 44q224 0 224 -95v-660q0 -55 9 -92h133l13 -114q-193 -44 -354 -44q-226 0 -226 106q0 19 3 93.5t3 95.5v540h-172zM323 1113h-235l150 369h395z" />
    <glyph glyph-name="icircumflex" unicode="&#xee;" horiz-adv-x="721" 
d="M35 824v126q202 44 367 44q224 0 224 -95v-660q0 -55 9 -92h133l13 -114q-193 -44 -354 -44q-226 0 -226 106q0 19 3 93.5t3 95.5v540h-172zM266 1146h-218q-49 0 -49 24t19 54l172 271h342l154 -244q2 -4 8.5 -13.5t9 -13.5t7.5 -12.5t7 -14t3.5 -13t1.5 -14.5
q0 -24 -50 -24h-207l-105 174z" />
    <glyph glyph-name="idieresis" unicode="&#xef;" horiz-adv-x="721" 
d="M35 824v126q202 44 367 44q224 0 224 -95v-660q0 -55 9 -92h133l13 -114q-193 -44 -354 -44q-226 0 -226 106q0 19 3 93.5t3 95.5v540h-172zM278 1257q0 -72 -45 -114.5t-120 -42.5t-120 42.5t-45 114.5q0 68 47 111.5t118 43.5q72 0 118.5 -43t46.5 -112zM773 1257
q0 -72 -45 -114.5t-120 -42.5t-120 42.5t-45 114.5q0 68 47 111.5t118 43.5q72 0 118.5 -43t46.5 -112z" />
    <glyph glyph-name="eth" unicode="&#xf0;" horiz-adv-x="1253" 
d="M322 1154l199 114q-120 59 -282 83l75 130q297 -24 432 -81l261 155l125 -149q-45 -25 -112.5 -64.5t-88.5 -50.5q303 -255 303 -691q0 -292 -155 -459t-430 -167q-259 0 -416 139t-157 374q0 101 32 184t87 140t128.5 96t155.5 57t170 18q74 0 117 -7q-38 110 -85 166
l-239 -140zM669 131q68 0 103.5 106t35.5 293q0 153 -12 223q-44 76 -147 76q-139 0 -139 -340q0 -193 35 -275.5t124 -82.5z" />
    <glyph glyph-name="ntilde" unicode="&#xf1;" horiz-adv-x="1498" 
d="M70 824v126q211 44 390 44q53 0 181 -16l5 -108q205 136 386 136q142 0 214.5 -89.5t72.5 -252.5v-416q0 -65 9 -101h133l13 -124q-190 -45 -354 -45q-226 0 -226 107q0 19 3 93t3 96v375q0 159 -87 159q-68 0 -152 -69v-506q0 -54 18.5 -74t74.5 -32l11 -138
q-288 11 -330 11q-148 0 -311 -11l6 137q70 10 91 33t21 106v559h-172zM607 1499q86 0 211 -67q65 -35 87 -35q65 0 115 108l127 -59q-60 -112 -121.5 -166.5t-134.5 -54.5q-50 0 -96 16t-109 49q-73 38 -99 38q-32 0 -56 -23.5t-65 -82.5l-115 60q98 217 256 217z" />
    <glyph glyph-name="ograve" unicode="&#xf2;" horiz-adv-x="1378" 
d="M1282 488q0 -104 -33 -189.5t-89 -144t-132 -99t-161 -59t-177 -18.5q-175 0 -309 61t-209.5 177.5t-75.5 271.5q0 105 33 191.5t89.5 146t133 100.5t161.5 60t177 19q264 0 428 -140.5t164 -376.5zM530 489q0 -174 39 -258t120 -84q84 0 121.5 85t37.5 257
q0 178 -38.5 262.5t-120.5 84.5q-84 0 -121.5 -84t-37.5 -263zM949 1112h-235l-286 370h371z" />
    <glyph glyph-name="oacute" unicode="&#xf3;" horiz-adv-x="1378" 
d="M1282 488q0 -104 -33 -189.5t-89 -144t-132 -99t-161 -59t-177 -18.5q-175 0 -309 61t-209.5 177.5t-75.5 271.5q0 105 33 191.5t89.5 146t133 100.5t161.5 60t177 19q264 0 428 -140.5t164 -376.5zM530 489q0 -174 39 -258t120 -84q84 0 121.5 85t37.5 257
q0 178 -38.5 262.5t-120.5 84.5q-84 0 -121.5 -84t-37.5 -263zM651 1113h-235l150 369h395z" />
    <glyph glyph-name="ocircumflex" unicode="&#xf4;" horiz-adv-x="1378" 
d="M1282 488q0 -104 -33 -189.5t-89 -144t-132 -99t-161 -59t-177 -18.5q-175 0 -309 61t-209.5 177.5t-75.5 271.5q0 105 33 191.5t89.5 146t133 100.5t161.5 60t177 19q264 0 428 -140.5t164 -376.5zM530 489q0 -174 39 -258t120 -84q84 0 121.5 85t37.5 257
q0 178 -38.5 262.5t-120.5 84.5q-84 0 -121.5 -84t-37.5 -263zM594 1146h-218q-49 0 -49 24t19 54l172 271h342l154 -244q2 -4 8.5 -13.5t9 -13.5t7.5 -12.5t7 -14t3.5 -13t1.5 -14.5q0 -24 -50 -24h-207l-105 174z" />
    <glyph glyph-name="otilde" unicode="&#xf5;" horiz-adv-x="1378" 
d="M1282 488q0 -104 -33 -189.5t-89 -144t-132 -99t-161 -59t-177 -18.5q-175 0 -309 61t-209.5 177.5t-75.5 271.5q0 105 33 191.5t89.5 146t133 100.5t161.5 60t177 19q264 0 428 -140.5t164 -376.5zM530 489q0 -174 39 -258t120 -84q84 0 121.5 85t37.5 257
q0 178 -38.5 262.5t-120.5 84.5q-84 0 -121.5 -84t-37.5 -263zM547 1499q86 0 211 -67q65 -35 87 -35q65 0 115 108l127 -59q-60 -112 -121.5 -166.5t-134.5 -54.5q-50 0 -96 16t-109 49q-73 38 -99 38q-32 0 -56 -23.5t-65 -82.5l-115 60q98 217 256 217z" />
    <glyph glyph-name="odieresis" unicode="&#xf6;" horiz-adv-x="1378" 
d="M1282 488q0 -104 -33 -189.5t-89 -144t-132 -99t-161 -59t-177 -18.5q-175 0 -309 61t-209.5 177.5t-75.5 271.5q0 105 33 191.5t89.5 146t133 100.5t161.5 60t177 19q264 0 428 -140.5t164 -376.5zM530 489q0 -174 39 -258t120 -84q84 0 121.5 85t37.5 257
q0 178 -38.5 262.5t-120.5 84.5q-84 0 -121.5 -84t-37.5 -263zM606 1257q0 -72 -45 -114.5t-120 -42.5t-120 42.5t-45 114.5q0 68 47 111.5t118 43.5q72 0 118.5 -43t46.5 -112zM1101 1257q0 -72 -45 -114.5t-120 -42.5t-120 42.5t-45 114.5q0 68 47 111.5t118 43.5
q72 0 118.5 -43t46.5 -112z" />
    <glyph glyph-name="divide" unicode="&#xf7;" horiz-adv-x="1058" 
d="M687 859q0 -69 -42 -109.5t-114 -40.5t-114 40.5t-42 109.5q0 66 43.5 106.5t112.5 40.5q68 0 112 -41t44 -106zM683 149q0 -69 -42 -109t-114 -40t-114 40t-42 109q0 66 43.5 106.5t112.5 40.5t112.5 -40.5t43.5 -106.5zM925 590v-75q0 -44 -20 -72t-56 -28h-716v91
q0 50 23 67t84 17h685z" />
    <glyph glyph-name="oslash" unicode="&#xf8;" horiz-adv-x="1378" 
d="M931 1115h75l-454 -1210q-14 -36 -75 -36h-74l451 1201q9 24 26.5 34.5t50.5 10.5zM1282 488q0 -104 -33 -189.5t-89 -144t-132 -99t-161 -59t-177 -18.5q-175 0 -309 61t-209.5 177.5t-75.5 271.5q0 105 33 191.5t89.5 146t133 100.5t161.5 60t177 19q264 0 428 -140.5
t164 -376.5zM530 489q0 -174 39 -258t120 -84q84 0 121.5 85t37.5 257q0 178 -38.5 262.5t-120.5 84.5q-84 0 -121.5 -84t-37.5 -263z" />
    <glyph glyph-name="ugrave" unicode="&#xf9;" horiz-adv-x="1366" 
d="M658 824l-11 126q193 44 355 44q93 0 151 -23.5t58 -71.5v-627q0 -91 8 -125h152v-112q-202 -46 -373 -46q-53 0 -84.5 3.5t-60.5 15.5t-42.5 36.5t-15.5 64.5q-170 -131 -335 -131q-148 0 -235 85.5t-87 232.5v528h-142l-13 126q199 44 360 44q101 0 157.5 -24t56.5 -71
v-621q2 -29 3.5 -43.5t7 -38.5t18.5 -35t32 -11q40 0 90 23.5t79 52.5q3 39 3 151q0 36 1 447h-133zM943 1112h-235l-286 370h371z" />
    <glyph glyph-name="uacute" unicode="&#xfa;" horiz-adv-x="1366" 
d="M658 824l-11 126q193 44 355 44q93 0 151 -23.5t58 -71.5v-627q0 -91 8 -125h152v-112q-202 -46 -373 -46q-53 0 -84.5 3.5t-60.5 15.5t-42.5 36.5t-15.5 64.5q-170 -131 -335 -131q-148 0 -235 85.5t-87 232.5v528h-142l-13 126q199 44 360 44q101 0 157.5 -24t56.5 -71
v-621q2 -29 3.5 -43.5t7 -38.5t18.5 -35t32 -11q40 0 90 23.5t79 52.5q3 39 3 151q0 36 1 447h-133zM645 1113h-235l150 369h395z" />
    <glyph glyph-name="ucircumflex" unicode="&#xfb;" horiz-adv-x="1366" 
d="M658 824l-11 126q193 44 355 44q93 0 151 -23.5t58 -71.5v-627q0 -91 8 -125h152v-112q-202 -46 -373 -46q-53 0 -84.5 3.5t-60.5 15.5t-42.5 36.5t-15.5 64.5q-170 -131 -335 -131q-148 0 -235 85.5t-87 232.5v528h-142l-13 126q199 44 360 44q101 0 157.5 -24t56.5 -71
v-621q2 -29 3.5 -43.5t7 -38.5t18.5 -35t32 -11q40 0 90 23.5t79 52.5q3 39 3 151q0 36 1 447h-133zM588 1146h-218q-49 0 -49 24t19 54l172 271h342l154 -244q2 -4 8.5 -13.5t9 -13.5t7.5 -12.5t7 -14t3.5 -13t1.5 -14.5q0 -24 -50 -24h-207l-105 174z" />
    <glyph glyph-name="udieresis" unicode="&#xfc;" horiz-adv-x="1366" 
d="M658 824l-11 126q193 44 355 44q93 0 151 -23.5t58 -71.5v-627q0 -91 8 -125h152v-112q-202 -46 -373 -46q-53 0 -84.5 3.5t-60.5 15.5t-42.5 36.5t-15.5 64.5q-170 -131 -335 -131q-148 0 -235 85.5t-87 232.5v528h-142l-13 126q199 44 360 44q101 0 157.5 -24t56.5 -71
v-621q2 -29 3.5 -43.5t7 -38.5t18.5 -35t32 -11q40 0 90 23.5t79 52.5q3 39 3 151q0 36 1 447h-133zM600 1257q0 -72 -45 -114.5t-120 -42.5t-120 42.5t-45 114.5q0 68 47 111.5t118 43.5q72 0 118.5 -43t46.5 -112zM1095 1257q0 -72 -45 -114.5t-120 -42.5t-120 42.5
t-45 114.5q0 68 47 111.5t118 43.5q72 0 118.5 -43t46.5 -112z" />
    <glyph glyph-name="yacute" unicode="&#xfd;" horiz-adv-x="1275" 
d="M1035 994q80 0 240 -22v-148h-131l-289 -813q-29 -81 -57.5 -137t-72 -106.5t-99 -80.5t-135 -47t-183.5 -17q-143 0 -244 37l46 171q128 -48 228 -48q32 0 57.5 13.5t40.5 33.5t26.5 51.5t16.5 58t10 61.5l-361 823h-128v148q158 22 367 22q78 0 242 -22q15 -52 24 -148
h-76l144 -431q65 214 122 431h-102l21 148q166 22 293 22zM600 1113h-235l150 369h395z" />
    <glyph glyph-name="thorn" unicode="&#xfe;" horiz-adv-x="1306" 
d="M594 1298v-361q141 68 270 68q108 0 194 -42t138.5 -112.5t80 -158t27.5 -183.5q0 -128 -47 -229.5t-127.5 -163.5t-182 -94.5t-215.5 -32.5q-28 0 -138 4v-174q0 -32 0.5 -48t5 -32.5t9 -23t20 -15t29.5 -12t45 -11.5l11 -131l-115 11q-154 14 -231 14q-99 0 -311 -25
l6 133l32 5q48 7 64 25t16 76v1466h-173v113q196 48 400 48h60q83 0 107.5 -21t24.5 -93zM760 836q-63 0 -166 -47v-649q18 -2 54 -2h71q73 0 113.5 93t40.5 273q0 332 -113 332z" />
    <glyph glyph-name="ydieresis" unicode="&#xff;" horiz-adv-x="1275" 
d="M1035 994q80 0 240 -22v-148h-131l-289 -813q-29 -81 -57.5 -137t-72 -106.5t-99 -80.5t-135 -47t-183.5 -17q-143 0 -244 37l46 171q128 -48 228 -48q32 0 57.5 13.5t40.5 33.5t26.5 51.5t16.5 58t10 61.5l-361 823h-128v148q158 22 367 22q78 0 242 -22q15 -52 24 -148
h-76l144 -431q65 214 122 431h-102l21 148q166 22 293 22zM555 1257q0 -72 -45 -114.5t-120 -42.5t-120 42.5t-45 114.5q0 68 47 111.5t118 43.5q72 0 118.5 -43t46.5 -112zM1050 1257q0 -72 -45 -114.5t-120 -42.5t-120 42.5t-45 114.5q0 68 47 111.5t118 43.5
q72 0 118.5 -43t46.5 -112z" />
    <glyph glyph-name="hbar" unicode="&#x127;" horiz-adv-x="1386" 
d="M393 0q-148 0 -311 -11l5 137q70 10 91 33t21 106v781h-151v119h151v22q0 40 -3 64h-169v113q196 48 400 48h60q83 0 107.5 -21t24.5 -93v-133h147v-119h-147v-164q176 123 356 123q144 0 215 -94t71 -267v-396q0 -65 9 -101h133l13 -124q-190 -45 -354 -45
q-226 0 -226 107q0 19 3 93t3 96v349q0 38 -2 62.5t-8.5 57t-23.5 49t-44 16.5q-64 0 -145 -69v-506q0 -54 18.5 -74t74.5 -32l11 -138q-288 11 -330 11z" />
    <glyph glyph-name="Itilde" unicode="&#x128;" horiz-adv-x="928" 
d="M477 0q-167 0 -420 -11v178h186q6 27 6 92v864q0 59 -5 92h-187v162q211 22 389 22q264 0 425 -16v-168h-188q-5 -38 -5 -92v-864q0 -50 5 -92h188v-178q-234 11 -394 11zM322 1892q86 0 211 -67q65 -35 87 -35q65 0 115 108l127 -59q-60 -112 -121.5 -166.5
t-134.5 -54.5q-50 0 -96 16t-109 49q-73 38 -99 38q-32 0 -56 -23.5t-65 -82.5l-115 60q98 217 256 217z" />
    <glyph glyph-name="itilde" unicode="&#x129;" horiz-adv-x="721" 
d="M35 824v126q202 44 367 44q224 0 224 -95v-660q0 -55 9 -92h133l13 -114q-193 -44 -354 -44q-226 0 -226 106q0 19 3 93.5t3 95.5v540h-172zM219 1499q86 0 211 -67q65 -35 87 -35q65 0 115 108l127 -59q-60 -112 -121.5 -166.5t-134.5 -54.5q-50 0 -96 16t-109 49
q-73 38 -99 38q-32 0 -56 -23.5t-65 -82.5l-115 60q98 217 256 217z" />
    <glyph glyph-name="dotlessi" unicode="&#x131;" horiz-adv-x="721" 
d="M35 824v126q202 44 367 44q224 0 224 -95v-660q0 -55 9 -92h133l13 -114q-193 -44 -354 -44q-226 0 -226 106q0 19 3 93.5t3 95.5v540h-172z" />
    <glyph glyph-name="IJ" unicode="&#x132;" horiz-adv-x="1861" 
d="M522 0q-167 0 -420 -11v178h186q6 27 6 92v864q0 59 -5 92h-187v162q211 22 389 22q264 0 425 -16v-168h-188q-5 -38 -5 -92v-864q0 -50 5 -92h188v-178q-234 11 -394 11zM1828 1216h-188q-4 -25 -4 -92v-908q0 -237 -122.5 -364.5t-353.5 -127.5q-203 0 -331 55
q0 29 14 191l14 173h244l14 -236q27 -12 51 -12q104 0 104 107q0 60 -19 128l-35 120q-10 34 -10 62v812q0 59 -5 92h-187v162q211 22 389 22q264 0 425 -16v-168z" />
    <glyph glyph-name="ij" unicode="&#x133;" horiz-adv-x="1748" 
d="M178 1256q0 77 68 116.5t169 39.5q103 0 170.5 -41.5t67.5 -114.5q0 -53 -36.5 -88.5t-88 -50t-113.5 -14.5q-101 0 -169 40.5t-68 112.5zM35 824v126q202 44 367 44q224 0 224 -95v-660q0 -55 9 -92h133l13 -114q-193 -44 -354 -44q-226 0 -226 106q0 19 3 93.5t3 95.5
v540h-172zM950 824v126q199 44 358 44q109 0 171.5 -24.5t62.5 -70.5v-911q0 -220 -111.5 -331t-331.5 -111q-200 0 -283 77l17 301l205 -29l19 -173q18 -9 31 -9q95 0 95 127q0 6 -15 59t-30 125t-15 123v677h-173zM1094 1287q0 77 68 116.5t170 39.5q104 0 170.5 -41.5
t66.5 -114.5q0 -77 -70.5 -115t-166.5 -38q-103 0 -170.5 40.5t-67.5 112.5z" />
    <glyph glyph-name="Jcircumflex" unicode="&#x134;" horiz-adv-x="945" 
d="M499 1534h-218q-49 0 -49 24q0 35 19 54l172 271h342l154 -244q2 -4 8.5 -13.5t9 -13.5t7.5 -12.5t7 -14t3.5 -13t1.5 -14.5q0 -24 -50 -24h-207l-105 174zM1019 1216h-188q-4 -25 -4 -92v-908q0 -237 -122.5 -364.5t-353.5 -127.5q-203 0 -331 55q0 29 14 191l14 173
h244l14 -236q27 -12 51 -12q104 0 104 107q0 60 -19 128l-35 120q-10 34 -10 62v812q0 59 -5 92h-187v162q211 22 389 22q264 0 425 -16v-168z" />
    <glyph glyph-name="jcircumflex" unicode="&#x135;" horiz-adv-x="932" 
d="M134 824v126q199 44 358 44q109 0 171.5 -24.5t62.5 -70.5v-911q0 -220 -111.5 -331t-331.5 -111q-200 0 -283 77l17 301l205 -29l19 -173q18 -9 31 -9q95 0 95 127q0 6 -15 59t-30 125t-15 123v677h-173zM278 1287q0 77 68 116.5t170 39.5q104 0 170.5 -41.5
t66.5 -114.5q0 -77 -70.5 -115t-166.5 -38q-103 0 -170.5 40.5t-67.5 112.5zM371 1146h-218q-49 0 -49 24t19 54l172 271h342l154 -244q2 -4 8.5 -13.5t9 -13.5t7.5 -12.5t7 -14t3.5 -13t1.5 -14.5q0 -24 -50 -24h-207l-105 174z" />
    <glyph glyph-name="kcommaaccent" unicode="&#x137;" horiz-adv-x="1451" 
d="M783 -133q107 0 164.5 -63.5t57.5 -176.5q0 -143 -92 -259t-283 -235l-94 93q116 111 171 268q-67 15 -106 63t-39 122q0 84 65 136t156 52zM35 1251v113q197 48 400 48h32q6 0 19.5 0.5t20.5 0.5q107 0 116 -55q3 -22 3 -60v-669l217 148q18 15 18 27q0 31 -90 31v148
h633v-159q-94 -1 -152.5 -25.5t-145.5 -87.5l-147 -108l270 -414l26 -26l23 -19q24 -17 45.5 -20.5t70.5 -3.5h32l25 -131q-134 11 -335 11h-60q-138 0 -257 -11l-5 131h57l-193 333l-32 -20v-221q6 -52 24.5 -67.5t84.5 -27.5l6 -128q-302 11 -341 11q-148 0 -311 -11
l6 130q10 2 29 5t26 4.5t19.5 6t17 10.5t10.5 16.5t8 26t2 37.5v962q0 40 -3 64h-169z" />
    <glyph glyph-name="kgreenlandic" unicode="&#x138;" horiz-adv-x="1405" 
d="M35 833v113q200 49 456 49q39 0 63 -2.5t45 -15.5t24 -37q3 -22 3 -60v-251l217 148q18 15 18 27q0 31 -90 31v148h633v-159q-94 -1 -152.5 -25.5t-145.5 -87.5l-147 -108l270 -414q28 -42 54 -56.5t58 -14.5q4 0 30 1t55 1l25 -131q-134 11 -335 11q-198 0 -317 -11
l-5 131h57l-193 333l-32 -20v-221q6 -52 24.5 -67.5t84.5 -27.5l6 -128q-302 11 -341 11q-148 0 -311 -11l6 130q10 2 29 5t26 4.5t19.5 6t17 10.5t10.5 16.5t8 26t2 37.5v544q0 40 -3 64h-169z" />
    <glyph glyph-name="Ldot" unicode="&#x13f;" horiz-adv-x="1398" 
d="M872 1215h-187q-7 -29 -7 -86v-962h229q34 0 59 12.5t40 36t23 42t15 45.5q6 23 23.5 77.5t28.5 90.5l235 -32l-42 -439h-421q-645 0 -745 -12v179h122q4 80 4 159v803q0 51 -5 86h-187v162q211 22 389 22q265 0 426 -16v-168zM1265 796q0 -87 -54.5 -139t-145.5 -52
t-145.5 52t-54.5 139q0 84 56.5 136t143.5 52t143.5 -53.5t56.5 -134.5z" />
    <glyph glyph-name="ldot" unicode="&#x140;" horiz-adv-x="1086" 
d="M35 1252v114q194 46 381 46q92 0 133.5 -12t76.5 -53v-1120q0 -61 6 -82h159v-111q-182 -43 -363 -43q-85 0 -138 21.5t-87 69.5v26q5 88 5 175v892q0 50 -4 77h-169zM1160 579q0 -87 -54.5 -139t-145.5 -52t-145.5 52t-54.5 139q0 84 56.5 136t143.5 52q90 0 145 -54.5
t55 -133.5z" />
    <glyph glyph-name="Lslash" unicode="&#x141;" horiz-adv-x="1398" 
d="M95 601l967 483v-224l-967 -482v223zM872 1215h-187q-7 -29 -7 -86v-962h229q34 0 59 12.5t40 36t23 42t15 45.5q6 23 23.5 77.5t28.5 90.5l235 -32l-42 -439h-421q-645 0 -745 -12v179h122q4 80 4 159v803q0 51 -5 86h-187v162q211 22 389 22q265 0 426 -16v-168z" />
    <glyph glyph-name="lslash" unicode="&#x142;" horiz-adv-x="826" 
d="M45 683l734 468v-245l-734 -465v242zM35 1252v114q194 46 381 46q92 0 133.5 -12t76.5 -53v-1120q0 -61 6 -82h159v-111q-182 -43 -363 -43q-85 0 -138 21.5t-87 69.5v26q5 88 5 175v892q0 50 -4 77h-169z" />
    <glyph glyph-name="Nacute" unicode="&#x143;" horiz-adv-x="1754" 
d="M432 0q-160 0 -375 -13v180h206q6 26 6 92v864q0 54 -5 92h-207v155q203 29 414 29q102 0 213 -22q218 -332 525 -782v528q0 68 -8 94h-204v164q116 18 334 18q200 0 366 -13v-169h-182q-5 -32 -5 -92v-1125h-233q-70 0 -175 11l-500 780v-529q0 -14 3 -52t3 -43h198
v-180q-221 13 -374 13zM839 1506h-235l150 369h395z" />
    <glyph glyph-name="nacute" unicode="&#x144;" horiz-adv-x="1498" 
d="M70 824v126q211 44 390 44q53 0 181 -16l5 -108q205 136 386 136q142 0 214.5 -89.5t72.5 -252.5v-416q0 -65 9 -101h133l13 -124q-190 -45 -354 -45q-226 0 -226 107q0 19 3 93t3 96v375q0 159 -87 159q-68 0 -152 -69v-506q0 -54 18.5 -74t74.5 -32l11 -138
q-288 11 -330 11q-148 0 -311 -11l6 137q70 10 91 33t21 106v559h-172zM711 1113h-235l150 369h395z" />
    <glyph glyph-name="OE" unicode="&#x152;" horiz-adv-x="2274" 
d="M1123 -12q-161 -10 -279 -10q-340 0 -535.5 186t-195.5 515q0 331 196 514t535 183h1346l55 -322l-223 -28q-11 82 -41 147q-126 18 -212 18h-217v-426h173q14 0 24.5 8t17.5 25t10.5 30.5t8.5 37t7 33.5h151v-435q-19 -1 -56 -1h-95q-18 86 -32 115t-36 29h-173v-452
h280q82 0 121 13q12 37 32 181q47 -1 126 -1q37 0 83 -0.5t58 -0.5q-6 -231 -13 -345q-235 -15 -404 -15q-611 0 -712 1zM565 676q0 -509 279 -509h279v1020h-279q-134 0 -206.5 -129.5t-72.5 -381.5z" />
    <glyph glyph-name="oe" unicode="&#x153;" horiz-adv-x="1915" 
d="M1469 169q125 0 280 76l18 -150q-163 -117 -424 -117q-204 0 -328 109q-139 -109 -345 -109q-257 0 -415.5 138.5t-158.5 371.5q0 128 47.5 229t129 162.5t182.5 93.5t215 32q198 0 338 -117q138 117 339 117q209 0 339.5 -105.5t130.5 -284.5q0 -105 -50 -139t-181 -34
h-413q24 -130 98 -201.5t198 -71.5zM530 489q0 -174 39 -258t120 -84q84 0 121.5 85t37.5 257q0 178 -38.5 262.5t-120.5 84.5q-84 0 -121.5 -84t-37.5 -263zM1172 590h254v18q0 105 -31.5 171t-87.5 66q-111 0 -135 -255z" />
    <glyph glyph-name="Racute" unicode="&#x154;" horiz-adv-x="1580" 
d="M495 0q-156 0 -400 -11v178h166q6 27 6 92v868q0 56 -5 88h-205v167q348 17 674 17q79 0 144 -4t135.5 -15t125 -30t105 -50t84 -73t53 -102t19.5 -134q0 -110 -82.5 -197t-243.5 -143q66 -29 114 -64t79 -70t57.5 -91t42 -102.5t38.5 -130.5h168v-194q-21 -2 -76.5 -7.5
t-96 -8.5t-80.5 -3q-93 0 -163.5 32.5t-110.5 85t-69 115.5t-47 126t-35.5 115.5t-44 85t-63.5 32.5h-85v-313q0 -50 5 -92h138v-178q-203 11 -347 11zM699 739h51q211 0 211 244q0 125 -54 178.5t-179 53.5h-29v-476zM752 1506h-235l150 369h395z" />
    <glyph glyph-name="Rcommaaccent" unicode="&#x156;" horiz-adv-x="1580" 
d="M495 0q-156 0 -400 -11v178h166q6 27 6 92v868q0 56 -5 88h-205v167q348 17 674 17q79 0 144 -4t135.5 -15t125 -30t105 -50t84 -73t53 -102t19.5 -134q0 -110 -82.5 -197t-243.5 -143q66 -29 114 -64t79 -70t57.5 -91t42 -102.5t38.5 -130.5h168v-194q-21 -2 -76.5 -7.5
t-96 -8.5t-80.5 -3q-93 0 -163.5 32.5t-110.5 85t-69 115.5t-47 126t-35.5 115.5t-44 85t-63.5 32.5h-85v-313q0 -50 5 -92h138v-178q-203 11 -347 11zM699 739h51q211 0 211 244q0 125 -54 178.5t-179 53.5h-29v-476zM839 -133q107 0 164.5 -63.5t57.5 -176.5
q0 -143 -92 -259t-283 -235l-94 93q116 111 171 268q-67 15 -106 63t-39 122q0 84 65 136t156 52z" />
    <glyph glyph-name="rcommaaccent" unicode="&#x157;" horiz-adv-x="1139" 
d="M955 1005q85 0 153 -21l-20 -319h-207l-25 151q-79 0 -151.5 -44t-72.5 -96v-418q0 -82 20 -105t109 -37l11 -127q-321 11 -366 11q-148 0 -311 -11l6 127q80 13 96 27.5t16 80.5v600h-172v123q206 47 425 47q47 0 140 -16v-128q138 155 349 155zM545 -133
q107 0 164.5 -63.5t57.5 -176.5q0 -143 -92 -259t-283 -235l-94 93q116 111 171 268q-67 15 -106 63t-39 122q0 84 65 136t156 52z" />
    <glyph glyph-name="Rcaron" unicode="&#x158;" horiz-adv-x="1580" 
d="M495 0q-156 0 -400 -11v178h166q6 27 6 92v868q0 56 -5 88h-205v167q348 17 674 17q79 0 144 -4t135.5 -15t125 -30t105 -50t84 -73t53 -102t19.5 -134q0 -110 -82.5 -197t-243.5 -143q66 -29 114 -64t79 -70t57.5 -91t42 -102.5t38.5 -130.5h168v-194q-21 -2 -76.5 -7.5
t-96 -8.5t-80.5 -3q-93 0 -163.5 32.5t-110.5 85t-69 115.5t-47 126t-35.5 115.5t-44 85t-63.5 32.5h-85v-313q0 -50 5 -92h138v-178q-203 11 -347 11zM699 739h51q211 0 211 244q0 125 -54 178.5t-179 53.5h-29v-476zM895 1887h207q50 0 50 -24q-2 -27 -12 -43l-17 -26
l-162 -256h-342l-154 244q-37 53 -37 81q0 24 49 24h218l95 -174z" />
    <glyph glyph-name="rcaron" unicode="&#x159;" horiz-adv-x="1139" 
d="M955 1005q85 0 153 -21l-20 -319h-207l-25 151q-79 0 -151.5 -44t-72.5 -96v-418q0 -82 20 -105t109 -37l11 -127q-321 11 -366 11q-148 0 -311 -11l6 127q80 13 96 27.5t16 80.5v600h-172v123q206 47 425 47q47 0 140 -16v-128q138 155 349 155zM675 1494h207
q50 0 50 -24q-2 -27 -12 -43l-17 -26l-162 -256h-342l-154 244q-37 53 -37 81q0 24 49 24h218l95 -174z" />
    <glyph glyph-name="Scaron" unicode="&#x160;" horiz-adv-x="1336" 
d="M637 1240q-58 0 -89.5 -47.5t-31.5 -123.5q0 -89 51 -139t171 -99q47 -19 73 -29.5t73.5 -32t76 -37t69.5 -40t66.5 -46t54.5 -51t45 -59t27 -65t11 -73.5q0 -188 -158 -304t-424 -116q-327 0 -545 152q-47 32 -47 65q0 15 8 45l88 226l303 -120q45 -103 94 -148.5
t108 -45.5q65 0 101.5 55t36.5 135q0 40 -8 72t-29 59t-41 46t-59.5 40.5t-67.5 34.5t-83 36q-221 95 -322.5 187.5t-101.5 214.5q0 174 167.5 277t456.5 103q167 0 293 -33t168 -96l-62 -273l-303 72q-45 78 -86 118t-84 40zM773 1887h207q50 0 50 -24q-2 -27 -12 -43
l-17 -26l-162 -256h-342l-154 244q-37 53 -37 81q0 24 49 24h218l95 -174z" />
    <glyph glyph-name="scaron" unicode="&#x161;" horiz-adv-x="1100" 
d="M566 845q-47 0 -76 -21.5t-29 -62.5q0 -39 25.5 -59.5t82.5 -37.5q227 -72 338.5 -162.5t111.5 -204.5q0 -87 -37 -150.5t-103.5 -99.5t-146 -52.5t-174.5 -16.5q-218 0 -414 74q-57 21 -83 41l49 258l277 -60l12 -125q38 -20 82 -20q49 0 79 24.5t30 66.5q0 21 -10.5 39
t-25.5 30.5t-43 26t-51.5 22.5t-62.5 24t-66 26q-131 55 -200 128.5t-69 175.5q0 145 122 220.5t364 75.5q275 0 421 -108l-55 -235l-231 36l-13 134q-46 13 -104 13zM655 1494h207q50 0 50 -24q-2 -27 -12 -43l-17 -26l-162 -256h-342l-154 244q-37 53 -37 81q0 24 49 24
h218l95 -174z" />
    <glyph glyph-name="Ydieresis" unicode="&#x178;" horiz-adv-x="1576" 
d="M403 147h186q5 32 5 70v275l-377 631q-9 16 -18 33t-14 26.5t-10 18t-10.5 11.5t-13.5 3h-127l-24 172q196 12 366 12h104q163 0 286 -12l15 -172h-128q30 -84 32 -87l208 -376l176 371q13 26 22 92h-156l35 172q124 12 287 12h74q119 0 255 -12l-24 -172h-147
q-7 -10 -46 -92q-1 -2 -9.5 -17.5t-31 -56.5t-56 -102.5t-95.5 -176t-140 -257.5v-274q0 -50 5 -92h188v-158q-234 11 -397 11q-167 0 -420 -11v158zM705 1650q0 -72 -45 -114.5t-120 -42.5t-120 42.5t-45 114.5q0 68 47 111.5t118 43.5q72 0 118.5 -43t46.5 -112z
M1200 1650q0 -72 -45 -114.5t-120 -42.5t-120 42.5t-45 114.5q0 68 47 111.5t118 43.5q72 0 118.5 -43t46.5 -112z" />
    <glyph glyph-name="Zcaron" unicode="&#x17d;" horiz-adv-x="1417" 
d="M126 968l-40 405q437 14 592 14h536q49 0 78.5 -22t29.5 -52v-127l-747 -1006h248q93 0 191 15q39 168 39 298q40 0 106 -4t111 -7l46 -4q11 -274 11 -348q0 -15 -10 -129q-309 -1 -696 -1h-245t-143.5 0.5t-45.5 0.5q-76 0 -76 102v116l732 978h-189q-71 0 -218 -25
q-2 -7 -7 -90v-114h-303zM813 1887h207q50 0 50 -24q-2 -27 -12 -43l-17 -26l-162 -256h-342l-154 244q-37 53 -37 81q0 24 49 24h218l95 -174z" />
    <glyph glyph-name="zcaron" unicode="&#x17e;" horiz-adv-x="1063" 
d="M1002 0h-773q-100 2 -125 9q-67 19 -67 90v103l565 622h-295q-40 0 -52 -13q-27 -37 -29 -165l-173 -10v348h834q71 0 91 -22.5t20 -72.5v-136l-525 -589h272q37 0 58.5 40t56.5 156l142 8v-368zM637 1494h207q50 0 50 -24q-2 -27 -12 -43l-17 -26l-162 -256h-342
l-154 244q-37 53 -37 81q0 24 49 24h218l95 -174z" />
    <glyph glyph-name="florin" unicode="&#x192;" horiz-adv-x="1110" 
d="M1104 1373l-25 -146q-81 21 -106 21q-33 0 -57 -16.5t-40 -52t-25 -70.5t-20 -93l-33 -180h205l-29 -158h-205l-94 -508q-36 -193 -132.5 -276t-300.5 -83q-101 0 -205 10l21 157q57 0 92.5 6t63 19t44 41.5t28 65.5t23.5 100l88 468h-185l29 158h185l54 281
q29 152 135.5 223.5t297.5 71.5q79 0 191 -39z" />
    <glyph glyph-name="uni0200" unicode="&#x200;" horiz-adv-x="1669" 
d="M1318 0q-52 0 -200 -5l-161 -6v124q10 1 29 3t27 3.5t18 4.5t14 10t4 17q0 4 -4 22l-70 217h-336l-40 -134q-14 -45 -14 -83q0 -18 15 -30t32 -16t50 -9l-25 -129q-115 11 -307 11q-235 0 -342 -11l37 133l26 4q64 10 88 34t49 90q61 164 127.5 336.5t110 281.5t111 278
t95.5 241h183q105 0 164 -17t78 -69q424 -1142 426 -1153l140 -20l26 -139q-338 11 -351 11zM804 1006h-4l-131 -463h264q-16 55 -62 222t-67 241zM621 1616l-310 316q0 27 26 40.5t67 13.5h302l150 -370h-235zM1123 1616l-310 316q0 27 26 40.5t67 13.5h302l150 -370h-235z
" />
    <glyph glyph-name="uni0201" unicode="&#x201;" horiz-adv-x="1338" 
d="M698 464h-30q-77 0 -121 -49.5t-44 -132.5q0 -75 23 -109.5t61 -34.5q49 0 111 53v273zM1272 146v-113q-191 -43 -417 -43q-75 51 -120 112q-118 -124 -285 -124q-164 0 -261 77t-97 219q0 309 586 309h20v34q0 128 -11.5 183t-40.5 55q-57 0 -131 -59t-156 -165
l-241 154q0 63 75.5 115t186.5 78.5t227 26.5q256 0 383 -92t127 -312q0 -15 -0.5 -65t-0.5 -85v-177q0 -94 5 -126q42 -2 67 -2h84zM456 1223l-310 316q0 27 26 40.5t67 13.5h302l150 -370h-235zM958 1223l-310 316q0 27 26 40.5t67 13.5h302l150 -370h-235z" />
    <glyph glyph-name="uni0202" unicode="&#x202;" horiz-adv-x="1669" 
d="M1318 0q-52 0 -200 -5l-161 -6v124q10 1 29 3t27 3.5t18 4.5t14 10t4 17q0 4 -4 22l-70 217h-336l-40 -134q-14 -45 -14 -83q0 -18 15 -30t32 -16t50 -9l-25 -129q-115 11 -307 11q-235 0 -342 -11l37 133l26 4q64 10 88 34t49 90q61 164 127.5 336.5t110 281.5t111 278
t95.5 241h183q105 0 164 -17t78 -69q424 -1142 426 -1153l140 -20l26 -139q-338 11 -351 11zM804 1006h-4l-131 -463h264q-16 55 -62 222t-67 241zM834 1794q-91 0 -91 -102h-319q0 74 33 130.5t91 89t130 48.5t156 16q183 0 296.5 -73.5t113.5 -210.5h-319q0 102 -91 102z
" />
    <glyph glyph-name="uni0203" unicode="&#x203;" horiz-adv-x="1338" 
d="M698 464h-30q-77 0 -121 -49.5t-44 -132.5q0 -75 23 -109.5t61 -34.5q49 0 111 53v273zM1272 146v-113q-191 -43 -417 -43q-75 51 -120 112q-118 -124 -285 -124q-164 0 -261 77t-97 219q0 309 586 309h20v34q0 128 -11.5 183t-40.5 55q-57 0 -131 -59t-156 -165
l-241 154q0 63 75.5 115t186.5 78.5t227 26.5q256 0 383 -92t127 -312q0 -15 -0.5 -65t-0.5 -85v-177q0 -94 5 -126q42 -2 67 -2h84zM669 1401q-91 0 -91 -102h-319q0 74 33 130.5t91 89t130 48.5t156 16q183 0 296.5 -73.5t113.5 -210.5h-319q0 102 -91 102z" />
    <glyph glyph-name="uni0204" unicode="&#x204;" horiz-adv-x="1463" 
d="M57 1203v160q371 24 684 24q554 0 595 1l55 -322l-223 -28q-11 82 -41 147q-126 18 -212 18h-217v-426h173q15 0 25.5 8.5t17 25t10.5 31t8 37t7 32.5h151v-435q-19 -1 -56 -1h-95q-18 86 -32 115t-36 29h-173v-452h280q82 0 121 13q12 37 32 181q85 -2 267 -2
q-6 -231 -13 -345q-235 -15 -404 -15q-709 0 -924 2v166h207q5 38 5 78v866q0 54 -5 92h-207zM518 1616l-310 316q0 27 26 40.5t67 13.5h302l150 -370h-235zM1020 1616l-310 316q0 27 26 40.5t67 13.5h302l150 -370h-235z" />
    <glyph glyph-name="uni0205" unicode="&#x205;" horiz-adv-x="1255" 
d="M524 590h254v18q0 105 -31.5 171t-87.5 66q-111 0 -135 -255zM821 169q125 0 280 76l18 -150q-163 -117 -424 -117q-278 0 -438.5 137t-160.5 384q0 224 166 365t437 141q209 0 339.5 -105.5t130.5 -284.5q0 -105 -50 -139t-181 -34h-413q24 -130 98 -201.5t198 -71.5z
M414 1223l-310 316q0 27 26 40.5t67 13.5h302l150 -370h-235zM916 1223l-310 316q0 27 26 40.5t67 13.5h302l150 -370h-235z" />
    <glyph glyph-name="uni0206" unicode="&#x206;" horiz-adv-x="1463" 
d="M57 1203v160q371 24 684 24q554 0 595 1l55 -322l-223 -28q-11 82 -41 147q-126 18 -212 18h-217v-426h173q15 0 25.5 8.5t17 25t10.5 31t8 37t7 32.5h151v-435q-19 -1 -56 -1h-95q-18 86 -32 115t-36 29h-173v-452h280q82 0 121 13q12 37 32 181q85 -2 267 -2
q-6 -231 -13 -345q-235 -15 -404 -15q-709 0 -924 2v166h207q5 38 5 78v866q0 54 -5 92h-207zM731 1794q-91 0 -91 -102h-319q0 74 33 130.5t91 89t130 48.5t156 16q183 0 296.5 -73.5t113.5 -210.5h-319q0 102 -91 102z" />
    <glyph glyph-name="uni0207" unicode="&#x207;" horiz-adv-x="1255" 
d="M524 590h254v18q0 105 -31.5 171t-87.5 66q-111 0 -135 -255zM821 169q125 0 280 76l18 -150q-163 -117 -424 -117q-278 0 -438.5 137t-160.5 384q0 224 166 365t437 141q209 0 339.5 -105.5t130.5 -284.5q0 -105 -50 -139t-181 -34h-413q24 -130 98 -201.5t198 -71.5z
M627 1401q-91 0 -91 -102h-319q0 74 33 130.5t91 89t130 48.5t156 16q183 0 296.5 -73.5t113.5 -210.5h-319q0 102 -91 102z" />
    <glyph glyph-name="uni0208" unicode="&#x208;" horiz-adv-x="928" 
d="M477 0q-167 0 -420 -11v178h186q6 27 6 92v864q0 59 -5 92h-187v162q211 22 389 22q264 0 425 -16v-168h-188q-5 -38 -5 -92v-864q0 -50 5 -92h188v-178q-234 11 -394 11zM251 1616l-310 316q0 27 26 40.5t67 13.5h302l150 -370h-235zM753 1616l-310 316q0 27 26 40.5
t67 13.5h302l150 -370h-235z" />
    <glyph glyph-name="uni0209" unicode="&#x209;" horiz-adv-x="721" 
d="M35 824v126q202 44 367 44q224 0 224 -95v-660q0 -55 9 -92h133l13 -114q-193 -44 -354 -44q-226 0 -226 106q0 19 3 93.5t3 95.5v540h-172zM147 1223l-310 316q0 27 26 40.5t67 13.5h302l150 -370h-235zM649 1223l-310 316q0 27 26 40.5t67 13.5h302l150 -370h-235z" />
    <glyph glyph-name="uni020A" unicode="&#x20a;" horiz-adv-x="928" 
d="M477 0q-167 0 -420 -11v178h186q6 27 6 92v864q0 59 -5 92h-187v162q211 22 389 22q264 0 425 -16v-168h-188q-5 -38 -5 -92v-864q0 -50 5 -92h188v-178q-234 11 -394 11zM464 1794q-91 0 -91 -102h-319q0 74 33 130.5t91 89t130 48.5t156 16q183 0 296.5 -73.5
t113.5 -210.5h-319q0 102 -91 102z" />
    <glyph glyph-name="uni020B" unicode="&#x20b;" horiz-adv-x="816" 
d="M178 1256q0 77 68 116.5t169 39.5q103 0 170.5 -41.5t67.5 -114.5q0 -53 -36.5 -88.5t-88 -50t-113.5 -14.5q-101 0 -169 40.5t-68 112.5zM35 824v126q202 44 367 44q224 0 224 -95v-660q0 -55 9 -92h133l13 -114q-193 -44 -354 -44q-226 0 -226 106q0 19 3 93.5t3 95.5
v540h-172zM408 1401q-91 0 -91 -102h-319q0 74 33 130.5t91 89t130 48.5t156 16q183 0 296.5 -73.5t113.5 -210.5h-319q0 102 -91 102z" />
    <glyph glyph-name="uni020C" unicode="&#x20c;" horiz-adv-x="1687" 
d="M565 686q0 -254 70 -386.5t209 -132.5q135 0 207 130.5t72 391.5q0 264 -71.5 399t-207.5 135q-134 0 -206.5 -135t-72.5 -402zM1574 689q0 -335 -195.5 -523t-534.5 -188q-342 0 -536.5 190.5t-194.5 520.5q0 342 194.5 532.5t536.5 190.5q343 0 536.5 -193t193.5 -530z
M630 1616l-310 316q0 27 26 40.5t67 13.5h302l150 -370h-235zM1132 1616l-310 316q0 27 26 40.5t67 13.5h302l150 -370h-235z" />
    <glyph glyph-name="uni020D" unicode="&#x20d;" horiz-adv-x="1378" 
d="M1282 488q0 -104 -33 -189.5t-89 -144t-132 -99t-161 -59t-177 -18.5q-175 0 -309 61t-209.5 177.5t-75.5 271.5q0 105 33 191.5t89.5 146t133 100.5t161.5 60t177 19q264 0 428 -140.5t164 -376.5zM530 489q0 -174 39 -258t120 -84q84 0 121.5 85t37.5 257
q0 178 -38.5 262.5t-120.5 84.5q-84 0 -121.5 -84t-37.5 -263zM476 1223l-310 316q0 27 26 40.5t67 13.5h302l150 -370h-235zM978 1223l-310 316q0 27 26 40.5t67 13.5h302l150 -370h-235z" />
    <glyph glyph-name="uni020E" unicode="&#x20e;" horiz-adv-x="1687" 
d="M565 686q0 -254 70 -386.5t209 -132.5q135 0 207 130.5t72 391.5q0 264 -71.5 399t-207.5 135q-134 0 -206.5 -135t-72.5 -402zM1574 689q0 -335 -195.5 -523t-534.5 -188q-342 0 -536.5 190.5t-194.5 520.5q0 342 194.5 532.5t536.5 190.5q343 0 536.5 -193t193.5 -530z
M843 1794q-91 0 -91 -102h-319q0 74 33 130.5t91 89t130 48.5t156 16q183 0 296.5 -73.5t113.5 -210.5h-319q0 102 -91 102z" />
    <glyph glyph-name="uni020F" unicode="&#x20f;" horiz-adv-x="1378" 
d="M1282 488q0 -104 -33 -189.5t-89 -144t-132 -99t-161 -59t-177 -18.5q-175 0 -309 61t-209.5 177.5t-75.5 271.5q0 105 33 191.5t89.5 146t133 100.5t161.5 60t177 19q264 0 428 -140.5t164 -376.5zM530 489q0 -174 39 -258t120 -84q84 0 121.5 85t37.5 257
q0 178 -38.5 262.5t-120.5 84.5q-84 0 -121.5 -84t-37.5 -263zM689 1401q-91 0 -91 -102h-319q0 74 33 130.5t91 89t130 48.5t156 16q183 0 296.5 -73.5t113.5 -210.5h-319q0 102 -91 102z" />
    <glyph glyph-name="uni0210" unicode="&#x210;" horiz-adv-x="1580" 
d="M495 0q-156 0 -400 -11v178h166q6 27 6 92v868q0 56 -5 88h-205v167q348 17 674 17q79 0 144 -4t135.5 -15t125 -30t105 -50t84 -73t53 -102t19.5 -134q0 -110 -82.5 -197t-243.5 -143q66 -29 114 -64t79 -70t57.5 -91t42 -102.5t38.5 -130.5h168v-194q-21 -2 -76.5 -7.5
t-96 -8.5t-80.5 -3q-93 0 -163.5 32.5t-110.5 85t-69 115.5t-47 126t-35.5 115.5t-44 85t-63.5 32.5h-85v-313q0 -50 5 -92h138v-178q-203 11 -347 11zM699 739h51q211 0 211 244q0 125 -54 178.5t-179 53.5h-29v-476zM576 1616l-310 316q0 27 26 40.5t67 13.5h302l150 -370
h-235zM1078 1616l-310 316q0 27 26 40.5t67 13.5h302l150 -370h-235z" />
    <glyph glyph-name="uni0211" unicode="&#x211;" horiz-adv-x="1139" 
d="M955 1005q85 0 153 -21l-20 -319h-207l-25 151q-79 0 -151.5 -44t-72.5 -96v-418q0 -82 20 -105t109 -37l11 -127q-321 11 -366 11q-148 0 -311 -11l6 127q80 13 96 27.5t16 80.5v600h-172v123q206 47 425 47q47 0 140 -16v-128q138 155 349 155zM356 1223l-310 316
q0 27 26 40.5t67 13.5h302l150 -370h-235zM858 1223l-310 316q0 27 26 40.5t67 13.5h302l150 -370h-235z" />
    <glyph glyph-name="uni0212" unicode="&#x212;" horiz-adv-x="1580" 
d="M495 0q-156 0 -400 -11v178h166q6 27 6 92v868q0 56 -5 88h-205v167q348 17 674 17q79 0 144 -4t135.5 -15t125 -30t105 -50t84 -73t53 -102t19.5 -134q0 -110 -82.5 -197t-243.5 -143q66 -29 114 -64t79 -70t57.5 -91t42 -102.5t38.5 -130.5h168v-194q-21 -2 -76.5 -7.5
t-96 -8.5t-80.5 -3q-93 0 -163.5 32.5t-110.5 85t-69 115.5t-47 126t-35.5 115.5t-44 85t-63.5 32.5h-85v-313q0 -50 5 -92h138v-178q-203 11 -347 11zM699 739h51q211 0 211 244q0 125 -54 178.5t-179 53.5h-29v-476zM790 1794q-91 0 -91 -102h-319q0 74 33 130.5t91 89
t130 48.5t156 16q183 0 296.5 -73.5t113.5 -210.5h-319q0 102 -91 102z" />
    <glyph glyph-name="uni0213" unicode="&#x213;" horiz-adv-x="1139" 
d="M955 1005q85 0 153 -21l-20 -319h-207l-25 151q-79 0 -151.5 -44t-72.5 -96v-418q0 -82 20 -105t109 -37l11 -127q-321 11 -366 11q-148 0 -311 -11l6 127q80 13 96 27.5t16 80.5v600h-172v123q206 47 425 47q47 0 140 -16v-128q138 155 349 155zM569 1401
q-91 0 -91 -102h-319q0 74 33 130.5t91 89t130 48.5t156 16q183 0 296.5 -73.5t113.5 -210.5h-319q0 102 -91 102z" />
    <glyph glyph-name="uni0214" unicode="&#x214;" horiz-adv-x="1717" 
d="M1684 1215h-188q-5 -38 -5 -92v-609q0 -138 -51 -243.5t-141 -168t-203 -93.5t-246 -31q-314 0 -469.5 148t-155.5 452v545q0 59 -5 92h-187v172q230 12 413 12q263 0 374 -12v-172h-158q-7 -46 -7 -92v-613q0 -159 58 -251t165 -92q54 0 94.5 21.5t65.5 57.5t40 89.5
t21 111.5t6 130v546q0 59 -5 92h-147v172q171 12 365 12q249 0 366 -12v-172zM645 1616l-310 316q0 27 26 40.5t67 13.5h302l150 -370h-235zM1147 1616l-310 316q0 27 26 40.5t67 13.5h302l150 -370h-235z" />
    <glyph glyph-name="uni0215" unicode="&#x215;" horiz-adv-x="1366" 
d="M658 824l-11 126q193 44 355 44q93 0 151 -23.5t58 -71.5v-627q0 -91 8 -125h152v-112q-202 -46 -373 -46q-53 0 -84.5 3.5t-60.5 15.5t-42.5 36.5t-15.5 64.5q-170 -131 -335 -131q-148 0 -235 85.5t-87 232.5v528h-142l-13 126q199 44 360 44q101 0 157.5 -24t56.5 -71
v-621q2 -29 3.5 -43.5t7 -38.5t18.5 -35t32 -11q40 0 90 23.5t79 52.5q3 39 3 151q0 36 1 447h-133zM470 1223l-310 316q0 27 26 40.5t67 13.5h302l150 -370h-235zM972 1223l-310 316q0 27 26 40.5t67 13.5h302l150 -370h-235z" />
    <glyph glyph-name="uni0216" unicode="&#x216;" horiz-adv-x="1717" 
d="M1684 1215h-188q-5 -38 -5 -92v-609q0 -138 -51 -243.5t-141 -168t-203 -93.5t-246 -31q-314 0 -469.5 148t-155.5 452v545q0 59 -5 92h-187v172q230 12 413 12q263 0 374 -12v-172h-158q-7 -46 -7 -92v-613q0 -159 58 -251t165 -92q54 0 94.5 21.5t65.5 57.5t40 89.5
t21 111.5t6 130v546q0 59 -5 92h-147v172q171 12 365 12q249 0 366 -12v-172zM858 1794q-91 0 -91 -102h-319q0 74 33 130.5t91 89t130 48.5t156 16q183 0 296.5 -73.5t113.5 -210.5h-319q0 102 -91 102z" />
    <glyph glyph-name="uni0217" unicode="&#x217;" horiz-adv-x="1366" 
d="M658 824l-11 126q193 44 355 44q93 0 151 -23.5t58 -71.5v-627q0 -91 8 -125h152v-112q-202 -46 -373 -46q-53 0 -84.5 3.5t-60.5 15.5t-42.5 36.5t-15.5 64.5q-170 -131 -335 -131q-148 0 -235 85.5t-87 232.5v528h-142l-13 126q199 44 360 44q101 0 157.5 -24t56.5 -71
v-621q2 -29 3.5 -43.5t7 -38.5t18.5 -35t32 -11q40 0 90 23.5t79 52.5q3 39 3 151q0 36 1 447h-133zM683 1401q-91 0 -91 -102h-319q0 74 33 130.5t91 89t130 48.5t156 16q183 0 296.5 -73.5t113.5 -210.5h-319q0 102 -91 102z" />
    <glyph glyph-name="uni0218" unicode="&#x218;" horiz-adv-x="1336" 
d="M637 1240q-58 0 -89.5 -47.5t-31.5 -123.5q0 -89 51 -139t171 -99q47 -19 73 -29.5t73.5 -32t76 -37t69.5 -40t66.5 -46t54.5 -51t45 -59t27 -65t11 -73.5q0 -188 -158 -304t-424 -116q-327 0 -545 152q-47 32 -47 65q0 15 8 45l88 226l303 -120q45 -103 94 -148.5
t108 -45.5q65 0 101.5 55t36.5 135q0 40 -8 72t-29 59t-41 46t-59.5 40.5t-67.5 34.5t-83 36q-221 95 -322.5 187.5t-101.5 214.5q0 174 167.5 277t456.5 103q167 0 293 -33t168 -96l-62 -273l-303 72q-45 78 -86 118t-84 40zM736 -133q107 0 164.5 -63.5t57.5 -176.5
q0 -143 -92 -259t-283 -235l-94 93q116 111 171 268q-67 15 -106 63t-39 122q0 84 65 136t156 52z" />
    <glyph glyph-name="uni0219" unicode="&#x219;" horiz-adv-x="1100" 
d="M566 845q-47 0 -76 -21.5t-29 -62.5q0 -39 25.5 -59.5t82.5 -37.5q227 -72 338.5 -162.5t111.5 -204.5q0 -87 -37 -150.5t-103.5 -99.5t-146 -52.5t-174.5 -16.5q-218 0 -414 74q-57 21 -83 41l49 258l277 -60l12 -125q38 -20 82 -20q49 0 79 24.5t30 66.5q0 21 -10.5 39
t-25.5 30.5t-43 26t-51.5 22.5t-62.5 24t-66 26q-131 55 -200 128.5t-69 175.5q0 145 122 220.5t364 75.5q275 0 421 -108l-55 -235l-231 36l-13 134q-46 13 -104 13zM588 -133q107 0 164.5 -63.5t57.5 -176.5q0 -143 -92 -259t-283 -235l-94 93q116 111 171 268
q-67 15 -106 63t-39 122q0 84 65 136t156 52z" />
    <glyph glyph-name="uni021A" unicode="&#x21a;" horiz-adv-x="1446" 
d="M736 -133q107 0 164.5 -63.5t57.5 -176.5q0 -143 -92 -259t-283 -235l-94 93q116 111 171 268q-67 15 -106 63t-39 122q0 84 65 136t156 52zM735 0q-167 0 -420 -11v178h186q6 27 6 92v944h-255q-18 -132 -21 -192h-202q0 31 -4.5 179t-4.5 179q51 19 278 19h850
q227 0 278 -19q0 -31 -4.5 -179t-4.5 -179h-202l-20 194h-256v-946q0 -50 5 -92h188v-178q-234 11 -397 11z" />
    <glyph glyph-name="uni021B" unicode="&#x21b;" horiz-adv-x="1069" 
d="M617 -144q107 0 164.5 -63.5t57.5 -176.5q0 -143 -92 -259t-283 -235l-94 93q116 111 171 268q-67 15 -106 63t-39 122q0 84 65 136t156 52zM605 -22q-423 0 -423 333v528h-182v72q0 15 6 26.5t19.5 19t26.5 12t35 7t35.5 3.5t38.5 2t35 2l23 154q6 38 17 63l37 86h330
v-303h292v-54q0 -26 -9 -43.5t-21 -26.5t-35 -14t-39 -5.5t-45 -0.5h-143v-583q0 -98 64 -98q82 0 114 128l12 47h235v-239q-167 -116 -423 -116z" />
    <glyph glyph-name="uni0237" unicode="&#x237;" horiz-adv-x="886" 
d="M236 824v126q199 44 358 44q109 0 171.5 -24.5t62.5 -70.5v-911q0 -221 -120 -332.5t-353 -111.5q-254 0 -363 79l57 271l245 -29l19 -143q36 -9 61 -9q95 0 95 127q0 63 -18 127l-33 119q-9 32 -9 61v677h-173z" />
    <glyph glyph-name="circumflex" unicode="&#x2c6;" horiz-adv-x="1179" 
d="M494 1146h-218q-49 0 -49 24t19 54l172 271h342l154 -244q2 -4 8.5 -13.5t9 -13.5t7.5 -12.5t7 -14t3.5 -13t1.5 -14.5q0 -24 -50 -24h-207l-105 174z" />
    <glyph glyph-name="caron" unicode="&#x2c7;" horiz-adv-x="1182" 
d="M694 1494h207q50 0 50 -24q-2 -27 -12 -43l-17 -26l-162 -256h-342l-154 244q-37 53 -37 81q0 24 49 24h218l95 -174z" />
    <glyph glyph-name="uni02C9" unicode="&#x2c9;" horiz-adv-x="973" 
d="M108 1176v169h758v-169h-758z" />
    <glyph glyph-name="breve" unicode="&#x2d8;" horiz-adv-x="1346" 
d="M672 1309q91 0 91 102h319q0 -74 -33 -130.5t-91 -89t-130 -48.5t-156 -16q-184 0 -297 73t-113 211h319q0 -102 91 -102z" />
    <glyph glyph-name="dotaccent" unicode="&#x2d9;" horiz-adv-x="789" 
d="M588 1321q0 -87 -54.5 -139t-145.5 -52t-145.5 52t-54.5 139q0 84 56.5 136t143.5 52t143.5 -53.5t56.5 -134.5z" />
    <glyph glyph-name="ring" unicode="&#x2da;" horiz-adv-x="682" 
d="M179 1298q0 -54 32.5 -85t86.5 -31t86.5 31t32.5 85q0 51 -32.5 82t-86.5 31t-86.5 -31t-32.5 -82zM298 1109q-91 0 -147.5 51t-56.5 138q0 84 57.5 134.5t146.5 50.5t146.5 -50.5t57.5 -134.5q0 -86 -56.5 -137.5t-147.5 -51.5z" />
    <glyph glyph-name="ogonek" unicode="&#x2db;" horiz-adv-x="1129" 
d="M597 -396q-286 0 -286 169q0 71 95.5 159.5t247.5 167.5l161 -68q-128 -107 -128 -213q0 -33 36 -33q14 0 32 5t37.5 12t22.5 8l81 -113q-127 -94 -299 -94z" />
    <glyph glyph-name="tilde" unicode="&#x2dc;" horiz-adv-x="1147" 
d="M415 1499q86 0 211 -67q65 -35 87 -35q65 0 115 108l127 -59q-60 -112 -121.5 -166.5t-134.5 -54.5q-50 0 -96 16t-109 49q-73 38 -99 38q-32 0 -56 -23.5t-65 -82.5l-115 60q98 217 256 217z" />
    <glyph glyph-name="hungarumlaut" unicode="&#x2dd;" horiz-adv-x="1406" 
d="M423 1113l-235 -1l150 370h302q88 0 93 -54zM925 1113h-235l150 369h302q88 0 93 -54z" />
    <glyph glyph-name="uni0307" unicode="&#x307;" horiz-adv-x="629" 
d="M519 1321q0 -87 -54.5 -139t-145.5 -52t-145.5 52t-54.5 139q0 84 56.5 136t143.5 52t143.5 -53.5t56.5 -134.5z" />
    <glyph glyph-name="uni030F" unicode="&#x30f;" horiz-adv-x="1406" 
d="M481 1223l-310 316q0 27 26 40.5t67 13.5h302l150 -370h-235zM983 1223l-310 316q0 27 26 40.5t67 13.5h302l150 -370h-235z" />
    <glyph glyph-name="uni0311" unicode="&#x311;" horiz-adv-x="964" 
d="M483 1401q-91 0 -91 -102h-319q0 74 33 130.5t91 89t130 48.5t156 16q183 0 296.5 -73.5t113.5 -210.5h-319q0 102 -91 102z" />
    <glyph glyph-name="uni0326" unicode="&#x326;" horiz-adv-x="564" 
d="M295 -109q107 0 164.5 -63.5t57.5 -176.5q0 -143 -92 -259t-283 -235l-94 93q116 111 171 268q-67 15 -106 63t-39 122q0 84 65 136t156 52z" />
    <glyph glyph-name="Delta" unicode="&#x394;" horiz-adv-x="1434" 
d="M1277 0h-1177v73l529 1309l105 25l543 -1334v-73zM1015 131l-382 960l-379 -960h761z" />
    <glyph glyph-name="Delta" unicode="&#x2206;" horiz-adv-x="1434" 
d="M1277 0h-1177v73l529 1309l105 25l543 -1334v-73zM1015 131l-382 960l-379 -960h761z" />
    <glyph glyph-name="Omega" unicode="&#x3a9;" horiz-adv-x="1655" 
d="M90 321h86l4 -10q11 -34 19.5 -54t24 -42t38.5 -32t55 -10h161q-303 261 -303 589q0 144 46 264.5t127 203.5t195 129t247 46q280 0 444 -173.5t164 -451.5q0 -156 -74 -297.5t-245 -309.5h177q59 0 83.5 29.5t55.5 120.5h88l-57 -323h-511l-22 60l44 76q55 95 89 159.5
t68.5 145.5t50.5 158t16 155q0 262 -100.5 407t-278.5 145q-177 0 -274 -141t-97 -416q0 -144 51.5 -285t182.5 -356l30 -48l-26 -60h-506z" />
    <glyph glyph-name="Omega" unicode="&#x2126;" horiz-adv-x="1655" 
d="M90 321h86l4 -10q11 -34 19.5 -54t24 -42t38.5 -32t55 -10h161q-303 261 -303 589q0 144 46 264.5t127 203.5t195 129t247 46q280 0 444 -173.5t164 -451.5q0 -156 -74 -297.5t-245 -309.5h177q59 0 83.5 29.5t55.5 120.5h88l-57 -323h-511l-22 60l44 76q55 95 89 159.5
t68.5 145.5t50.5 158t16 155q0 262 -100.5 407t-278.5 145q-177 0 -274 -141t-97 -416q0 -144 51.5 -285t182.5 -356l30 -48l-26 -60h-506z" />
    <glyph glyph-name="mu.001" unicode="&#x3bc;" horiz-adv-x="1362" 
d="M19 824l-13 126q199 44 360 44q102 0 158 -24t56 -71v-621q2 -29 3.5 -43.5t7 -38.5t18.5 -35t32 -11q39 0 89.5 23.5t79.5 52.5q4 51 4 147v451h-133l-11 126q193 44 355 44q93 0 151 -23.5t58 -71.5v-627q0 -91 8 -125h152v-112q-202 -46 -373 -46q-53 0 -84.5 3.5
t-60.5 15.5t-42.5 36.5t-15.5 64.5q-147 -115 -299 -129v-52q0 -92 43.5 -143.5t132.5 -78.5q1 -17 2.5 -33t2 -23t0.5 -8v-9q-123 -87 -279 -87q-128 0 -194 46t-66 147v1085h-142z" />
    <glyph glyph-name="pi" unicode="&#x3c0;" horiz-adv-x="1368" 
d="M308 737q-45 -23 -96 -62l-99 -75l-97 162q38 46 64.5 74.5t68 59.5t84.5 48t106 28t141 11h880v-211h-219q-10 -138 -10 -374q0 -62 5 -87t19 -25q16 0 78 54l119 -190q-102 -172 -316 -172q-154 0 -210.5 67.5t-56.5 228.5q0 190 20 499h-150q0 -293 -65 -523
q-45 -155 -91 -209q-148 -55 -338 -81l-29 79q174 208 192 698z" />
    <glyph glyph-name="endash" unicode="&#x2013;" horiz-adv-x="1024" 
d="M1131 646v-83q0 -43 -27 -67.5t-73 -24.5h-1041v84q0 57 41.5 74t146.5 17h953z" />
    <glyph glyph-name="emdash" unicode="&#x2014;" horiz-adv-x="1816" 
d="M1826 646v-83q0 -45 -35 -68.5t-94 -23.5h-1707v84q0 57 41.5 74t146.5 17h1648z" />
    <glyph glyph-name="quoteleft" unicode="&#x2018;" horiz-adv-x="676" 
d="M337 678q-107 0 -164.5 63.5t-57.5 176.5q0 141 91.5 257.5t283.5 236.5l94 -93q-116 -111 -171 -268q67 -15 106 -63t39 -122q0 -84 -65 -136t-156 -52z" />
    <glyph glyph-name="quoteright" unicode="&#x2019;" horiz-adv-x="676" 
d="M339 1412q107 0 164.5 -63.5t57.5 -176.5q0 -141 -91.5 -257.5t-283.5 -236.5l-94 93q116 111 171 268q-67 15 -106 63t-39 122q0 84 65 136t156 52z" />
    <glyph glyph-name="quotesinglbase" unicode="&#x201a;" horiz-adv-x="704" 
d="M339 358q107 0 164.5 -63.5t57.5 -176.5q0 -141 -91.5 -257.5t-283.5 -236.5l-94 93q116 111 171 268q-67 15 -106 63t-39 122q0 84 65 136t156 52z" />
    <glyph glyph-name="quotedblleft" unicode="&#x201c;" horiz-adv-x="1223" 
d="M884 678q-107 0 -164.5 63.5t-57.5 176.5q0 141 91.5 257.5t283.5 236.5l94 -93q-116 -111 -171 -268q67 -15 106 -63t39 -122q0 -84 -65 -136t-156 -52zM337 678q-107 0 -164.5 63.5t-57.5 176.5q0 141 91.5 257.5t283.5 236.5l94 -93q-116 -111 -171 -268
q67 -15 106 -63t39 -122q0 -84 -65 -136t-156 -52z" />
    <glyph glyph-name="quotedblright" unicode="&#x201d;" horiz-adv-x="1223" 
d="M339 1412q107 0 164.5 -63.5t57.5 -176.5q0 -141 -91.5 -257.5t-283.5 -236.5l-94 93q116 111 171 268q-67 15 -106 63t-39 122q0 84 65 136t156 52zM886 1412q107 0 164.5 -63.5t57.5 -176.5q0 -141 -91.5 -257.5t-283.5 -236.5l-94 93q116 111 171 268q-67 15 -106 63
t-39 122q0 84 65 136t156 52z" />
    <glyph glyph-name="quotedblbase" unicode="&#x201e;" horiz-adv-x="1225" 
d="M339 358q107 0 164.5 -63.5t57.5 -176.5q0 -141 -91.5 -257.5t-283.5 -236.5l-94 93q116 111 171 268q-67 15 -106 63t-39 122q0 84 65 136t156 52zM860 358q107 0 164.5 -63.5t57.5 -176.5q0 -141 -91.5 -257.5t-283.5 -236.5l-94 93q116 111 171 268q-67 15 -106 63
t-39 122q0 84 65 136t156 52z" />
    <glyph glyph-name="dagger" unicode="&#x2020;" horiz-adv-x="979" 
d="M72 919v145h299v307h195v-307h297v-145h-297v-919h-195v919h-299z" />
    <glyph glyph-name="daggerdbl" unicode="&#x2021;" horiz-adv-x="979" 
d="M72 956v146h299v269h195v-269h297v-146h-297v-540h297v-147h-297v-269h-195v269h-299v147h299v540h-299z" />
    <glyph glyph-name="bullet" unicode="&#x2022;" horiz-adv-x="934" 
d="M468 315q-156 0 -254.5 80.5t-98.5 211.5q0 133 100.5 213t252.5 80q156 0 254 -80.5t98 -211.5q0 -134 -100 -213.5t-252 -79.5z" />
    <glyph glyph-name="ellipsis" unicode="&#x2026;" horiz-adv-x="1868" 
d="M543 169q0 -87 -54.5 -139t-145.5 -52t-145.5 52t-54.5 139q0 84 56.5 136t143.5 52t143.5 -53.5t56.5 -134.5zM1173 169q0 -87 -54.5 -139t-145.5 -52t-145.5 52t-54.5 139q0 84 56.5 136t143.5 52t143.5 -53.5t56.5 -134.5zM1803 169q0 -87 -54.5 -139t-145.5 -52
t-145.5 52t-54.5 139q0 84 56.5 136t143.5 52q90 0 145 -54.5t55 -133.5z" />
    <glyph glyph-name="guilsinglleft" unicode="&#x2039;" horiz-adv-x="723" 
d="M575 129q-42 -36 -109 -63l-332 403v114l338 434q93 -35 119 -53q-30 -88 -207 -425q119 -253 191 -410z" />
    <glyph glyph-name="guilsinglright" unicode="&#x203a;" horiz-adv-x="723" 
d="M133 964q26 18 119 53l339 -434v-114l-333 -403q-64 24 -109 63q72 157 191 410q-178 336 -207 425z" />
    <glyph glyph-name="fraction" unicode="&#x2044;" horiz-adv-x="303" 
d="M363 1443h148q141 0 173 -51q-4 0 -20 -31q-335 -667 -397 -789l-326 -645h-151q-144 0 -171 52q9 20 58 101l-4 -2z" />
    <glyph glyph-name="uni2074" unicode="&#x2074;" horiz-adv-x="819" 
d="M253 780h168v255zM286 533h131q4 17 4 64v63h-325l-33 56q-30 60 -30 118l378 554h175q23 0 35 -0.5t31 -4t28.5 -10.5t17 -20.5t7.5 -33.5v-539h179v-53q0 -19 -6.5 -32.5t-14 -20t-24.5 -10t-28.5 -4t-35.5 -0.5h-70v-63q0 -47 4 -64h131v-125q-173 8 -262 8
q-86 0 -292 -8v125z" />
    <glyph glyph-name="Euro" unicode="&#x20ac;" horiz-adv-x="1593" 
d="M1016 158q77 0 146 11t136.5 35t114.5 45.5t120 58.5l25 -196q-250 -147 -568 -147q-283 0 -467.5 129.5t-238.5 363.5h-229l23 100q10 42 42.5 53.5t109.5 11.5h31v59q0 15 1 22h-185l22 98q4 19 15.5 32.5t23.5 20t34 10t36 4t42 0.5h31q53 263 240 403t491 140
q142 0 279 -33.5t246 -99.5l-23 -277h-329l-27 69q-13 33 -25.5 58.5t-31 52.5t-42.5 41.5t-51 14.5q-234 0 -283 -369h464l-25 -98q-18 -67 -179 -67h-271v-42q0 -13 2 -39h422l-19 -66q-13 -44 -26.5 -62t-49.5 -27.5t-112 -9.5h-194q62 -300 279 -300z" />
    <glyph glyph-name="trademark" unicode="&#x2122;" horiz-adv-x="2037" 
d="M1655 1400q100 0 235 -9v-88h-101l55 -552h98l9 -96q-102 8 -212 8q-97 0 -191 -6l6 94h61l-28 311q-72 -258 -116 -398h-194l-140 399l-33 -310q0 -2 99 -2l-9 -94q-93 6 -166 6q-81 0 -196 -8l10 96h97q23 123 56 518q0 31 -1 34h-107v88q135 9 235 9q78 0 123 -13
l143 -420q117 355 144 420q45 13 123 13zM212 750h99q4 13 4 49v503h-136q-2 -6 -12 -103h-107q0 17 -2.5 95.5t-2.5 95.5q24 10 148 10h453q124 0 148 -10q0 -17 -2.5 -95.5t-2.5 -95.5h-107q-3 29 -6 55.5t-4 37.5l-1 11q-13 -1 -43 -1h-93v-503q0 -27 2 -49h100v-95
q-130 6 -211 6q-84 0 -224 -6v95z" />
    <glyph glyph-name="estimated" unicode="&#x212e;" horiz-adv-x="1860" 
d="M947 64q204 0 392 219h311q-124 -147 -306.5 -229.5t-397.5 -82.5q-127 0 -251 31t-230.5 91.5t-188 142.5t-128 190.5t-46.5 228.5q0 124 49 234.5t132.5 191.5t191.5 140.5t229 89.5t242 30q142 0 273 -35.5t234 -100t179.5 -149.5t117.5 -188.5t41 -212.5v-46h-1196
v-375q175 -170 352 -170zM595 701h700v382q-175 163 -348 163q-176 0 -352 -170v-375z" />
    <glyph glyph-name="partialdiff" unicode="&#x2202;" horiz-adv-x="1223" 
d="M790 901q0 51 -10.5 113t-32.5 129t-65 111.5t-99 44.5q-109 0 -342 -100l-73 156q178 115 383 115q121 0 222 -40.5t170 -109.5t117 -162t70 -195t22 -211q0 -120 -23.5 -233t-72 -212.5t-117.5 -173.5t-167 -117t-213 -43q-211 0 -337 108t-126 295q0 61 19 124.5
t61.5 127t102.5 112.5t150 79.5t197 30.5q87 0 162 -22q2 48 2 73zM484 300q0 -92 20 -152t55 -60q56 0 99.5 59.5t66.5 146.5t34.5 166.5t11.5 137.5q-60 122 -103 122q-44 0 -78 -28.5t-53.5 -71t-32 -101.5t-16.5 -111t-4 -108z" />
    <glyph glyph-name="product" unicode="&#x220f;" horiz-adv-x="1430" 
d="M917 1261h-417q-22 0 -28 -4t-6 -22v-1168q0 -80 21 -97.5t128 -29.5v-105h-552v105l32 3q87 2 114.5 27t27.5 97v1103q0 19 -1 32t-6.5 24t-9 17.5t-17.5 12.5t-22 8.5t-33 5.5t-39 4t-52 4v106h1304v-106q-24 -4 -58 -6t-51.5 -4.5t-36 -11.5t-26 -29.5t-7.5 -56.5
v-1101q0 -34 5 -54.5t14 -34.5t32.5 -21.5t49.5 -11t75 -7.5v-105h-566v105l31 3q85 2 110.5 26.5t25.5 97.5v1159q0 24 -7 29.5t-35 5.5z" />
    <glyph glyph-name="summation" unicode="&#x2211;" horiz-adv-x="1211" 
d="M716 1264h-336l349 -588l-422 -645h464q34 0 56 1t44 7t34.5 10.5t28 21.5t23 29t22 43.5t23.5 55.5t27 74l105 -28l-97 -414h-961v82l437 653l-425 732v86h952l30 -367l-108 -24q-28 153 -67 222q-19 29 -60 39t-119 10z" />
    <glyph glyph-name="minus" unicode="&#x2212;" horiz-adv-x="1145" 
d="M1010 445h-1000v89q0 65 36.5 81.5t147.5 16.5h940v-90q0 -32 -28.5 -54.5t-95.5 -42.5z" />
    <glyph glyph-name="uni2215" unicode="&#x2215;" horiz-adv-x="1078" 
d="M-36 -85l933 1534h185l-932 -1534h-186z" />
    <glyph glyph-name="uni2219" unicode="&#x2219;" horiz-adv-x="578" 
d="M74 570q0 63 67 97t149 34q86 0 150 -37.5t64 -93.5q0 -43 -35 -73.5t-82 -43.5t-97 -13q-86 0 -151 36t-65 94z" />
    <glyph glyph-name="radical" unicode="&#x221a;" horiz-adv-x="1325" 
d="M1238 1670l-314 -1905l-224 -120l-417 1024q-22 -10 -171 -85l-49 147l481 226l199 -507l206 1286z" />
    <glyph glyph-name="infinity" unicode="&#x221e;" horiz-adv-x="1448" 
d="M1400 572q0 -146 -93.5 -242t-230.5 -96q-87 0 -169 49.5t-176 155.5q-30 -36 -51 -58t-57 -53.5t-69.5 -49t-80.5 -31t-98 -13.5q-139 0 -230 97t-91 235q0 150 96 245t240 95q104 0 179 -50t168 -157q88 102 168 154.5t183 52.5q139 0 225.5 -94.5t86.5 -239.5z
M379 746q-72 0 -113.5 -50.5t-41.5 -130.5q0 -75 46 -122t120 -47q55 0 105.5 36.5t136.5 132.5q-13 13 -46 57q-98 124 -207 124zM1233 566q0 81 -42.5 130.5t-114.5 49.5q-52 0 -130 -58t-115 -116l46 -51q114 -125 205 -125q67 0 109 49.5t42 120.5z" />
    <glyph glyph-name="integral" unicode="&#x222b;" horiz-adv-x="684" 
d="M175 -251q40 0 40 187q0 79 -18.5 434.5t-18.5 434.5q0 126 13.5 224.5t45 182.5t91 129.5t144.5 45.5q61 0 108 -30.5t47 -74.5q0 -48 -27 -75t-75 -27q-29 0 -46.5 19.5t-26.5 39t-16 19.5q-43 0 -43 -198q0 -122 19 -409t19 -406q0 -627 -280 -627q-66 0 -108.5 35
t-42.5 93q0 37 23 60.5t61 23.5q23 0 38 -12.5t20 -28t13 -28t20 -12.5z" />
    <glyph glyph-name="approxequal" unicode="&#x2248;" horiz-adv-x="1149" 
d="M976 905l116 -105q-118 -219 -289 -219q-49 0 -107 22t-101.5 48.5t-95 48.5t-89.5 22q-42 0 -82 -32t-100 -120l-115 96q56 106 135.5 163.5t177.5 57.5q51 0 107 -22t96 -48t88.5 -48t87.5 -22q46 0 84.5 37.5t86.5 120.5zM976 498l116 -105q-118 -219 -289 -219
q-49 0 -107 22t-101.5 48.5t-95 48.5t-89.5 22q-42 0 -82 -32t-100 -120l-115 96q56 106 135.5 163.5t177.5 57.5q51 0 107 -22t96 -48t88.5 -48t87.5 -22q46 0 84.5 37.5t86.5 120.5z" />
    <glyph glyph-name="notequal" unicode="&#x2260;" horiz-adv-x="1145" 
d="M1076 461v-89q0 -79 -63 -100h-443l-93 -214h-81q-80 0 -105 51l65 163h-266v91q0 61 18 79.5t83 18.5h245l76 177h-422v90q0 61 23.5 79t92.5 18h386l91 212h81q74 0 105 -48q-8 -19 -31.5 -82.5t-31.5 -81.5h270v-88q0 -42 -14.5 -64.5t-48.5 -34.5h-287l-77 -177h427z
" />
    <glyph glyph-name="lessequal" unicode="&#x2264;" horiz-adv-x="1145" 
d="M1061 302l-919 413v149l919 413v-191l-713 -294l713 -299v-191zM1068 0h-935v167h935v-167z" />
    <glyph glyph-name="greaterequal" unicode="&#x2265;" horiz-adv-x="1145" 
d="M1059 715l-919 -413v191l713 299l-713 294v191l919 -413v-149zM1068 0h-935v167h935v-167z" />
    <glyph glyph-name="lozenge" unicode="&#x25ca;" horiz-adv-x="1122" 
d="M55 714l404 685h163l405 -685l-405 -714h-163zM241 718l303 -587l295 583l-295 554z" />
    <glyph glyph-name="fi" unicode="&#xfb01;" horiz-adv-x="1670" 
d="M909 982h381q190 0 190 -83v-660q0 -55 9 -92h133l13 -114q-193 -44 -354 -44q-226 0 -226 106q0 19 3 93.5t3 95.5v540h-398v-565q0 -82 22.5 -103.5t123.5 -35.5l11 -131l-163 6q-158 5 -211 5q-138 0 -339 -11l6 132l24 3q70 8 88.5 25.5t18.5 74.5v600h-205v74
q0 85 147 85h58v64q0 365 682 365q255 0 471 -63v-224h-324q-11 100 -11 127h-82q-72 0 -114.5 -2t-82.5 -10.5t-59.5 -22t-35.5 -40t-20.5 -62t-4.5 -89.5v-43q88 -1 246 -1z" />
    <glyph glyph-name="fl" unicode="&#xfb02;" horiz-adv-x="1736" 
d="M446 0q-138 0 -339 -11l6 132l24 3q70 8 88.5 25.5t18.5 74.5v600h-205v74q0 85 147 85h58v64q0 365 502 365h627q84 0 123.5 -20.5t39.5 -84.5v-1080q0 -61 6 -82h159v-111q-182 -43 -363 -43q-85 0 -138 21.5t-87 69.5v26q5 88 5 175v892q0 50 -4 77h-342
q-27 0 -40 -2.5t-29 -13.5t-23 -35t-12 -67t-5 -108v-43h258v-73q0 -86 -136 -86h-122v-565q0 -82 22.5 -103.5t123.5 -35.5l11 -131l-163 6q-50 2 -211 5z" />
    <glyph glyph-name="NULL" 
 />
    <glyph glyph-name="CR" horiz-adv-x="1044" 
 />
    <glyph glyph-name="Scommaaccent" horiz-adv-x="1336" 
d="M665 -144q107 0 164.5 -63.5t57.5 -176.5q0 -143 -92 -259t-283 -235l-94 93q116 111 171 268q-67 15 -106 63t-39 122q0 84 65 136t156 52zM637 1240q-58 0 -89.5 -47.5t-31.5 -123.5q0 -89 51 -139t171 -99q47 -19 73 -29.5t73.5 -32t76 -37t69.5 -40t66.5 -46
t54.5 -51t45 -59t27 -65t11 -73.5q0 -188 -158 -304t-424 -116q-327 0 -545 152q-47 32 -47 65q0 15 8 45l88 226l303 -120q45 -103 94 -148.5t108 -45.5q65 0 101.5 55t36.5 135q0 40 -8 72t-29 59t-41 46t-59.5 40.5t-67.5 34.5t-83 36q-221 95 -322.5 187.5t-101.5 214.5
q0 174 167.5 277t456.5 103q167 0 293 -33t168 -96l-62 -273l-303 72q-45 78 -86 118t-84 40z" />
    <glyph glyph-name="scommaaccent" horiz-adv-x="1100" 
d="M571 -144q107 0 164.5 -63.5t57.5 -176.5q0 -143 -92 -259t-283 -235l-94 93q116 111 171 268q-67 15 -106 63t-39 122q0 84 65 136t156 52zM566 845q-47 0 -76 -21.5t-29 -62.5q0 -39 25.5 -59.5t82.5 -37.5q227 -72 338.5 -162.5t111.5 -204.5q0 -87 -37 -150.5
t-103.5 -99.5t-146 -52.5t-174.5 -16.5q-218 0 -414 74q-57 21 -83 41l49 258l277 -60l12 -125q38 -20 82 -20q49 0 79 24.5t30 66.5q0 21 -10.5 39t-25.5 30.5t-43 26t-51.5 22.5t-62.5 24t-66 26q-131 55 -200 128.5t-69 175.5q0 145 122 220.5t364 75.5q275 0 421 -108
l-55 -235l-231 36l-13 134q-46 13 -104 13z" />
    <glyph glyph-name="_323" horiz-adv-x="532" 
 />
    <glyph glyph-name="_324" 
 />
    <glyph glyph-name="_325" horiz-adv-x="1024" 
d="M571 -154q107 0 164.5 -63.5t57.5 -176.5q0 -141 -91.5 -257.5t-283.5 -236.5l-94 93q116 111 171 268q-67 15 -106 63t-39 122q0 84 65 136t156 52z" />
    <glyph glyph-name="_326" horiz-adv-x="678" 
d="M340 1112l-310 316q0 27 26 40.5t67 13.5h302l150 -370h-235z" />
    <glyph glyph-name="_327" horiz-adv-x="678" 
d="M326 1223h-235l150 369h302q89 0 93 -54z" />
    <glyph glyph-name="_328" horiz-adv-x="932" 
d="M372 1146h-218q-49 0 -49 24q0 35 19 54l172 271h342l154 -244q2 -4 8.5 -13.5t9 -13.5t7.5 -12.5t7 -14t3.5 -13t1.5 -14.5q0 -24 -50 -24h-207l-105 174z" />
    <glyph glyph-name="_329" horiz-adv-x="652" 
d="M220 1257q0 -72 -45 -114.5t-120 -42.5t-120 42.5t-45 114.5q0 68 47 111.5t118 43.5q72 0 118.5 -43t46.5 -112zM715 1257q0 -72 -45 -114.5t-120 -42.5t-120 42.5t-45 114.5q0 68 47 111.5t118 43.5q72 0 118.5 -43t46.5 -112z" />
    <glyph glyph-name="_330" horiz-adv-x="932" 
d="M572 1494h207q50 0 50 -24q-2 -27 -12 -43l-179 -282h-342l-154 244q-2 4 -8.5 13.5t-9 13.5t-7.5 12.5t-7 14t-3.5 13t-1.5 14.5q0 24 49 24h218l95 -174z" />
    <glyph glyph-name="_331" horiz-adv-x="800" 
d="M226 1298q0 -54 32.5 -85t86.5 -31t86.5 31t32.5 85q0 51 -32.5 82t-86.5 31t-86.5 -31t-32.5 -82zM345 1109q-91 0 -147.5 51t-56.5 138q0 84 57.5 134.5t146.5 50.5t146.5 -50.5t57.5 -134.5q0 -86 -56.5 -137.5t-147.5 -51.5z" />
    <glyph glyph-name="_332" horiz-adv-x="1229" 
d="M450 1383h-4q-31 0 -57 -20t-66 -70q-55 0 -98 27q91 201 251 201q35 0 72 -10.5t56.5 -20t57.5 -29.5q86 -47 115 -47q65 0 122 91q53 0 102 -28q-106 -202 -234 -202q-29 0 -67 8.5t-56 19.5q-28 14 -62.5 31.5t-47 23.5t-30.5 13.5t-29 9.5t-25 2z" />
    <glyph glyph-name="_333" horiz-adv-x="629" 
d="M519 1321q0 -87 -54.5 -139t-145.5 -52t-145.5 52t-54.5 139q0 84 56.5 136t143.5 52t143.5 -53.5t56.5 -134.5z" />
    <glyph glyph-name="Ldotaccent" horiz-adv-x="1398" 
d="M872 1215h-187q-7 -29 -7 -86v-962h229q34 0 59 12.5t40 36t23 42t15 45.5q6 23 23.5 77.5t28.5 90.5l235 -32l-42 -439h-421q-645 0 -745 -12v179h122q4 80 4 159v803q0 51 -5 86h-187v162q211 22 389 22q265 0 426 -16v-168zM1265 796q0 -87 -54.5 -139t-145.5 -52
t-145.5 52t-54.5 139q0 84 56.5 136t143.5 52t143.5 -53.5t56.5 -134.5z" />
    <glyph glyph-name="nbspace" horiz-adv-x="532" 
 />
    <glyph glyph-name="dotaccentcmb" horiz-adv-x="789" 
d="M588 1321q0 -87 -54.5 -139t-145.5 -52t-145.5 52t-54.5 139q0 84 56.5 136t143.5 52t143.5 -53.5t56.5 -134.5z" />
  </font>
</defs>
</svg>
